<svg width="279" height="218" viewBox="0 0 279 218" fill="none" xmlns="http://www.w3.org/2000/svg">
<path d="M94.5196 48.1883C108.729 54.4275 121.968 59.3974 137.703 60.7493C150.272 61.8292 163.019 61.3102 175.609 60.8732C181.35 60.6739 187.345 60.6244 192.954 59.1743C194.947 58.6589 192.363 59.2839 192.056 59.4342C188.453 61.2009 185.213 64.1073 182.474 66.976C171.298 78.6774 170.897 95.4547 169.848 110.742C169.052 122.348 169.292 134.17 170.817 145.706C172.327 157.134 174.818 167.032 178.419 177.854C179.322 180.569 177.692 180.29 175.134 180.478C168.996 180.931 162.825 180.833 156.682 180.572C141.11 179.912 124.791 177.073 109.247 178.911C104.41 179.482 100.2 181.34 96.6443 184.624C92.7854 188.187 93.8756 184.898 94.5655 181.141C96.2735 171.842 95.9311 162.363 97.4818 153.007C99.5841 140.323 103.206 128.512 106.784 116.234C109.064 108.412 109.752 100.337 109.962 92.2247C110.191 83.4039 110.666 74.0245 108.785 65.3345C107.823 60.8919 105.037 50.1799 100.708 47.7958" stroke="#D15EA8" stroke-width="3" stroke-linecap="round"/>
<path d="M118.669 90.7066C126.627 91.493 134.604 92.1688 142.569 92.9091C146.415 93.2666 150.21 93.8123 154.068 93.9987C154.865 94.0373 155.687 94.0113 156.472 94.1556C158.26 94.484 160.203 94.3748 161.963 94.6983" stroke="#D15EA8" stroke-width="2" stroke-linecap="round"/>
<path d="M116.582 100.806C122.316 101.68 128.248 101.895 134.036 102.238C139.993 102.592 145.933 103.152 151.877 103.678C154.174 103.881 156.673 103.277 158.915 103.689" stroke="#D15EA8" stroke-width="2" stroke-linecap="round"/>
<path d="M116.94 106.462C128.326 108.253 139.745 109.253 151.23 110.017C152.638 110.11 153.983 110.042 155.379 109.976C155.847 109.954 156.156 109.705 156.629 109.792" stroke="#D15EA8" stroke-width="2" stroke-linecap="round"/>
<path d="M115.74 112.997C124.882 113.749 134.003 114.275 143.169 114.657C148.613 114.884 154.14 114.751 159.549 115.453" stroke="#D15EA8" stroke-width="2" stroke-linecap="round"/>
<path d="M116.035 120.273C129.86 122.372 144.043 122.389 157.811 124.917" stroke="#D15EA8" stroke-width="2" stroke-linecap="round"/>
<path d="M114.462 128.836C116.187 128.959 117.946 128.84 119.673 128.861C124.065 128.916 128.314 129.579 132.671 130.032C139.269 130.718 145.909 131.141 152.528 131.557C154.156 131.659 156.109 131.988 157.738 131.66" stroke="#D15EA8" stroke-width="2" stroke-linecap="round"/>
<path d="M112.747 136.907C119.451 137.71 126.18 138.21 132.908 138.747C139.249 139.252 145.451 141.236 151.777 141.565C153.407 141.65 155.213 141.967 156.818 141.74" stroke="#D15EA8" stroke-width="2" stroke-linecap="round"/>
<path d="M111.316 145.962C121.567 146.927 131.828 147.342 142.116 147.659C148.033 147.841 154.095 147.763 159.941 148.836" stroke="#D15EA8" stroke-width="2" stroke-linecap="round"/>
<path d="M112.898 155.105C117.769 154.731 122.646 155.141 127.509 155.459C135.055 155.953 142.615 156.169 150.164 156.617C152.373 156.749 154.576 156.774 156.787 156.773C157.395 156.772 157.921 156.889 158.492 156.723" stroke="#D15EA8" stroke-width="2" stroke-linecap="round"/>
<path d="M107.242 166.878C113.208 166.793 119.116 166.343 125.095 166.417C133.519 166.522 141.964 166.214 150.384 165.989C153.344 165.91 156.011 165.512 158.893 165.106C159.476 165.024 159.935 165.234 160.465 165.006" stroke="#D15EA8" stroke-width="2" stroke-linecap="round"/>
<path d="M128.268 82.8715C127.449 82.8166 126.823 82.5074 126.39 81.9439C125.969 81.3704 125.791 80.5994 125.856 79.6309C125.896 79.0349 126.022 78.3432 126.235 77.5557C126.46 76.7582 126.73 75.9211 127.045 75.0442C127.372 74.1574 127.719 73.2826 128.087 72.42C128.455 71.5573 128.808 70.7578 129.146 70.0214C129.495 69.2751 129.798 68.654 130.056 68.1581C130.203 67.8793 130.394 67.7477 130.628 67.7634C130.947 67.7848 131.094 67.9924 131.067 68.3862C131.059 68.5139 130.983 68.7707 130.839 69.1567C130.696 69.5426 130.509 70.0218 130.278 70.5944C130.048 71.1562 129.797 71.7809 129.527 72.4683C129.256 73.1558 128.979 73.8642 128.695 74.5935C128.422 75.3129 128.166 76.028 127.926 76.7389C127.686 77.4391 127.487 78.0992 127.328 78.7193C127.169 79.3394 127.074 79.8729 127.044 80.3199C127.025 80.6073 127.084 80.8411 127.222 81.0214C127.371 81.1917 127.578 81.2858 127.844 81.3036C128.334 81.3364 128.83 81.2735 129.332 81.1147C129.846 80.946 130.341 80.7333 130.818 80.4766C131.296 80.2093 131.731 79.9444 132.122 79.682C132.525 79.4097 132.866 79.1866 133.145 79.0129C133.425 78.8285 133.618 78.7399 133.724 78.747C133.959 78.7627 134.067 78.8983 134.05 79.1537C134.044 79.2388 133.948 79.3928 133.762 79.6155C133.577 79.8276 133.331 80.0783 133.023 80.3677C132.714 80.6571 132.358 80.9539 131.953 81.2582C131.559 81.5525 131.145 81.8294 130.71 82.089C130.287 82.3386 129.863 82.5346 129.436 82.6771C129.02 82.8309 128.63 82.8957 128.268 82.8715ZM143.915 76.2387C144.069 76.8156 144.215 77.4241 144.354 78.0641C144.503 78.7049 144.616 79.3325 144.693 79.947C144.781 80.5516 144.809 81.088 144.777 81.5563C144.742 82.0884 144.58 82.5158 144.291 82.8386C144.013 83.1514 143.666 83.3847 143.25 83.5385C142.832 83.703 142.398 83.8022 141.947 83.8361C141.505 83.8814 141.098 83.8915 140.726 83.8666C140.428 83.8466 140.225 83.7688 140.116 83.6333C140.018 83.5091 139.973 83.3778 139.982 83.2394C139.989 83.1437 140.032 83.0504 140.113 82.9596C140.195 82.8581 140.391 82.7965 140.703 82.7746C140.939 82.7583 141.209 82.723 141.512 82.6684C141.825 82.6146 142.13 82.5335 142.426 82.425C142.733 82.3173 142.988 82.1793 143.192 82.0112C143.396 81.8325 143.507 81.6101 143.525 81.344C143.564 80.7587 143.519 80.1517 143.39 79.523C143.272 78.895 143.15 78.2507 143.023 77.5901C142.612 78.1398 142.148 78.6807 141.631 79.2127C141.114 79.7446 140.568 80.2479 139.991 80.7224C139.414 81.1968 138.835 81.6124 138.255 81.9691C137.675 82.3258 137.117 82.5985 136.581 82.787C136.044 82.9756 135.553 83.0549 135.106 83.0249C134.371 82.9757 133.792 82.6804 133.369 82.1388C132.946 81.5867 132.77 80.7891 132.84 79.7461C132.879 79.1608 132.978 78.5634 133.136 77.9539C133.305 77.3452 133.503 76.7865 133.73 76.2778C133.968 75.7593 134.204 75.3474 134.438 75.0424C134.673 74.7268 134.881 74.575 135.062 74.5871C135.2 74.5964 135.314 74.6468 135.404 74.7384C135.505 74.8306 135.548 74.9832 135.534 75.1961C135.526 75.3131 135.463 75.5441 135.343 75.8889C135.225 76.223 135.091 76.6203 134.943 77.0807C134.795 77.5305 134.656 78.0077 134.526 78.5121C134.397 79.0059 134.317 79.471 134.288 79.9073C134.25 80.482 134.317 80.9088 134.491 81.1877C134.675 81.4674 134.938 81.6186 135.279 81.6414C135.694 81.6692 136.176 81.5679 136.726 81.3375C137.276 81.1071 137.848 80.7926 138.441 80.394C139.035 79.9848 139.611 79.5316 140.168 79.0344C140.736 78.5273 141.247 78.0056 141.7 77.4694C142.153 76.9331 142.513 76.4174 142.782 75.9222C142.763 75.7179 142.751 75.5086 142.744 75.2943C142.747 75.0807 142.756 74.8675 142.77 74.6546C142.795 74.2928 142.874 73.9934 143.007 73.7564C143.141 73.5089 143.287 73.3209 143.446 73.1925C143.615 73.0648 143.752 73.0046 143.859 73.0117C144.093 73.0274 144.271 73.157 144.394 73.4004C144.517 73.6438 144.563 73.989 144.533 74.436C144.515 74.7021 144.453 74.9866 144.347 75.2895C144.242 75.5924 144.098 75.9088 143.915 76.2387ZM135.72 72.6588C135.422 72.6389 135.193 72.5433 135.034 72.3723C134.885 72.1913 134.821 71.9625 134.839 71.6857C134.861 71.3665 134.984 71.1182 135.21 70.9409C135.447 70.7536 135.704 70.6693 135.98 70.6878C136.289 70.7085 136.528 70.8154 136.697 71.0084C136.877 71.1915 136.956 71.4427 136.935 71.762C136.919 71.9962 136.787 72.2118 136.539 72.409C136.302 72.5962 136.029 72.6795 135.72 72.6588ZM145.965 78.2843C145.679 78.2438 145.559 78.0486 145.603 77.6989C145.62 77.6144 145.685 77.5172 145.799 77.4073C145.914 77.2867 146.041 77.2257 146.18 77.2244C146.513 77.2145 146.92 77.1938 147.403 77.162C147.898 77.1203 148.441 77.0712 149.033 77.0146C149.174 76.5002 149.339 75.9607 149.526 75.396C149.714 74.8312 149.916 74.2835 150.133 73.7529C150.351 73.2116 150.577 72.7242 150.809 72.2907C151.041 71.8573 151.277 71.5203 151.518 71.2799C151.643 71.1707 151.755 71.098 151.853 71.0618C151.953 71.015 152.039 70.9941 152.114 70.9991C152.263 71.0091 152.376 71.0808 152.452 71.2142C152.54 71.3484 152.578 71.4952 152.567 71.6549C152.561 71.74 152.54 71.8241 152.502 71.9071C152.249 72.4888 151.971 73.2079 151.668 74.0642C151.365 74.9205 151.04 75.8555 150.694 76.8693C151.684 76.7753 152.675 76.6706 153.666 76.5553C154.657 76.44 155.509 76.3314 156.221 76.2294C156.429 76.1578 156.583 76.1841 156.681 76.3083C156.79 76.4333 156.841 76.5543 156.833 76.6713C156.823 76.8203 156.773 76.9292 156.683 76.998C156.604 77.0675 156.52 77.126 156.431 77.1735L156.414 77.1884C156.195 77.2593 155.869 77.339 155.436 77.4276C155.003 77.5055 154.505 77.5897 153.943 77.6804C153.382 77.7604 152.784 77.8379 152.148 77.9129C151.523 77.9886 150.904 78.054 150.291 78.1091C149.983 79.0293 149.668 79.9757 149.347 80.9484C149.036 81.9111 148.727 82.8579 148.419 83.7887C148.287 84.1647 148.148 84.396 148.003 84.4825C147.868 84.5803 147.727 84.6243 147.578 84.6143C147.407 84.6029 147.263 84.5291 147.143 84.3928C147.035 84.2572 147.036 83.9954 147.148 83.6073L148.678 78.2416C148.033 78.2946 147.464 78.326 146.972 78.3358C146.49 78.3462 146.155 78.3291 145.965 78.2843Z" fill="#D15EA8"/>
<path d="M224.687 81.3852C221.573 78.2039 218.309 75.1725 215.498 71.6955C212.151 67.5563 210.456 62.7469 210.133 57.5631C209.179 42.2992 213.361 28.4821 222.771 16.4272C226.118 12.1382 230.659 9.46148 236.34 8.91747C244.744 8.10934 250.291 11.0896 253.851 19.0171C257.955 28.1628 260.694 37.7185 261.743 47.7157C262.133 51.4291 262.488 55.1466 262.839 58.8679C263.399 64.7732 261.585 70.2764 259.965 75.819C257.793 83.2419 254.399 90.2668 252.881 97.8987C252.049 102.081 251.367 106.28 251.068 110.533C251.036 110.986 251.115 111.463 250.772 111.842C249.558 111.795 249.79 110.801 249.79 110.139C249.783 106.599 249.739 103.059 249.365 99.5347C249.309 99.0143 249.337 98.4861 249.27 97.9657C248.348 90.6019 247.524 89.4311 240.779 86.3917C236.174 84.3181 231.59 82.2012 226.91 80.2933C225.566 79.7453 224.774 79.6625 224.699 81.3813L224.687 81.3852Z" fill="#AFEEEE"/>
<path d="M224.687 81.3851C224.774 80.5061 224.048 79.8398 223.938 78.7676C227.056 79.5954 229.796 80.9476 232.583 82.142C236.135 83.6637 239.525 85.5953 243.144 86.908C247.524 88.5006 248.876 91.8948 249.463 95.9631C250.118 100.504 250.338 105.069 250.291 109.658C250.283 110.395 249.96 111.258 250.76 111.846C250.524 116.017 250.287 120.187 250.05 124.358C249.79 124.906 249.924 125.793 248.998 125.785C248.34 125.777 247.969 125.233 247.725 124.697C244.224 117.065 238.977 110.458 235.023 103.09C234.885 102.314 234.743 101.537 234.605 100.761C234.519 100.315 234.345 99.8539 234.416 99.4124C235.035 95.6319 233.052 92.8015 231.01 89.9908C229.481 87.8857 227.715 85.9619 226.244 83.8135C225.724 83.0053 225.207 82.1972 224.687 81.3891V81.3851Z" fill="#A0DADA"/>
<path d="M235.023 103.09C236.62 103.733 236.797 105.444 237.574 106.658C241.311 112.508 245.304 118.216 248.17 124.583C249.065 126.574 249.451 124.654 250.054 124.362C250.275 125.261 250.37 126.144 249.774 127.161C248.88 125.923 247.78 126.041 246.534 126.392C242.371 127.571 238.275 127.496 234.353 125.45C233.746 125.135 232.961 125.001 233.174 123.952C234.574 117.069 234.526 110.052 235.027 103.086L235.023 103.09Z" fill="#AFEEEE"/>
<path d="M226.244 83.8135C229.37 86.4153 231.452 89.8331 233.703 93.1405C235.37 95.5885 235.067 98.1312 234.605 100.761C232.804 97.2324 230.963 93.72 229.209 90.1642C228.176 88.0709 226.871 86.096 226.24 83.8135H226.244Z" fill="#AFEEEE"/>
<path d="M241.291 9.65067C241.461 9.54029 241.508 9.4851 241.563 9.47721C243.1 9.27222 244.74 10.7742 245.86 10.0843C246.972 9.39837 247.445 7.64019 248.533 6.55611C252.1 3.00427 256.417 0.89919 261.333 0.138363C266.781 -0.705247 270.569 2.36172 270.92 7.89249C271.026 9.56789 271.582 10.7978 272.58 12.1145C277.555 18.6741 279.348 26.0538 277.846 34.1903C276.936 39.1297 275.063 43.7499 273.175 48.3661C273.151 48.4252 273.124 48.4883 273.096 48.5474C272.497 49.7892 271.767 51.0191 270.143 50.4593C268.555 49.9114 268.598 48.508 268.949 47.148C269.67 44.353 270.482 41.5857 271.16 38.7828C272.304 34.0602 273.396 29.3336 272.568 24.3941C272.229 22.364 271.559 20.4599 270.806 18.5717C270.329 17.3851 269.997 16.2537 268.105 16.5178C266.67 16.7189 266.351 15.2721 266.343 13.983C266.327 11.535 265.271 10.5179 262.839 11.0619C259.567 11.7991 256.378 12.8044 254.623 16.1512C253.945 17.4482 252.727 17.322 251.785 16.4666C249.404 14.3102 246.625 12.9068 243.664 11.7558C242.679 11.3734 241.693 10.782 241.287 9.65461L241.291 9.65067ZM264.64 6.99369C265.007 6.85177 265.894 7.6599 266.134 6.7138C266.312 6.01999 265.748 5.35771 265.188 4.86495C264.23 4.02134 263.103 3.82423 261.873 4.03711C257.667 4.77034 253.835 6.41814 250.354 8.86619C247.673 10.7505 247.701 10.7899 250.342 12.4299C250.452 12.5008 250.579 12.556 250.673 12.6427C251.627 13.5376 252.219 13.4075 253.173 12.3628C256.169 9.09089 259.969 7.30117 264.636 6.98975L264.64 6.99369Z" fill="#D15EA8"/>
<path d="M255.353 35.9249C256.839 42.654 256.449 49.0718 256.717 55.7537C257.836 54.9337 258.317 53.5027 259.748 53.6289C261.329 53.7668 261.298 55.3279 261.917 56.3174C262.125 56.2858 262.334 56.2543 262.543 56.2228C262.543 52.8562 262.543 49.4857 262.543 46.1192C262.543 39.4412 260.627 33.1772 258.396 26.9842C258.045 26.0065 257.348 24.5795 258.31 24.0986C259.358 23.5782 259.827 25.1353 260.359 25.9435C265.291 33.4768 267.207 41.7552 266.422 50.6959C266.261 52.5251 266.178 54.3621 266.008 56.1952C265.866 57.7444 265.145 58.8837 263.434 58.8206C262.394 58.7812 262.401 59.2818 262.461 60.0111C262.725 63.082 261.16 65.5695 259.811 68.1122C259.342 68.9952 258.534 69.5353 257.517 69.0228C256.394 68.4591 256.457 67.4696 256.906 66.4801C257.45 65.2857 258.045 64.1149 258.589 62.9244C259.051 61.9191 259.39 60.8863 258.901 59.4553C258.187 60.5473 257.671 61.4224 257.068 62.2345C256.536 62.9559 255.818 63.4447 254.86 63.1372C253.961 62.8494 253.756 62.0847 253.749 61.249C253.674 53.6998 253.571 46.1546 254.17 38.6173C254.233 37.8368 254.371 37.0681 255.345 35.9328L255.353 35.9249Z" fill="#D15EA8"/>
<path d="M243.459 12.1501C242.841 13.1711 241.938 13.4746 241.197 13.9359C238.189 15.7965 235.761 18.2564 233.64 21.0474C233.056 21.8122 232.378 22.5375 234.01 22.9593C234.842 23.1762 235.236 23.9409 235.142 24.824C235.047 25.703 234.471 26.2825 233.651 26.4718C232.437 26.7477 231.199 26.9212 229.966 27.0828C225.345 27.6938 220.721 28.2891 216.097 28.8843C213.208 29.2549 211.595 27.9106 211.457 24.9895C211.355 22.7859 212.116 20.8543 213.488 19.171C217.836 13.8452 223.765 11.1449 230.171 9.33149C232.82 8.58249 235.559 8.12126 238.343 8.40903C238.965 8.47211 239.963 8.44057 240.006 9.15015C240.057 10.0174 238.997 9.80059 238.441 9.90309C231.318 11.2158 225.05 14.4326 219.2 18.5521C217.363 19.8451 215.778 21.4338 215.06 23.6729C214.903 24.1656 214.662 24.7294 215.049 25.1748C215.502 25.6991 216.03 25.2103 216.495 25.0841C220.177 24.0907 223.887 23.2471 227.707 23.0185C228.791 22.9554 229.437 22.5494 230.021 21.5678C232.386 17.5705 235.686 14.5351 239.923 12.5758C240.98 12.087 242.076 11.7992 243.455 12.154L243.459 12.1501Z" fill="#D15EA8"/>
<path d="M245.868 19.7858C247.138 19.565 248.296 19.2654 249.073 20.4008C249.893 21.5992 248.99 22.5019 248.427 23.4322C247.954 24.2167 247.504 25.0406 246.901 25.7187C246.132 26.578 245.092 26.8067 244.445 25.6792C243.795 24.5478 243.31 25.013 242.636 25.5176C242.119 25.9079 241.587 26.3612 240.992 26.5465C239.754 26.9328 238.709 25.9828 239.222 24.8474C240.617 21.7568 242.423 18.9461 245.722 17.527C246.377 17.2431 247.086 17.0854 247.918 17.5782C247.516 18.5164 246.294 18.6544 245.868 19.7858Z" fill="#D15EA8"/>
<path d="M221.821 41.231C221.08 41.3571 220.701 41.0102 220.485 40.4977C220.13 39.6581 221.352 37.0484 222.334 36.394C222.842 36.055 223.335 36.0432 223.749 36.4334C223.95 36.6227 224.139 37.1154 224.033 37.2968C223.414 38.369 223.102 39.5556 222.669 40.6948C222.515 41.0969 222.136 41.2507 221.821 41.231Z" fill="#D15EA8"/>
<path d="M237.657 41.4712C237.684 40.5724 237.495 39.4371 238.8 39.3898C239.671 39.3582 240.03 40.2176 239.825 40.9627C239.592 41.8063 240.152 43.2333 238.721 43.3437C237.475 43.4422 237.645 42.3187 237.657 41.4751V41.4712Z" fill="#D15EA8"/>
<path d="M226.982 64.4858C229.133 64.4858 231.206 64.6442 233.21 63.7331C234.288 63.243 235.386 62.7615 236.241 61.9185C236.866 61.3015 237.389 60.5969 237.839 59.8462" stroke="#D15EA8" stroke-width="3" stroke-linecap="round"/>
<path d="M4.5856 146.172C4.30325 158.913 6.2528 171.413 8.71329 183.859C9.20181 186.337 9.50211 188.86 9.80239 191.37C9.90547 192.217 10.0488 192.742 11.0438 192.845C15.1894 193.266 19.3351 193.741 23.4763 194.23C24.9597 194.404 25.6902 194.203 25.2734 192.361C24.6953 189.811 24.9284 187.18 25.1569 184.58C25.4796 180.928 27.223 178.396 30.9339 177.557C34.9272 176.652 38.9025 175.603 42.9406 175.003C55.6599 173.103 61.9657 163.642 63.2609 152.267C64.1842 144.168 62.9517 136.209 61.8492 128.244C60.6526 119.608 59.3081 110.99 56.0184 102.833C53.8582 97.4861 51.3439 92.3455 47.3551 88.0609C39.9199 80.0744 29.1815 81.9657 23.0415 88.0699C18.3132 92.7713 15.5749 98.5751 13.1682 104.652C9.00464 115.176 6.70993 126.183 4.67072 137.235C4.13739 140.121 4.59008 143.191 4.59008 146.176L4.5856 146.172Z" fill="#AFEEEE"/>
<path d="M7.11801 121.338C6.87151 115.866 7.109 110.51 10.7123 106.002C11.8911 104.527 13.2222 103.227 15.0149 102.519C15.9919 102.134 16.942 101.793 17.8204 102.9C18.4165 103.649 19.3487 103.823 20.2585 103.317C20.8994 102.958 21.2131 102.367 21.1414 101.632C21.0428 100.592 20.2585 100.404 19.4025 100.229C17.7353 99.8839 18.2328 98.4587 17.8518 97.1142C25.2244 100.292 32.8748 99.1444 40.2831 100C45.0517 100.552 49.7755 101.166 53.9391 103.823C54.4545 104.155 54.9923 104.496 55.5794 104.047C56.1441 103.617 56.1665 102.918 55.8752 102.412C53.6433 98.5394 53.9211 93.6005 50.3716 90.0285C53.2264 89.3966 52.0164 88.1327 51.0349 86.954C49.0584 84.5787 46.4187 83.2028 43.5638 82.2123C39.7319 80.8812 35.7699 80.1641 31.7184 80.0117C24.5252 79.7428 18.2014 84.117 15.6558 90.9024C14.607 93.7036 13.6479 96.4778 13.9482 99.5343C14.0468 100.543 13.7869 101.332 12.8636 102.022C8.22498 105.495 6.19919 110.367 5.94373 115.978C5.73757 120.505 4.84122 125.049 5.9527 129.576C6.04682 129.966 6.03339 130.315 5.69278 130.58C4.13312 131.803 3.61323 133.591 3.10679 135.783C1.90119 133.793 1.47096 131.92 1.39477 130.06C1.10346 122.714 2.02667 115.601 5.89892 109.134C6.32469 108.426 6.746 107.696 6.65189 106.835C6.53088 105.746 5.93929 104.975 4.8054 104.948C3.5998 104.921 2.98577 105.715 3.15608 106.844C3.42499 108.641 2.84685 110.241 2.27318 111.855C0.233977 117.582 -0.182851 123.512 0.0636461 129.522C0.0905367 130.19 0.229487 130.853 0.359458 131.512C1.1124 135.339 3.07993 138.75 4.08832 142.501C4.45135 143.855 5.44179 144.984 6.46812 145.988C7.00145 146.508 7.5617 147.104 8.40428 146.839C9.26926 146.566 9.36335 145.768 9.39024 145.006C9.41713 144.101 9.4037 143.245 8.39082 142.73C5.01156 141 3.82388 136.491 5.86309 133.278C6.10062 132.906 6.30679 132.422 6.8222 132.44C7.36001 132.462 7.45413 133.004 7.61548 133.394C9.19306 137.199 10.3897 141.116 11.165 145.163C11.3174 145.961 11.2322 147.064 12.3885 146.88C13.491 146.705 13.1594 145.629 13.1191 144.836C12.7829 137.894 12.7829 130.934 13.5852 124.041C14.0199 120.312 15.9067 116.834 16.3863 113.029C16.6104 111.259 17.1482 109.533 17.4978 107.776C17.6412 107.05 17.798 106.235 16.9286 105.809C16.095 105.401 15.5258 105.952 14.9745 106.481C12.9577 108.417 11.3667 110.627 10.3673 113.275C9.34545 115.982 8.20259 118.64 7.11352 121.325L7.11801 121.338ZM53.7598 102.049C50.9184 101.107 48.4086 100.171 45.7688 99.6419C39.3823 98.3512 32.8568 98.2974 26.421 97.4189C24.0456 97.0963 21.9213 96.4016 20.3885 94.4117C19.5997 93.3898 18.6541 92.7355 17.3096 93.5108C16.6104 93.9142 16.0367 93.7528 16.1532 92.9013C16.5924 89.782 18.6541 87.5904 20.5454 85.2599C21.7913 83.7226 22.961 84.9775 24.1577 84.9507C24.8299 84.9327 25.5022 85.0089 26.17 85.0313C31.9291 85.1927 37.6299 85.8784 43.2769 87.0123C46.0915 87.5814 48.2651 89.5041 49.4752 92.6727C46.5576 89.903 43.2366 88.6974 39.6109 88.2044C33.8294 87.4201 28.012 87.1557 22.1857 87.1646C21.4597 87.1646 20.7067 87.3663 20.012 87.6128C19.1246 87.9265 18.3986 88.5361 18.4524 89.5714C18.5106 90.7008 19.4473 90.9249 20.3571 91.1131C22.2081 91.503 24.077 91.3417 25.9415 91.3506C26.4613 91.3506 27.1156 91.3596 27.1784 90.7008C27.2546 89.8627 26.5061 89.8582 25.9235 89.7865C24.2966 89.5803 22.6653 89.3966 20.6036 89.1545C21.2311 88.6974 21.388 88.5047 21.5717 88.4688C22.1544 88.3478 22.7504 88.2179 23.342 88.2089C29.3969 88.1193 35.4294 88.3523 41.3811 89.6341C44.6484 90.3377 47.2926 92.0274 49.5021 94.4834C50.2819 95.3484 50.8601 96.1954 50.506 97.4862C50.1296 98.8531 50.6001 99.9198 52.1777 100C53.3833 100.063 53.6253 100.753 53.7553 102.058L53.7598 102.049ZM11.5818 138.835C5.84069 132.448 8.28771 112.428 15.3151 109.219C14.6294 113.105 14.8446 117.112 12.644 120.5C11.9 121.643 11.5639 122.719 11.5729 124.027C11.5998 128.948 11.5863 133.869 11.5863 138.839L11.5818 138.835ZM25.9459 82.9339C31.2478 82.3423 36.4871 82.2571 41.2781 85.1703C36.1509 84.5742 31.0551 83.7316 25.9459 82.9339ZM48.7043 86.7075C48.6147 86.8913 48.5251 87.075 48.431 87.2632C45.9167 85.8067 43.4069 84.3456 40.8926 82.889C43.8327 83.5254 46.5889 84.5025 48.6999 86.712L48.7043 86.7075Z" fill="#D15EA8"/>
<path d="M49.0045 126.949C48.3143 130.996 49.9457 134.151 51.967 137.181C54.3602 140.771 59.2991 142.909 63.521 138.351C64.3815 137.419 65.3182 136.558 66.21 135.657C70.4139 131.409 70.8128 125.797 67.2677 120.912C66.963 120.491 66.6134 120.079 66.4207 119.608C65.3002 116.847 64.5249 116.493 61.7955 117.596C59.6532 118.461 57.5243 119.375 55.3686 120.204C52.8005 121.195 50.5462 122.548 49.2644 125.264C47.2297 122.817 45.065 124.547 43.0258 124.919C41.8382 125.134 40.8522 125.914 40.6146 123.897C40.5026 122.96 39.6286 122.346 38.5754 122.674C37.4595 123.019 37.1323 123.946 37.4012 125.004C37.7418 126.367 37.9928 127.805 38.6382 129.029C40.4667 132.511 40.6729 136.303 41.0762 140.072C41.2689 141.887 40.5384 143.11 38.804 143.693C34.5373 145.123 30.199 146.207 25.6634 146.077C22.6472 145.992 20.1822 144.728 18.5374 142.111C16.9464 139.57 15.566 136.921 14.9385 133.963C14.338 131.149 14.9117 129.392 17.4215 128.114C21.8002 125.892 26.2371 123.736 30.9654 122.306C31.5928 122.118 32.283 122.113 32.9463 122.069C33.4079 122.037 34.1071 122.597 34.255 121.813C34.3939 121.056 33.6096 120.899 33.0404 120.823C31.9693 120.675 30.9609 121.056 30.0018 121.441C25.78 123.14 21.5312 124.776 17.3946 126.662C13.6075 128.388 12.6394 130.902 13.8809 134.9C14.6831 137.472 15.8349 139.893 17.1391 142.25C19.0708 145.737 22.1363 147.296 25.9727 147.404C30.6472 147.534 35.1648 146.445 39.5973 145.109C42.0354 144.374 42.8062 142.972 42.7345 140.341C42.6449 136.899 42.134 133.506 41.4572 130.136C40.9732 127.729 41.7978 126.86 44.3031 127.128C45.0426 127.209 45.7821 127.424 46.5171 127.406C47.2431 127.388 47.9647 127.146 49.0135 126.94L49.0045 126.949ZM68.0251 127.447C68.7108 132.309 65.1613 135.039 61.8179 137.813C59.3753 139.839 56.4308 139.624 54.1585 137.378C52.321 135.563 50.9317 133.372 50.4476 130.848C49.9098 128.061 50.0174 125.112 52.7602 123.431C56.1753 121.343 59.9579 120.231 64.0588 120.513C64.8655 120.567 65.4616 120.814 65.9725 121.45C67.317 123.126 68.3478 124.901 68.0251 127.442V127.447Z" fill="#D15EA8"/>
<path d="M51.2094 160.486C48.8654 160.563 46.9338 160.903 45.0246 161.378C44.2716 161.567 43.5769 162.001 43.7786 162.92C43.9848 163.875 44.8094 163.884 45.5668 163.74C47.6509 163.346 49.5242 162.53 51.2139 160.482L51.2094 160.486Z" fill="#D15EA8"/>
<path d="M30.1185 127.187C30.244 128.025 30.6877 128.594 31.5527 128.558C32.4938 128.518 33.0585 127.935 32.9644 126.972C32.8837 126.12 32.2742 125.681 31.4361 125.726C30.5667 125.775 30.1723 126.358 30.1185 127.187Z" fill="#D15EA8"/>
<path d="M57.726 128.451C57.7574 129.289 58.1742 129.845 59.0302 129.916C59.8773 129.988 60.4778 129.544 60.5675 128.702C60.6661 127.752 60.1327 127.133 59.1826 127.088C58.3266 127.048 57.8694 127.613 57.726 128.451Z" fill="#D15EA8"/>
<path d="M45.9131 162.006C43.8343 162.006 42.1463 162.383 40.5378 160.966C39.716 160.242 38.9175 159.39 38.3135 158.484" stroke="#D15EA8" stroke-width="3" stroke-linecap="round"/>
<path d="M49.6205 161.45C45.7978 161.45 40.2019 161.705 38.1284 157.558" stroke="#D15EA8" stroke-width="3" stroke-linecap="round"/>
<path d="M72.1083 39.3808C79.5634 41.624 81.0059 44.4517 87.7753 48.019" stroke="#A0DADA" stroke-width="2" stroke-linecap="round"/>
<path d="M83.932 22.8509C86.1627 27.207 87.7054 31.703 89.7049 36.1239" stroke="#A0DADA" stroke-width="2" stroke-linecap="round"/>
<path d="M106.297 17.302C104.49 28.2746 105.98 23.439 105.529 34.5456" stroke="#A0DADA" stroke-width="2" stroke-linecap="round"/>
<path d="M115.853 39.9856C116.838 38.4014 121.199 31.0655 123.069 31.1054" stroke="#A0DADA" stroke-width="2" stroke-linecap="round"/>
<path d="M82.9202 59.1579C79.0395 58.6033 74.8403 59.1217 71.0894 58.5039" stroke="#A0DADA" stroke-width="2" stroke-linecap="round"/>
<path d="M211.691 182.9C203.907 182.813 201.736 180.496 194.243 178.947" stroke="#A0DADA" stroke-width="2" stroke-linecap="round"/>
<path d="M204.918 202.061C201.566 198.495 198.837 194.603 195.689 190.911" stroke="#A0DADA" stroke-width="2" stroke-linecap="round"/>
<path d="M184.97 213.597C183.662 202.553 183.572 207.613 180.924 196.817" stroke="#A0DADA" stroke-width="2" stroke-linecap="round"/>
<path d="M169.497 194.455C168.99 196.25 166.835 204.508 165.027 204.988" stroke="#A0DADA" stroke-width="2" stroke-linecap="round"/>
<path d="M195.817 166.898C199.7 166.355 203.59 164.692 207.365 164.245" stroke="#A0DADA" stroke-width="2" stroke-linecap="round"/>
</svg>
