<svg width="26" height="26" viewBox="0 0 26 26" fill="none" xmlns="http://www.w3.org/2000/svg">
<ellipse cx="13.0034" cy="13" rx="13.0034" ry="13" fill="#B7B7B7"/>
<path d="M9.62966 18V17.496L13.7737 13.38C14.1657 12.988 14.4597 12.6473 14.6557 12.358C14.8517 12.0593 14.9823 11.784 15.0477 11.532C15.1223 11.28 15.1597 11.0327 15.1597 10.79C15.1597 10.174 14.9497 9.68867 14.5297 9.334C14.1097 8.97 13.4937 8.788 12.6817 8.788C12.0657 8.788 11.5243 8.88133 11.0577 9.068C10.6003 9.25467 10.2037 9.53933 9.86766 9.922L9.36366 9.474C9.737 9.04467 10.2083 8.71333 10.7777 8.48C11.3563 8.24667 12.0097 8.13 12.7377 8.13C13.3817 8.13 13.937 8.23733 14.4037 8.452C14.8797 8.65733 15.2437 8.956 15.4957 9.348C15.757 9.73067 15.8877 10.188 15.8877 10.72C15.8877 11.0373 15.841 11.35 15.7477 11.658C15.6637 11.9567 15.505 12.274 15.2717 12.61C15.0477 12.946 14.721 13.3287 14.2917 13.758L10.3997 17.636L10.1617 17.356H16.3637V18H9.62966Z" fill="#141414"/>
</svg>
