<svg width="21" height="22" viewBox="0 0 21 22" fill="none" xmlns="http://www.w3.org/2000/svg">
<g clipPath="url(#clip0_561_6463)">
<path d="M9.06975 14.7428L5.85547 15.6428L6.75547 12.4285L12.6412 6.57136C12.7077 6.50332 12.7872 6.44927 12.8748 6.41236C12.9625 6.37546 13.0568 6.35645 13.1519 6.35645C13.247 6.35645 13.3413 6.37546 13.429 6.41236C13.5166 6.44927 13.5961 6.50332 13.6626 6.57136L14.9269 7.84278C14.9938 7.90918 15.047 7.98819 15.0833 8.07523C15.1195 8.16227 15.1382 8.25563 15.1382 8.34993C15.1382 8.44422 15.1195 8.53758 15.0833 8.62463C15.047 8.71167 14.9938 8.79067 14.9269 8.85707L9.06975 14.7428Z" stroke="#F6F6F6" strokeWidth="0.75" strokeLinecap="round" strokeLinejoin="round"/>
</g>
<defs>
<clipPath id="clip0_561_6463">
<rect width="10" height="10" fill="white" transform="translate(5.5 6)"/>
</clipPath>
</defs>
</svg>
