<svg width="363" height="75" viewBox="0 0 363 75" fill="none" xmlns="http://www.w3.org/2000/svg">
<rect x="264" y="13.5" width="53" height="53" rx="21" stroke="white" strokeWidth="16"/>
<path d="M206.243 9.14888C206.097 8.75857 205.724 8.5 205.307 8.5H188.418C187.726 8.5 187.244 9.18435 187.475 9.83543L210.263 73.8354C210.405 74.2339 210.782 74.5 211.205 74.5H230.295C230.718 74.5 231.095 74.2339 231.237 73.8354L254.025 9.83543C254.256 9.18435 253.774 8.5 253.082 8.5H235.709C235.285 8.5 234.906 8.76856 234.766 9.16965L221.911 45.8959C221.603 46.7784 220.36 46.7921 220.031 45.9167L206.243 9.14888Z" fill="white"/>
<path d="M1 0.5C0.447693 0.5 0 0.947754 0 1.5V19.5C0 20.0522 0.447693 20.5 1 20.5H28.1011C28.9648 20.5 29.4223 21.5212 28.8473 22.1657L0.253803 54.2155C0.0903393 54.3987 0 54.6357 0 54.8812V73.5C0 74.0522 0.447693 74.5 1 74.5H63C63.5523 74.5 64 74.0522 64 73.5V55.5C64 54.9478 63.5523 54.5 63 54.5H32.6931L63.7356 20.7871C63.9056 20.6025 64 20.3607 64 20.1097V1.5C64 0.947754 63.5523 0.5 63 0.5H1Z" fill="white"/>
<path d="M357 7.5C357 8.05229 357.448 8.5 358 8.5H361.5C362.052 8.5 362.5 8.94771 362.5 9.5V27.5C362.5 28.0523 362.052 28.5 361.5 28.5H358C357.448 28.5 357 28.9477 357 29.5V73.5C357 74.0523 356.552 74.5 356 74.5H338C337.448 74.5 337 74.0523 337 73.5V28.5H333C332.448 28.5 332 28.0523 332 27.5V9.5C332 8.94771 332.448 8.5 333 8.5H337V1C337 0.447723 337.448 0 338 0H356C356.552 0 357 0.447708 357 1V7.5Z" fill="white"/>
<path d="M93.5361 0.50028C94.0767 0.50028 94.5149 0.942069 94.5149 1.48696V25.1539C94.5149 25.7062 94.9627 26.1539 95.5149 26.1539H102.577C102.93 26.1539 103.256 25.9682 103.437 25.6652L118.134 0.962779C118.317 0.667932 118.641 0.492084 118.986 0.500274H143.946C144.714 0.518582 145.163 1.37976 144.742 2.02726L123.173 36.6641C122.969 36.9921 122.972 37.4085 123.181 37.7335L145.84 72.9733C146.266 73.6297 145.799 74.5 145.021 74.5H120.266C119.908 74.5 119.579 74.3027 119.407 73.9859L104.58 46.4138C104.405 46.0896 104.067 45.8874 103.699 45.8874H95.5309C94.9724 45.8874 94.5222 46.3448 94.531 46.9032L94.9522 73.5133C94.9522 74.0582 94.5139 74.5 93.9733 74.5H74.3965C73.8559 74.5 73.4177 74.0582 73.4177 73.5133L72.9805 1.48696C72.9805 0.942069 73.4187 0.50028 73.9593 0.50028H93.5361Z" fill="white"/>
</svg>
