<svg width="63" height="124" viewBox="0 0 63 124" fill="none" xmlns="http://www.w3.org/2000/svg">
<path d="M41.8092 101.91C30.835 101.281 30.7129 123.445 41.7488 122.025C44.2285 121.705 46.1142 120.117 47.5556 118.104C49.1356 115.895 50.5649 112.586 50.4764 109.828C50.3878 107.07 49.6611 105.067 47.5236 103.274C45.6503 101.7 42.4497 100.66 40.0851 101.616C38.5026 102.257 38.7614 105.229 40.3513 105.637L40.4922 105.675C43.0787 106.342 44.1852 102.18 41.7563 101.554L41.6153 101.516L41.8815 105.537C42.1613 105.422 43.454 105.891 43.7701 105.987C44.5549 106.235 45.1446 106.678 45.7066 107.27C46.5506 108.161 46.6956 109.727 46.3914 110.944C45.7291 113.592 44.0456 117.484 40.9468 117.728C35.9723 118.121 36.2974 105.963 41.5457 106.263C44.164 106.414 44.3257 102.05 41.8044 101.905L41.8092 101.91Z" fill="#A0DADA" stroke="#A0DADA" stroke-width="2"/>
<path d="M35.1162 17.8944C26.978 16.0345 18.695 17.7945 14.532 25.5412L14.5366 25.5297C9.66337 34.5921 -2.32101 24.7628 2.1696 16.4272C13.1785 -4.03231 48.6908 -3.98027 59.2295 17.1179C65.7573 30.1942 59.8032 43.3958 50.5438 53.1873C45.9851 58.0048 40.914 62.7778 36.9885 68.101C33.6357 72.6532 38.0066 79.4729 39.911 83.9366C43.8157 93.0887 30.9299 100.475 26.854 90.9211C22.9835 81.8493 18.085 71.0351 23.1303 61.3751C25.472 56.8992 29.5953 52.9741 32.8698 49.1501C36.4374 44.99 40.867 41.4934 44.1305 37.0655C46.8078 33.443 48.7134 27.8339 45.9714 23.6758C43.7665 20.3315 38.8079 18.7404 35.1162 17.8944Z" fill="#A0DADA"/>
<path d="M26.854 90.9211C22.9835 81.8493 18.085 71.0351 23.1303 61.3751C25.472 56.8992 29.5953 52.9741 32.8698 49.1501C36.4374 44.99 40.867 41.4934 44.1305 37.0655C46.8078 33.443 48.7134 27.8339 45.9714 23.6758C43.7665 20.3315 38.8079 18.7404 35.1162 17.8944C26.978 16.0345 18.695 17.7945 14.532 25.5412L14.5366 25.5297C9.66337 34.5921 -2.32101 24.7628 2.1696 16.4272C13.1785 -4.03231 48.6908 -3.98027 59.2295 17.1179C65.7573 30.1941 59.8032 43.3958 50.5438 53.1873C45.9851 58.0048 40.914 62.7778 36.9885 68.101C33.6357 72.6532 38.0066 79.4729 39.911 83.9366C43.8157 93.0887 30.9299 100.475 26.854 90.9211ZM26.854 90.9211L26.5389 90.1825" stroke="#A0DADA"/>
</svg>
