<svg width="240" height="141" viewBox="0 0 240 141" fill="none" xmlns="http://www.w3.org/2000/svg">
<path d="M37.6319 115.296C37.8813 117.601 38.4592 119.834 39.1163 122.047C39.9927 124.992 40.9344 127.919 41.8419 130.856C42.3563 132.524 42.8016 134.218 44.0502 135.545C44.3289 135.84 44.5593 136.045 45.0216 135.991C49.0495 135.519 53.074 135.029 57.049 134.203C58.2138 133.961 58.1816 133.991 57.7497 132.838C56.1506 128.568 54.652 124.266 53.9827 119.73C53.4747 116.287 53.5697 112.898 54.8783 109.6C55.8494 107.153 56.6733 104.647 58.0155 102.356C60.1321 98.7424 63.323 96.2778 66.758 94.0609C67.8023 93.3875 68.8255 92.6802 69.8936 92.0457C72.8412 90.2918 74.0219 87.6005 74.0395 84.2977C74.0579 81.1288 73.7114 77.9841 73.315 74.8437C72.9375 71.8463 72.515 68.8596 71.9197 65.8976C70.6971 59.8186 68.8582 53.9235 66.6012 48.1608C63.3468 39.8536 59.3627 31.9009 54.5246 24.3997C51.9048 20.3404 48.7801 16.6733 44.6842 14.035C39.4052 10.6368 33.5847 9.19617 27.3232 10.0595C20.0804 11.0566 14.3827 14.6471 10.4728 20.8306C7.8664 24.9511 6.9888 29.5363 7.76626 34.376C8.55899 39.3124 10.2785 43.9753 12.0902 48.6092C15.1531 56.4466 19.1452 63.8378 22.9881 71.2998C24.3406 73.9272 25.6175 76.5948 26.8211 79.2947C26.8915 79.4513 26.9239 79.6261 26.9799 79.8109C26.883 79.7972 26.8209 79.8039 26.776 79.7782C26.4807 79.6204 26.3876 79.0515 25.9645 79.232C25.5351 79.4174 25.6999 79.9179 25.6997 80.2785C25.6979 81.5762 26.2053 82.7725 26.5652 83.9831C27.5574 87.3259 28.4804 90.695 29.7202 93.9604C31.3996 98.381 33.0923 102.795 34.7765 107.213C35.502 109.117 36.2246 111.025 36.9465 112.93C37.4093 112.609 37.1646 112.173 37.0955 111.801C36.5376 108.743 35.7906 105.727 34.9862 102.724C33.3378 96.5708 31.2423 90.5592 29.239 84.5186C28.9874 83.7597 28.6091 83.0473 28.336 82.0951C29.5084 83.3843 30.5232 84.5901 31.6525 85.6866C34.9671 88.9071 39.0317 90.8014 43.3264 92.2594C47.9685 93.8362 52.8127 94.2772 57.6635 94.6318C58.4023 94.6849 59.1465 94.6916 59.874 94.8357C60.8615 95.0304 61.0022 95.3798 60.475 96.2511C59.3431 98.1265 58.0815 99.9313 57.1469 101.917C54.7216 107.065 52.7129 112.334 52.6972 118.149C52.686 122.217 52.9341 126.258 53.8018 130.243C53.8716 130.563 53.9717 130.871 54.0757 131.181C54.3352 131.962 54.2658 132.126 53.4491 132.267C51.1146 132.671 48.7721 133.006 46.3944 133.003C46.2765 133.002 46.1572 133.004 46.0393 133.003C43.2731 133.015 43.9522 133.319 43.2428 130.858C41.7914 125.814 40.0808 120.864 38.2865 115.938C38.1779 115.642 38.1768 115.182 37.6392 115.296L37.6319 115.296Z" fill="#AFEEEE"/>
<path d="M37.6317 115.296C38.2991 116.041 38.4185 117.032 38.7439 117.918C39.766 120.709 40.7274 123.524 41.6445 126.352C42.2907 128.342 42.8534 130.359 43.3918 132.381C43.5503 132.979 43.7155 133.305 44.4187 133.278C46.5063 133.196 48.5956 133.272 50.6767 132.925C51.7506 132.746 52.8357 132.606 53.9151 132.437C54.5234 132.341 54.6648 132.055 54.4663 131.53C53.6737 129.431 53.4528 127.217 53.226 125.018C52.5906 118.875 52.8667 112.843 55.1939 106.989C56.6548 103.312 58.4482 99.8431 60.59 96.5346C61.4945 95.1366 61.3222 94.6629 59.6226 94.5512C56.3485 94.3378 53.0913 94.0069 49.8455 93.5488C45.1351 92.8841 40.7479 91.3046 36.5796 89.0283C33.4516 87.3187 31.0296 84.846 28.7556 82.185C28.6591 82.0716 28.5752 81.9484 28.476 81.8392C28.3441 81.6928 28.2161 81.4461 27.9835 81.6184C27.8267 81.7342 27.9315 81.9456 27.996 82.1088C28.3965 83.1194 28.8413 84.116 29.1894 85.1459C29.8966 87.2345 30.5496 89.3427 31.2316 91.4416C31.8861 93.4553 32.5528 95.4666 33.2038 97.481C33.6277 98.7969 34.1036 100.101 34.4326 101.441C35.2905 104.94 36.2354 108.421 36.8713 111.971C36.9272 112.285 37.0824 112.597 36.9459 112.928C37.1765 113.718 37.4067 114.506 37.6355 115.297L37.6317 115.296Z" fill="#A0DADA"/>
<path d="M27.6153 81.0435C27.6281 81.0627 27.643 81.0834 27.6576 81.1023C27.6745 81.0682 27.6914 81.034 27.7079 80.9982C27.6864 80.9897 27.6571 80.9701 27.6442 80.978C27.6281 80.9884 27.6234 81.0202 27.615 81.0417L27.6153 81.0435Z" fill="#A0DADA"/>
<path d="M29.5848 55.5516C30.2753 53.9581 31.3272 52.6001 32.3943 51.2555C37.7595 44.4995 39.6613 36.6629 39.4949 28.2195C39.4056 23.6747 38.2989 19.3106 36.7887 15.0417C35.984 12.7693 34.5296 10.8902 33.1885 8.94184C32.9206 8.55392 32.529 8.3768 32.1309 8.73182C31.7311 9.08718 31.8531 9.51631 32.2145 9.80804C35.2764 12.2825 36.4178 15.7955 37.4588 19.3788C39.6608 26.955 39.4326 34.4735 36.9794 41.945C36.0092 44.8978 34.5978 47.6233 32.7201 50.1047C31.5654 51.6313 30.3742 53.1288 29.2827 54.8587C28.8103 53.7951 28.8069 52.8318 28.8571 51.8654C28.9408 50.2636 29.1842 48.6814 29.5254 47.1181C31.3556 38.7574 31.725 30.2836 31.5488 21.7624C31.4962 19.1853 31.3655 16.6163 31.0761 14.0511C30.8834 12.333 30.2929 10.8504 29.0277 9.64276C28.553 9.18837 28.2129 9.19141 27.6567 9.58097C24.7848 11.5918 23.331 14.4434 22.6081 17.7717C21.576 22.5212 21.4726 27.3501 21.3448 32.1748C21.1978 37.8003 21.1234 43.4262 21.8075 49.0307C22.2546 52.7083 22.7906 56.3686 23.8273 60.0597C23.49 59.8357 23.4173 59.5655 23.2949 59.3285C17.5299 48.1419 15.7986 36.281 17.3793 23.8724C17.6931 21.4085 17.914 18.923 18.6456 16.5296C18.7288 16.2597 18.7805 15.9869 18.4897 15.8245C18.1926 15.6579 17.9901 15.8642 17.8103 16.0751C17.0443 16.9767 16.2787 17.8801 15.4658 18.838C15.3781 18.491 15.5649 18.2787 15.6624 18.064C16.1945 16.8746 16.7684 15.7043 17.4022 14.5622C19.6206 10.552 23.0145 8.41193 27.5749 8.10579C28.4547 8.04617 29.3318 7.88017 30.2148 8.19859C30.6476 8.35497 31.0916 8.19754 31.1375 7.66312C31.1833 7.14684 30.8131 6.87494 30.3385 6.95866C27.8375 7.39133 25.2642 7.46308 22.8978 8.55615C20.8472 9.50413 19.2316 10.9342 17.9562 12.7707C17.196 13.8687 16.5412 15.0331 15.995 16.2523C14.9861 18.4969 13.6656 20.585 12.5733 22.7644C10.7661 26.3663 9.22687 30.1622 9.40799 34.3611C9.42193 34.6827 9.44846 35.0037 9.29114 35.4131C8.66965 32.9473 8.40822 30.5161 8.05016 28.1002C7.94919 27.426 7.88557 26.7481 7.81984 26.0688C7.57782 23.5143 8.97402 21.5545 10.2132 19.5422C10.3674 19.2928 10.6179 19.0916 10.6346 18.7785C10.662 18.2513 10.3915 17.9237 9.8742 17.8636C9.47196 17.8172 9.04508 18.0619 9.13413 18.434C9.43204 19.6894 8.50803 20.5331 8.20528 21.5798C8.1674 21.7104 8.1283 21.872 7.83587 21.9147C7.80101 21.5139 7.77384 21.1151 7.72918 20.7198C7.70199 20.4787 7.64489 20.2145 7.34291 20.2083C7.02628 20.2013 7.00482 20.4809 6.96926 20.7161C6.96064 20.774 6.96003 20.8357 6.96954 20.8936C7.38102 23.2955 6.76951 25.5711 6.21955 27.8836C5.4042 31.3134 5.48544 34.8253 5.71116 38.3161C6.01757 43.054 6.68831 47.7461 7.86366 52.3504C8.37146 54.3366 9.23276 56.1939 10.2775 57.961C10.4399 58.2355 10.664 58.4834 10.7009 58.8204C9.53187 59.0779 9.49358 59.4568 10.0436 60.6303C12.7857 66.4739 16.9033 71.4109 20.4932 76.6974C23.3273 80.8707 25.4877 85.3513 26.6305 90.299C27.0344 92.05 27.4084 93.7688 26.7725 95.5401C26.6447 95.8967 26.6377 96.2966 26.5761 96.6765C26.5216 97.0096 26.475 97.392 26.9029 97.4678C27.2803 97.5354 27.3565 97.1744 27.4394 96.8846C27.755 95.7739 28.0873 94.6653 28.3858 93.5506C28.4695 93.2371 28.7651 92.7934 28.2992 92.6163C27.7996 92.4241 27.9841 93.1363 27.606 93.3062C27.202 91.2762 26.7556 89.2889 26.1506 87.3434C24.8301 83.09 22.7186 79.2303 20.2121 75.5747C18.2355 72.6924 16.2222 69.8355 14.2599 66.9431C13.0915 65.2201 12.2408 63.3245 11.4754 61.3923C11.2605 60.8491 11.1521 60.285 11.1177 59.7011C11.3744 59.6799 11.4355 59.8256 11.5198 59.9414C13.2778 62.4098 15.2868 64.6606 17.4576 66.7747C17.7506 67.0599 18.0362 67.39 18.2104 67.7527C19.3155 70.0697 20.6774 72.2079 22.4436 74.0786C22.494 74.1321 22.5061 74.2222 22.5955 74.4475C21.8025 74.1078 21.1338 73.82 20.4641 73.536C20.1717 73.412 19.8429 73.1573 19.5795 73.4969C19.2685 73.8983 19.6618 74.1494 19.8979 74.3841C22.7164 77.1706 25.3723 80.1539 29.0819 81.9002C28.9993 81.9507 28.9773 81.9768 28.9535 81.976C28.5396 81.9808 27.8864 81.7443 27.8903 82.3759C27.8955 83.0978 28.5573 82.8036 29.003 82.7853C29.9504 82.7469 30.8969 82.7322 31.845 82.6882C32.161 82.6735 32.4647 82.5399 32.4077 82.156C32.3572 81.8235 32.0581 81.804 31.7751 81.8303C30.448 81.9466 29.2717 81.4898 28.1336 80.877C26.2684 79.8718 22.1435 76.1955 20.9785 74.4247C22.3865 74.9449 23.663 75.3205 24.7505 76.157C26.2923 77.3432 27.945 78.3084 29.8862 78.6918C30.2517 78.7635 30.7068 78.997 30.8824 78.4862C31.0696 77.9423 30.5257 77.9127 30.201 77.7533C28.444 76.8937 26.6922 76.0239 24.8665 75.3136C24.6743 75.2388 24.4802 75.1445 24.3242 75.0137C22.37 73.3773 20.9071 71.3621 19.7781 69.0806C21.7739 70.448 23.411 72.3258 25.7404 73.1751C23.962 72.1692 22.5302 70.7024 20.8914 69.5207C18.5459 67.8285 18.0203 65.3711 17.7094 62.7702C17.6956 62.6533 17.7247 62.5335 17.7162 62.4156C17.6779 61.9139 17.4855 61.4949 16.906 61.6172C16.3877 61.7276 16.346 62.1724 16.4724 62.6152C16.8052 63.7804 17.1499 64.9415 17.4884 66.0983C17.3619 66.2299 17.2737 66.1493 17.191 66.0695C13.9273 62.8409 11.0205 59.3523 9.16991 55.0937C8.51838 53.5958 8.01667 52.0487 7.70634 50.4425C6.55268 44.4659 5.71818 38.4633 6.07062 32.35C6.18039 30.4551 6.46892 28.5941 7.12095 26.7852C7.15514 28.5361 7.11922 30.2897 7.234 32.0357C7.71778 39.3589 8.89421 46.5086 12.4781 53.0719C14.5951 56.9504 17.3811 60.247 20.7641 63.0664C21.0133 63.275 21.2556 63.4487 21.5398 63.1974C21.7765 62.9899 21.84 62.6658 21.7617 62.3767C21.6454 61.9483 21.3588 62.0859 21.0569 62.2101C20.6429 62.3816 20.4036 62.0099 20.1415 61.8092C17.1235 59.4947 14.9375 56.4867 13.0682 53.2265C10.1703 48.1707 8.87666 42.6274 8.14974 36.9154C7.86317 34.6613 7.6589 32.4019 7.76058 30.1227C7.90487 30.8609 8.05474 31.5998 8.19414 32.3408C9.13439 37.3553 10.1861 42.3371 12.215 47.0536C13.2407 49.4368 14.7143 51.5531 16.149 53.6934C16.3001 53.9193 16.4607 54.2032 16.7684 54.0071C17.1279 53.7792 16.8882 53.4982 16.7421 53.2422C15.3367 50.7702 14.0005 48.2628 12.7412 45.7132C10.4708 41.1146 9.35554 36.3083 10.1902 31.1697C10.6124 28.5742 11.5992 26.2071 12.8975 23.9041C14.0869 21.7945 15.5062 19.8973 17.0525 18.0658C17.2407 17.8424 17.455 17.6411 17.7227 17.3605C17.8956 17.8467 17.7436 18.237 17.6831 18.613C16.6994 24.6485 16.1686 30.7115 16.5048 36.8351C16.7365 41.0332 17.5875 45.1084 18.7064 49.1458C20.0447 53.9719 22.2417 58.4363 24.4619 62.889C24.8798 63.7295 25.0186 64.3656 24.4389 65.2833C23.287 67.1029 23.2502 70.511 26.0093 72.3634C28.4413 73.997 31.0788 74.5686 33.9406 74.3879C34.2036 74.3709 34.5171 74.3803 34.566 74.0283C34.6121 73.6986 34.3287 73.5837 34.0897 73.4637C33.931 73.3842 33.7717 73.3012 33.6059 73.2412C33.3678 73.1537 33.0765 72.9243 32.8931 73.2374C32.734 73.5077 33.1682 73.5605 33.2479 73.8475C32.5534 74.0394 31.8646 73.9639 31.1794 73.8786C28.866 73.5933 26.8379 72.6906 25.2377 70.9741C23.8871 69.524 23.9009 66.684 25.2726 65.0715C25.4197 65.4902 25.5383 65.8657 25.6822 66.2307C25.7729 66.463 25.932 66.6747 26.2157 66.5504C26.4411 66.452 26.4327 66.2235 26.3743 66.0085C26.3596 65.9516 26.3361 65.8963 26.3214 65.8394C25.9205 64.3632 25.9219 64.3521 27.4664 64.4488C29.2107 64.5572 30.7168 65.292 32.1348 66.2523C32.4126 66.4408 32.6893 66.8179 33.0685 66.5336C33.4324 66.2632 33.1997 65.8883 33.1035 65.5538C32.7135 64.2168 32.3288 62.8787 31.9388 61.5417C31.8244 61.151 31.7081 60.7787 32.3132 60.6949C34.4757 60.3936 36.5804 59.6669 38.8136 59.8392C39.2477 59.8722 39.5357 59.9644 39.7671 60.3142C41.0289 62.2182 42.809 63.6133 44.4582 65.1445C46.4327 66.9781 48.6257 66.6382 50.8773 65.9771C51.364 65.8349 51.7 65.4123 52.017 65.0133C53.0655 63.685 54.023 62.2984 54.8086 60.7932C55.7406 59.0075 56.7067 57.2388 57.6748 55.4714C58.9572 53.1335 59.4646 50.5846 59.6602 47.9699C59.7398 46.9035 60.2002 46.0326 60.7451 45.1959C61.226 44.4587 62.7547 44.8919 63.1711 45.9466C63.8943 47.7838 65.1155 49.2573 66.402 50.6945C67.9012 52.3673 69.864 53.2411 71.9808 53.8094C72.3423 53.9072 72.7493 53.9038 73.1275 53.8643C74.8752 53.684 75.414 52.8901 74.9264 51.2207C74.1138 48.4352 73.3092 45.6446 72.4523 42.8732C71.8649 40.9714 70.9986 40.5066 69.0315 40.8712C67.0889 41.2309 65.2539 41.8451 63.587 42.9391C62.8001 43.4553 61.9819 43.9504 60.9846 43.9931C60.6522 44.0074 60.362 44.1728 60.1662 44.4684C60.1019 44.5661 60.016 44.7478 59.9582 44.7391C58.7278 44.581 59.0225 45.3841 59.063 46.0828C59.0889 46.5488 58.6767 46.5351 58.3541 46.5438C54.8426 46.6268 51.4003 47.258 47.9716 47.9408C45.5021 48.4326 43.2199 49.3914 41.2453 51.0058C39.0585 52.7957 38.0077 55.0485 38.4232 57.8881C38.4964 58.3829 38.3396 58.5911 37.9065 58.7301C36.0106 59.338 34.0482 59.6527 32.104 60.0509C31.7207 60.1294 31.5548 59.9571 31.5006 59.6053C31.3402 58.5532 31.0535 57.5221 31.0596 56.441C31.0662 55.1678 30.6916 54.9566 29.5626 55.5396C29.7491 56.1047 30.0034 56.6547 30.0999 57.232C30.3035 58.4496 31.0632 59.6111 30.4856 60.9198C30.394 61.128 30.5224 61.3402 30.7895 61.3442C30.982 61.3464 31.1354 61.3617 31.2028 61.5769C31.5697 62.7771 32.1073 63.9331 32.2875 65.3745C31.8365 65.1619 31.5257 65.0179 31.2174 64.868C29.8094 64.1811 28.3138 63.6671 26.7644 63.9066C25.6707 64.0769 25.3445 63.6043 25.1083 62.7663C25.0842 62.6804 25.0536 62.5976 25.026 62.5124C23.1507 56.8762 22.318 51.049 21.9015 45.1548C21.5113 39.6542 21.7139 34.1464 21.9287 28.6453C22.0831 24.6797 22.3076 20.7113 23.379 16.8583C24.1326 14.1508 25.4463 11.8339 27.9888 10.3713C28.4433 10.1103 28.7125 10.1157 29.0622 10.4495C29.7234 11.0795 30.1823 11.8142 30.3733 12.7172C30.882 15.1345 31.0118 17.5877 31.0558 20.0469C31.1732 26.7097 31.1497 33.3657 30.221 39.9884C29.7145 43.5987 28.7927 47.1327 28.2727 50.7385C28.0389 52.3605 27.9296 53.9799 28.3868 55.5864C28.483 55.921 28.4837 56.3792 28.9472 56.3774C29.4288 56.3757 29.5148 55.9439 29.572 55.5505L29.5848 55.5516ZM50.2099 48.0741C51.5293 47.8905 52.8494 47.7104 54.1702 47.5247C55.5231 47.3363 56.8835 47.335 58.2455 47.2952C59.1768 47.2672 59.324 47.6407 59.2295 48.4364C58.9213 51.0496 58.3346 53.5632 56.9492 55.8469C56.2586 56.9857 55.6303 58.1648 55.0071 59.3429C54.1326 60.996 53.1676 62.5852 51.9533 64.0202C50.1624 66.1386 47.3256 66.4756 45.0744 64.8302C42.8888 63.2335 41.1413 61.2451 39.7403 58.9442C38.6005 57.0707 38.7348 54.6709 40.0453 52.9218C40.5827 52.2043 41.2295 51.6014 41.946 51.0682C44.4025 49.24 47.2455 48.4995 50.2103 48.0758L50.2099 48.0741ZM74.5187 51.1373C75.0832 52.9874 74.1729 53.3447 72.5126 53.3322C71.9501 53.328 71.4008 53.16 70.8815 52.9408C67.3355 51.4288 64.7677 49.0263 63.6304 45.219C63.4225 44.5259 63.5888 44.2089 64.03 43.7965C65.4727 42.4546 67.2574 41.8612 69.1138 41.4313C70.6495 41.0749 71.443 41.4543 71.9397 42.939C72.8492 45.6548 73.6637 48.4036 74.5187 51.1373Z" fill="#D15EA8" stroke="#D15EA8"/>
<path d="M44.3254 25.8458C43.3278 21.4097 42.1675 17.0398 39.4939 13.2429C38.4808 11.8048 37.2965 10.5288 36.0036 9.34651C35.6351 9.00906 35.185 8.73647 34.7655 9.21345C34.3754 9.65569 34.6073 10.0724 35.0649 10.3C37.3824 11.4506 38.7972 13.4697 40.0328 15.6017C42.5101 19.8772 43.6623 24.5948 44.2573 29.4466C44.8732 34.4701 44.6018 39.4406 42.8673 44.2585C41.7984 47.2251 40.4149 50.0376 38.6935 52.6787C38.487 52.9945 38.36 53.5774 37.7329 53.1129C37.542 52.9708 37.3502 53.2131 37.2917 53.4238C37.1971 53.7648 37.0871 54.1197 37.3218 54.4489C37.4819 54.6749 37.7259 54.7178 37.9528 54.5901C38.1241 54.4932 38.3001 54.3464 38.396 54.1791C40.5551 50.4305 42.7402 46.695 43.9321 42.485C45.1371 38.2307 45.2945 33.9095 44.8539 29.542C44.7296 28.3034 44.6036 27.0652 44.3257 25.8476L44.3254 25.8458Z" fill="#D15EA8" stroke="#D15EA8"/>
<path d="M63.9936 31.3345C64.0613 31.7924 64.1941 32.6107 64.2948 33.4318C64.3524 33.9115 64.4314 34.3436 63.8089 34.6628C63.3776 34.8848 63.3406 35.5298 63.4084 36.0438C63.4868 36.63 63.6181 37.2095 63.7352 37.79C63.7939 38.0901 63.8856 38.411 64.2676 38.3817C64.6461 38.353 64.7023 38.0195 64.712 37.7168C64.763 36.1794 64.9312 34.63 64.7098 33.1079C63.8502 27.208 61.896 21.7521 58.0649 17.0762C54.6935 12.9627 50.4129 10.4456 45.1527 9.59124C43.2514 9.28162 41.3419 9.06054 39.4224 8.9266C39.2752 8.9155 39.1264 8.89566 38.9803 8.90793C38.5142 8.94286 38.1339 9.13859 38.1888 9.66054C38.243 10.179 38.6638 10.2924 39.1187 10.247C48.3808 9.3281 55.324 12.9717 60.103 20.894C61.9906 24.0256 63.1046 27.4443 63.9946 31.3398L63.9936 31.3345Z" fill="#D15EA8" stroke="#D15EA8"/>
<path d="M59.3912 27.9904C59.0979 28.0568 58.8637 27.5536 58.6077 27.8845C58.3836 28.1747 58.6541 28.4371 58.8002 28.6839C59.2412 29.4294 59.474 30.259 59.7858 31.0569C59.9083 31.3681 59.9483 31.8513 60.452 31.684C60.8518 31.5515 60.7465 31.1518 60.6757 30.8358C59.6997 26.4082 58.0975 22.2986 54.8303 18.9873C52.8575 16.9867 50.6906 15.2813 48.1567 14.0535C47.9967 13.976 47.8377 13.8948 47.6709 13.8386C47.2011 13.6786 46.74 13.6835 46.6033 14.2538C46.4822 14.7558 46.8339 15.044 47.2939 15.099C49.3668 15.3498 50.9697 16.524 52.5056 17.782C55.8086 20.4884 58.2615 23.7867 59.3929 27.9901L59.3912 27.9904Z" fill="#D15EA8" stroke="#D15EA8"/>
<path d="M30.1392 91.9359C30.4026 92.8574 30.1968 93.6024 29.9857 94.3394C29.6263 95.5874 29.2532 96.8308 28.4942 97.9159C28.3099 98.1784 28.1068 98.5478 28.4845 98.7657C28.9176 99.0162 29.0054 98.5661 29.1516 98.2947C30.1182 96.4914 30.8282 94.5897 31.3401 92.6107C31.4444 92.208 31.5284 91.8039 31.4326 91.3877C31.3306 90.9402 31.1013 90.5828 30.5928 90.6786C30.0846 90.7761 30.006 91.1991 30.0686 91.6489C30.0896 91.7934 30.1388 91.9341 30.1388 91.9341L30.1392 91.9359Z" fill="#D15EA8" stroke="#D15EA8"/>
<path d="M68.6252 73.3594C67.7183 73.5674 67.0936 73.9867 66.5648 74.5629C66.384 74.7595 66.1762 74.9849 66.3847 75.254C66.6267 75.5655 66.9242 75.4004 67.1646 75.2302C67.6389 74.8947 68.1633 74.7687 68.734 74.7314C69.2635 74.6968 69.8048 74.5276 69.6891 73.8617C69.5687 73.1713 68.9938 73.2891 68.6252 73.3594Z" fill="#D15EA8"/>
<path d="M68.9775 55.2117C68.9567 54.6885 68.9345 54.2598 68.4358 54.1C68.1461 54.008 67.8973 54.1165 67.74 54.3592C67.4557 54.7953 67.6003 55.22 67.8584 55.6044C69.4255 57.9397 70.9287 60.3184 72.6046 62.58C72.9392 63.031 73.2325 63.5118 73.5317 63.986C73.8147 64.4326 73.7463 64.7594 73.1945 64.9216C72.7972 65.0391 72.4091 65.1856 72.0127 65.3084C71.6625 65.4167 71.3538 65.5803 71.1727 65.9147C71.0834 66.0789 71.0481 66.2688 71.1849 66.4124C71.3262 66.5605 71.5288 66.5499 71.663 66.4114C72.1289 65.9307 72.7767 65.8893 73.3534 65.6787C74.7094 65.1818 74.8749 64.7218 74.0051 63.5347C72.4458 61.4062 70.9945 59.2094 69.7206 56.9C69.4067 56.3327 69.0454 55.7818 68.9792 55.2113L68.9775 55.2117Z" fill="#D15EA8" stroke="#D15EA8"/>
<path d="M112.148 72.192C111.135 72.192 110.265 71.9573 109.54 71.488C108.815 71.008 108.26 70.352 107.876 69.52C107.492 68.688 107.3 67.728 107.3 66.64C107.3 65.5307 107.503 64.5653 107.908 63.744C108.324 62.912 108.905 62.2667 109.652 61.808C110.399 61.3493 111.273 61.12 112.276 61.12C113.172 61.12 113.977 61.328 114.692 61.744C115.417 62.16 115.961 62.7573 116.324 63.536L115.012 64.016C114.777 63.536 114.42 63.1467 113.94 62.848C113.471 62.5387 112.889 62.384 112.196 62.384C111.567 62.384 110.996 62.544 110.484 62.864C109.983 63.184 109.583 63.664 109.284 64.304C108.985 64.9333 108.836 65.712 108.836 66.64C108.836 67.536 108.98 68.304 109.268 68.944C109.556 69.584 109.956 70.0747 110.468 70.416C110.991 70.7573 111.583 70.928 112.244 70.928C112.937 70.928 113.519 70.7787 113.988 70.48C114.468 70.1813 114.831 69.7867 115.076 69.296L116.388 69.776C116.004 70.5653 115.439 71.168 114.692 71.584C113.945 71.9893 113.097 72.192 112.148 72.192ZM118.12 72V64.064H119.096L119.528 65.536C119.805 65.056 120.179 64.672 120.648 64.384C121.128 64.0853 121.699 63.936 122.36 63.936V65.328C122.285 65.328 122.205 65.328 122.12 65.328C122.045 65.328 121.971 65.3333 121.896 65.344C120.989 65.4187 120.355 65.7333 119.992 66.288C119.64 66.8427 119.464 67.6107 119.464 68.592V72H118.12ZM126.934 72.192C126.102 72.192 125.398 72.0107 124.822 71.648C124.246 71.2747 123.803 70.7787 123.493 70.16C123.195 69.5307 123.046 68.8267 123.046 68.048C123.046 67.2053 123.216 66.48 123.558 65.872C123.899 65.2533 124.358 64.7787 124.934 64.448C125.52 64.1067 126.176 63.936 126.902 63.936C127.531 63.936 128.086 64.064 128.566 64.32C129.046 64.5653 129.44 64.9013 129.75 65.328C130.07 65.744 130.299 66.2187 130.438 66.752C130.587 67.2853 130.64 67.8347 130.598 68.4H124.486C124.507 69.0613 124.651 69.584 124.918 69.968C125.195 70.352 125.52 70.624 125.894 70.784C126.267 70.9333 126.614 71.008 126.934 71.008C127.382 71.008 127.755 70.9387 128.054 70.8C128.363 70.6507 128.608 70.4587 128.79 70.224L130.086 70.608C129.798 71.0667 129.387 71.4453 128.854 71.744C128.32 72.0427 127.68 72.192 126.934 72.192ZM124.502 67.328H129.174C129.174 66.9547 129.078 66.5973 128.886 66.256C128.704 65.9147 128.443 65.6373 128.102 65.424C127.771 65.2 127.371 65.088 126.902 65.088C126.507 65.088 126.134 65.1627 125.782 65.312C125.43 65.4613 125.136 65.7013 124.902 66.032C124.678 66.3627 124.544 66.7947 124.502 67.328ZM134.407 72.192C133.905 72.192 133.447 72.1013 133.031 71.92C132.615 71.7387 132.284 71.4773 132.039 71.136C131.793 70.7947 131.671 70.384 131.671 69.904C131.671 69.2747 131.889 68.7787 132.327 68.416C132.775 68.0533 133.399 67.776 134.199 67.584C135.009 67.3813 135.953 67.2213 137.031 67.104C137.052 66.432 136.919 65.9147 136.631 65.552C136.343 65.1893 135.879 65.008 135.239 65.008C134.759 65.008 134.364 65.12 134.055 65.344C133.756 65.5573 133.564 65.856 133.479 66.24L132.183 65.856C132.396 65.248 132.775 64.7787 133.319 64.448C133.873 64.1067 134.508 63.936 135.223 63.936C136.321 63.936 137.121 64.1973 137.623 64.72C138.135 65.232 138.391 66.0427 138.391 67.152V69.008C138.391 69.6693 138.417 70.24 138.471 70.72C138.524 71.2 138.588 71.6267 138.663 72H137.431L137.111 70.912C136.876 71.3067 136.54 71.6213 136.103 71.856C135.665 72.08 135.1 72.192 134.407 72.192ZM134.695 71.12C135.111 71.12 135.505 71.0453 135.879 70.896C136.252 70.7467 136.556 70.496 136.791 70.144C137.025 69.7813 137.143 69.2907 137.143 68.672V68.176C136.332 68.2613 135.628 68.368 135.031 68.496C134.433 68.6133 133.969 68.784 133.639 69.008C133.319 69.2213 133.159 69.5093 133.159 69.872C133.159 70.2453 133.292 70.5493 133.559 70.784C133.836 71.008 134.215 71.12 134.695 71.12ZM143.02 72C142.519 72 142.13 71.952 141.852 71.856C141.586 71.7493 141.399 71.552 141.292 71.264C141.196 70.976 141.148 70.56 141.148 70.016V65.136H139.804V64.064H141.148V62.064H142.492V64.064H144.028V65.136H142.492V69.792C142.492 70.1973 142.53 70.4693 142.604 70.608C142.69 70.7467 142.924 70.816 143.308 70.816H144.028V72H143.02ZM149.168 72.192C148.336 72.192 147.632 72.0107 147.056 71.648C146.48 71.2747 146.037 70.7787 145.728 70.16C145.429 69.5307 145.28 68.8267 145.28 68.048C145.28 67.2053 145.451 66.48 145.792 65.872C146.133 65.2533 146.592 64.7787 147.168 64.448C147.755 64.1067 148.411 63.936 149.136 63.936C149.765 63.936 150.32 64.064 150.8 64.32C151.28 64.5653 151.675 64.9013 151.984 65.328C152.304 65.744 152.533 66.2187 152.672 66.752C152.821 67.2853 152.875 67.8347 152.832 68.4H146.72C146.741 69.0613 146.885 69.584 147.152 69.968C147.429 70.352 147.755 70.624 148.128 70.784C148.501 70.9333 148.848 71.008 149.168 71.008C149.616 71.008 149.989 70.9387 150.288 70.8C150.597 70.6507 150.843 70.4587 151.024 70.224L152.32 70.608C152.032 71.0667 151.621 71.4453 151.088 71.744C150.555 72.0427 149.915 72.192 149.168 72.192ZM146.736 67.328H151.408C151.408 66.9547 151.312 66.5973 151.12 66.256C150.939 65.9147 150.677 65.6373 150.336 65.424C150.005 65.2 149.605 65.088 149.136 65.088C148.741 65.088 148.368 65.1627 148.016 65.312C147.664 65.4613 147.371 65.7013 147.136 66.032C146.912 66.3627 146.779 66.7947 146.736 67.328ZM158.421 72V70.816L162.981 65.248H158.565V64.064H164.501V65.248L159.941 70.816H164.661V72H158.421ZM166.261 72V61.312H167.605V67.632L170.805 64.064H172.421L169.429 67.344L172.821 72H171.173L168.533 68.336L167.605 69.344V72H166.261ZM176.808 72L173.144 61.312H174.792L177.688 70.24L180.6 61.312H182.248L178.568 72H176.808ZM186.072 72.192C185.614 72.192 185.16 72.112 184.712 71.952C184.264 71.792 183.854 71.5467 183.48 71.216C183.118 70.8747 182.824 70.4427 182.6 69.92C182.376 69.3973 182.264 68.7787 182.264 68.064C182.264 67.3493 182.376 66.7307 182.6 66.208C182.824 65.6853 183.118 65.2587 183.48 64.928C183.854 64.5867 184.264 64.336 184.712 64.176C185.16 64.016 185.614 63.936 186.072 63.936C186.531 63.936 186.984 64.016 187.432 64.176C187.891 64.336 188.302 64.5867 188.664 64.928C189.038 65.2587 189.331 65.6853 189.544 66.208C189.768 66.7307 189.88 67.3493 189.88 68.064C189.88 68.7787 189.768 69.3973 189.544 69.92C189.331 70.4427 189.038 70.8747 188.664 71.216C188.302 71.5467 187.891 71.792 187.432 71.952C186.984 72.112 186.531 72.192 186.072 72.192ZM186.072 71.008C186.456 71.008 186.83 70.9067 187.192 70.704C187.555 70.4907 187.854 70.1707 188.088 69.744C188.323 69.3067 188.44 68.7467 188.44 68.064C188.44 67.3813 188.323 66.8267 188.088 66.4C187.854 65.9627 187.555 65.6427 187.192 65.44C186.83 65.2267 186.456 65.12 186.072 65.12C185.699 65.12 185.326 65.2267 184.952 65.44C184.59 65.6427 184.291 65.9627 184.056 66.4C183.822 66.8267 183.704 67.3813 183.704 68.064C183.704 68.7467 183.822 69.3067 184.056 69.744C184.291 70.1707 184.59 70.4907 184.952 70.704C185.326 70.9067 185.699 71.008 186.072 71.008ZM194.02 72C193.519 72 193.13 71.952 192.852 71.856C192.586 71.7493 192.399 71.552 192.292 71.264C192.196 70.976 192.148 70.56 192.148 70.016V65.136H190.804V64.064H192.148V62.064H193.492V64.064H195.028V65.136H193.492V69.792C193.492 70.1973 193.53 70.4693 193.604 70.608C193.69 70.7467 193.924 70.816 194.308 70.816H195.028V72H194.02Z" fill="#D5A6C4"/>
<circle cx="223.844" cy="66.5" r="13.5" fill="#D5A6C4" stroke="#D5A6C4"/>
<circle cx="219.094" cy="66.5" r="0.5" fill="black"/>
<circle cx="221.094" cy="66.5" r="0.5" fill="black"/>
<path d="M222.844 66.5H228.594M225.594 70L229.094 66.5L225.594 63" stroke="black" stroke-linecap="round" stroke-linejoin="round"/>
<path d="M107.602 108.169C107.712 108.362 107.767 108.489 107.903 108.596C108.04 108.702 108.212 108.75 108.384 108.728C108.556 108.707 108.711 108.618 108.818 108.482C108.924 108.345 108.991 108.295 109.041 107.989C109.091 107.683 112.155 92.7222 112.155 92.7222C112.205 92.4834 112.187 92.2353 112.103 92.0062C112.019 91.7771 111.873 91.5762 111.68 91.4263C111.488 91.2764 111.257 91.1835 111.015 91.1582C110.772 91.1329 110.527 91.1762 110.308 91.2831C110.308 91.2831 96.4705 98.0524 96.2815 98.1376C96.0925 98.2228 95.9629 98.3184 95.8567 98.4549C95.7505 98.5914 95.703 98.7645 95.7244 98.9361C95.7457 99.1078 95.8343 99.2639 95.9707 99.3701C96.1072 99.4764 96.1793 99.4955 96.4579 99.5532C96.7364 99.6109 104.094 101.179 104.094 101.179C104.094 101.179 107.491 107.975 107.602 108.169Z" fill="#222222" stroke="#AFEEEE" stroke-width="2" stroke-linecap="round" stroke-linejoin="round"/>
<path d="M109 80C109.673 83.4467 108.848 84.6169 108.848 88.0684" stroke="#A0DADA" stroke-width="2" stroke-linecap="round"/>
<path d="M118.083 81.2419C116.813 83.0481 115.344 84.6092 114 86.3368" stroke="#A0DADA" stroke-width="2" stroke-linecap="round"/>
<path d="M125 89C120.241 90.5862 122.484 90.1641 117.957 92.3197" stroke="#A0DADA" stroke-width="2" stroke-linecap="round"/>
<path d="M117.957 97.5833C118.796 97.6432 122.641 97.8409 123.018 98.5955" stroke="#A0DADA" stroke-width="2" stroke-linecap="round"/>
<path d="M103.381 88.4734C102.786 86.8081 101.697 85.2415 101.154 83.6147" stroke="#A0DADA" stroke-width="2" stroke-linecap="round"/>
</svg>
