<svg width="302" height="209" viewBox="0 0 302 209" fill="none" xmlns="http://www.w3.org/2000/svg">
<path d="M283.916 185.917C284.114 188.227 283.975 190.529 283.754 192.827C283.459 195.885 283.096 198.939 282.769 201.995C282.584 203.731 282.472 205.479 281.501 207.021C281.284 207.364 281.098 207.609 280.634 207.645C276.59 207.954 272.546 208.246 268.487 208.198C267.297 208.184 267.334 208.207 267.537 206.992C268.288 202.495 268.933 197.985 268.72 193.405C268.558 189.928 267.815 186.621 265.898 183.635C264.475 181.42 263.186 179.119 261.429 177.127C258.658 173.987 255.054 172.18 251.258 170.663C250.103 170.203 248.964 169.705 247.794 169.287C244.564 168.131 242.889 165.716 242.238 162.478C241.612 159.372 241.349 156.219 241.136 153.061C240.931 150.047 240.773 147.034 240.789 144.013C240.823 137.812 241.497 131.674 242.607 125.585C244.207 116.808 246.592 108.239 249.901 99.9489C251.693 95.4625 254.056 91.2641 257.57 87.8891C262.099 83.5413 267.535 81.0109 273.846 80.6571C281.146 80.2463 287.426 82.6771 292.45 87.9958C295.798 91.5397 297.539 95.8715 297.704 100.77C297.873 105.767 297.08 110.673 296.191 115.569C294.689 123.848 292.188 131.868 289.848 139.929C289.025 142.767 288.284 145.629 287.62 148.51C287.581 148.677 287.583 148.855 287.563 149.047C287.656 149.015 287.718 149.01 287.757 148.976C288.017 148.764 287.999 148.188 288.449 148.284C288.906 148.384 288.84 148.907 288.909 149.261C289.16 150.534 288.892 151.805 288.771 153.062C288.438 156.533 288.179 160.017 287.588 163.46C286.788 168.12 285.974 172.777 285.168 177.436C284.821 179.444 284.478 181.455 284.135 183.463C283.619 183.237 283.776 182.762 283.772 182.383C283.733 179.275 283.888 176.172 284.101 173.071C284.539 166.716 285.442 160.414 286.249 154.101C286.351 153.308 286.585 152.536 286.671 151.549C285.767 153.039 285.003 154.417 284.105 155.71C281.469 159.507 277.844 162.146 273.908 164.4C269.655 166.838 264.985 168.2 260.293 169.479C259.578 169.673 258.849 169.822 258.162 170.103C257.231 170.484 257.159 170.853 257.844 171.607C259.315 173.231 260.899 174.76 262.197 176.53C265.565 181.117 268.547 185.902 269.678 191.607C270.469 195.597 271.001 199.611 270.914 203.688C270.907 204.015 270.868 204.337 270.825 204.661C270.72 205.477 270.82 205.625 271.648 205.607C274.017 205.555 276.38 205.434 278.713 204.976C278.829 204.953 278.946 204.931 279.062 204.908C281.779 204.389 281.171 204.817 281.395 202.266C281.852 197.038 282.581 191.851 283.397 186.672C283.447 186.361 283.36 185.91 283.909 185.918L283.916 185.917Z" fill="#AFEEEE"/>
<path d="M283.916 185.917C283.404 186.775 283.477 187.771 283.328 188.703C282.86 191.639 282.456 194.585 282.099 197.537C281.846 199.614 281.681 201.702 281.541 203.789C281.5 204.406 281.4 204.758 280.705 204.867C278.64 205.187 276.604 205.662 274.495 205.721C273.407 205.751 272.315 205.822 271.223 205.863C270.608 205.886 270.414 205.632 270.509 205.079C270.884 202.866 270.676 200.651 270.477 198.449C269.922 192.299 268.494 186.432 265.087 181.133C262.948 177.804 260.522 174.744 257.785 171.908C256.63 170.709 256.708 170.211 258.354 169.776C261.527 168.938 264.66 167.989 267.758 166.916C272.253 165.36 276.256 162.969 279.91 159.935C282.652 157.657 284.555 154.766 286.276 151.718C286.349 151.588 286.408 151.451 286.484 151.325C286.585 151.156 286.664 150.889 286.925 151.014C287.101 151.097 287.039 151.325 287.007 151.497C286.808 152.566 286.562 153.629 286.418 154.707C286.125 156.893 285.888 159.087 285.622 161.278C285.365 163.379 285.097 165.481 284.845 167.583C284.681 168.956 284.464 170.327 284.398 171.705C284.227 175.304 283.968 178.901 284.025 182.508C284.03 182.826 283.938 183.162 284.135 183.461C284.06 184.281 283.986 185.099 283.913 185.918L283.916 185.917Z" fill="#A0DADA"/>
<path d="M287.175 150.379C287.166 150.4 287.156 150.423 287.145 150.445C287.122 150.415 287.099 150.384 287.076 150.352C287.095 150.34 287.12 150.315 287.134 150.32C287.152 150.327 287.163 150.358 287.175 150.377V150.379Z" fill="#A0DADA"/>
<path d="M280.352 125.738C279.369 124.307 278.076 123.176 276.771 122.061C270.21 116.46 266.84 109.133 265.383 100.815C264.599 96.3373 264.848 91.8419 265.511 87.3626C265.865 84.978 266.932 82.8548 267.875 80.6854C268.063 80.2533 268.414 80.0044 268.872 80.2764C269.333 80.5485 269.296 80.993 268.997 81.3487C266.466 84.3645 266.02 88.0312 265.686 91.7477C264.978 99.6056 266.644 106.941 270.485 113.803C272.004 116.515 273.912 118.919 276.231 120.994C277.657 122.271 279.113 123.512 280.516 125C280.776 123.866 280.594 122.92 280.36 121.981C279.97 120.425 279.428 118.919 278.793 117.45C275.393 109.596 273.405 101.35 271.943 92.9533C271.501 90.414 271.136 87.8676 270.928 85.2946C270.787 83.5715 271.083 82.0031 272.093 80.5752C272.471 80.0381 272.806 79.9759 273.426 80.2515C276.631 81.6741 278.604 84.1938 279.952 87.3217C281.876 91.785 282.904 96.5044 283.955 101.215C285.179 106.708 286.331 112.215 286.734 117.847C287.001 121.542 287.177 125.237 286.868 129.058C287.156 128.774 287.175 128.495 287.25 128.238C290.762 116.154 290.186 104.181 286.254 92.3061C285.474 89.9481 284.78 87.5511 283.603 85.3426C283.47 85.0936 283.367 84.8358 283.621 84.6206C283.88 84.4001 284.119 84.5637 284.336 84.7362C285.26 85.4742 286.185 86.2139 287.167 86.9981C287.186 86.6407 286.962 86.4682 286.825 86.2761C286.075 85.211 285.287 84.1725 284.446 83.1731C281.499 79.6629 277.758 78.2137 273.224 78.7881C272.349 78.8983 271.456 78.9036 270.651 79.3855C270.256 79.622 269.79 79.5527 269.642 79.037C269.498 78.5391 269.809 78.2013 270.291 78.1924C272.829 78.1372 275.368 77.714 277.9 78.3328C280.095 78.8699 281.955 79.9635 283.559 81.5212C284.515 82.453 285.381 83.4701 286.151 84.5619C287.572 86.5713 289.268 88.3673 290.759 90.2967C293.223 93.485 295.462 96.9152 296.09 101.071C296.138 101.389 296.173 101.709 296.406 102.081C296.543 99.5416 296.333 97.1055 296.221 94.6657C296.191 93.9847 296.123 93.3072 296.058 92.6279C295.805 90.0744 294.059 88.4189 292.457 86.6816C292.258 86.4664 291.973 86.317 291.897 86.0129C291.769 85.5008 291.971 85.1274 292.467 84.9691C292.853 84.8464 293.319 85.0047 293.303 85.387C293.252 86.6762 294.32 87.3271 294.818 88.2962C294.88 88.4171 294.95 88.5682 295.245 88.554C295.202 88.1539 295.153 87.7574 295.121 87.3608C295.101 87.119 295.106 86.8487 295.401 86.7847C295.711 86.7171 295.786 86.9874 295.866 87.2115C295.885 87.2666 295.898 87.3271 295.899 87.3857C295.956 89.8219 296.993 91.938 297.976 94.102C299.434 97.3117 300.028 100.774 300.477 104.243C301.085 108.952 301.326 113.686 301.056 118.43C300.939 120.477 300.45 122.465 299.763 124.399C299.657 124.7 299.484 124.986 299.513 125.324C300.709 125.352 300.82 125.717 300.505 126.974C298.935 133.235 295.841 138.87 293.332 144.747C291.351 149.387 290.09 154.199 289.917 159.274C289.857 161.07 289.82 162.828 290.783 164.445C290.977 164.77 291.061 165.161 291.194 165.522C291.312 165.839 291.431 166.205 291.025 166.362C290.668 166.5 290.524 166.161 290.387 165.892C289.864 164.863 289.325 163.838 288.819 162.802C288.676 162.51 288.301 162.131 288.724 161.868C289.178 161.584 289.133 162.318 289.537 162.412C289.544 160.342 289.601 158.306 289.821 156.281C290.302 151.853 291.633 147.66 293.392 143.592C294.779 140.384 296.207 137.194 297.578 133.979C298.394 132.063 298.865 130.04 299.246 127.997C299.353 127.422 299.351 126.848 299.273 126.268C299.017 126.297 298.985 126.451 298.924 126.581C297.672 129.341 296.132 131.935 294.407 134.427C294.175 134.763 293.958 135.141 293.856 135.531C293.216 138.017 292.29 140.377 290.915 142.551C290.876 142.614 290.881 142.704 290.837 142.942C291.55 142.457 292.151 142.046 292.754 141.639C293.017 141.461 293.291 141.148 293.614 141.431C293.997 141.765 293.659 142.087 293.472 142.363C291.24 145.638 289.206 149.076 285.9 151.501C285.991 151.535 286.018 151.556 286.041 151.551C286.448 151.476 287.044 151.119 287.161 151.739C287.295 152.449 286.589 152.287 286.148 152.355C285.211 152.499 284.279 152.666 283.34 152.804C283.027 152.851 282.703 152.778 282.685 152.39C282.671 152.054 282.961 151.978 283.244 151.949C284.569 151.809 285.636 151.135 286.635 150.315C288.273 148.971 291.616 144.571 292.419 142.61C291.137 143.391 289.957 144.004 289.05 145.034C287.764 146.494 286.327 147.758 284.496 148.507C284.151 148.647 283.749 148.964 283.479 148.496C283.19 147.998 283.719 147.865 284.007 147.646C285.566 146.465 287.119 145.276 288.774 144.228C288.948 144.118 289.121 143.988 289.249 143.83C290.853 141.849 291.902 139.591 292.572 137.135C290.876 138.86 289.629 141.017 287.506 142.297C289.059 140.969 290.182 139.254 291.564 137.78C293.541 135.67 293.586 133.157 293.392 130.545C293.383 130.427 293.332 130.315 293.317 130.198C293.259 129.698 293.367 129.25 293.959 129.259C294.489 129.268 294.616 129.697 294.576 130.155C294.473 131.363 294.358 132.568 294.247 133.769C294.397 133.874 294.468 133.778 294.534 133.683C297.117 129.889 299.301 125.907 300.3 121.373C300.653 119.778 300.848 118.163 300.845 116.527C300.83 110.44 300.498 104.389 298.979 98.4569C298.508 96.6182 297.868 94.8471 296.881 93.1969C297.183 94.9218 297.555 96.636 297.777 98.3715C298.707 105.652 298.924 112.894 296.666 120.023C295.332 124.236 293.23 128.005 290.451 131.421C290.246 131.674 290.042 131.891 289.715 131.699C289.443 131.541 289.318 131.235 289.34 130.936C289.372 130.493 289.679 130.573 289.999 130.637C290.439 130.726 290.602 130.315 290.821 130.068C293.339 127.218 294.907 123.846 296.116 120.288C297.991 114.77 298.197 109.082 297.815 103.336C297.663 101.069 297.43 98.8125 296.893 96.5951C296.893 97.3473 296.888 98.1013 296.893 98.8552C296.933 103.957 296.856 109.048 295.77 114.066C295.22 116.602 294.18 118.961 293.182 121.337C293.077 121.588 292.974 121.897 292.635 121.764C292.238 121.609 292.419 121.287 292.514 121.008C293.419 118.312 294.249 115.595 294.996 112.852C296.342 107.903 296.515 102.972 294.71 98.0888C293.798 95.6224 292.375 93.4886 290.659 91.4774C289.087 89.6352 287.33 88.0454 285.461 86.5446C285.234 86.3615 284.985 86.205 284.668 85.9809C284.592 86.4913 284.816 86.8452 284.947 87.2026C287.071 92.9373 288.755 98.7859 289.599 104.86C290.177 109.025 290.124 113.188 289.8 117.365C289.412 122.358 288.113 127.161 286.788 131.957C286.539 132.862 286.525 133.513 287.27 134.302C288.749 135.867 289.439 139.205 287.087 141.552C285.013 143.622 282.534 144.689 279.691 145.06C279.43 145.094 279.124 145.163 279.008 144.827C278.9 144.513 279.156 144.346 279.367 144.182C279.508 144.073 279.648 143.961 279.799 143.871C280.016 143.739 280.258 143.458 280.498 143.73C280.706 143.965 280.29 144.1 280.267 144.397C280.986 144.452 281.647 144.246 282.303 144.031C284.519 143.307 286.336 142.032 287.577 140.04C288.625 138.358 288.066 135.574 286.411 134.254C286.347 134.693 286.302 135.085 286.231 135.47C286.187 135.716 286.071 135.954 285.769 135.887C285.529 135.833 285.493 135.607 285.509 135.385C285.513 135.326 285.525 135.268 285.529 135.209C285.639 133.683 285.636 133.673 284.138 134.064C282.447 134.505 281.11 135.515 279.903 136.729C279.666 136.968 279.467 137.391 279.04 137.185C278.631 136.989 278.788 136.576 278.818 136.23C278.944 134.843 279.065 133.456 279.191 132.069C279.229 131.663 279.271 131.276 278.661 131.309C276.481 131.429 274.276 131.119 272.118 131.717C271.698 131.832 271.433 131.978 271.273 132.366C270.4 134.476 268.92 136.187 267.596 138.006C266.009 140.184 263.792 140.272 261.455 140.055C260.95 140.008 260.54 139.658 260.152 139.327C258.868 138.225 257.662 137.048 256.603 135.721C255.345 134.147 254.058 132.597 252.769 131.048C251.062 129 250.075 126.595 249.381 124.067C249.099 123.035 248.48 122.269 247.784 121.552C247.171 120.921 245.754 121.639 245.547 122.754C245.19 124.696 244.274 126.377 243.287 128.034C242.137 129.963 240.378 131.197 238.41 132.161C238.074 132.327 237.674 132.401 237.295 132.435C235.545 132.593 234.864 131.918 235.022 130.186C235.285 127.296 235.54 124.403 235.849 121.519C236.061 119.539 236.822 118.917 238.822 118.897C240.798 118.878 242.717 119.129 244.562 119.883C245.434 120.238 246.332 120.567 247.319 120.418C247.648 120.368 247.964 120.475 248.213 120.727C248.295 120.811 248.414 120.973 248.469 120.953C249.646 120.562 249.511 121.407 249.605 122.1C249.669 122.562 250.071 122.47 250.39 122.417C253.852 121.824 257.351 121.784 260.847 121.796C263.365 121.805 265.789 122.308 268.037 123.514C270.526 124.851 271.99 126.86 272.126 129.727C272.15 130.226 272.343 130.401 272.795 130.454C274.772 130.687 276.759 130.619 278.743 130.637C279.134 130.641 279.264 130.44 279.25 130.084C279.205 129.021 279.289 127.954 279.076 126.894C278.825 125.646 279.152 125.367 280.372 125.722C280.297 126.313 280.153 126.901 280.169 127.486C280.203 128.72 279.68 130.006 280.498 131.18C280.628 131.366 280.543 131.599 280.281 131.654C280.093 131.694 279.945 131.738 279.92 131.962C279.791 133.21 279.485 134.448 279.584 135.897C279.986 135.602 280.264 135.401 280.537 135.195C281.787 134.251 283.157 133.459 284.723 133.397C285.829 133.354 286.059 132.828 286.13 131.96C286.137 131.871 286.151 131.784 286.162 131.695C286.921 125.804 286.621 119.925 285.899 114.061C285.227 108.587 283.971 103.221 282.705 97.863C281.793 94.0007 280.811 90.1491 279.021 86.5731C277.762 84.0605 276.028 82.0386 273.252 81.0909C272.756 80.9219 272.493 80.9788 272.214 81.3736C271.685 82.1187 271.376 82.9277 271.362 83.8506C271.326 86.3206 271.669 88.7532 272.098 91.1751C273.261 97.7367 274.561 104.265 276.743 110.586C277.932 114.032 279.515 117.324 280.717 120.763C281.258 122.31 281.675 123.878 281.535 125.543C281.505 125.889 281.592 126.339 281.137 126.426C280.664 126.517 280.496 126.11 280.365 125.735L280.352 125.738ZM258.676 122.356C257.346 122.429 256.016 122.505 254.684 122.577C253.32 122.651 251.985 122.911 250.64 123.133C249.721 123.284 249.648 123.679 249.893 124.442C250.697 126.947 251.755 129.302 253.553 131.277C254.449 132.263 255.292 133.299 256.13 134.336C257.305 135.791 258.557 137.165 260.024 138.34C262.188 140.076 265.037 139.863 266.931 137.816C268.769 135.83 270.103 133.543 271.036 131.016C271.796 128.959 271.204 126.629 269.582 125.164C268.917 124.563 268.166 124.095 267.361 123.709C264.599 122.386 261.667 122.205 258.676 122.358V122.356ZM235.406 130.026C235.207 131.95 236.169 132.126 237.796 131.795C238.347 131.683 238.854 131.413 239.322 131.098C242.512 128.934 244.571 126.083 244.957 122.128C245.028 121.408 244.804 121.129 244.292 120.809C242.619 119.769 240.753 119.529 238.849 119.463C237.273 119.408 236.567 119.932 236.365 121.485C235.993 124.325 235.721 127.179 235.406 130.026Z" fill="#D15EA8" stroke="#D15EA8"/>
<path d="M260.188 99.4117C260.316 94.8666 260.616 90.3553 262.512 86.116C263.23 84.5103 264.148 83.0308 265.19 81.6224C265.487 81.2206 265.876 80.8667 266.379 81.2544C266.847 81.6136 266.699 82.067 266.294 82.3782C264.24 83.9519 263.239 86.2049 262.435 88.5344C260.824 93.2057 260.598 98.0567 260.945 102.933C261.304 107.981 262.524 112.807 265.151 117.203C266.769 119.909 268.666 122.404 270.862 124.666C271.125 124.936 271.362 125.484 271.888 124.908C272.048 124.732 272.283 124.933 272.381 125.128C272.539 125.445 272.715 125.772 272.548 126.14C272.434 126.393 272.203 126.481 271.956 126.4C271.769 126.337 271.568 126.227 271.442 126.081C268.604 122.817 265.743 119.57 263.765 115.666C261.767 111.722 260.783 107.511 260.378 103.141C260.262 101.901 260.148 100.662 260.188 99.4135V99.4117Z" fill="#D15EA8" stroke="#D15EA8"/>
<path d="M241.938 108.571C241.959 109.034 241.986 109.862 242.045 110.687C242.08 111.169 242.085 111.609 242.758 111.802C243.224 111.938 243.384 112.563 243.416 113.081C243.451 113.671 243.433 114.265 243.43 114.857C243.43 115.163 243.401 115.496 243.021 115.54C242.644 115.585 242.525 115.268 242.457 114.973C242.112 113.474 241.65 111.986 241.575 110.449C241.287 104.494 242.158 98.7645 245.021 93.4406C247.541 88.7567 251.259 85.4653 256.258 83.6177C258.065 82.9491 259.896 82.3658 261.754 81.8662C261.897 81.827 262.039 81.779 262.185 81.763C262.649 81.7079 263.06 81.827 263.106 82.3498C263.152 82.8691 262.761 83.0611 262.306 83.1038C253.039 83.9787 246.924 88.8866 243.753 97.5785C242.502 101.014 242.064 104.583 241.938 108.577V108.571Z" fill="#D15EA8" stroke="#D15EA8"/>
<path d="M245.812 104.407C246.113 104.416 246.246 103.877 246.561 104.153C246.837 104.394 246.622 104.704 246.525 104.974C246.236 105.79 246.166 106.649 246.013 107.492C245.953 107.821 246.006 108.303 245.48 108.235C245.062 108.182 245.089 107.769 245.098 107.446C245.206 102.913 245.99 98.5725 248.562 94.696C250.114 92.3541 251.913 90.2647 254.165 88.5736C254.307 88.4669 254.447 88.3567 254.6 88.2695C255.031 88.0224 255.484 87.9388 255.728 88.4722C255.943 88.9417 255.653 89.292 255.212 89.4343C253.226 90.078 251.878 91.5379 250.612 93.0672C247.889 96.3568 246.115 100.064 245.811 104.407H245.812Z" fill="#D15EA8" stroke="#D15EA8"/>
<path d="M286.788 161.553C286.706 162.508 287.051 163.2 287.4 163.883C287.992 165.039 288.596 166.187 289.55 167.107C289.781 167.329 290.051 167.652 289.722 167.939C289.345 168.268 289.173 167.843 288.977 167.604C287.682 166.02 286.621 164.29 285.739 162.446C285.559 162.071 285.399 161.69 285.413 161.263C285.428 160.805 285.584 160.41 286.102 160.406C286.619 160.404 286.777 160.805 286.802 161.258C286.809 161.404 286.788 161.551 286.788 161.551V161.553Z" fill="#D15EA8" stroke="#D15EA8"/>
<path d="M245.453 150.704C246.383 150.735 247.077 151.026 247.706 151.49C247.922 151.649 248.169 151.83 248.016 152.134C247.838 152.486 247.514 152.381 247.246 152.26C246.716 152.022 246.177 151.999 245.61 152.072C245.084 152.139 244.52 152.077 244.506 151.401C244.491 150.701 245.078 150.706 245.453 150.704Z" fill="#D15EA8"/>
<path d="M241.627 132.961C241.547 132.444 241.486 132.019 241.945 131.766C242.212 131.621 242.477 131.679 242.678 131.887C243.04 132.261 242.98 132.705 242.8 133.132C241.71 135.725 240.691 138.348 239.48 140.889C239.239 141.395 239.043 141.924 238.84 142.446C238.648 142.939 238.778 143.247 239.351 143.3C239.763 143.339 240.172 143.408 240.585 143.453C240.949 143.492 241.284 143.593 241.525 143.887C241.644 144.031 241.716 144.21 241.609 144.378C241.499 144.55 241.298 144.579 241.139 144.468C240.59 144.086 239.946 144.17 239.34 144.073C237.914 143.846 237.663 143.426 238.289 142.094C239.411 139.706 240.414 137.272 241.221 134.761C241.42 134.144 241.669 133.534 241.625 132.961H241.627Z" fill="#D15EA8" stroke="#D15EA8"/>
<path d="M132.687 109.385C129.573 106.204 126.309 103.172 123.498 99.6955C120.151 95.5563 118.456 90.7469 118.133 85.5631C117.179 70.2992 121.361 56.4821 130.771 44.4272C134.118 40.1382 138.659 37.4615 144.34 36.9175C152.744 36.1093 158.291 39.0896 161.851 47.0171C165.955 56.1628 168.694 65.7185 169.743 75.7157C170.133 79.4291 170.488 83.1466 170.839 86.8679C171.399 92.7732 169.585 98.2764 167.965 103.819C165.793 111.242 162.399 118.267 160.881 125.899C160.049 130.081 159.367 134.28 159.068 138.533C159.036 138.986 159.115 139.463 158.772 139.842C157.558 139.795 157.79 138.801 157.79 138.139C157.783 134.599 157.739 131.059 157.365 127.535C157.309 127.014 157.337 126.486 157.27 125.966C156.348 118.602 155.524 117.431 148.779 114.392C144.174 112.318 139.59 110.201 134.91 108.293C133.566 107.745 132.774 107.663 132.699 109.381L132.687 109.385Z" fill="#AFEEEE"/>
<path d="M132.687 109.385C132.774 108.506 132.048 107.84 131.938 106.768C135.056 107.595 137.796 108.948 140.583 110.142C144.135 111.664 147.525 113.595 151.144 114.908C155.524 116.501 156.876 119.895 157.463 123.963C158.118 128.504 158.338 133.069 158.291 137.658C158.283 138.395 157.96 139.258 158.76 139.846C158.524 144.017 158.287 148.187 158.05 152.358C157.79 152.906 157.924 153.793 156.998 153.785C156.34 153.777 155.969 153.233 155.725 152.697C152.224 145.065 146.977 138.458 143.023 131.09C142.885 130.314 142.743 129.537 142.605 128.761C142.519 128.315 142.345 127.854 142.416 127.412C143.035 123.632 141.052 120.801 139.01 117.991C137.481 115.886 135.715 113.962 134.244 111.813C133.724 111.005 133.207 110.197 132.687 109.389V109.385Z" fill="#A0DADA"/>
<path d="M143.023 131.09C144.62 131.733 144.797 133.444 145.574 134.658C149.311 140.508 153.304 146.216 156.17 152.583C157.065 154.574 157.451 152.654 158.054 152.362C158.275 153.261 158.37 154.144 157.774 155.161C156.88 153.923 155.78 154.041 154.534 154.392C150.371 155.571 146.275 155.496 142.353 153.45C141.746 153.135 140.961 153.001 141.174 151.952C142.574 145.069 142.526 138.052 143.027 131.086L143.023 131.09Z" fill="#AFEEEE"/>
<path d="M134.244 111.813C137.37 114.415 139.452 117.833 141.703 121.141C143.37 123.589 143.067 126.131 142.605 128.761C140.804 125.232 138.963 121.72 137.209 118.164C136.176 116.071 134.871 114.096 134.24 111.813H134.244Z" fill="#AFEEEE"/>
<path d="M149.291 37.6507C149.461 37.5403 149.508 37.4851 149.563 37.4772C151.1 37.2722 152.74 38.7742 153.86 38.0843C154.972 37.3984 155.445 35.6402 156.533 34.5561C160.1 31.0043 164.417 28.8992 169.333 28.1384C174.781 27.2948 178.569 30.3617 178.92 35.8925C179.026 37.5679 179.582 38.7978 180.58 40.1145C185.555 46.6741 187.348 54.0538 185.846 62.1903C184.936 67.1297 183.063 71.7499 181.175 76.3661C181.151 76.4252 181.124 76.4883 181.096 76.5474C180.497 77.7892 179.767 79.0191 178.143 78.4593C176.555 77.9114 176.598 76.508 176.949 75.148C177.67 72.353 178.482 69.5857 179.16 66.7828C180.304 62.0602 181.396 57.3336 180.568 52.3941C180.229 50.364 179.559 48.4599 178.806 46.5717C178.329 45.3851 177.997 44.2537 176.105 44.5178C174.67 44.7189 174.351 43.2721 174.343 41.983C174.327 39.535 173.271 38.5179 170.839 39.0619C167.567 39.7991 164.378 40.8044 162.623 44.1512C161.945 45.4482 160.727 45.322 159.785 44.4666C157.404 42.3102 154.625 40.9068 151.664 39.7558C150.679 39.3734 149.693 38.782 149.287 37.6546L149.291 37.6507ZM172.64 34.9937C173.007 34.8518 173.894 35.6599 174.134 34.7138C174.312 34.02 173.748 33.3577 173.188 32.865C172.23 32.0213 171.103 31.8242 169.873 32.0371C165.667 32.7703 161.835 34.4181 158.354 36.8662C155.673 38.7505 155.701 38.7899 158.342 40.4299C158.452 40.5008 158.579 40.556 158.673 40.6427C159.627 41.5376 160.219 41.4075 161.173 40.3628C164.169 37.0909 167.969 35.3012 172.636 34.9897L172.64 34.9937Z" fill="#D15EA8"/>
<path d="M163.353 63.9249C164.839 70.654 164.449 77.0718 164.717 83.7537C165.836 82.9337 166.317 81.5027 167.748 81.6289C169.329 81.7668 169.298 83.3279 169.917 84.3174C170.125 84.2858 170.334 84.2543 170.543 84.2228C170.543 80.8562 170.543 77.4857 170.543 74.1192C170.543 67.4412 168.627 61.1772 166.396 54.9842C166.045 54.0065 165.348 52.5795 166.31 52.0986C167.358 51.5782 167.827 53.1353 168.359 53.9435C173.291 61.4768 175.207 69.7552 174.422 78.6959C174.261 80.5251 174.178 82.3621 174.008 84.1952C173.866 85.7444 173.145 86.8837 171.434 86.8206C170.394 86.7812 170.401 87.2818 170.461 88.0111C170.725 91.082 169.16 93.5695 167.811 96.1122C167.342 96.9952 166.534 97.5353 165.517 97.0228C164.394 96.4591 164.457 95.4696 164.906 94.4801C165.45 93.2857 166.045 92.1149 166.589 90.9244C167.051 89.9191 167.39 88.8863 166.901 87.4553C166.187 88.5473 165.671 89.4224 165.068 90.2345C164.536 90.9559 163.818 91.4447 162.86 91.1372C161.961 90.8494 161.756 90.0847 161.749 89.249C161.674 81.6998 161.571 74.1546 162.17 66.6173C162.233 65.8368 162.371 65.0681 163.345 63.9328L163.353 63.9249Z" fill="#D15EA8"/>
<path d="M151.459 40.1501C150.841 41.1711 149.938 41.4746 149.197 41.9359C146.189 43.7965 143.761 46.2564 141.64 49.0474C141.056 49.8122 140.378 50.5375 142.01 50.9593C142.842 51.1762 143.236 51.9409 143.142 52.824C143.047 53.703 142.471 54.2825 141.651 54.4718C140.437 54.7477 139.199 54.9212 137.966 55.0828C133.345 55.6938 128.721 56.2891 124.097 56.8843C121.208 57.2549 119.595 55.9106 119.457 52.9895C119.355 50.7859 120.116 48.8543 121.488 47.171C125.836 41.8452 131.765 39.1449 138.171 37.3315C140.82 36.5825 143.559 36.1213 146.343 36.409C146.965 36.4721 147.963 36.4406 148.006 37.1501C148.057 38.0174 146.997 37.8006 146.441 37.9031C139.318 39.2158 133.05 42.4326 127.2 46.5521C125.363 47.8451 123.778 49.4338 123.06 51.6729C122.903 52.1656 122.662 52.7294 123.049 53.1748C123.502 53.6991 124.03 53.2103 124.495 53.0841C128.177 52.0907 131.887 51.2471 135.707 51.0185C136.791 50.9554 137.437 50.5494 138.021 49.5678C140.386 45.5705 143.686 42.5351 147.923 40.5758C148.98 40.087 150.076 39.7992 151.455 40.154L151.459 40.1501Z" fill="#D15EA8"/>
<path d="M153.868 47.7858C155.138 47.565 156.296 47.2654 157.073 48.4008C157.893 49.5992 156.99 50.5019 156.427 51.4322C155.954 52.2167 155.504 53.0406 154.901 53.7187C154.132 54.578 153.092 54.8067 152.445 53.6792C151.795 52.5478 151.31 53.013 150.636 53.5176C150.119 53.9079 149.587 54.3612 148.992 54.5465C147.754 54.9328 146.709 53.9828 147.222 52.8474C148.617 49.7568 150.423 46.9461 153.722 45.527C154.377 45.2431 155.086 45.0854 155.918 45.5782C155.516 46.5164 154.294 46.6544 153.868 47.7858Z" fill="#D15EA8"/>
<path d="M141.829 99.9793C141.1 99.8374 140.303 99.7822 139.578 99.5299C137.461 98.7927 135.522 97.6219 133.208 97.3381C132.096 97.2041 131.418 96.1358 131.465 94.827C131.493 94.0583 131.595 93.3329 132.364 93.0451C133.07 92.781 133.649 93.2068 134.024 93.7902C134.276 94.1805 134.414 94.6614 134.997 94.5786C137.363 94.2317 139.144 95.8756 141.257 96.3762C142.176 96.593 142.811 97.1252 143.213 97.8782C143.812 99.0056 143.15 99.9714 141.833 99.9833L141.829 99.9793Z" fill="#D15EA8"/>
<path d="M129.821 69.231C129.08 69.3571 128.701 69.0102 128.485 68.4977C128.13 67.6581 129.352 65.0484 130.334 64.394C130.842 64.055 131.335 64.0432 131.749 64.4334C131.95 64.6227 132.139 65.1154 132.033 65.2968C131.414 66.369 131.102 67.5556 130.669 68.6948C130.515 69.0969 130.136 69.2507 129.821 69.231Z" fill="#D15EA8"/>
<path d="M145.657 69.4712C145.684 68.5724 145.495 67.4371 146.8 67.3898C147.671 67.3582 148.03 68.2176 147.825 68.9627C147.592 69.8063 148.152 71.2333 146.721 71.3437C145.475 71.4422 145.645 70.3187 145.657 69.4751V69.4712Z" fill="#D15EA8"/>
<path d="M4.5856 151.172C4.30325 163.913 6.2528 176.413 8.71329 188.859C9.20181 191.337 9.50211 193.86 9.80239 196.37C9.90547 197.217 10.0488 197.742 11.0438 197.845C15.1894 198.266 19.3351 198.741 23.4763 199.23C24.9597 199.404 25.6902 199.203 25.2734 197.361C24.6953 194.811 24.9284 192.18 25.1569 189.58C25.4796 185.928 27.223 183.396 30.9339 182.557C34.9272 181.652 38.9025 180.603 42.9406 180.003C55.6599 178.103 61.9657 168.642 63.2609 157.267C64.1842 149.168 62.9517 141.209 61.8492 133.244C60.6526 124.608 59.3081 115.99 56.0184 107.833C53.8582 102.486 51.3439 97.3455 47.3551 93.0609C39.9199 85.0744 29.1815 86.9657 23.0415 93.0699C18.3132 97.7713 15.5749 103.575 13.1682 109.652C9.00464 120.176 6.70993 131.183 4.67072 142.235C4.13739 145.121 4.59008 148.191 4.59008 151.176L4.5856 151.172Z" fill="#AFEEEE"/>
<path d="M7.11801 126.338C6.87151 120.866 7.109 115.51 10.7123 111.002C11.8911 109.527 13.2222 108.227 15.0149 107.519C15.9919 107.134 16.942 106.793 17.8204 107.9C18.4165 108.649 19.3487 108.823 20.2585 108.317C20.8994 107.958 21.2131 107.367 21.1414 106.632C21.0428 105.592 20.2585 105.404 19.4025 105.229C17.7353 104.884 18.2328 103.459 17.8518 102.114C25.2244 105.292 32.8748 104.144 40.2831 105C45.0517 105.552 49.7755 106.166 53.9391 108.823C54.4545 109.155 54.9923 109.496 55.5794 109.047C56.1441 108.617 56.1665 107.918 55.8752 107.412C53.6433 103.539 53.9211 98.6005 50.3716 95.0285C53.2264 94.3966 52.0164 93.1327 51.0349 91.954C49.0584 89.5787 46.4187 88.2028 43.5638 87.2123C39.7319 85.8812 35.7699 85.1641 31.7184 85.0117C24.5252 84.7428 18.2014 89.117 15.6558 95.9024C14.607 98.7036 13.6479 101.478 13.9482 104.534C14.0468 105.543 13.7869 106.332 12.8636 107.022C8.22498 110.495 6.19919 115.367 5.94373 120.978C5.73757 125.505 4.84122 130.049 5.9527 134.576C6.04682 134.966 6.03339 135.315 5.69278 135.58C4.13312 136.803 3.61323 138.591 3.10679 140.783C1.90119 138.793 1.47096 136.92 1.39477 135.06C1.10346 127.714 2.02667 120.601 5.89892 114.134C6.32469 113.426 6.746 112.696 6.65189 111.835C6.53088 110.746 5.93929 109.975 4.8054 109.948C3.5998 109.921 2.98577 110.715 3.15608 111.844C3.42499 113.641 2.84685 115.241 2.27318 116.855C0.233977 122.582 -0.182851 128.512 0.0636461 134.522C0.0905367 135.19 0.229487 135.853 0.359458 136.512C1.1124 140.339 3.07993 143.75 4.08832 147.501C4.45135 148.855 5.44179 149.984 6.46812 150.988C7.00145 151.508 7.5617 152.104 8.40428 151.839C9.26926 151.566 9.36335 150.768 9.39024 150.006C9.41713 149.101 9.4037 148.245 8.39082 147.73C5.01156 146 3.82388 141.491 5.86309 138.278C6.10062 137.906 6.30679 137.422 6.8222 137.44C7.36001 137.462 7.45413 138.004 7.61548 138.394C9.19306 142.199 10.3897 146.116 11.165 150.163C11.3174 150.961 11.2322 152.064 12.3885 151.88C13.491 151.705 13.1594 150.629 13.1191 149.836C12.7829 142.894 12.7829 135.934 13.5852 129.041C14.0199 125.312 15.9067 121.834 16.3863 118.029C16.6104 116.259 17.1482 114.533 17.4978 112.776C17.6412 112.05 17.798 111.235 16.9286 110.809C16.095 110.401 15.5258 110.952 14.9745 111.481C12.9577 113.417 11.3667 115.627 10.3673 118.275C9.34545 120.982 8.20259 123.64 7.11352 126.325L7.11801 126.338ZM53.7598 107.049C50.9184 106.107 48.4086 105.171 45.7688 104.642C39.3823 103.351 32.8568 103.297 26.421 102.419C24.0456 102.096 21.9213 101.402 20.3885 99.4117C19.5997 98.3898 18.6541 97.7355 17.3096 98.5108C16.6104 98.9142 16.0367 98.7528 16.1532 97.9013C16.5924 94.782 18.6541 92.5904 20.5454 90.2599C21.7913 88.7226 22.961 89.9775 24.1577 89.9507C24.8299 89.9327 25.5022 90.0089 26.17 90.0313C31.9291 90.1927 37.6299 90.8784 43.2769 92.0123C46.0915 92.5814 48.2651 94.5041 49.4752 97.6727C46.5576 94.903 43.2366 93.6974 39.6109 93.2044C33.8294 92.4201 28.012 92.1557 22.1857 92.1646C21.4597 92.1646 20.7067 92.3663 20.012 92.6128C19.1246 92.9265 18.3986 93.5361 18.4524 94.5714C18.5106 95.7008 19.4473 95.9249 20.3571 96.1131C22.2081 96.503 24.077 96.3417 25.9415 96.3506C26.4613 96.3506 27.1156 96.3596 27.1784 95.7008C27.2546 94.8627 26.5061 94.8582 25.9235 94.7865C24.2966 94.5803 22.6653 94.3966 20.6036 94.1545C21.2311 93.6974 21.388 93.5047 21.5717 93.4688C22.1544 93.3478 22.7504 93.2179 23.342 93.2089C29.3969 93.1193 35.4294 93.3523 41.3811 94.6341C44.6484 95.3377 47.2926 97.0274 49.5021 99.4834C50.2819 100.348 50.8601 101.195 50.506 102.486C50.1296 103.853 50.6001 104.92 52.1777 105C53.3833 105.063 53.6253 105.753 53.7553 107.058L53.7598 107.049ZM11.5818 143.835C5.84069 137.448 8.28771 117.428 15.3151 114.219C14.6294 118.105 14.8446 122.112 12.644 125.5C11.9 126.643 11.5639 127.719 11.5729 129.027C11.5998 133.948 11.5863 138.869 11.5863 143.839L11.5818 143.835ZM25.9459 87.9339C31.2478 87.3423 36.4871 87.2571 41.2781 90.1703C36.1509 89.5742 31.0551 88.7316 25.9459 87.9339ZM48.7043 91.7075C48.6147 91.8913 48.5251 92.075 48.431 92.2632C45.9167 90.8067 43.4069 89.3456 40.8926 87.889C43.8327 88.5254 46.5889 89.5025 48.6999 91.712L48.7043 91.7075Z" fill="#D15EA8"/>
<path d="M49.0045 131.949C48.3143 135.997 49.9457 139.152 51.967 142.181C54.3602 145.771 59.2991 147.909 63.521 143.351C64.3815 142.419 65.3182 141.558 66.21 140.658C70.4139 136.409 70.8128 130.798 67.2677 125.913C66.963 125.491 66.6134 125.079 66.4207 124.608C65.3002 121.848 64.5249 121.493 61.7955 122.596C59.6532 123.461 57.5243 124.375 55.3686 125.204C52.8005 126.195 50.5462 127.548 49.2644 130.264C47.2297 127.817 45.065 129.547 43.0258 129.919C41.8382 130.134 40.8522 130.914 40.6146 128.897C40.5026 127.961 39.6286 127.347 38.5754 127.674C37.4595 128.019 37.1323 128.947 37.4012 130.004C37.7418 131.367 37.9928 132.805 38.6382 134.029C40.4667 137.511 40.6729 141.303 41.0762 145.072C41.2689 146.887 40.5384 148.111 38.804 148.693C34.5373 150.123 30.199 151.208 25.6634 151.078C22.6472 150.993 20.1822 149.729 18.5374 147.111C16.9464 144.57 15.566 141.921 14.9385 138.963C14.338 136.149 14.9117 134.392 17.4215 133.115C21.8002 130.892 26.2371 128.736 30.9654 127.306C31.5928 127.118 32.283 127.114 32.9463 127.069C33.4079 127.037 34.1071 127.598 34.255 126.813C34.3939 126.056 33.6096 125.899 33.0404 125.823C31.9693 125.675 30.9609 126.056 30.0018 126.441C25.78 128.14 21.5312 129.776 17.3946 131.663C13.6075 133.388 12.6394 135.902 13.8809 139.9C14.6831 142.473 15.8349 144.893 17.1391 147.25C19.0708 150.737 22.1363 152.297 25.9727 152.404C30.6472 152.534 35.1648 151.445 39.5973 150.11C42.0354 149.375 42.8062 147.972 42.7345 145.341C42.6449 141.899 42.134 138.506 41.4572 135.136C40.9732 132.729 41.7978 131.86 44.3031 132.129C45.0426 132.209 45.7821 132.425 46.5171 132.407C47.2431 132.389 47.9647 132.147 49.0135 131.941L49.0045 131.949ZM68.0251 132.447C68.7108 137.31 65.1613 140.039 61.8179 142.813C59.3753 144.839 56.4308 144.624 54.1585 142.379C52.321 140.563 50.9317 138.372 50.4476 135.849C49.9098 133.061 50.0174 130.112 52.7602 128.431C56.1753 126.343 59.9579 125.231 64.0588 125.514C64.8655 125.567 65.4616 125.814 65.9725 126.45C67.317 128.127 68.3478 129.901 68.0251 132.442V132.447Z" fill="#D15EA8"/>
<path d="M51.2094 165.486C48.8654 165.563 46.9338 165.903 45.0246 166.378C44.2716 166.567 43.5769 167.001 43.7786 167.92C43.9848 168.875 44.8094 168.884 45.5668 168.74C47.6509 168.346 49.5242 167.53 51.2139 165.482L51.2094 165.486Z" fill="#D15EA8"/>
<path d="M30.1185 132.187C30.244 133.025 30.6877 133.594 31.5527 133.558C32.4938 133.518 33.0585 132.935 32.9644 131.972C32.8837 131.12 32.2742 130.681 31.4361 130.726C30.5667 130.775 30.1723 131.358 30.1185 132.187Z" fill="#D15EA8"/>
<path d="M57.726 133.451C57.7574 134.289 58.1742 134.845 59.0302 134.916C59.8773 134.988 60.4778 134.544 60.5675 133.702C60.6661 132.752 60.1327 132.133 59.1826 132.088C58.3266 132.048 57.8694 132.613 57.726 133.451Z" fill="#D15EA8"/>
<path d="M223.717 37.3785C223.445 38.5829 223.394 39.6446 223.564 40.5637C223.785 41.4945 224.23 42.0354 224.897 42.1865L224.791 42.6577C223.799 42.9838 222.841 43.0423 221.916 42.8331C220.581 42.5309 219.595 41.7575 218.959 40.5127C218.323 39.2679 218.212 37.7291 218.627 35.8965C219.006 34.2209 219.665 32.8564 220.606 31.8032C221.558 30.6976 222.693 29.8537 224.013 29.2715C225.332 28.6894 226.727 28.3719 228.197 28.3192C229.73 28.2257 231.241 28.3474 232.73 28.6844C234.22 29.0214 235.636 29.562 236.98 30.3063C238.323 31.0506 239.465 31.9695 240.405 33.0629C241.358 34.104 242.025 35.3284 242.409 36.7362C242.855 38.1032 242.889 39.6245 242.51 41.3001C241.894 44.023 240.626 46.7634 238.706 49.5215C236.798 52.2273 234.707 55.0291 232.431 57.9269C230.219 60.784 228.118 63.7487 226.127 66.821C224.136 69.8933 222.749 73.1574 221.967 76.6133C220.735 76.3344 219.8 75.5725 219.164 74.3277C218.591 73.0422 218.536 71.3784 218.998 69.3362C219.4 67.5559 220.092 65.8133 221.071 64.1085C222.051 62.4036 223.133 60.722 224.318 59.0637C225.555 57.4169 226.843 55.7818 228.182 54.1583C229.572 52.5464 230.874 50.9694 232.087 49.4274C233.299 47.8854 234.346 46.3609 235.227 44.8539C236.171 43.3061 236.803 41.8253 237.123 40.4115C237.858 37.1651 237.695 34.5414 236.636 32.5404C235.629 30.551 234.277 29.3646 232.582 28.9811C231.76 28.7952 230.891 28.8187 229.975 29.0517C229.121 29.2439 228.292 29.6892 227.486 30.3875C226.68 31.0859 225.929 32.0169 225.234 33.1807C224.602 34.3036 224.097 35.7029 223.717 37.3785ZM220.054 78.9874C220.927 79.185 221.575 79.6618 221.997 80.418C222.484 81.1334 222.626 81.9362 222.424 82.8264C222.223 83.7166 221.749 84.3799 221.002 84.8164C220.295 85.317 219.505 85.4684 218.632 85.2709C217.759 85.0733 217.085 84.5907 216.611 83.8229C216.176 83.1191 216.06 82.3221 216.261 81.4319C216.462 80.5418 216.911 79.8726 217.606 79.4244C218.365 78.9355 219.18 78.7899 220.054 78.9874Z" fill="#AFEEEE"/>
<path d="M199.039 5.94225C199.096 6.53858 199.234 7.03565 199.451 7.43346C199.695 7.82884 199.981 8.01072 200.312 7.9791L200.334 8.21245C199.927 8.51307 199.494 8.68526 199.036 8.72904C198.375 8.79227 197.804 8.58529 197.322 8.10809C196.84 7.63089 196.555 6.93856 196.469 6.03111C196.389 5.20144 196.486 4.47263 196.76 3.84469C197.031 3.19082 197.427 2.62971 197.946 2.16137C198.466 1.69303 199.061 1.33529 199.73 1.08813C200.422 0.812615 201.137 0.639594 201.875 0.569066C202.612 0.498537 203.347 0.532934 204.079 0.672256C204.811 0.811578 205.477 1.0619 206.076 1.42324C206.672 1.75864 207.166 2.22166 207.556 2.8123C207.969 3.37458 208.215 4.07055 208.295 4.90022C208.423 6.24844 208.255 7.70362 207.788 9.26577C207.319 10.802 206.78 12.4103 206.171 14.0908C205.584 15.7429 205.065 17.4278 204.614 19.1455C204.162 20.8632 204.018 22.5776 204.182 24.2888C203.571 24.3472 203.025 24.1378 202.543 23.6606C202.084 23.155 201.806 22.3967 201.71 21.3855C201.625 20.504 201.68 19.5961 201.873 18.6619C202.066 17.7277 202.309 16.7886 202.604 15.8447C202.924 14.8983 203.27 13.9495 203.641 12.9983C204.037 12.0446 204.398 11.1206 204.723 10.226C205.048 9.33154 205.3 8.47025 205.477 7.64219C205.677 6.78576 205.744 6.00753 205.677 5.3075C205.523 3.70001 205.051 2.51548 204.259 1.7539C203.493 0.989896 202.691 0.648021 201.852 0.728277C201.445 0.767189 201.048 0.909811 200.661 1.15614C200.296 1.37411 199.982 1.70511 199.716 2.14913C199.451 2.59315 199.246 3.13601 199.102 3.77772C198.981 4.39107 198.96 5.11258 199.039 5.94225ZM203.66 25.6731C204.092 25.6318 204.463 25.7533 204.772 26.0377C205.105 26.2937 205.292 26.6421 205.334 27.0829C205.376 27.5236 205.258 27.9012 204.981 28.2156C204.731 28.5535 204.389 28.7431 203.957 28.7844C203.525 28.8257 203.141 28.7055 202.806 28.4235C202.499 28.1651 202.324 27.8155 202.282 27.3747C202.24 26.9339 202.345 26.5576 202.598 26.2456C202.873 25.9053 203.227 25.7145 203.66 25.6731Z" fill="#F27549"/>
<path d="M67.7255 47.3188C67.7668 48.1064 67.9193 48.768 68.1832 49.3035C68.4806 49.8373 68.8476 50.0928 69.2843 50.0699L69.3004 50.3781C68.7474 50.7505 68.1685 50.9525 67.5639 50.9842C66.6906 51.0299 65.9505 50.7253 65.3436 50.0704C64.7367 49.4154 64.4019 48.4887 64.3391 47.2902C64.2817 46.1945 64.4507 45.2414 64.8461 44.4309C65.2397 43.5862 65.7916 42.8705 66.5018 42.2839C67.2121 41.6973 68.0144 41.2604 68.9087 40.9732C69.8348 40.65 70.7849 40.4629 71.759 40.4118C72.7331 40.3608 73.6975 40.4476 74.6524 40.6723C75.6072 40.8969 76.4685 41.2639 77.2361 41.773C78.002 42.2479 78.6248 42.8849 79.1045 43.6838C79.616 44.4468 79.9005 45.3761 79.9579 46.4719C80.0512 48.2525 79.7468 50.157 79.0447 52.1853C78.3409 54.1794 77.5407 56.2643 76.6443 58.4402C75.7796 60.58 75.0017 62.7668 74.3104 65.0006C73.6191 67.2344 73.3326 69.4813 73.451 71.7413C72.6449 71.7835 71.9384 71.4772 71.3315 70.8222C70.7564 70.1313 70.4339 69.1181 70.3639 67.7826C70.3029 66.6184 70.4257 65.4273 70.7324 64.2095C71.0391 62.9916 71.413 61.7702 71.854 60.5453C72.3286 59.3187 72.8368 58.0903 73.3786 56.8601C73.954 55.6282 74.4808 54.4331 74.959 53.275C75.4373 52.1168 75.8165 50.9981 76.0968 49.919C76.4088 48.8039 76.5406 47.7841 76.4922 46.8595C76.381 44.7365 75.8264 43.1517 74.8285 42.1052C73.8642 41.0569 72.8278 40.5619 71.7194 40.6199C71.182 40.6481 70.6517 40.8132 70.1287 41.1153C69.6374 41.3814 69.2046 41.799 68.8302 42.368C68.4559 42.937 68.1558 43.6394 67.9302 44.4753C67.7363 45.2752 67.6681 46.2231 67.7255 47.3188ZM72.686 73.5325C73.257 73.5026 73.738 73.6834 74.129 74.075C74.5518 74.4305 74.7785 74.8994 74.809 75.4815C74.8395 76.0636 74.6631 76.5536 74.2797 76.9514C73.9318 77.3817 73.4723 77.6117 72.9013 77.6417C72.3303 77.6716 71.8325 77.4916 71.4079 77.1019C71.0187 76.7445 70.8088 76.2748 70.7783 75.6927C70.7478 75.1106 70.9075 74.6215 71.2572 74.2255C71.6387 73.7934 72.115 73.5625 72.686 73.5325Z" fill="#FEBD14"/>
</svg>
