<svg width="1206" height="135" viewBox="0 0 1206 135" fill="none" xmlns="http://www.w3.org/2000/svg">
<path d="M4.5856 76.5316C4.30325 89.2733 6.2528 101.773 8.71329 114.219C9.20181 116.697 9.50211 119.22 9.80239 121.73C9.90547 122.577 10.0488 123.102 11.0438 123.205C15.1894 123.626 19.3351 124.101 23.4763 124.59C24.9597 124.764 25.6902 124.563 25.2734 122.721C24.6953 120.171 24.9284 117.54 25.1569 114.94C25.4796 111.288 27.223 108.756 30.9339 107.917C34.9272 107.012 38.9025 105.963 42.9406 105.363C55.6599 103.463 61.9657 94.0015 63.2609 82.6268C64.1842 74.5282 62.9517 66.5686 61.8492 58.6045C60.6526 49.9681 59.3081 41.3496 56.0184 33.1928C53.8582 27.8461 51.3439 22.7055 47.3551 18.4209C39.9199 10.4344 29.1815 12.3257 23.0415 18.4299C18.3132 23.1312 15.5749 28.9351 13.1682 35.0124C9.00464 45.5356 6.70993 56.5429 4.67072 67.5949C4.13739 70.4812 4.59008 73.5512 4.59008 76.536L4.5856 76.5316Z" fill="#AFEEEE"/>
<path d="M7.11801 51.698C6.87151 46.2258 7.109 40.8701 10.7123 36.3614C11.8911 34.8869 13.2222 33.5872 15.0149 32.8791C15.9919 32.4936 16.942 32.153 17.8204 33.26C18.4165 34.0085 19.3487 34.1833 20.2585 33.6768C20.8994 33.3183 21.2131 32.7267 21.1414 31.9917C21.0428 30.9519 20.2585 30.7637 19.4025 30.5889C17.7353 30.2438 18.2328 28.8186 17.8518 27.474C25.2244 30.6516 32.8748 29.5043 40.2831 30.3603C45.0517 30.9116 49.7755 31.5256 53.9391 34.1833C54.4545 34.5149 54.9923 34.8555 55.5794 34.4073C56.1441 33.9771 56.1665 33.2779 55.8752 32.7715C53.6433 28.8992 53.9211 23.9603 50.3716 20.3884C53.2264 19.7564 52.0164 18.4926 51.0349 17.3139C49.0584 14.9385 46.4187 13.5626 43.5638 12.5722C39.7319 11.2411 35.7699 10.524 31.7184 10.3716C24.5252 10.1027 18.2014 14.4769 15.6558 21.2623C14.607 24.0634 13.6479 26.8376 13.9482 29.8942C14.0468 30.9026 13.7869 31.6914 12.8636 32.3816C8.22498 35.855 6.19919 40.7266 5.94373 46.3378C5.73757 50.8644 4.84122 55.4089 5.9527 59.9355C6.04682 60.3254 6.03339 60.675 5.69278 60.9394C4.13312 62.163 3.61323 63.9512 3.10679 66.1428C1.90119 64.1529 1.47096 62.2795 1.39477 60.4196C1.10346 53.0739 2.02667 45.9614 5.89892 39.4942C6.32469 38.786 6.746 38.0555 6.65189 37.195C6.53088 36.1059 5.93929 35.3351 4.8054 35.3082C3.5998 35.2813 2.98577 36.0746 3.15608 37.204C3.42499 39.0012 2.84685 40.6012 2.27318 42.2146C0.233977 47.9423 -0.182851 53.8717 0.0636461 59.8817C0.0905367 60.5495 0.229487 61.2128 0.359458 61.8716C1.1124 65.6991 3.07993 69.1097 4.08832 72.861C4.45135 74.2145 5.44179 75.3439 6.46812 76.3478C7.00145 76.8677 7.5617 77.4637 8.40428 77.1993C9.26926 76.9259 9.36335 76.1282 9.39024 75.3663C9.41713 74.461 9.4037 73.6049 8.39082 73.0895C5.01156 71.3596 3.82388 66.8509 5.86309 63.6375C6.10062 63.2655 6.30679 62.7815 6.8222 62.7994C7.36001 62.8218 7.45413 63.3641 7.61548 63.754C9.19306 67.559 10.3897 71.4761 11.165 75.5231C11.3174 76.3209 11.2322 77.4234 12.3885 77.2397C13.491 77.0649 13.1594 75.9892 13.1191 75.196C12.7829 68.2537 12.7829 61.2935 13.5852 54.4005C14.0199 50.6717 15.9067 47.1938 16.3863 43.3888C16.6104 41.6185 17.1482 39.893 17.4978 38.1362C17.6412 37.4101 17.798 36.5945 16.9286 36.1687C16.095 35.7608 15.5258 36.3121 14.9745 36.841C12.9577 38.7771 11.3667 40.9866 10.3673 43.6353C9.34545 46.3423 8.20259 49 7.11352 51.6846L7.11801 51.698ZM53.7598 32.4085C50.9184 31.4673 48.4086 30.5306 45.7688 30.0018C39.3823 28.711 32.8568 28.6572 26.421 27.7788C24.0456 27.4561 21.9213 26.7614 20.3885 24.7715C19.5997 23.7497 18.6541 23.0954 17.3096 23.8707C16.6104 24.2741 16.0367 24.1127 16.1532 23.2612C16.5924 20.1419 18.6541 17.9503 20.5454 15.6198C21.7913 14.0825 22.961 15.3374 24.1577 15.3105C24.8299 15.2926 25.5022 15.3688 26.17 15.3912C31.9291 15.5525 37.6299 16.2382 43.2769 17.3721C46.0915 17.9413 48.2651 19.864 49.4752 23.0326C46.5576 20.2629 43.2366 19.0573 39.6109 18.5643C33.8294 17.78 28.012 17.5155 22.1857 17.5245C21.4597 17.5245 20.7067 17.7262 20.012 17.9727C19.1246 18.2864 18.3986 18.8959 18.4524 19.9312C18.5106 21.0606 19.4473 21.2847 20.3571 21.473C22.2081 21.8629 24.077 21.7015 25.9415 21.7105C26.4613 21.7105 27.1156 21.7194 27.1784 21.0606C27.2546 20.2225 26.5061 20.2181 25.9235 20.1464C24.2966 19.9402 22.6653 19.7564 20.6036 19.5144C21.2311 19.0573 21.388 18.8646 21.5717 18.8287C22.1544 18.7077 22.7504 18.5777 23.342 18.5688C29.3969 18.4791 35.4294 18.7122 41.3811 19.994C44.6484 20.6976 47.2926 22.3872 49.5021 24.8432C50.2819 25.7082 50.8601 26.5553 50.506 27.846C50.1296 29.213 50.6001 30.2796 52.1777 30.3603C53.3833 30.423 53.6253 31.1132 53.7553 32.4174L53.7598 32.4085ZM11.5818 69.1949C5.84069 62.8083 8.28771 42.7883 15.3151 39.5793C14.6294 43.465 14.8446 47.4717 12.644 50.8599C11.9 52.0028 11.5639 53.0784 11.5729 54.3871C11.5998 59.3081 11.5863 64.2291 11.5863 69.1993L11.5818 69.1949ZM25.9459 13.2937C31.2478 12.7021 36.4871 12.617 41.2781 15.5301C36.1509 14.934 31.0551 14.0915 25.9459 13.2937ZM48.7043 17.0674C48.6147 17.2511 48.5251 17.4349 48.431 17.6231C45.9167 16.1665 43.4069 14.7055 40.8926 13.2489C43.8327 13.8853 46.5889 14.8623 48.6999 17.0718L48.7043 17.0674Z" fill="#D15EA8"/>
<path d="M49.0045 57.3092C48.3143 61.3562 49.9457 64.5114 51.967 67.5411C54.3602 71.131 59.2991 73.2688 63.521 68.7108C64.3815 67.7786 65.3182 66.9181 66.21 66.0173C70.4139 61.7686 70.8128 56.1574 67.2677 51.2723C66.963 50.851 66.6134 50.4386 66.4207 49.9681C65.3002 47.2073 64.5249 46.8532 61.7955 47.9557C59.6532 48.8207 57.5243 49.735 55.3686 50.5641C52.8005 51.5546 50.5462 52.9081 49.2644 55.624C47.2297 53.177 45.065 54.907 43.0258 55.279C41.8382 55.4941 40.8522 56.2739 40.6146 54.2571C40.5026 53.3204 39.6286 52.7064 38.5754 53.0336C37.4595 53.3787 37.1323 54.3064 37.4012 55.3641C37.7418 56.7266 37.9928 58.1652 38.6382 59.3888C40.4667 62.8711 40.6729 66.6627 41.0762 70.4318C41.2689 72.247 40.5384 73.4705 38.804 74.0531C34.5373 75.4828 30.199 76.5674 25.6634 76.4374C22.6472 76.3523 20.1822 75.0884 18.5374 72.471C16.9464 69.9299 15.566 67.2811 14.9385 64.3232C14.338 61.5086 14.9117 59.7518 17.4215 58.4745C21.8002 56.2515 26.2371 54.0958 30.9654 52.6661C31.5928 52.4779 32.283 52.4734 32.9463 52.4286C33.4079 52.3972 34.1071 52.9574 34.255 52.1731C34.3939 51.4157 33.6096 51.2588 33.0404 51.1826C31.9693 51.0347 30.9609 51.4157 30.0018 51.8011C25.78 53.4997 21.5312 55.1355 17.3946 57.0224C13.6075 58.7479 12.6394 61.2621 13.8809 65.2599C14.6831 67.8324 15.8349 70.2526 17.1391 72.61C19.0708 76.0968 22.1363 77.6565 25.9727 77.764C30.6472 77.894 35.1648 76.8049 39.5973 75.4693C42.0354 74.7343 42.8062 73.3315 42.7345 70.7007C42.6449 67.2587 42.134 63.866 41.4572 60.4957C40.9732 58.089 41.7978 57.2196 44.3031 57.4885C45.0426 57.5691 45.7821 57.7843 46.5171 57.7663C47.2431 57.7484 47.9647 57.5064 49.0135 57.3002L49.0045 57.3092ZM68.0251 57.8067C68.7108 62.6694 65.1613 65.3988 61.8179 68.173C59.3753 70.1988 56.4308 69.9837 54.1585 67.7383C52.321 65.9232 50.9317 63.7316 50.4476 61.2083C49.9098 58.4207 50.0174 55.4717 52.7602 53.791C56.1753 51.7025 59.9579 50.591 64.0588 50.8734C64.8655 50.9272 65.4616 51.1737 65.9725 51.8101C67.317 53.4863 68.3478 55.261 68.0251 57.8022V57.8067Z" fill="#D15EA8"/>
<path d="M51.2094 90.8463C48.8654 90.9225 46.9338 91.2631 45.0246 91.7382C44.2716 91.9264 43.5769 92.3611 43.7786 93.2799C43.9848 94.2345 44.8094 94.2435 45.5668 94.1C47.6509 93.7056 49.5242 92.89 51.2139 90.8418L51.2094 90.8463Z" fill="#D15EA8"/>
<path d="M30.1185 57.5468C30.244 58.3849 30.6877 58.9541 31.5527 58.9182C32.4938 58.8779 33.0585 58.2953 32.9644 57.3317C32.8837 56.4802 32.2742 56.0409 31.4361 56.0858C30.5667 56.1351 30.1723 56.7177 30.1185 57.5468Z" fill="#D15EA8"/>
<path d="M57.726 58.8107C57.7574 59.6488 58.1742 60.2045 59.0302 60.2762C59.8773 60.3479 60.4778 59.9042 60.5675 59.0616C60.6661 58.1115 60.1327 57.493 59.1826 57.4482C58.3266 57.4079 57.8694 57.9726 57.726 58.8107Z" fill="#D15EA8"/>
<path d="M184.684 118.345C185.538 120.024 185.113 121.927 185.618 123.671C185.868 124.531 185.193 124.801 184.484 124.951C181.566 125.585 178.648 126.225 175.734 126.874C174.57 127.134 173.946 126.699 173.451 125.58C171.682 121.548 168.894 118.205 165.701 115.272C153.419 103.994 145.634 89.8535 140.098 74.4436C136.56 64.585 135.256 54.1719 136.805 43.7537C138.509 32.2712 147.868 23.2471 159.185 21.1435C161.883 20.6438 164.297 21.5232 166.635 22.6075C171.867 25.0309 175.959 28.8434 179.782 33.1157C189.895 44.4232 197.665 57.065 202.517 71.4705C204.081 76.1225 204.341 80.9293 204.106 85.7612C203.916 89.6936 201.288 92.0521 198.13 93.7909C196.181 94.8602 194.942 96.1394 194.617 98.4479C194.362 100.267 193.228 101.821 192.164 103.31C189.42 107.157 186.497 110.895 184.778 115.372C183.414 115.492 183.719 114.367 183.564 113.668C181.965 106.473 185.263 101.476 190.63 97.6834C191.504 97.0638 192.548 96.679 193.343 95.6147C192.379 95.23 191.544 95.6347 190.73 95.7796C186.477 96.5341 182.285 97.5135 177.903 97.5535C170.233 97.6234 163.652 95.3599 158.601 89.4138C154.134 84.1572 149.616 78.9356 146.064 72.9895C145.949 72.8197 145.909 72.6098 145.854 72.4099C145.429 72.6398 145.914 72.6498 145.954 72.7047C146.144 72.9745 145.819 72.6598 146.029 72.9246C149.961 80.7944 153.424 88.8941 157.741 96.5691C161.784 103.764 166.42 110.54 172.352 116.311C175.455 119.329 179.312 121.268 183.154 123.107C184.244 121.483 182.49 119.319 184.679 118.335L184.684 118.345Z" fill="#AFEEEE"/>
<path d="M145.699 72.3849C149.507 77.1767 153.444 81.8736 157.097 86.7804C163.638 95.5647 172.467 98.083 182.845 96.549C186.198 96.0544 189.521 95.3598 192.854 94.7402C193.458 94.6303 194.193 94.0257 194.537 94.9851C194.812 95.7546 194.148 96.2392 193.593 96.564C191.06 98.0281 188.741 99.732 186.783 101.936C183.904 105.178 182.785 110.745 184.769 115.377C184.739 116.366 184.704 117.355 184.674 118.345C183.565 120.089 184.609 122.092 183.959 124.091C177.019 121.163 171.203 116.946 166.531 110.955C157.712 99.642 151.835 86.7455 145.964 73.8239C145.769 73.3892 145.789 72.8596 145.709 72.3699L145.689 72.3898L145.699 72.3849Z" fill="#A0DADA"/>
<path d="M145.724 72.365C145.649 72.33 145.574 72.3 145.504 72.265C145.569 72.305 145.639 72.345 145.704 72.3899L145.724 72.37V72.365Z" fill="#A0DADA"/>
<path d="M153.135 82.7031C153.289 86.9154 153.134 86.9803 149.792 86.6106C147.848 86.3957 145.524 85.5862 144.76 88.6392C143.941 91.9121 144.65 93.4511 147.733 94.7902C150.441 95.9644 153.15 96.1493 156.003 95.2699C158.536 94.4904 159.101 95.0101 159.18 97.6683C159.205 98.4878 159.275 99.3272 159.46 100.122C159.63 100.846 159.725 101.496 158.901 101.771C158.061 102.05 157.412 101.641 157.112 100.846C156.912 100.317 156.792 99.717 156.797 99.1524C156.797 98.0431 156.412 97.7583 155.278 97.9381C151.361 98.5577 147.873 97.1387 144.695 95.12C141.997 93.4061 141.747 88.0646 144.325 85.5413C145.719 84.1722 145.215 83.6775 144.095 82.7631C141.737 80.8343 139.658 78.6358 137.005 76.9669C130.474 72.8646 128.68 66.1689 128.67 59.0486C128.66 50.1544 132.363 42.4295 137.425 35.3141C139.064 33.0107 140.808 30.7821 142.571 28.5736C143.216 27.7641 144.13 27.2844 145.23 27.6442C145.909 27.864 146.354 28.3737 146.449 29.0982C146.589 30.1675 145.934 30.7821 145.12 31.2968C137.08 36.3834 133.223 44.2783 130.754 53.0176C129.13 58.7738 129.955 64.3302 132.468 69.7616C133.757 72.5398 135.671 74.4285 138.484 75.3279C140.008 75.8176 141.132 76.6421 142.082 77.8413C143.796 80.0149 146.054 81.6288 147.998 83.5576C148.702 84.2571 149.617 84.6269 150.496 84.2221C151.471 83.7774 150.971 82.7581 150.936 81.9786C150.816 79.2953 149.777 76.9969 147.998 74.9932C147.123 74.0038 146.149 73.0245 145.934 71.6354C145.764 70.5311 146.144 69.6117 147.263 69.2569C148.283 68.9321 149.262 69.3668 149.472 70.3462C150.436 74.7833 153.854 78.5309 153.13 82.7081L153.135 82.7031Z" fill="#D15EA8"/>
<path d="M196.226 44.7082C196.226 45.3328 196.226 45.5826 196.226 45.8324C196.206 48.096 196.926 50.5494 194.083 51.8985C190.865 53.4275 187.742 54.5967 184.589 51.8385C183.929 51.2589 182.77 50.8092 183.585 49.7149C184.239 48.8355 185.093 49.4651 185.793 49.9198C187.117 50.7942 188.336 51.6836 190.145 51.0091C194.068 49.545 194.217 49.515 194.128 45.3028C194.073 42.7245 193.778 40.1562 193.668 37.5778C193.603 36.0988 192.903 35.7041 191.559 36.0189C190.74 36.2087 189.925 36.3886 189.306 37.0082C186.008 40.2961 182.435 43.404 182.365 48.6406C182.34 50.4094 180.906 50.3495 179.657 50.5094C178.937 50.5993 177.968 50.5394 177.648 51.2539C177.264 52.1133 178.273 52.4881 178.743 53.0127C181.986 56.6404 180.986 61.817 176.099 64.865C173.701 66.359 171.722 68.1328 170.028 70.3114C168.314 72.52 166.066 73.2195 163.373 72.6799C162.883 72.5799 162.368 72.5549 161.904 72.3851C160.375 71.8204 157.796 73.1496 157.377 70.896C156.937 68.5226 157.317 65.8893 159.255 63.9206C161.594 61.5521 163.867 59.1137 166.291 56.8352C168.05 55.1813 169.789 53.5374 171.353 51.6786C173.111 49.595 175.989 49.58 178.308 48.5257C179.367 48.046 179.977 47.8012 180.377 46.557C181.991 41.5452 185.688 37.9876 189.431 34.5448C190.46 33.6004 192.079 33.5805 193.493 33.5755C194.917 33.5705 195.577 34.5348 195.617 35.859C195.712 38.937 196.421 41.975 196.221 44.6982L196.226 44.7082ZM165.082 70.956C166.9 71.1459 168.1 70.1265 169.144 68.8923C170.968 66.7387 172.866 64.7451 175.275 63.1411C177.463 61.6871 178.893 59.4585 178.273 56.5254C177.723 53.9171 175.79 53.0627 173.586 54.4368C172.602 55.0514 171.602 55.646 170.608 56.2506C166.736 58.5991 163.428 61.5921 160.545 65.0698C159.465 66.379 159.021 68.0179 159.35 69.4969C159.655 70.8561 161.364 70.0966 162.408 70.4363C163.268 70.7112 164.192 70.7961 165.087 70.961L165.082 70.956Z" fill="#D15EA8"/>
<path d="M164.262 33.8802C165.891 32.7559 165.941 31.4518 166.186 30.3025C166.96 26.6649 166.73 23.0173 166.121 19.3797C166.011 18.7251 165.836 18.0655 165.846 17.406C165.861 16.2867 166.411 15.4173 167.585 15.3373C168.904 15.2474 169.813 16.1568 169.608 17.331C168.679 22.6525 169.199 28.1739 167.415 33.3655C166.995 34.5897 166.326 35.3192 164.717 35.4292C162.823 35.5591 161.194 36.3236 160.2 33.7703C159.34 31.5567 157.936 29.548 156.387 27.5643C156.777 30.7672 157.162 33.9751 157.561 37.178C157.671 38.0724 157.631 39.0368 156.542 39.0768C155.428 39.1168 155.318 38.1324 155.443 37.253C156.292 31.1969 154.648 25.7255 151.605 20.5689C151.181 19.8544 150.756 19.1348 150.386 18.3903C150.116 17.8407 150.051 17.2511 150.591 16.7914C151.235 16.2417 151.845 16.5016 152.385 16.9663C153.414 17.8557 154.024 19.0499 154.693 20.2041C156.482 23.3021 158.256 26.4101 160.065 29.4931C160.464 30.1726 160.984 30.7822 161.864 31.9864C162.168 28.5637 161.889 25.8754 161.239 23.2571C160.15 18.865 158.805 14.5878 154.828 11.7597C153.684 10.9452 153.149 9.69601 154.383 8.59173C155.618 7.48246 156.747 8.25696 157.526 9.37123C158.386 10.6004 158.706 12.2094 160.979 11.6697C162.048 11.4149 162.423 12.9689 162.728 14.0482C164.517 20.394 165.751 26.7898 164.272 33.8752L164.262 33.8802Z" fill="#D15EA8"/>
<path d="M138.544 46.1621C137.854 51.6435 137.879 57.065 140.353 62.1966C140.677 62.8712 140.977 63.5557 141.277 64.2403C141.587 64.9498 141.917 65.7842 140.942 66.144C139.988 66.4938 139.688 65.5944 139.383 64.9248C139.178 64.4751 139.073 63.9754 138.899 63.5107C136.475 56.965 136.64 50.1145 136.53 43.299C136.52 42.6044 136.585 41.8999 137.37 41.675C138.129 41.4552 138.614 41.9649 139.019 42.5295C140.203 44.1734 140.827 46.0722 141.487 48.2757C143.755 46.5918 146.109 45.1827 148.043 43.334C151.535 39.9911 151.57 31.5667 148.327 27.5543C147.443 26.46 146.229 25.5006 147.033 23.8617C147.353 23.2071 147.993 22.9123 148.712 23.0372C150.421 23.332 150.771 24.7561 151.22 26.1152C151.98 28.4237 152.31 30.8022 152.575 33.2056C153.224 39.1067 151.36 43.8236 146.339 47.1964C144.68 48.3107 143.181 49.6498 142.221 51.4686C141.897 52.0882 141.467 52.6179 140.682 52.478C139.718 52.3081 139.643 51.5136 139.633 50.7491C139.613 49.1601 139.408 47.6211 138.559 46.1571L138.544 46.1621Z" fill="#D15EA8"/>
<path d="M195.012 79.5502C194.907 79.7901 194.847 80.2848 194.562 80.5096C192.474 82.1635 190.825 84.2122 189.226 86.3158C188.911 86.7305 188.386 86.9304 187.912 86.5956C187.452 86.2758 187.397 85.7112 187.662 85.2565C188.946 83.0479 189.596 80.4996 191.259 78.5009C191.929 77.6965 192.798 77.2168 193.888 77.6315C194.667 77.9263 195.002 78.5609 195.007 79.5452L195.012 79.5502Z" fill="#D15EA8"/>
<path d="M290.441 132.5C290.441 130.082 290.425 127.834 290.441 125.59C290.521 114.891 289.331 104.285 288.087 93.6871C287.498 88.6699 284.851 85.3019 279.867 83.896C276.419 82.9226 272.926 82.1231 269.575 80.7868C265.65 79.2225 263.862 76.3489 263.396 72.278C262.876 67.7397 263.361 63.2941 264.19 58.864C265.569 51.4753 265.969 43.9359 267.656 36.5974C268.677 32.1557 269.74 27.7217 270.803 23.2916C272.128 17.7722 274.902 12.9597 277.891 8.20129C281.157 2.99868 286.088 2.09875 291.465 2.63562C302.832 3.77502 311.206 9.60719 316.094 19.9236C322.619 33.7006 324.823 48.1961 321.934 63.2864C320.185 72.4286 315.081 78.9406 306.299 82.3047C301.75 84.0466 299.639 87.4262 299.207 92.1421C298.137 103.861 298.946 115.517 300.244 127.162C300.321 127.857 300.575 128.661 299.704 129.008C296.688 130.206 293.807 131.774 290.433 132.5H290.441Z" fill="#A0DADA"/>
<path d="M274.246 27.2874C276.58 25.6461 278.519 24.3108 280.428 22.9381C286.398 18.641 292.357 14.3216 298.327 10.0245C299.72 9.02113 301.199 8.10352 302.889 9.44635C304.126 10.4274 304.064 12.4342 302.854 14.2134C302.717 14.4148 302.592 14.6274 302.448 14.855C303.068 15.269 303.439 14.7207 303.884 14.6163C305.148 14.3179 306.366 14.2358 307.314 15.2578C308.196 16.209 308.11 17.3057 307.626 18.4098C306.854 20.1853 306.374 22.013 306.28 24.2585C308.77 22.8038 309.956 20.7261 311.01 18.6485C312.137 16.4216 313.156 14.1202 313.246 11.5576C313.288 10.364 313.729 9.28969 315.181 9.14422C316.789 8.98009 317.573 10.0096 317.913 11.2965C318.51 13.542 318.018 15.7502 317.347 17.9062C316.371 21.032 314.888 23.9154 312.582 26.3698C307.767 31.4949 303.786 31.0287 300.68 24.8255C299.389 25.8998 298.144 26.9703 296.86 27.9886C295.607 28.9808 294.304 29.9134 292.634 30.2006C289.816 30.6855 288.248 29.2531 288.575 26.519C288.654 25.8625 289.087 25.2507 288.813 24.3555C285.945 26.5376 282.987 28.4176 279.948 30.1819C278.609 30.9578 277.236 31.6516 275.733 32.0955C273.841 32.6512 271.928 32.8303 270.457 31.3308C268.85 29.6896 268.904 27.694 269.829 25.7506C271.452 22.3376 273.603 19.2304 276.108 16.3545C280.56 11.248 285.7 6.90617 291.787 3.64607C292.817 3.09402 294.335 1.90785 295.057 2.85529C295.826 3.86241 293.957 4.50772 293.18 5.20525C286.613 11.0876 280.638 17.4586 275.542 24.5607C275.07 25.2209 274.547 25.8625 274.246 27.2836V27.2874Z" fill="#D15EA8"/>
<path d="M297.273 74.4763C296.148 74.4763 295.452 74.4887 294.753 74.4763C293.751 74.4514 293.262 73.6833 293.188 72.6494C293.111 71.5325 293.649 70.9139 294.623 70.7188C297.414 70.1624 300.198 70.8558 302.989 70.7478C303.847 70.7146 304.174 71.5159 304.181 72.4294C304.188 73.5089 303.492 73.8701 302.771 73.9033C300.785 73.9905 298.841 74.6299 297.27 74.4763H297.273Z" fill="#D15EA8"/>
<path d="M303.181 55.1155C303.44 53.6936 303.632 52.3713 305.306 52.51C306.366 52.5967 307.342 52.8178 307.159 54.3222C306.972 55.8439 306.577 57.5129 304.891 57.4999C303.835 57.4913 303.249 56.2514 303.181 55.1199V55.1155Z" fill="#D15EA8"/>
<path d="M292.188 53.9748C292.198 52.8524 292.233 51.4514 293.13 51.5013C294.326 51.5678 294.049 53.4344 294.166 54.5859C294.265 55.5628 293.873 56.6146 293.122 56.4899C292.228 56.3444 292.153 55.1347 292.188 53.9748Z" fill="#D15EA8"/>
<path d="M449.906 58.0114C449.906 71.3533 447.206 84.2922 444.128 97.1811C442.919 102.249 441.229 107.213 440.694 112.431C440.626 113.077 440.13 113.305 439.713 113.608C437.88 114.931 435.94 116.094 433.903 117.057C431.956 117.977 429.93 117.206 427.951 117.035C427.227 116.975 427.309 116.147 427.266 115.562C427.113 113.373 427.145 111.183 426.888 108.989C426.399 104.795 423.924 102.395 420.165 101.083C416.267 99.724 412.177 99.3745 408.104 98.9608C402.144 98.3545 396.181 97.8801 390.686 95.0591C384.569 91.9171 381.452 86.0361 382.326 79.2101C383.21 72.3127 385.875 65.9395 387.954 59.3987C390.882 50.1903 394.798 41.4491 400.743 33.7207C404.901 28.3176 410.108 24.2091 416.374 21.6913C423.646 18.7704 430.251 20.55 435.936 25.7356C438.258 27.8504 440.415 30.1686 442.48 32.5367C446.617 37.2835 448.072 43.1788 449.21 49.1561C449.766 52.0698 449.98 55.0406 449.902 58.015L449.906 58.0114Z" fill="#AFEEEE"/>
<path d="M398.628 31.7022C398.546 28.1073 398.956 25.083 400.989 22.4153C402.89 19.9295 405.483 18.8881 408.414 18.4138C409.395 18.2569 410.397 18.2426 411.381 18.1178C413.824 17.8111 415.604 19.0558 417.088 20.7213C417.772 21.4916 417.958 21.3917 418.621 20.732C420.486 18.8774 422.512 17.2761 425.419 17.5258C427.263 17.6863 428.254 18.7776 428.917 20.361C429.37 21.4381 429.624 22.9895 430.44 23.4032C431.2 23.7884 432.576 22.9253 433.689 22.6578C437.502 21.7412 439.199 23.0858 439.256 26.9696C439.281 28.6386 439.132 30.2756 438.65 31.8698C438.379 32.7757 438.739 33.1822 439.584 32.9754C443.782 31.934 445.523 34.3948 445.594 38.5782C445.633 40.8464 445.865 42.141 448.49 42.6938C451.122 43.2466 452.049 47.7367 451.172 50.7967C451.025 51.3066 450.861 51.8309 450.594 52.2803C449.981 53.3038 450.03 53.9743 450.993 54.9337C452.637 56.5742 452.513 58.8246 451.617 60.7326C450.701 62.6834 450.533 64.6771 450.369 66.7135C449.973 71.6208 448.554 76.1894 445.965 80.3835C444.966 81.999 443.618 82.1845 442.783 80.8828C442.413 80.3014 442.566 79.8164 442.737 79.2172C443.226 77.5268 443.775 75.8506 443.686 74.0317C443.622 72.7442 442.98 72.6907 442.067 73.0795C441.225 73.4397 440.644 74.128 440.137 74.8698C439.174 76.2821 438.211 77.6944 437.263 79.1174C436.335 80.5083 434.937 80.28 433.743 79.8806C432.605 79.5026 432.416 78.4362 432.659 77.2129C433.29 74.0745 435.048 71.4532 436.492 68.7071C437.819 66.1821 438.796 63.5822 439.26 60.779C439.288 60.6042 439.235 60.3867 439.324 60.2547C441.239 57.3624 439.784 54.1063 440.33 51.0677C440.497 50.1297 440.191 49.6697 439.106 49.7125C437.766 49.7624 436.706 49.4236 436.136 47.8508C435.654 46.5134 434.517 45.7716 432.848 46.5134C430.736 47.4478 429.228 46.3957 429.438 44.1418C429.57 42.7188 429.149 41.8486 427.869 41.1852C426.756 40.6075 425.907 39.6873 425.668 38.3392C425.415 36.9198 424.595 35.75 423.839 34.5803C423.258 33.6815 422.33 33.4533 421.346 33.9668C419.962 34.6872 419.013 34.1773 418.186 33.0146C417.066 31.4383 415.208 31.3313 413.557 32.4547C411.617 33.7778 410.383 35.7393 408.757 37.3407C406.488 39.5696 403.703 39.7551 400.778 39.345C400.194 39.2629 399.908 38.7565 399.748 38.2251C399.07 35.9676 398.204 33.7422 398.614 31.7093L398.628 31.7022ZM444.759 53.1469C445.316 52.2482 445.711 51.6312 446.09 50.9999C447.662 48.3751 447.003 46.8487 444.117 46.4243C441.107 45.982 440.537 44.987 441.492 42.1125C442.127 40.2045 441.76 38.1681 441.139 36.4384C440.815 35.5289 438.903 36.1423 437.712 36.0425C437.534 36.0282 437.359 36.0104 437.181 36.0068C436.007 35.9783 435.479 35.2329 435.39 34.2022C435.308 33.2678 435.344 32.3227 435.54 31.3741C435.79 30.1758 435.904 28.9454 436.029 27.7257C436.164 26.374 435.455 25.9282 434.224 26.2278C433.254 26.4632 432.302 26.777 431.343 27.0516C428.825 27.7649 427.862 27.2157 427.152 24.7406C426.942 24.0095 426.603 23.314 426.35 22.59C426 21.595 425.283 21.3632 424.374 21.677C423.411 22.0087 422.583 22.5152 422.063 23.4852C421.253 24.9902 420.337 26.4382 419.498 27.9289C419.252 28.3676 418.382 28.7314 419.135 29.3769C419.62 29.7942 420.087 29.9047 420.85 29.5802C423.14 28.6101 425.308 29.0595 426.988 30.9425C428.161 32.2585 429.117 33.7422 429.338 35.5896C429.502 36.959 429.909 38.1502 431.339 38.8671C432.077 39.2344 432.705 40.0119 432.851 40.9712C433.001 41.9377 433.472 42.3122 434.524 42.2123C436.592 42.0162 438.008 42.9256 438.654 44.9763C438.982 46.0248 439.606 46.6596 440.89 46.4813C441.963 46.3315 442.766 46.9592 443.418 47.8152C444.549 49.2952 444.449 51.0927 444.759 53.1505V53.1469ZM408.115 21.1385C409.256 22.2441 409.074 23.0751 408.214 23.9203C406.438 25.6714 406 27.8683 406.21 30.2542C406.317 31.4704 406.702 31.8413 407.811 30.9104C409.595 29.4126 411.613 28.364 414.024 28.3034C414.434 28.2927 414.812 28.3533 414.737 27.6579C414.609 26.4881 414.691 25.2934 414.584 24.12C414.391 22.048 413.414 21.1778 411.353 21.1421C410.408 21.1278 409.466 21.1421 408.115 21.1421V21.1385ZM405.372 23.0751C405.094 23.1072 404.976 23.0929 404.891 23.1357C404.734 23.2142 404.57 23.3069 404.452 23.4317C401.584 26.4132 400.932 30.0188 401.595 33.9454C401.681 34.4412 401.677 35.4041 402.394 35.3256C403.097 35.2472 403.853 34.7693 404.388 34.2593C405.033 33.6459 403.999 33.4925 403.817 33.0788C403.393 32.1123 402.925 31.2385 402.936 30.1009C402.954 27.5045 403.653 25.1792 405.376 23.0751H405.372ZM444.774 53.9565C444.435 55.0157 445.048 55.8217 444.987 56.7062C444.891 58.1006 446.072 58.3574 446.974 58.8317C447.455 59.0849 447.773 58.6748 447.994 58.3752C448.301 57.9544 447.873 57.7404 447.577 57.6085C446.029 56.9237 445.287 55.6006 444.77 53.9565H444.774ZM436.517 75.3691C437.334 74.4668 437.89 73.8819 438.411 73.2685C438.589 73.0581 439.074 72.8191 438.486 72.5017C438.072 72.2806 437.716 71.9418 437.427 72.7086C437.149 73.4504 436.649 74.1137 436.517 75.3691Z" fill="#D15EA8"/>
<path d="M404.855 89.9807C401.798 88.9536 398.646 88.3473 396.003 86.475C395.318 85.9899 395.175 85.1839 395.6 84.4065C396.014 83.6468 396.623 83.6825 397.419 83.8786C399.748 84.4635 402.109 84.9378 404.462 85.4229C405.201 85.5727 405.764 85.9864 406.253 86.4892C406.855 87.1062 407.155 87.823 406.83 88.7325C406.474 89.7311 405.536 89.6027 404.855 89.9807Z" fill="#D15EA8"/>
<path d="M406.742 46.813C406.802 45.6111 407.223 44.6803 408.143 44.0205C409.153 43.2965 410.24 43.0505 411.125 44.0954C411.988 45.1154 411.2 45.9428 410.519 46.6989C410.247 46.9984 409.802 47.216 409.684 47.5584C409.334 48.557 408.586 48.8066 407.726 48.5926C406.817 48.3679 406.827 47.4763 406.745 46.813H406.742Z" fill="#D15EA8"/>
<path d="M420.529 49.2953C420.49 50.3581 420.479 51.6705 418.942 51.6883C417.933 51.699 417.341 50.7325 417.594 49.7874C417.862 48.7817 418.043 47.3801 419.523 47.3944C420.64 47.4051 420.729 48.2967 420.533 49.2953H420.529Z" fill="#D15EA8"/>
<path d="M525.954 85.3046C522.84 82.1234 519.576 79.0919 516.765 75.615C513.418 71.4757 511.723 66.6664 511.4 61.4825C510.446 46.2187 514.629 32.4016 524.038 20.3466C527.385 16.0576 531.926 13.3809 537.607 12.8369C546.012 12.0288 551.558 15.009 555.118 22.9366C559.222 32.0823 561.961 41.6379 563.01 51.6351C563.4 55.3486 563.755 59.066 564.106 62.7873C564.666 68.6926 562.852 74.1958 561.232 79.7384C559.06 87.1614 555.666 94.1862 554.148 101.818C553.316 106.001 552.634 110.199 552.335 114.453C552.303 114.906 552.382 115.383 552.039 115.761C550.825 115.714 551.058 114.721 551.058 114.058C551.05 110.518 551.006 106.978 550.632 103.454C550.577 102.934 550.604 102.406 550.537 101.885C549.615 94.5213 548.791 93.3505 542.046 90.3111C537.441 88.2376 532.857 86.1207 528.178 84.2127C526.833 83.6647 526.041 83.5819 525.966 85.3007L525.954 85.3046Z" fill="#AFEEEE"/>
<path d="M525.954 85.3047C526.041 84.4256 525.315 83.7594 525.205 82.6871C528.323 83.515 531.063 84.8671 533.85 86.0616C537.402 87.5832 540.792 89.5149 544.411 90.8276C548.791 92.4202 550.143 95.8144 550.73 99.8826C551.385 104.424 551.605 108.989 551.558 113.577C551.55 114.315 551.227 115.178 552.027 115.765C551.791 119.936 551.554 124.107 551.318 128.278C551.057 128.826 551.191 129.713 550.265 129.705C549.607 129.697 549.236 129.153 548.992 128.617C545.491 120.985 540.244 114.378 536.29 107.01C536.152 106.233 536.01 105.457 535.872 104.68C535.786 104.235 535.612 103.773 535.683 103.332C536.302 99.5515 534.319 96.721 532.277 93.9103C530.748 91.8052 528.982 89.8815 527.511 87.733C526.991 86.9249 526.474 86.1168 525.954 85.3086V85.3047Z" fill="#A0DADA"/>
<path d="M536.29 107.01C537.887 107.652 538.064 109.363 538.841 110.578C542.578 116.428 546.571 122.136 549.437 128.502C550.332 130.493 550.718 128.573 551.321 128.282C551.542 129.18 551.637 130.063 551.042 131.08C550.147 129.843 549.047 129.961 547.801 130.312C543.638 131.49 539.543 131.416 535.62 129.37C535.013 129.054 534.229 128.92 534.441 127.872C535.841 120.989 535.794 113.972 536.294 107.006L536.29 107.01Z" fill="#AFEEEE"/>
<path d="M527.511 87.733C530.637 90.3348 532.719 93.7526 534.97 97.0601C536.637 99.5081 536.334 102.051 535.872 104.68C534.071 101.152 532.23 97.6395 530.476 94.0838C529.443 91.9905 528.138 90.0155 527.507 87.733H527.511Z" fill="#AFEEEE"/>
<path d="M542.558 13.5702C542.728 13.4598 542.775 13.4047 542.83 13.3968C544.368 13.1918 546.008 14.6937 547.127 14.0039C548.239 13.3179 548.712 11.5597 549.8 10.4757C553.367 6.92383 557.684 4.81875 562.6 4.05792C568.048 3.21431 571.836 6.28127 572.187 11.812C572.294 13.4874 572.849 14.7174 573.847 16.034C578.822 22.5937 580.615 29.9733 579.113 38.1098C578.203 43.0493 576.33 47.6694 574.442 52.2856C574.418 52.3448 574.391 52.4079 574.363 52.467C573.764 53.7088 573.035 54.9387 571.41 54.3789C569.822 53.8309 569.865 52.4276 570.216 51.0675C570.937 48.2726 571.749 45.5052 572.427 42.7024C573.571 37.9797 574.663 33.2532 573.835 28.3137C573.496 26.2835 572.826 24.3795 572.073 22.4912C571.596 21.3046 571.265 20.1733 569.372 20.4374C567.937 20.6384 567.618 19.1917 567.61 17.9026C567.594 15.4546 566.538 14.4375 564.106 14.9815C560.834 15.7187 557.645 16.7239 555.89 20.0708C555.212 21.3677 553.994 21.2416 553.052 20.3861C550.671 18.2298 547.892 16.8264 544.931 15.6753C543.946 15.2929 542.96 14.7016 542.554 13.5742L542.558 13.5702ZM565.907 10.9132C566.274 10.7713 567.161 11.5795 567.401 10.6334C567.579 9.93954 567.015 9.27727 566.455 8.78451C565.497 7.9409 564.37 7.74379 563.14 7.95666C558.934 8.68989 555.102 10.3377 551.621 12.7857C548.94 14.6701 548.968 14.7095 551.609 16.3494C551.72 16.4204 551.846 16.4756 551.94 16.5623C552.894 17.4571 553.486 17.3271 554.44 16.2824C557.436 13.0104 561.236 11.2207 565.903 10.9093L565.907 10.9132Z" fill="#D15EA8"/>
<path d="M556.62 39.8443C558.106 46.5735 557.716 52.9912 557.984 59.6731C559.104 58.8531 559.584 57.4222 561.015 57.5483C562.596 57.6863 562.565 59.2473 563.184 60.2368C563.393 60.2053 563.602 60.1737 563.81 60.1422C563.81 56.7757 563.81 53.4052 563.81 50.0386C563.81 43.3607 561.895 37.0967 559.663 30.9036C559.313 29.926 558.615 28.4989 559.577 28.018C560.625 27.4976 561.094 29.0548 561.627 29.8629C566.558 37.3963 568.474 45.6747 567.689 54.6154C567.528 56.4445 567.445 58.2815 567.275 60.1146C567.134 61.6639 566.412 62.8031 564.701 62.7401C563.661 62.7006 563.668 63.2013 563.728 63.9306C563.992 67.0015 562.427 69.4889 561.079 72.0316C560.609 72.9146 559.801 73.4547 558.784 72.9422C557.661 72.3785 557.724 71.389 558.173 70.3996C558.717 69.2051 559.313 68.0343 559.857 66.8438C560.318 65.8386 560.657 64.8057 560.168 63.3747C559.454 64.4667 558.938 65.3418 558.335 66.1539C557.803 66.8753 557.085 67.3641 556.127 67.0567C555.228 66.7689 555.023 66.0041 555.016 65.1684C554.941 57.6193 554.838 50.0741 555.437 42.5368C555.501 41.7562 555.638 40.9875 556.612 39.8522L556.62 39.8443Z" fill="#D15EA8"/>
<path d="M544.727 16.0695C544.108 17.0905 543.205 17.3941 542.464 17.8553C539.456 19.716 537.028 22.1758 534.907 24.9669C534.323 25.7316 533.645 26.457 535.277 26.8788C536.109 27.0956 536.503 27.8604 536.409 28.7434C536.314 29.6225 535.739 30.202 534.919 30.3912C533.704 30.6671 532.467 30.8406 531.233 31.0022C526.613 31.6132 521.988 32.2085 517.364 32.8038C514.475 33.1743 512.862 31.8301 512.725 28.909C512.622 26.7053 513.383 24.7737 514.755 23.0904C519.103 17.7646 525.032 15.0643 531.438 13.2509C534.087 12.5019 536.827 12.0407 539.61 12.3285C540.233 12.3915 541.23 12.36 541.273 13.0696C541.324 13.9368 540.264 13.72 539.708 13.8225C532.585 15.1352 526.317 18.352 520.467 22.4715C518.63 23.7645 517.045 25.3532 516.328 27.5923C516.17 28.0851 515.929 28.6488 516.316 29.0942C516.769 29.6185 517.297 29.1297 517.763 29.0036C521.444 28.0102 525.154 27.1666 528.974 26.9379C530.058 26.8748 530.704 26.4688 531.288 25.4872C533.653 21.4899 536.953 18.4545 541.19 16.4953C542.247 16.0064 543.343 15.7187 544.723 16.0735L544.727 16.0695Z" fill="#D15EA8"/>
<path d="M547.135 23.7053C548.405 23.4846 549.564 23.185 550.34 24.3203C551.16 25.5187 550.257 26.4214 549.694 27.3518C549.221 28.1363 548.771 28.9602 548.168 29.6382C547.399 30.4976 546.359 30.7262 545.712 29.5988C545.062 28.4674 544.577 28.9326 543.903 29.4372C543.386 29.8274 542.854 30.2808 542.259 30.4661C541.021 30.8524 539.976 29.9023 540.489 28.767C541.884 25.6764 543.69 22.8657 546.989 21.4465C547.644 21.1627 548.353 21.005 549.185 21.4978C548.783 22.436 547.561 22.574 547.135 23.7053Z" fill="#D15EA8"/>
<path d="M535.096 75.8989C534.367 75.757 533.571 75.7018 532.845 75.4495C530.728 74.7123 528.789 73.5415 526.475 73.2577C525.363 73.1236 524.685 72.0553 524.732 70.7465C524.76 69.9778 524.862 69.2525 525.631 68.9647C526.337 68.7006 526.916 69.1263 527.291 69.7098C527.543 70.1 527.681 70.581 528.264 70.4982C530.63 70.1513 532.412 71.7951 534.525 72.2958C535.443 72.5126 536.078 73.0448 536.48 73.7977C537.079 74.9252 536.417 75.891 535.1 75.9028L535.096 75.8989Z" fill="#D15EA8"/>
<path d="M523.088 45.1504C522.347 45.2766 521.969 44.9296 521.752 44.4172C521.397 43.5775 522.619 40.9678 523.601 40.3134C524.109 39.9744 524.602 39.9626 525.016 40.3529C525.217 40.5421 525.406 41.0348 525.3 41.2162C524.681 42.2884 524.369 43.475 523.936 44.6143C523.782 45.0164 523.404 45.1701 523.088 45.1504Z" fill="#D15EA8"/>
<path d="M538.924 45.3909C538.951 44.4921 538.762 43.3567 540.067 43.3094C540.938 43.2779 541.297 44.1373 541.092 44.8823C540.859 45.7259 541.419 47.153 539.988 47.2634C538.742 47.3619 538.912 46.2384 538.924 45.3948V45.3909Z" fill="#D15EA8"/>
<path d="M638.632 78.1843C638.934 68.2478 640.561 58.49 642.673 48.7956C644.677 39.5816 646.859 30.4273 651.302 22.0028C653.336 18.1444 655.872 14.6548 658.904 11.4891C666.646 3.39985 676.825 5.97708 682.315 13.4071C685.279 17.4219 686.493 21.9805 686.687 26.8035C687.007 34.7363 685.532 42.4643 683.432 50.0768C680.996 58.9072 677.898 67.5513 676.125 76.5679C674.762 83.5026 674.05 90.5155 673.235 97.5284C672.117 107.159 672.192 116.832 671.924 126.492C671.857 128.906 672.05 131.327 672.173 133.74C672.225 134.764 672.088 135.233 670.859 134.887C668.181 134.131 665.466 133.513 662.762 132.846C661.957 132.649 661.444 132.209 661.373 131.334C661.298 130.41 661.134 129.491 661.108 128.571C660.952 122.496 661.172 116.422 660.71 110.344C660.367 105.808 658.55 102.694 654.017 101.424C652.889 101.107 651.827 100.556 650.706 100.199C643.228 97.8077 640.178 92.0723 639.045 84.862C638.699 82.646 638.606 80.4226 638.632 78.1843Z" fill="#AFEEEE"/>
<path d="M682.173 22.2784C682.43 19.2841 681.987 16.8595 681.7 14.4313C681.633 13.8801 681.316 13.206 681.655 12.8187C682.612 11.7349 681.804 11.18 681.145 10.5505C678.456 7.99193 675.249 6.23777 671.927 4.67728C669.57 3.56744 667.197 2.49483 664.684 1.76487C664.173 1.61589 663.387 1.46692 663.443 0.841235C663.51 0.103819 664.348 0.0851921 664.937 0.0330516C666.695 -0.115921 668.419 0.260239 670.08 0.729504C677.979 2.94548 685.208 6.26757 689.13 14.0775C691.964 19.7198 693.391 25.8612 692.623 32.1069C692.273 34.9374 692.631 37.5444 692.884 40.226C693.167 43.1942 692.638 45.8907 690.758 48.1886C689.733 49.4362 690.069 50.9148 689.826 52.2406C689.242 55.4249 687.655 58.1102 686.169 60.855C685.7 61.719 685.145 62.5458 684.877 63.4881C684.002 66.5867 681.551 68.6053 679.752 71.0708C679.454 71.4805 678.918 71.8827 678.505 71.3985C677.395 70.1062 676.482 71.0671 675.48 71.5065C674.095 72.1173 672.594 72.0913 671.19 71.7747C669.983 71.5028 669.164 70.6015 669.454 69.1639C669.741 67.7338 670.728 67.0746 672.035 67.5066C673.54 68.0057 674.091 67.1975 674.851 66.2031C677.842 62.274 678.508 57.9537 677.149 53.276C675.946 53.4212 674.732 53.6335 673.734 54.8104C672.97 55.7117 671.737 55.8644 670.534 55.2536C669.421 54.6875 669.205 53.7304 669.149 52.6317C668.959 48.8105 668.896 44.926 670.102 41.3135C670.695 39.5407 671.886 37.7865 672.985 36.1776C673.793 35.0007 673.19 34.524 672.62 33.9579C670.918 32.2559 669.048 30.755 667.052 29.3844C663.041 26.6284 658.959 23.9395 656.2 19.7459C654.754 17.5485 653.913 15.1203 653.283 12.6138C653.06 11.7349 653.034 10.6139 654.334 10.4202C655.563 10.234 655.578 11.2507 655.827 12.0999C656.74 15.165 658.926 17.5001 660.568 20.1518C662.479 23.2393 665.149 25.4367 668.393 27.0046C670.486 28.0176 672.385 29.3547 674.333 30.7029C672.635 25.5 669.804 20.9228 667.026 16.0514C666.453 16.8484 666.278 17.9098 665.171 17.9098C663.954 17.9098 663.291 17.0458 662.598 16.2637C659.689 12.9751 657.28 9.40718 656.401 4.99013C656.151 3.73503 656.214 2.57304 657.168 1.04235C658.602 6.26757 661.719 10.018 665.093 13.597C664.52 12.1781 663.611 10.9863 662.531 9.92486C661.585 8.99378 661.153 7.87275 661.406 6.58041C661.54 5.91003 661.92 5.2918 662.717 5.18752C663.447 5.09441 663.954 5.31415 664.389 6.02549C667.071 10.4239 669.771 14.8186 672.557 19.15C675.41 23.5857 677.361 28.4236 679.205 33.3248C679.305 33.5929 679.179 33.9542 679.529 34.1181C679.581 34.1404 679.652 34.1181 679.842 34.1181C679.179 27.5148 678.24 21.0047 675.115 15.0197C674.635 14.0961 674.143 13.1613 673.819 12.1781C673.555 11.3736 673.328 10.3606 674.322 9.86899C675.369 9.34759 675.782 10.0478 676.434 10.9044C678.937 14.1967 680.478 17.9359 682.162 22.2747L682.173 22.2784ZM686.024 19.4666C685.923 19.4815 685.823 19.4964 685.722 19.5113C685.722 22.662 685.663 25.8165 685.737 28.9673C685.867 34.4979 686.206 40.0286 686.031 45.5629C685.998 46.5945 686.37 46.5685 687.123 46.2705C688.493 45.7268 688.419 44.4978 688.605 43.3656C689.581 37.4066 688.266 31.6041 687.38 25.7756C687.056 23.6527 686.489 21.5671 686.031 19.4666H686.024ZM682.601 43.6747C681.503 44.9149 680.59 44.6579 679.644 43.9354C679.175 43.5778 678.549 43.5145 678.225 44.0918C677.957 44.5648 678.248 45.3246 678.709 45.2761C680.277 45.1085 680.907 46.2072 681.622 47.3357C682.233 46.2482 682.545 45.2724 682.601 43.671V43.6747ZM681.92 52.6764C682.97 52.4268 684.031 51.7937 684.084 50.9446C684.158 49.7342 682.754 50.993 682.251 50.3189C682.143 50.1736 681.912 50.114 681.644 49.9613C681.745 50.9595 681.827 51.7937 681.916 52.6764H681.92Z" fill="#D15EA8"/>
<path d="M655.936 78.3181C655.532 78.6891 655.171 79.0652 654.598 79.2528C651.996 80.1106 649.401 80.0177 646.819 79.261C645.829 78.9692 644.941 78.3265 645.231 77.137C645.507 76.0004 646.506 75.7049 647.576 75.862C648.664 76.0216 649.735 76.3209 650.821 76.4831C652.081 76.6707 653.352 76.9952 654.57 76.2033C655.231 75.7729 656.049 75.6549 656.554 76.4052C657.08 77.1922 656.48 77.7829 655.936 78.3181Z" fill="#D15EA8"/>
<path d="M658.792 45.98C659.008 47.7118 658.096 49.086 657.462 50.5125C657.094 51.3355 656.338 51.8011 655.332 51.5478C654.323 51.2946 653.973 50.5907 653.969 49.6261C653.954 47.5702 654.602 45.7044 655.664 43.9763C656.051 43.3506 656.703 43.034 657.421 43.3357C658.587 43.831 659.06 44.7547 658.796 45.9762L658.792 45.98Z" fill="#D15EA8"/>
<path d="M645.064 44.1588C645.075 43.98 645.038 43.4735 645.153 43.0043C645.328 42.2706 645.872 41.8385 646.613 41.805C647.466 41.7641 647.835 42.4307 647.902 43.1085C647.988 43.954 647.913 44.8329 647.809 45.682C647.716 46.4344 647.425 47.1569 646.494 47.1792C645.429 47.209 645.235 46.371 645.075 45.5778C645.004 45.2239 645.064 44.8403 645.064 44.1588Z" fill="#D15EA8"/>
<path d="M759.961 124.344C758.791 124.44 757.609 124.466 756.45 124.649C755.117 124.857 754.745 124.359 754.749 123.058C754.76 114.64 754.641 106.214 755.221 97.8098C755.952 87.2549 757.015 76.7148 759.248 66.3642C761.741 54.8099 765.601 43.642 769.884 32.645C771.738 27.8858 774.777 23.7805 778.136 19.9389C781.654 15.9154 786.239 14.0132 791.425 13.8869C796.497 13.7643 799.714 17.0671 802.229 20.9978C804.882 25.1402 805.658 29.9626 806.717 34.6623C808.917 44.4222 809.738 54.3381 809.994 64.3097C810.165 70.8968 809.366 77.3947 807.806 83.7997C806.338 89.8221 803.526 95.1014 799.201 99.5597C795.906 100.994 792.388 101.711 789.133 102.651C790.979 102.617 792.848 101.202 794.962 102.179C791.674 104.687 787.758 105.485 783.828 106.169C781.595 106.559 779.321 106.782 777.036 106.559C776.988 106.206 777.163 105.928 777.441 105.794C779.659 104.735 781.966 103.973 783.434 103.695C777.835 103.999 771.404 102.16 764.817 102.275C761.436 102.335 760.076 103.212 759.174 106.44C757.981 110.705 757.747 115.078 757.922 119.492C757.996 121.401 759.356 122.702 759.957 124.351L759.961 124.344Z" fill="#AFEEEE"/>
<path d="M759.961 124.344C757.929 122.932 757.39 120.844 757.349 118.541C757.279 114.58 757.427 110.612 758.52 106.801C759.846 102.175 761.395 101.596 764.991 101.692C770.304 101.837 775.524 102.792 780.803 103.152C782.26 103.253 783.727 103.167 785.206 103.305C782.587 104.716 779.574 105.036 777.032 106.552C776.115 106.734 775.197 106.92 774.28 107.102C769.327 107.377 766.987 110.401 765.987 114.9C765.582 116.713 765.133 118.511 764.806 120.339C764.408 121.197 764.014 122.052 763.617 122.91C763.29 123.311 762.918 123.675 762.547 124.036C761.715 124.381 760.849 124.452 759.965 124.34L759.961 124.344Z" fill="#A0DADA"/>
<path d="M764.802 120.343C763.895 119.555 764.661 118.697 764.821 117.961C765.434 115.108 765.887 112.206 767.711 109.732C769.401 107.436 771.564 106.671 774.279 107.105C771.497 108.395 769.847 110.713 768.432 113.321C767.172 115.639 766.429 118.221 764.802 120.343Z" fill="#AFEEEE"/>
<path d="M794.958 102.175C792.811 102.056 790.797 103.26 788.564 102.632C792.042 101.395 795.504 100.091 799.201 99.5598C798.172 101.057 796.348 101.261 794.962 102.175H794.958Z" fill="#A0DADA"/>
<path d="M762.543 124.039C762.569 123.348 762.934 122.98 763.613 122.914C763.561 123.579 763.313 124.054 762.543 124.039Z" fill="#AFEEEE"/>
<path d="M766.79 66.42C766.381 67.6646 765.605 68.5377 764.538 68.5637C762.937 68.6008 762.837 69.1544 763.338 70.451C763.806 71.6659 763.721 72.9959 763.71 74.2814C763.691 76.3173 762.439 77.5136 760.392 77.2276C759.545 77.1087 759.248 77.3242 758.798 77.9297C757.799 79.2858 756.387 79.8914 754.741 79.3638C753.055 78.8251 752.75 77.4282 752.795 75.8195C752.858 73.4566 753.043 71.1606 752.3 68.7494C751.528 66.2491 752.211 63.537 752.813 60.9326C753.95 56.0286 754.492 51.0242 755.187 46.0421C755.614 42.9807 757.323 40.4432 759.092 38.0358C760.801 35.7138 762.502 33.3435 764.735 31.4561C766.043 30.3527 767.358 29.3459 769.156 30.5905C769.937 31.1329 769.844 30.2858 769.966 29.9329C771.352 25.9873 772.879 22.1198 775.561 18.8318C775.677 18.6907 775.729 18.4975 775.844 18.3637C779.043 14.6745 783.003 12.2559 787.773 11.1339C790.244 10.5543 792.718 10.2051 795.256 10.3314C796.801 10.4095 797.7 11.3234 798.362 12.5977C798.655 13.1624 798.599 13.6603 798.161 14.121C797.697 14.6076 797.132 14.6597 796.679 14.2176C795.891 13.4522 795.768 13.9575 795.323 14.6262C793.342 17.6058 790.991 20.3105 788.65 23.0115C784.764 27.492 781.755 32.5744 778.604 37.5639C778.143 38.2921 778.686 38.5225 779.035 39.1206C780.265 41.2457 781.019 39.8674 782.037 39.1169C787.257 35.2568 790.634 29.9329 793.777 24.4195C795.538 21.3322 797.303 18.2448 799.034 15.1426C799.435 14.4256 799.996 14.3996 800.602 14.6522C801.323 14.9532 801.546 15.5179 801.304 16.3092C800.832 17.8547 799.974 19.1922 799.157 20.5557C796.255 25.4078 793.799 30.5385 790.255 34.9856C788.305 37.4339 786.101 39.6593 784.578 42.4643C783.724 44.0358 782.178 45.0798 780.432 45.704C779.919 45.886 779.421 46.1424 778.957 46.4247C778.675 46.5993 778.207 46.7702 778.404 47.2421C778.634 47.7808 779.128 47.6545 779.526 47.4984C781.004 46.9151 782.516 46.4322 783.891 45.5777C788.561 42.6761 792.284 38.7491 795.958 34.7367C799.253 31.1366 801.49 26.9793 803.191 22.443C804.328 19.4188 804.012 16.2609 804.466 13.181C804.607 12.2188 804.941 11.4014 805.699 10.7735C806.171 10.3834 806.661 10.2386 807.23 10.5395C807.813 10.8516 807.988 11.4014 807.828 11.9624C807.07 14.6411 807.687 17.368 807.497 20.0616C807.037 26.5075 804.822 31.9503 799.64 36.2488C797.347 38.1472 795.817 41.0228 793.569 43.1219C789.36 47.0563 784.738 50.4 779.284 52.4062C777.935 52.9041 776.26 52.4954 775.409 54.2192C775.13 54.7802 774.789 54.9363 775.487 55.4341C776.739 56.3369 776.713 57.6112 776.111 58.9004C775.353 60.5314 774.298 61.9692 773.128 63.3215C772.244 64.3469 771.441 65.3797 770.854 66.6541C769.877 68.7866 768.179 68.716 766.786 66.4237L766.79 66.42ZM794.048 13.4857C790.043 13.4708 786.815 14.3179 783.657 15.4956C783.367 15.6033 783.092 15.7965 782.795 15.8337C780.023 16.1643 778.842 18.2746 777.705 20.3959C775.368 24.7613 774.146 29.5131 772.927 34.2686C772.756 34.9373 772.292 35.6543 773.172 36.3825C773.503 35.2754 773.763 34.2277 774.138 33.2246C774.428 32.4444 774.603 31.4933 775.613 31.2629C776.713 31.0103 776.657 32.2586 777.4 32.7379C779.86 29.357 782.368 26.0356 784.738 22.6176C787.168 19.1142 790.118 16.142 794.052 13.4931L794.048 13.4857ZM772.351 37.5788C769.937 43.4154 768.406 49.4563 768.202 56.1809C770.694 54.1561 772.556 51.9864 774.22 49.6384C774.722 48.9325 773.864 49.1183 773.667 48.8582C772.76 47.6619 770.661 47.5393 770.668 45.5256C770.672 44.3628 770.743 43.2297 771.159 42.0965C771.694 40.6327 772.418 39.2098 772.351 37.5751V37.5788ZM761.797 45.626C764.234 42.0185 767.392 39.1838 768.276 34.9522C768.384 34.4283 768.792 33.7261 768.45 33.4438C767.96 33.0425 767.25 33.4141 766.816 33.8599C765.185 35.528 763.632 37.263 762.488 39.325C762.279 39.7002 761.93 40.0011 762.551 40.3578C763.74 41.0377 763.32 42.0185 762.919 42.9361C762.58 43.7052 761.938 44.3405 761.797 45.626ZM765.452 46.3058C765.326 46.2836 765.196 46.265 765.07 46.2427C764.219 47.8402 763.301 49.4043 762.536 51.0427C761.306 53.6768 761.451 53.8403 764.334 53.87C764.862 53.8737 765.129 53.7586 765.151 53.1901C765.237 50.8941 765.348 48.6018 765.452 46.3096V46.3058ZM756.658 66.8064C759.497 65.7958 758.769 63.3364 758.943 61.1035C759.062 59.5357 757.966 59.4837 757.145 59.4317C756.183 59.3722 756.231 60.3716 756.343 61.0404C756.677 63.0354 756.67 65.0491 756.655 66.8064H756.658Z" fill="#D15EA8"/>
<path d="M811.681 32.8976C813.587 30.8654 814.698 28.3799 815.671 25.8052C816.808 22.7996 817.532 19.7234 817.573 16.4912C817.588 15.4138 817.191 14.9383 816.173 15.2801C815.143 15.6256 814.46 15.3321 814.062 14.3995C813.553 13.2032 814.623 12.8763 815.318 12.5048C818.361 10.8627 821.199 12.5568 820.939 16.0602C820.248 25.4449 817.484 34.1273 809.678 39.9862C802.508 45.3658 795.62 51.169 787.907 55.8093C785.96 56.9796 783.984 58.0979 781.636 58.3728C780.503 58.5028 779.645 58.2651 779.165 57.2657C778.667 56.2291 779.117 55.3412 779.953 54.6724C781.015 53.8254 782.089 52.9932 783.204 52.2204C783.98 51.6817 784.846 51.2359 785.723 52.0681C786.243 52.5622 786.57 52.1573 787.004 51.9158C790.04 50.2476 792.782 48.1708 795.378 45.8971C795.624 45.6816 796.107 45.6148 795.765 45.0835C794.884 43.7311 795.783 42.9732 796.701 42.1336C799.792 39.3175 802.976 36.5868 805.863 33.5738C808.783 30.5236 809.682 26.5149 810.113 22.4355C810.332 20.3587 810.369 18.2596 810.496 16.1717C810.551 15.2763 810.7 14.3067 811.815 14.2918C812.955 14.2769 813.39 15.1129 813.353 16.1828C813.249 19.0287 814.111 21.8448 813.765 24.6795C813.427 27.4734 812.338 30.1 811.681 32.9013V32.8976Z" fill="#D15EA8"/>
<path d="M791.582 69.719C791.801 68.6936 792.087 67.2298 792.912 65.989C793.35 65.3314 794.056 64.7072 794.951 65.2273C795.728 65.6769 795.527 66.3939 795.371 67.1853C795.144 68.3333 794.468 69.3178 794.413 70.5438C794.379 71.3091 793.774 72.0893 792.77 71.9333C791.808 71.781 791.511 71.0565 791.578 69.719H791.582Z" fill="#D15EA8"/>
<path d="M803.425 61.6014C803.455 60.5649 803.749 59.6472 804.153 58.7407C804.454 58.0646 804.941 57.8565 805.625 57.8974C806.412 57.9457 806.661 58.4658 806.739 59.1345C806.851 60.1005 806.88 61.0702 807.01 62.0398C807.174 63.2547 806.126 63.8751 805.145 63.9086C803.674 63.9606 803.5 62.7272 803.429 61.6014H803.425Z" fill="#D15EA8"/>
<path d="M912.538 114.345C912.473 117.127 912.397 119.914 912.359 122.697C912.348 123.5 912.001 123.694 911.293 123.481C908.689 122.697 906.082 121.913 903.474 121.132C902.911 120.965 902.736 120.58 902.625 120.024C902.439 119.088 902.324 118.159 902.328 117.204C902.336 108.303 901.674 99.4757 899.268 90.8573C898.461 87.9718 897.406 85.1282 895.499 82.8213C890.684 76.9932 888.495 70.1335 887.277 62.8665C885.381 51.5681 885.544 40.3992 889.766 29.5538C892.279 23.0976 895.842 17.4142 902.043 13.8511C907.49 10.722 913.098 10.5393 918.454 13.8778C928.777 20.3149 935.26 29.5614 937.285 41.5983C939.349 53.8445 938.652 65.9651 934.48 77.7736C934.267 78.375 934.046 78.946 933.547 79.3724C929.771 83.1982 925.138 85.5812 920.125 87.3094C918.868 87.7434 917.57 88.067 916.387 88.6836C914.993 89.4107 913.977 90.5071 913.341 91.9498C910.212 99.0455 907.932 106.396 906.733 114.071C906.546 115.266 906.561 116.469 906.679 117.668C906.729 118.182 906.893 118.684 907.445 118.886C908.012 119.096 908.419 118.745 908.777 118.38C909.671 117.47 910.25 116.328 910.989 115.304C911.358 114.794 911.575 113.937 912.538 114.345Z" fill="#AFEEEE"/>
<path d="M912.538 114.345C911.282 114.923 911.114 116.343 910.285 117.257C909.95 117.63 909.74 118.121 909.394 118.479C908.796 119.099 908.24 120.036 907.193 119.568C906.287 119.16 906.135 118.224 906.116 117.299C906.029 112.948 907.148 108.802 908.286 104.66C909.462 100.385 910.947 96.2209 912.679 92.1401C913.6 89.9703 915.066 88.4133 917.338 87.7281C923.159 85.9732 928.591 83.5103 933.079 79.2734C933.144 79.2125 933.384 79.3343 933.544 79.3686C931.252 83.7691 928.077 87.5568 925.15 91.5158C924.643 91.9269 924.331 92.4865 924 93.0347C920.867 96.4988 917.3 99.5975 915.252 103.956C914.015 106.587 913.752 109.438 913.033 112.186C912.866 112.906 912.702 113.621 912.534 114.341L912.538 114.345Z" fill="#A0DADA"/>
<path d="M913.037 112.19C912.93 107.104 914.678 102.696 917.986 98.8895C919.432 97.2259 920.959 95.6309 922.47 94.0245C922.889 93.5791 923.25 92.9928 924 93.0385C919.63 99.0113 916.821 105.882 913.037 112.19Z" fill="#AFEEEE"/>
<path d="M924.004 93.0385C923.946 92.1972 924.209 91.6034 925.153 91.5197C924.955 92.1668 924.597 92.6883 924.004 93.0385Z" fill="#AFEEEE"/>
<path d="M887.432 59.5165C893.679 59.1929 896.344 60.1522 897.699 63.1938C895.868 62.9273 894.174 62.6647 892.476 62.4439C891.722 62.3449 890.961 62.3107 890.204 62.2878C889.488 62.265 888.997 62.5771 888.841 63.3309C888.677 64.1188 888.643 64.8764 889.45 65.3408C889.827 65.5578 890.268 65.6834 890.695 65.7862C891.81 66.0641 893.23 66.2354 892.891 67.7999C892.518 69.513 891.003 69.2122 889.762 68.9496C888.03 68.5803 886.606 67.6819 885.788 65.9956C885.506 66.1821 885.316 66.2544 885.209 66.3876C884.482 67.2975 883.61 67.6819 882.563 66.9853C881.57 66.3229 881.429 65.337 881.859 64.2902C883.854 59.4366 886.378 54.918 890.306 51.3359C891.018 50.6849 891.958 49.6229 892.853 50.3347C893.359 50.7382 892.423 51.884 891.966 52.6035C890.546 54.8266 889.081 57.0193 887.436 59.5203L887.432 59.5165Z" fill="#D15EA8"/>
<path d="M911.069 65.2951C909.923 61.5569 913.098 57.2135 917.159 56.8671C918.534 56.7491 919.95 56.8594 921.316 57.0726C922.664 57.282 923.422 56.9203 923.962 55.6223C925.458 52.0363 927.506 50.8296 931.358 51.0542C932.474 51.1189 933.437 51.4387 933.464 52.7368C933.486 54.0044 932.527 54.6363 931.461 54.545C928.785 54.3204 927.411 55.6108 926.52 57.9748C925.82 59.8325 924.255 60.6281 922.245 60.3845C921.24 60.2627 920.232 60.1523 919.238 59.9619C916.516 59.4404 914.381 60.1979 912.919 62.6533C912.386 63.544 911.731 64.3625 911.072 65.2951H911.069Z" fill="#D15EA8"/>
<path d="M879.964 59.0066C880.382 57.9255 880.904 56.5703 881.437 55.2189C883.287 50.5252 886.127 46.5396 890.055 43.3647C891.068 42.5463 892.453 41.2825 893.508 42.4473C894.486 43.5284 893.047 44.7237 892.206 45.6107C888.635 49.3794 885.83 53.6315 883.85 58.4356C883.561 59.1322 883.23 59.8326 882.8 60.4493C882.369 61.0698 881.688 61.302 880.946 61.0051C880.207 60.7082 879.945 60.0877 879.956 59.0066H879.964Z" fill="#D15EA8"/>
<path d="M886.043 69.2617C886.039 68.8773 886.024 68.4661 886.427 68.272C886.774 68.1045 886.991 68.4128 887.227 68.607C888.628 69.7757 889.945 71.0509 891.563 71.9493C892.141 72.2691 892.469 72.8591 892.202 73.5671C891.936 74.2638 891.357 74.4617 890.664 74.3742C889.054 74.1724 886.089 70.8834 886.039 69.2655L886.043 69.2617Z" fill="#D15EA8"/>
<path d="M923.558 30.8215C923.574 31.7047 923.38 32.4926 922.39 32.4279C921.423 32.3632 920.768 31.6323 920.669 30.7111C920.57 29.7404 921.293 29.2303 922.211 29.2075C923.307 29.177 923.463 30.0373 923.558 30.8215Z" fill="#D15EA8"/>
<path d="M908.632 34.9214C908.244 35.481 908.609 36.6649 907.379 36.6344C906.085 36.6001 906.253 35.5038 906.165 34.7006C906.078 33.8669 906.435 33.1284 907.357 33.1094C908.48 33.0866 908.457 34.0839 908.632 34.9214Z" fill="#D15EA8"/>
<path d="M997.407 117.528C1002.29 117.082 1005.98 118.893 1009.79 120.49C1012.52 121.631 1015.45 120.642 1018.27 120.282C1019.23 120.16 1019.49 119.161 1019.71 118.355C1020.17 116.565 1020.66 114.764 1020.95 112.939C1021.6 108.76 1023.96 105.767 1027.11 103.11C1031.54 99.3672 1036.45 96.4612 1041.75 94.179C1049.91 90.6695 1056.51 85.106 1062.48 78.6601C1066.74 74.0602 1070.89 69.3791 1073.27 63.4708C1077.47 53.0386 1077.64 42.434 1073.03 32.2301C1069.77 25.0031 1063.06 21.7168 1055.42 21.235C1047.02 20.7025 1038.76 22.4217 1030.72 24.7191C1024.46 26.5094 1020.67 31.2766 1017.99 36.9973C1014.2 45.1067 1012.55 53.8146 1010.83 62.5021C1008.08 76.3982 1006.99 90.5934 1003.18 104.287C1001.95 108.724 1001.18 113.385 997.407 117.523V117.528Z" fill="#AFEEEE"/>
<path d="M1029.42 36.9517C1028.31 41.9218 1028.45 46.897 1028.59 51.8671C1028.64 53.6523 1028.99 55.3867 1029.6 57.0654C1029.88 57.8262 1030.35 58.45 1031.24 58.4043C1032.14 58.3587 1032.5 57.6892 1032.71 56.8981C1033.49 53.9616 1034.23 51.01 1035.09 48.0989C1036.79 42.3884 1039.27 37.043 1042.84 32.2402C1043.48 31.373 1044.04 30.3993 1045.63 29.5726C1044.63 31.6722 1043.87 33.3103 1043.09 34.9383C1040.62 40.0453 1038.41 45.2538 1037.21 50.8173C1036.98 51.8722 1036.17 53.3226 1037.65 53.9971C1039.11 54.6615 1039.67 53.1755 1040.35 52.2779C1042.63 49.2502 1044.83 46.1515 1048.27 44.1533C1047.26 46.9731 1045.61 49.4023 1043.67 51.6642C1043.01 52.4351 1041.62 53.1553 1042.65 54.3775C1043.58 55.4882 1044.65 54.4789 1045.62 54.058C1046.71 53.5863 1047.77 53.0538 1048.88 52.6583C1054.94 50.4927 1059.24 46.4558 1061.83 40.5677C1062.13 39.878 1062.48 39.2085 1062.86 38.4072C1063.85 39.0209 1063.84 40.0098 1064.1 40.8162C1065.5 45.2436 1066.79 49.7117 1069.12 53.7841C1070.83 56.7662 1073.02 59.0788 1076.69 59.4998C1079.07 59.7736 1079.91 58.9064 1079.12 56.614C1078.55 54.9455 1077.73 53.3531 1076.99 51.7403C1074.04 45.2842 1071.26 38.7622 1068.87 32.0779C1067.96 29.5269 1067.2 26.9455 1066.84 24.2525C1066.69 23.1672 1066.39 21.8791 1064.97 21.9501C1063.41 22.0261 1063.59 23.3802 1063.58 24.4655C1063.56 25.7182 1063.58 26.9709 1063.58 28.1373C1062.71 28.4416 1062.65 27.9598 1062.48 27.5947C1061.96 26.4637 1061.15 25.1756 1059.9 25.6776C1058.44 26.2659 1056.39 25.9008 1055.72 28.254C1053.86 34.8369 1050.36 40.3851 1044.94 44.7264C1042.99 46.2833 1041.44 48.3373 1039.49 50.3963C1039.39 48.4134 1040.01 46.8767 1040.48 45.3451C1042.65 38.3717 1045.74 31.8193 1049.61 25.6219C1050.08 24.8662 1051.02 24.0192 1050.04 23.1977C1048.93 22.2696 1048.23 23.4208 1047.55 24.1207C1040.48 31.3628 1035.94 40.0301 1033.17 49.6965C1032.67 51.436 1032.33 53.2466 1031.01 55.3867C1029.84 49.235 1029.68 43.6816 1030.78 38.0725C1031.6 33.924 1033.42 30.2623 1035.77 26.8035C1036.35 25.9464 1037.57 24.7851 1036.3 23.9939C1034.8 23.0709 1034.39 24.851 1033.89 25.7943C1032.22 28.9336 1030.48 32.0221 1028.49 34.9636C1024.73 40.5119 1023.3 46.8057 1022.45 53.3125C1022.3 54.4485 1022.68 56.3148 1021.18 56.5177C1019.38 56.7611 1019.44 54.7021 1019.06 53.561C1013.52 36.764 1021.24 21.4936 1039.4 15.9048C1044.19 14.434 1048.41 15.7526 1051.85 19.4396C1052.08 19.6881 1052.31 19.9417 1052.55 20.175C1053.04 20.6517 1053.62 21.24 1054.28 20.6568C1055.1 19.9519 1054.53 19.2469 1053.94 18.7347C1050.02 15.3063 1045.59 12.9684 1040.28 14.4087C1022.49 19.2419 1012.2 33.8225 1017.19 53.064C1017.74 55.1889 1018.09 56.5786 1016.07 58.2369C1013.9 60.012 1013.15 62.9231 1012.08 65.4943C1011.93 65.8595 1011.69 66.1891 1011.47 66.5898C1010.51 65.8645 1010.87 64.9517 1010.86 64.1757C1010.71 55.407 1012.27 46.8665 1014.32 38.392C1014.43 37.9001 1014.61 37.4031 1014.61 36.9111C1014.64 35.7802 1014.16 34.8521 1012.97 34.7151C1011.64 34.563 1010.77 35.3947 1010.84 36.6575C1011.37 46.4 1008.55 55.97 1009.39 65.7175C1009.54 67.5635 1009.89 69.3943 1010.16 71.2353C1010.27 72.0062 1010.42 72.843 1011.39 72.8886C1012.52 72.9394 1012.71 72.0315 1012.86 71.1745C1013.3 68.6742 1013.91 66.2196 1014.8 63.8359C1015.31 62.4869 1015.93 61.1937 1016.88 60.0881C1017.34 59.5606 1018.43 58.9622 1018.52 59.2918C1019.1 61.427 1022.19 61.5892 1022.16 64.1098C1022.15 65.1038 1022.05 66.3666 1023.43 66.4883C1024.88 66.6151 1025.21 65.2965 1025.36 64.2467C1026.11 58.9774 1026.76 53.6979 1027.43 48.4235C1027.51 47.7389 1027.49 46.76 1026.77 46.6992C1024.43 46.5065 1025.44 45.127 1025.77 44.0975C1026.58 41.5414 1027.53 39.031 1029.4 36.9466L1029.42 36.9517ZM1058.41 28.9133C1062.36 32.7119 1062.79 34.5427 1060.88 39.2846C1060.03 41.4045 1059.03 43.4433 1057.59 45.2335C1054.79 48.7177 1051.07 50.5891 1046.44 51.6845C1050.54 43.8896 1054.44 36.4648 1058.41 28.9133ZM1065.82 27.3614C1069.61 37.2002 1073.21 46.5572 1076.82 55.9192C1077.28 57.1161 1076.76 57.4458 1075.64 57.3393C1072.93 57.0806 1071.55 55.1433 1070.36 53.064C1067.59 48.2308 1066.69 42.7535 1065.09 37.5146C1064.06 34.1471 1064.6 31.0433 1065.81 27.3665L1065.82 27.3614ZM1023.81 58.6072C1023.27 55.1078 1024.06 51.7961 1025.11 48.5199C1025.45 51.9787 1024.94 55.331 1023.81 58.6072Z" fill="#D15EA8"/>
<path d="M1063.53 58.1507C1063.48 59.5453 1063.58 60.6154 1064.8 60.8944C1066.02 61.1733 1066.59 60.2706 1067 59.2918C1067.17 58.9063 1067.27 58.5006 1067.42 58.1101C1067.85 57.0146 1068.39 55.9192 1067.42 54.8389C1066.93 54.2963 1066.29 54.0985 1065.6 54.3267C1064.2 54.7832 1063.79 55.9445 1063.61 57.2378C1063.55 57.6486 1063.54 58.0695 1063.53 58.1456V58.1507Z" fill="#D15EA8"/>
<path d="M1039.02 91.7446C1040.5 91.7345 1042.87 89.3052 1042.8 87.9866C1042.75 86.8962 1042.14 86.2724 1041.05 86.2014C1039.68 86.1152 1037.43 88.4633 1037.45 89.9543C1037.47 91.0447 1038.03 91.6787 1039.02 91.7446Z" fill="#D15EA8"/>
<path d="M1048.69 59.5098C1048.7 60.8233 1049.07 62.0354 1050.43 61.8122C1052.57 61.4623 1052.81 59.459 1053.07 57.7601C1053.24 56.6545 1052.57 55.6706 1051.37 55.7365C1048.95 55.8684 1049.06 57.9477 1048.68 59.5098H1048.69Z" fill="#D15EA8"/>
<path d="M1187.32 110.315C1187.52 112.625 1187.38 114.928 1187.16 117.225C1186.87 120.284 1186.5 123.337 1186.18 126.394C1185.99 128.129 1185.88 129.877 1184.91 131.419C1184.69 131.762 1184.5 132.008 1184.04 132.043C1180 132.353 1175.95 132.644 1171.89 132.596C1170.7 132.582 1170.74 132.605 1170.94 131.391C1171.69 126.893 1172.34 122.384 1172.13 117.803C1171.96 114.327 1171.22 111.019 1169.3 108.034C1167.88 105.818 1166.59 103.517 1164.84 101.525C1162.07 98.3851 1158.46 96.5784 1154.66 95.0616C1153.51 94.6011 1152.37 94.1032 1151.2 93.6853C1147.97 92.5294 1146.3 90.1146 1145.65 86.8765C1145.02 83.77 1144.76 80.6172 1144.54 77.4591C1144.34 74.445 1144.18 71.4327 1144.2 68.4115C1144.23 62.2109 1144.9 56.0725 1146.01 49.9839C1147.61 41.2066 1150 32.6374 1153.31 24.3474C1155.1 19.8609 1157.46 15.6626 1160.98 12.2875C1165.51 7.93977 1170.94 5.40937 1177.25 5.0555C1184.55 4.64474 1190.83 7.07555 1195.86 12.3942C1199.21 15.9382 1200.95 20.2699 1201.11 25.1689C1201.28 30.1657 1200.49 35.0718 1199.6 39.9672C1198.1 48.2466 1195.6 56.2663 1193.26 64.327C1192.43 67.165 1191.69 70.0279 1191.03 72.9086C1190.99 73.0758 1190.99 73.2536 1190.97 73.4456C1191.06 73.4136 1191.13 73.4083 1191.16 73.3745C1191.42 73.1629 1191.41 72.5868 1191.86 72.6828C1192.31 72.7824 1192.25 73.3052 1192.32 73.659C1192.57 74.9322 1192.3 76.2037 1192.18 77.4609C1191.85 80.9319 1191.59 84.4155 1191 87.8581C1190.2 92.5188 1189.38 97.1759 1188.58 101.835C1188.23 103.842 1187.89 105.854 1187.54 107.861C1187.03 107.635 1187.18 107.161 1187.18 106.782C1187.14 103.674 1187.29 100.571 1187.51 97.4693C1187.95 91.114 1188.85 84.812 1189.66 78.4993C1189.76 77.7063 1189.99 76.9345 1190.08 75.9476C1189.17 77.4377 1188.41 78.8159 1187.51 80.1086C1184.88 83.9051 1181.25 86.544 1177.32 88.7988C1173.06 91.2367 1168.39 92.5988 1163.7 93.8773C1162.99 94.0712 1162.26 94.2205 1161.57 94.5015C1160.64 94.882 1160.57 95.2519 1161.25 96.0059C1162.72 97.6294 1164.31 99.1586 1165.6 100.928C1168.97 105.516 1171.95 110.301 1173.09 116.005C1173.88 119.996 1174.41 124.009 1174.32 128.087C1174.31 128.414 1174.27 128.736 1174.23 129.059C1174.13 129.876 1174.23 130.023 1175.06 130.005C1177.42 129.954 1179.79 129.833 1182.12 129.374C1182.24 129.351 1182.35 129.33 1182.47 129.306C1185.19 128.787 1184.58 129.216 1184.8 126.664C1185.26 121.436 1185.99 116.249 1186.8 111.071C1186.85 110.76 1186.77 110.308 1187.32 110.317L1187.32 110.315Z" fill="#AFEEEE"/>
<path d="M1187.32 110.315C1186.81 111.174 1186.88 112.17 1186.73 113.102C1186.27 116.037 1185.86 118.984 1185.51 121.936C1185.25 124.013 1185.09 126.1 1184.95 128.188C1184.91 128.805 1184.81 129.157 1184.11 129.266C1182.05 129.586 1180.01 130.06 1177.9 130.119C1176.81 130.149 1175.72 130.22 1174.63 130.261C1174.02 130.284 1173.82 130.03 1173.92 129.477C1174.29 127.265 1174.08 125.049 1173.88 122.848C1173.33 116.697 1171.9 110.831 1168.49 105.532C1166.35 102.203 1163.93 99.1426 1161.19 96.3063C1160.04 95.1078 1160.11 94.6099 1161.76 94.1742C1164.93 93.3367 1168.07 92.3871 1171.16 91.3149C1175.66 89.7589 1179.66 87.3672 1183.32 84.3336C1186.06 82.0557 1187.96 79.1643 1189.68 76.1165C1189.76 75.9867 1189.81 75.8497 1189.89 75.7235C1189.99 75.5545 1190.07 75.2878 1190.33 75.4123C1190.51 75.4959 1190.45 75.7235 1190.41 75.896C1190.21 76.9647 1189.97 78.0281 1189.83 79.1056C1189.53 81.2911 1189.3 83.4854 1189.03 85.6761C1188.77 87.778 1188.5 89.8798 1188.25 91.9817C1188.09 93.3545 1187.87 94.7255 1187.81 96.1036C1187.63 99.7027 1187.38 103.3 1187.43 106.906C1187.44 107.225 1187.34 107.561 1187.54 107.859C1187.47 108.679 1187.39 109.497 1187.32 110.317L1187.32 110.315Z" fill="#A0DADA"/>
<path d="M1190.58 74.7776C1190.57 74.7989 1190.56 74.822 1190.55 74.8434C1190.53 74.8131 1190.51 74.7829 1190.48 74.7509C1190.5 74.7384 1190.53 74.7135 1190.54 74.7189C1190.56 74.726 1190.57 74.7562 1190.58 74.7758V74.7776Z" fill="#A0DADA"/>
<path d="M1183.76 50.1368C1182.78 48.7054 1181.48 47.5744 1180.18 46.4595C1173.62 40.8581 1170.25 33.5319 1168.79 25.2134C1168.01 20.7358 1168.26 16.2405 1168.92 11.7612C1169.27 9.37659 1170.34 7.2534 1171.28 5.08398C1171.47 4.65187 1171.82 4.40292 1172.28 4.67499C1172.74 4.94705 1172.7 5.39161 1172.4 5.74725C1169.87 8.7631 1169.43 12.4298 1169.09 16.1463C1168.39 24.0042 1170.05 31.3393 1173.89 38.2015C1175.41 40.9132 1177.32 43.3174 1179.64 45.3926C1181.06 46.6693 1182.52 47.9105 1183.92 49.3989C1184.18 48.2644 1184 47.3184 1183.77 46.3795C1183.38 44.8235 1182.84 43.3174 1182.2 41.8486C1178.8 33.9942 1176.81 25.7486 1175.35 17.3519C1174.91 14.8126 1174.54 12.2662 1174.34 9.69311C1174.19 7.97002 1174.49 6.40163 1175.5 4.97373C1175.88 4.43671 1176.21 4.37447 1176.83 4.65009C1180.04 6.07267 1182.01 8.5924 1183.36 11.7203C1185.28 16.1836 1186.31 20.903 1187.36 25.6135C1188.59 31.1064 1189.74 36.6135 1190.14 42.2451C1190.41 45.9402 1190.58 49.6354 1190.28 53.4568C1190.56 53.1722 1190.58 52.8931 1190.66 52.637C1194.17 40.5523 1193.59 28.5795 1189.66 16.7046C1188.88 14.3467 1188.19 11.9497 1187.01 9.74112C1186.88 9.49217 1186.77 9.23433 1187.03 9.01917C1187.29 8.79867 1187.53 8.96226 1187.74 9.13475C1188.67 9.87271 1189.59 10.6124 1190.57 11.3966C1190.59 11.0392 1190.37 10.8667 1190.23 10.6747C1189.48 9.60953 1188.69 8.57106 1187.85 7.5717C1184.91 4.0615 1181.17 2.61226 1176.63 3.18662C1175.76 3.29687 1174.86 3.30221 1174.06 3.7841C1173.66 4.02061 1173.2 3.95125 1173.05 3.43557C1172.91 2.93767 1173.22 2.59981 1173.7 2.59092C1176.24 2.5358 1178.78 2.11258 1181.31 2.7314C1183.5 3.26842 1185.36 4.36202 1186.97 5.91974C1187.92 6.85152 1188.79 7.86866 1189.56 8.96049C1190.98 10.9699 1192.68 12.7659 1194.17 14.6952C1196.63 17.8836 1198.87 21.3137 1199.5 25.4694C1199.54 25.7877 1199.58 26.1078 1199.81 26.4795C1199.95 23.9402 1199.74 21.504 1199.63 19.0643C1199.6 18.3832 1199.53 17.7057 1199.46 17.0265C1199.21 14.473 1197.47 12.8174 1195.86 11.0801C1195.66 10.865 1195.38 10.7156 1195.3 10.4115C1195.18 9.89938 1195.38 9.52596 1195.87 9.3677C1196.26 9.245 1196.73 9.40326 1196.71 9.78558C1196.66 11.0748 1197.73 11.7256 1198.23 12.6947C1198.29 12.8157 1198.36 12.9668 1198.65 12.9526C1198.61 12.5525 1198.56 12.1559 1198.53 11.7594C1198.51 11.5176 1198.51 11.2473 1198.81 11.1833C1199.12 11.1157 1199.19 11.386 1199.27 11.61C1199.29 11.6652 1199.3 11.7256 1199.31 11.7843C1199.36 14.2204 1200.4 16.3365 1201.38 18.5006C1202.84 21.7103 1203.44 25.1725 1203.88 28.6418C1204.49 33.3505 1204.73 38.0841 1204.46 42.8284C1204.35 44.8751 1203.86 46.8631 1203.17 48.7978C1203.06 49.0984 1202.89 49.3846 1202.92 49.7225C1204.12 49.751 1204.23 50.1155 1203.91 51.3727C1202.34 57.6338 1199.25 63.2689 1196.74 69.1459C1194.76 73.7853 1193.5 78.5972 1193.32 83.6722C1193.26 85.4682 1193.23 87.2268 1194.19 88.8432C1194.38 89.1686 1194.47 89.5598 1194.6 89.9208C1194.72 90.2373 1194.84 90.6037 1194.43 90.7601C1194.08 90.8988 1193.93 90.5592 1193.79 90.2907C1193.27 89.2611 1192.73 88.2369 1192.23 87.2002C1192.08 86.9085 1191.71 86.5298 1192.13 86.2666C1192.58 85.9821 1192.54 86.7165 1192.94 86.8107C1192.95 84.7409 1193.01 82.7048 1193.23 80.6794C1193.71 76.2517 1195.04 72.0587 1196.8 67.9901C1198.19 64.7822 1199.61 61.5921 1200.99 58.3771C1201.8 56.4619 1202.27 54.4383 1202.65 52.3952C1202.76 51.8208 1202.76 51.2464 1202.68 50.6667C1202.42 50.6952 1202.39 50.8499 1202.33 50.9797C1201.08 53.7395 1199.54 56.3339 1197.81 58.8252C1197.58 59.1613 1197.36 59.54 1197.26 59.9295C1196.62 62.4154 1195.7 64.7751 1194.32 66.9498C1194.28 67.0121 1194.29 67.1028 1194.24 67.3411C1194.96 66.8556 1195.56 66.4448 1196.16 66.0376C1196.42 65.8598 1196.7 65.5468 1197.02 65.8296C1197.4 66.1639 1197.07 66.4857 1196.88 66.7614C1194.65 70.0368 1192.61 73.4741 1189.31 75.8996C1189.4 75.9334 1189.43 75.9547 1189.45 75.9494C1189.86 75.8747 1190.45 75.5173 1190.57 76.1379C1190.7 76.8474 1190 76.6856 1189.55 76.7531C1188.62 76.8972 1187.69 77.0643 1186.75 77.203C1186.43 77.2493 1186.11 77.1764 1186.09 76.7887C1186.08 76.4526 1186.37 76.3762 1186.65 76.3477C1187.98 76.2072 1189.04 75.5333 1190.04 74.7135C1191.68 73.3692 1195.02 68.9699 1195.83 67.0085C1194.54 67.7892 1193.36 68.4026 1192.46 69.4322C1191.17 70.8921 1189.73 72.1565 1187.9 72.9051C1187.56 73.0456 1187.16 73.3621 1186.89 72.8944C1186.6 72.3965 1187.13 72.2632 1187.41 72.0444C1188.97 70.8637 1190.53 69.6741 1192.18 68.6267C1192.36 68.5165 1192.53 68.3866 1192.66 68.2284C1194.26 66.2475 1195.31 63.9891 1195.98 61.5334C1194.28 63.2583 1193.04 65.4153 1190.91 66.6956C1192.47 65.3672 1193.59 63.653 1194.97 62.1789C1196.95 60.0682 1196.99 57.5555 1196.8 54.9433C1196.79 54.826 1196.74 54.714 1196.72 54.5966C1196.67 54.0969 1196.77 53.6488 1197.37 53.6577C1197.9 53.6666 1198.02 54.0951 1197.98 54.5539C1197.88 55.7613 1197.76 56.967 1197.65 58.1672C1197.8 58.2722 1197.88 58.1761 1197.94 58.0819C1200.52 54.2872 1202.71 50.3058 1203.71 45.7713C1204.06 44.1763 1204.26 42.5616 1204.25 40.9257C1204.24 34.8388 1203.91 28.7876 1202.39 22.8555C1201.92 21.0168 1201.28 19.2457 1200.29 17.5955C1200.59 19.3204 1200.96 21.0346 1201.18 22.7701C1202.11 30.0501 1202.33 37.2928 1200.07 44.4216C1198.74 48.6342 1196.64 52.4041 1193.86 55.82C1193.65 56.0725 1193.45 56.2895 1193.12 56.0974C1192.85 55.9391 1192.73 55.6333 1192.75 55.3345C1192.78 54.8918 1193.09 54.9718 1193.41 55.0358C1193.85 55.1247 1194.01 54.7139 1194.23 54.4668C1196.75 51.6163 1198.31 48.2448 1199.52 44.6866C1201.4 39.1688 1201.6 33.4803 1201.22 27.7349C1201.07 25.4677 1200.84 23.2111 1200.3 20.9937C1200.3 21.7459 1200.3 22.4998 1200.3 23.2538C1200.34 28.3555 1200.26 33.4465 1199.18 38.4646C1198.63 41.0004 1197.59 43.3601 1196.59 45.7357C1196.48 45.9865 1196.38 46.2959 1196.04 46.1625C1195.65 46.0078 1195.83 45.686 1195.92 45.4068C1196.83 42.711 1197.66 39.9939 1198.4 37.2501C1199.75 32.3013 1199.92 27.3703 1198.12 22.4874C1197.2 20.021 1195.78 17.8871 1194.07 15.876C1192.49 14.0337 1190.74 12.444 1188.87 10.9432C1188.64 10.76 1188.39 10.6036 1188.08 10.3795C1188 10.8898 1188.22 11.2437 1188.35 11.6011C1190.48 17.3359 1192.16 23.1844 1193.01 29.2588C1193.58 33.4234 1193.53 37.5862 1193.21 41.7632C1192.82 46.7564 1191.52 51.5594 1190.2 56.3552C1189.95 57.2604 1189.93 57.9112 1190.68 58.7007C1192.16 60.2655 1192.85 63.6032 1190.49 65.9505C1188.42 68.0203 1185.94 69.0873 1183.1 69.4589C1182.84 69.4927 1182.53 69.562 1182.42 69.226C1182.31 68.9112 1182.56 68.7441 1182.77 68.5805C1182.92 68.472 1183.06 68.36 1183.21 68.2693C1183.42 68.1377 1183.67 67.8567 1183.91 68.1288C1184.11 68.3635 1183.7 68.4987 1183.67 68.7956C1184.39 68.8508 1185.05 68.6445 1185.71 68.4293C1187.93 67.7056 1189.74 66.4306 1190.98 64.439C1192.03 62.7568 1191.47 59.9721 1189.82 58.6527C1189.75 59.0919 1189.71 59.4831 1189.64 59.869C1189.59 60.1144 1189.48 60.3527 1189.18 60.2851C1188.94 60.2318 1188.9 60.0059 1188.92 59.7836C1188.92 59.725 1188.93 59.6663 1188.94 59.6076C1189.05 58.0819 1189.04 58.0712 1187.55 58.4624C1185.85 58.9034 1184.52 59.9135 1183.31 61.128C1183.07 61.3663 1182.87 61.7895 1182.45 61.5832C1182.04 61.3876 1182.19 60.975 1182.23 60.6283C1182.35 59.2413 1182.47 57.8543 1182.6 56.4673C1182.64 56.0618 1182.68 55.6742 1182.07 55.708C1179.89 55.8271 1177.68 55.5177 1175.52 56.1152C1175.11 56.2308 1174.84 56.3766 1174.68 56.7642C1173.81 58.875 1172.33 60.5856 1171 62.4047C1169.42 64.583 1167.2 64.6702 1164.86 64.4532C1164.36 64.407 1163.95 64.0567 1163.56 63.7259C1162.28 62.6235 1161.07 61.4463 1160.01 60.1197C1158.75 58.546 1157.47 56.9954 1156.18 55.4466C1154.47 53.3981 1153.48 50.9939 1152.79 48.4653C1152.51 47.4339 1151.89 46.6675 1151.19 45.9509C1150.58 45.3196 1149.16 46.038 1148.95 47.153C1148.6 49.0948 1147.68 50.7752 1146.69 52.4325C1145.54 54.3619 1143.79 55.5959 1141.82 56.5597C1141.48 56.7251 1141.08 56.7998 1140.7 56.8336C1138.95 56.9918 1138.27 56.3161 1138.43 54.5841C1138.69 51.6945 1138.95 48.8014 1139.26 45.9171C1139.47 43.938 1140.23 43.3156 1142.23 43.296C1144.21 43.2765 1146.12 43.5272 1147.97 44.2812C1148.84 44.6368 1149.74 44.9658 1150.73 44.8164C1151.05 44.7666 1151.37 44.8733 1151.62 45.1258C1151.7 45.2094 1151.82 45.3712 1151.88 45.3517C1153.05 44.9604 1152.92 45.8051 1153.01 46.4986C1153.08 46.9609 1153.48 46.8685 1153.8 46.8151C1157.26 46.223 1160.76 46.1821 1164.25 46.1945C1166.77 46.2034 1169.2 46.7067 1171.44 47.9123C1173.93 49.2495 1175.4 51.2589 1175.53 54.1254C1175.56 54.625 1175.75 54.7993 1176.2 54.8527C1178.18 55.0856 1180.17 55.018 1182.15 55.0358C1182.54 55.0394 1182.67 54.8384 1182.66 54.4828C1182.61 53.4194 1182.7 52.3525 1182.48 51.2927C1182.23 50.0444 1182.56 49.7652 1183.78 50.1208C1183.7 50.7112 1183.56 51.2998 1183.58 51.8848C1183.61 53.1189 1183.09 54.4045 1183.91 55.5782C1184.04 55.7649 1183.95 55.9978 1183.69 56.0529C1183.5 56.0921 1183.35 56.1365 1183.33 56.3606C1183.2 57.6089 1182.89 58.8465 1182.99 60.2958C1183.39 60.0006 1183.67 59.7996 1183.94 59.5934C1185.19 58.6491 1186.56 57.8578 1188.13 57.7956C1189.24 57.7529 1189.47 57.2266 1189.54 56.3588C1189.54 56.2699 1189.56 56.1828 1189.57 56.0938C1190.33 50.2026 1190.03 44.3238 1189.31 38.4593C1188.63 32.9859 1187.38 27.6193 1186.11 22.2615C1185.2 18.3993 1184.22 14.5476 1182.43 10.9716C1181.17 8.45903 1179.44 6.4372 1176.66 5.48941C1176.16 5.32048 1175.9 5.37738 1175.62 5.77215C1175.09 6.51722 1174.78 7.32631 1174.77 8.2492C1174.73 10.7191 1175.08 13.1517 1175.51 15.5737C1176.67 22.1353 1177.97 28.6631 1180.15 34.9847C1181.34 38.4308 1182.92 41.7223 1184.12 45.1614C1184.66 46.7084 1185.08 48.2768 1184.94 49.9412C1184.91 50.288 1185 50.7379 1184.54 50.825C1184.07 50.9157 1183.9 50.5085 1183.77 50.1333L1183.76 50.1368ZM1162.08 46.7547C1160.75 46.8276 1159.42 46.904 1158.09 46.9752C1156.73 47.0498 1155.39 47.3095 1154.05 47.5317C1153.13 47.6829 1153.06 48.0777 1153.3 48.8405C1154.1 51.346 1155.16 53.7004 1156.96 55.676C1157.86 56.6611 1158.7 57.6978 1159.54 58.7345C1160.71 60.1891 1161.96 61.5636 1163.43 62.739C1165.6 64.4746 1168.44 64.2612 1170.34 62.2145C1172.18 60.2282 1173.51 57.9414 1174.44 55.4146C1175.2 53.3572 1174.61 51.0277 1172.99 49.5625C1172.32 48.9614 1171.57 48.4938 1170.77 48.1079C1168.01 46.7849 1165.07 46.6035 1162.08 46.7564V46.7547ZM1138.81 54.4241C1138.61 56.3481 1139.58 56.5242 1141.2 56.1934C1141.75 56.0814 1142.26 55.8111 1142.73 55.4964C1145.92 53.3323 1147.98 50.4818 1148.36 46.5271C1148.44 45.8069 1148.21 45.5277 1147.7 45.2076C1146.03 44.1674 1144.16 43.9273 1142.26 43.8615C1140.68 43.8064 1139.97 44.331 1139.77 45.8833C1139.4 48.7231 1139.13 51.5772 1138.81 54.4241Z" fill="#D15EA8" stroke="#D15EA8"/>
<path d="M1163.59 23.8104C1163.72 19.2653 1164.02 14.7539 1165.92 10.5147C1166.64 8.90895 1167.55 7.42947 1168.6 6.02112C1168.89 5.61925 1169.28 5.26538 1169.79 5.65303C1170.25 6.01223 1170.11 6.46568 1169.7 6.77687C1167.65 8.35059 1166.65 10.6036 1165.84 12.933C1164.23 17.6044 1164.01 22.4554 1164.35 27.3313C1164.71 32.3796 1165.93 37.2057 1168.56 41.6014C1170.18 44.3079 1172.07 46.8027 1174.27 49.0646C1174.53 49.3349 1174.77 49.8826 1175.3 49.3064C1175.46 49.1304 1175.69 49.3313 1175.79 49.5269C1175.95 49.8435 1176.12 50.1706 1175.96 50.5387C1175.84 50.7912 1175.61 50.8802 1175.36 50.7984C1175.18 50.7361 1174.98 50.6259 1174.85 50.4801C1172.01 47.2153 1169.15 43.9682 1167.17 40.065C1165.17 36.121 1164.19 31.9102 1163.79 27.5393C1163.67 26.2999 1163.56 25.0605 1163.59 23.8122V23.8104Z" fill="#D15EA8" stroke="#D15EA8"/>
<path d="M1145.34 32.9699C1145.37 33.4323 1145.39 34.2609 1145.45 35.086C1145.49 35.5679 1145.49 36.0071 1146.16 36.201C1146.63 36.3361 1146.79 36.962 1146.82 37.4795C1146.86 38.0699 1146.84 38.6638 1146.84 39.2559C1146.84 39.5618 1146.81 39.8943 1146.43 39.9388C1146.05 39.9832 1145.93 39.6667 1145.86 39.3715C1145.52 37.8725 1145.06 36.3841 1144.98 34.8477C1144.69 28.8925 1145.57 23.1631 1148.43 17.8391C1150.95 13.1553 1154.67 9.86382 1159.66 8.01626C1161.47 7.34765 1163.3 6.7644 1165.16 6.26472C1165.3 6.2256 1165.45 6.17758 1165.59 6.16158C1166.06 6.10646 1166.47 6.2256 1166.51 6.74839C1166.56 7.26763 1166.17 7.45968 1165.71 7.50235C1156.45 8.37724 1150.33 13.2851 1147.16 21.977C1145.91 25.4125 1145.47 28.9814 1145.34 32.9753V32.9699Z" fill="#D15EA8" stroke="#D15EA8"/>
<path d="M1149.22 28.8054C1149.52 28.8143 1149.65 28.2755 1149.97 28.5511C1150.24 28.7929 1150.03 29.1023 1149.93 29.3726C1149.64 30.1888 1149.57 31.0477 1149.42 31.8906C1149.36 32.2196 1149.41 32.7015 1148.89 32.6339C1148.47 32.5805 1148.5 32.168 1148.5 31.8444C1148.61 27.3117 1149.4 22.9711 1151.97 19.0946C1153.52 16.7526 1155.32 14.6632 1157.57 12.9722C1157.71 12.8655 1157.85 12.7552 1158.01 12.6681C1158.44 12.4209 1158.89 12.3373 1159.13 12.8708C1159.35 13.3403 1159.06 13.6906 1158.62 13.8328C1156.63 14.4765 1155.29 15.9364 1154.02 17.4657C1151.3 20.7554 1149.52 24.463 1149.22 28.8054H1149.22Z" fill="#D15EA8" stroke="#D15EA8"/>
<path d="M1190.19 85.9519C1190.11 86.9068 1190.46 87.5985 1190.81 88.2813C1191.4 89.4372 1192 90.5859 1192.96 91.5053C1193.19 91.7275 1193.46 92.0512 1193.13 92.3375C1192.75 92.6664 1192.58 92.2414 1192.38 92.0032C1191.09 90.4188 1190.03 88.6886 1189.15 86.8446C1188.97 86.4693 1188.81 86.0888 1188.82 85.662C1188.83 85.2033 1188.99 84.8085 1189.51 84.8049C1190.03 84.8032 1190.18 85.2033 1190.21 85.6567C1190.22 85.8025 1190.19 85.9501 1190.19 85.9501V85.9519Z" fill="#D15EA8" stroke="#D15EA8"/>
<path d="M1148.86 75.1029C1149.79 75.1331 1150.48 75.4248 1151.11 75.8889C1151.33 76.0471 1151.58 76.2285 1151.42 76.5326C1151.24 76.8847 1150.92 76.7798 1150.65 76.6588C1150.12 76.4206 1149.58 76.3974 1149.02 76.4704C1148.49 76.5379 1147.93 76.4757 1147.91 75.8C1147.9 75.0993 1148.48 75.1047 1148.86 75.1029Z" fill="#D15EA8"/>
<path d="M1145.03 57.3599C1144.95 56.8424 1144.89 56.4174 1145.35 56.1649C1145.62 56.0191 1145.88 56.0778 1146.08 56.2858C1146.45 56.6592 1146.39 57.1038 1146.21 57.5306C1145.12 60.1232 1144.1 62.7461 1142.89 65.2871C1142.65 65.7939 1142.45 66.3221 1142.25 66.8449C1142.05 67.3374 1142.18 67.6451 1142.76 67.6984C1143.17 67.7375 1143.58 67.8069 1143.99 67.8513C1144.36 67.8905 1144.69 67.9918 1144.93 68.2852C1145.05 68.4293 1145.12 68.6089 1145.02 68.776C1144.91 68.9485 1144.7 68.9769 1144.55 68.8667C1144 68.4844 1143.35 68.568 1142.75 68.4719C1141.32 68.2443 1141.07 67.8247 1141.7 66.4928C1142.82 64.1046 1143.82 61.6703 1144.63 59.1594C1144.83 58.5424 1145.08 57.9325 1145.03 57.3599H1145.03Z" fill="#D15EA8" stroke="#D15EA8"/>
</svg>
