<svg width="761" height="596" viewBox="0 0 761 596" fill="none" xmlns="http://www.w3.org/2000/svg">
<path d="M119.324 201.184C119.022 191.248 117.394 181.49 115.283 171.796C113.279 162.582 111.097 153.427 106.653 145.003C104.62 141.144 102.084 137.655 99.052 134.489C91.3092 126.4 81.1306 128.977 75.6409 136.407C72.6764 140.422 71.4623 144.98 71.2686 149.803C70.9483 157.736 72.4231 165.464 74.5236 173.077C76.9594 181.907 80.058 190.551 81.8308 199.568C83.1939 206.503 83.9052 213.515 84.7208 220.528C85.8381 230.159 85.7637 239.832 86.0318 249.492C86.0988 251.906 85.9052 254.327 85.7823 256.74C85.7301 257.764 85.8679 258.233 87.097 257.887C89.7748 257.131 92.4898 256.513 95.1936 255.846C95.9981 255.649 96.512 255.209 96.5828 254.334C96.6573 253.41 96.8212 252.491 96.8472 251.571C97.0037 245.496 96.7839 239.422 97.2457 233.344C97.5884 228.808 99.4058 225.694 103.938 224.424C105.067 224.107 106.128 223.556 107.249 223.199C114.728 220.808 117.778 215.072 118.91 207.862C119.256 205.646 119.35 203.423 119.324 201.184Z" fill="#AFEEEE"/>
<path d="M75.7826 145.278C75.5256 142.284 75.9688 139.86 76.2556 137.431C76.3226 136.88 76.6392 136.206 76.3003 135.819C75.3431 134.735 76.1513 134.18 76.8105 133.551C79.4995 130.992 82.7061 129.238 86.0282 127.677C88.3857 126.567 90.7581 125.495 93.272 124.765C93.7822 124.616 94.5681 124.467 94.5122 123.841C94.4452 123.104 93.6072 123.085 93.0188 123.033C91.2609 122.884 89.5365 123.26 87.8755 123.73C79.9762 125.945 72.7473 129.268 68.8256 137.077C65.9914 142.72 64.5649 148.861 65.3322 155.107C65.6822 157.937 65.3247 160.544 65.0715 163.226C64.7884 166.194 65.3173 168.891 67.198 171.189C68.2222 172.436 67.887 173.915 68.1291 175.241C68.7138 178.425 70.3004 181.11 71.7864 183.855C72.2557 184.719 72.8106 185.546 73.0787 186.488C73.954 189.587 76.4046 191.605 78.2034 194.071C78.5014 194.48 79.0377 194.883 79.4511 194.399C80.5609 193.106 81.4734 194.067 82.4752 194.507C83.8607 195.117 85.3616 195.091 86.7656 194.775C87.9723 194.503 88.7917 193.602 88.5012 192.164C88.2144 190.734 87.2274 190.075 85.9202 190.507C84.4156 191.006 83.8644 190.198 83.1046 189.203C80.114 185.274 79.4473 180.954 80.8067 176.276C82.0097 176.421 83.2238 176.634 84.2219 177.81C84.9854 178.712 86.2182 178.864 87.4211 178.254C88.5347 177.688 88.7507 176.73 88.8066 175.632C88.9965 171.811 89.0598 167.926 87.8531 164.313C87.261 162.541 86.0692 160.787 84.9705 159.178C84.1623 158.001 84.7657 157.524 85.3355 156.958C87.0375 155.256 88.9071 153.755 90.9034 152.384C94.9144 149.628 98.9963 146.939 101.756 142.746C103.201 140.549 104.043 138.12 104.672 135.614C104.896 134.735 104.922 133.614 103.622 133.42C102.393 133.234 102.378 134.251 102.128 135.1C101.216 138.165 99.0298 140.5 97.3874 143.152C95.4768 146.239 92.8065 148.437 89.5626 150.005C87.4695 151.018 85.5701 152.355 83.6223 153.703C85.3206 148.5 88.1511 143.923 90.9294 139.051C91.503 139.848 91.678 140.91 92.7841 140.91C94.002 140.91 94.6649 140.046 95.3576 139.264C98.2663 135.975 100.676 132.407 101.555 127.99C101.804 126.735 101.741 125.573 100.788 124.042C99.3539 129.268 96.2366 133.018 92.8623 136.597C93.4359 135.178 94.3446 133.986 95.4247 132.925C96.3707 131.994 96.8027 130.873 96.5494 129.58C96.4154 128.91 96.0355 128.292 95.2385 128.188C94.5085 128.094 94.002 128.314 93.5663 129.025C90.8847 133.424 88.1846 137.819 85.3988 142.15C82.546 146.586 80.5944 151.424 78.7509 156.325C78.6503 156.593 78.777 156.954 78.4269 157.118C78.3747 157.14 78.304 157.118 78.114 157.118C78.777 150.515 79.7155 144.005 82.8402 138.02C83.3206 137.096 83.8122 136.161 84.1363 135.178C84.4007 134.374 84.6279 133.361 83.6335 132.869C82.587 132.348 82.1735 133.048 81.5218 133.904C79.019 137.197 77.4772 140.936 75.7938 145.275L75.7826 145.278ZM71.9316 142.467C72.0322 142.481 72.1328 142.496 72.2333 142.511C72.2333 145.662 72.2929 148.817 72.2184 151.967C72.0881 157.498 71.7492 163.029 71.9242 168.563C71.9577 169.595 71.5853 169.568 70.833 169.271C69.4624 168.727 69.5369 167.498 69.3507 166.366C68.3749 160.407 69.6896 154.604 70.576 148.776C70.9 146.653 71.4661 144.567 71.9242 142.467H71.9316ZM75.3543 166.675C76.453 167.915 77.3654 167.658 78.3114 166.935C78.7807 166.578 79.4064 166.515 79.7304 167.092C79.9985 167.565 79.708 168.325 79.2462 168.276C77.6783 168.109 77.0489 169.207 76.3338 170.336C75.723 169.248 75.4102 168.272 75.3543 166.671V166.675ZM76.0359 175.676C74.9856 175.427 73.9242 174.794 73.872 173.945C73.7975 172.734 75.2016 173.993 75.7044 173.319C75.8124 173.174 76.0433 173.114 76.3115 172.961C76.2109 173.959 76.129 174.794 76.0396 175.676H76.0359Z" fill="#D15EA8"/>
<path d="M102.02 201.318C102.423 201.689 102.784 202.065 103.358 202.253C105.96 203.111 108.554 203.018 111.137 202.261C112.126 201.969 113.015 201.326 112.724 200.137C112.449 199 111.45 198.705 110.38 198.862C109.291 199.022 108.22 199.321 107.134 199.483C105.874 199.671 104.603 199.995 103.386 199.203C102.725 198.773 101.906 198.655 101.402 199.405C100.876 200.192 101.475 200.783 102.02 201.318Z" fill="#D15EA8"/>
<path d="M99.1636 168.98C98.9476 170.712 99.86 172.086 100.493 173.512C100.862 174.336 101.618 174.801 102.623 174.548C103.633 174.295 103.983 173.591 103.987 172.626C104.001 170.57 103.353 168.704 102.292 166.976C101.905 166.351 101.253 166.034 100.534 166.336C99.3684 166.831 98.8954 167.755 99.1599 168.976L99.1636 168.98Z" fill="#D15EA8"/>
<path d="M112.892 167.159C112.88 166.98 112.918 166.474 112.802 166.004C112.627 165.271 112.083 164.839 111.342 164.805C110.489 164.764 110.121 165.431 110.054 166.109C109.968 166.954 110.042 167.833 110.147 168.682C110.24 169.434 110.53 170.157 111.461 170.179C112.527 170.209 112.72 169.371 112.88 168.578C112.951 168.224 112.892 167.84 112.892 167.159Z" fill="#D15EA8"/>
<path d="M33.127 102.771C34.0115 103.24 34.9182 103.666 35.8484 104.057C43.8399 107.394 53.3718 107.605 63.417 104.663C84.0627 98.6139 96.2337 101.872 102.805 105.673C109.895 109.771 112.177 115.361 112.199 115.416L113.046 117.552L113.804 115.168C113.849 115.031 118.244 101.024 118.539 83.8113C118.71 73.6854 117.456 64.4337 114.808 56.3133C111.491 46.1402 105.966 37.734 98.3893 31.3268C83.7078 18.9124 68.5893 15.0312 53.4508 19.7861C38.9083 24.3585 28.5411 35.6421 23.6599 41.9611C18.3889 48.7807 15.2189 56.8792 14.4927 65.3824C13.7985 73.4847 15.3309 81.3894 18.9171 88.2441C22.2538 94.6184 27.1288 99.5894 33.1292 102.767L33.127 102.771ZM102.836 103.493C95.8033 99.7688 83.4085 96.9335 63.1602 102.861C44.4202 108.35 28.4457 102.489 20.4355 87.1838C13.1732 73.3036 14.9289 55.9863 24.9174 43.061C32.7421 32.9381 61.0749 2.28178 97.2287 32.855C113.898 46.9543 117.081 68.4511 116.815 84.0021C116.591 96.9873 114.005 108.085 112.8 112.595C111.503 110.461 108.8 106.941 103.864 104.059C103.534 103.868 103.196 103.678 102.842 103.491L102.836 103.493Z" fill="#F1F1F1"/>
<rect x="34" y="61" width="62" height="3" fill="#D15EA8"/>
<rect x="34" y="73" width="62" height="3" fill="#D15EA8"/>
<rect x="34" y="67" width="18.0833" height="3" fill="#D15EA8"/>
<rect x="56" y="67" width="40" height="3" fill="#D15EA8"/>
<path d="M678.194 219.466C675.08 216.285 671.816 213.253 669.005 209.776C665.658 205.637 663.963 200.828 663.64 195.644C662.686 180.38 666.868 166.563 676.278 154.508C679.625 150.219 684.166 147.542 689.847 146.998C698.251 146.19 703.798 149.17 707.358 157.098C711.461 166.244 714.201 175.799 715.25 185.796C715.64 189.51 715.995 193.227 716.346 196.949C716.905 202.854 715.092 208.357 713.472 213.9C711.3 221.323 707.906 228.347 706.388 235.979C705.556 240.162 704.874 244.36 704.575 248.614C704.543 249.067 704.622 249.544 704.279 249.923C703.065 249.875 703.297 248.882 703.297 248.22C703.289 244.68 703.246 241.14 702.871 237.615C702.816 237.095 702.844 236.567 702.777 236.046C701.854 228.683 701.031 227.512 694.286 224.472C689.681 222.399 685.097 220.282 680.417 218.374C679.073 217.826 678.281 217.743 678.206 219.462L678.194 219.466Z" fill="#AFEEEE"/>
<path d="M678.194 219.466C678.281 218.587 677.555 217.921 677.445 216.848C680.563 217.676 683.303 219.028 686.09 220.223C689.642 221.744 693.032 223.676 696.651 224.989C701.03 226.581 702.383 229.976 702.97 234.044C703.624 238.585 703.845 243.15 703.798 247.739C703.79 248.476 703.467 249.339 704.267 249.927C704.03 254.097 703.794 258.268 703.557 262.439C703.297 262.987 703.431 263.874 702.505 263.866C701.846 263.858 701.476 263.314 701.232 262.778C697.731 255.146 692.484 248.539 688.53 241.171C688.392 240.395 688.25 239.618 688.112 238.841C688.025 238.396 687.852 237.935 687.923 237.493C688.542 233.713 686.559 230.882 684.517 228.072C682.987 225.966 681.221 224.043 679.751 221.894C679.231 221.086 678.714 220.278 678.194 219.47V219.466Z" fill="#A0DADA"/>
<path d="M688.53 241.171C690.127 241.814 690.304 243.525 691.081 244.739C694.818 250.589 698.811 256.297 701.677 262.664C702.572 264.654 702.958 262.735 703.561 262.443C703.782 263.342 703.877 264.225 703.281 265.242C702.386 264.004 701.287 264.122 700.041 264.473C695.878 265.652 691.782 265.577 687.86 263.531C687.253 263.215 686.468 263.081 686.681 262.033C688.081 255.15 688.033 248.133 688.534 241.167L688.53 241.171Z" fill="#AFEEEE"/>
<path d="M679.751 221.894C682.877 224.496 684.959 227.914 687.209 231.221C688.877 233.669 688.573 236.212 688.112 238.841C686.311 235.313 684.47 231.801 682.715 228.245C681.683 226.152 680.378 224.177 679.747 221.894H679.751Z" fill="#AFEEEE"/>
<path d="M694.798 147.731C694.967 147.621 695.015 147.566 695.07 147.558C696.607 147.353 698.247 148.855 699.367 148.165C700.479 147.479 700.952 145.721 702.04 144.637C705.607 141.085 709.924 138.98 714.84 138.219C720.288 137.376 724.076 140.443 724.427 145.973C724.533 147.649 725.089 148.879 726.086 150.195C731.061 156.755 732.855 164.135 731.353 172.271C730.442 177.211 728.57 181.831 726.682 186.447C726.658 186.506 726.63 186.569 726.603 186.628C726.004 187.87 725.274 189.1 723.65 188.54C722.061 187.992 722.105 186.589 722.456 185.229C723.177 182.434 723.989 179.666 724.667 176.864C725.81 172.141 726.902 167.414 726.075 162.475C725.736 160.445 725.065 158.541 724.312 156.652C723.835 155.466 723.504 154.335 721.612 154.599C720.177 154.8 719.858 153.353 719.85 152.064C719.834 149.616 718.778 148.599 716.346 149.143C713.074 149.88 709.884 150.885 708.13 154.232C707.452 155.529 706.234 155.403 705.292 154.547C702.911 152.391 700.132 150.988 697.171 149.837C696.186 149.454 695.2 148.863 694.794 147.735L694.798 147.731ZM718.147 145.074C718.514 144.933 719.401 145.741 719.641 144.795C719.818 144.101 719.255 143.439 718.695 142.946C717.737 142.102 716.61 141.905 715.38 142.118C711.173 142.851 707.342 144.499 703.861 146.947C701.18 148.831 701.208 148.871 703.849 150.511C703.959 150.582 704.086 150.637 704.18 150.724C705.134 151.618 705.725 151.488 706.679 150.444C709.675 147.172 713.476 145.382 718.143 145.071L718.147 145.074Z" fill="#D15EA8"/>
<path d="M708.859 174.006C710.345 180.735 709.955 187.152 710.223 193.834C711.343 193.014 711.824 191.583 713.255 191.71C714.836 191.848 714.804 193.409 715.423 194.398C715.632 194.367 715.841 194.335 716.05 194.303C716.05 190.937 716.05 187.566 716.05 184.2C716.05 177.522 714.134 171.258 711.903 165.065C711.552 164.087 710.854 162.66 711.816 162.179C712.864 161.659 713.334 163.216 713.866 164.024C718.797 171.558 720.713 179.836 719.929 188.777C719.767 190.606 719.684 192.443 719.515 194.276C719.373 195.825 718.652 196.964 716.941 196.901C715.9 196.862 715.908 197.363 715.967 198.092C716.231 201.163 714.666 203.65 713.318 206.193C712.849 207.076 712.041 207.616 711.024 207.103C709.9 206.54 709.963 205.55 710.412 204.561C710.956 203.366 711.552 202.196 712.096 201.005C712.557 200 712.896 198.967 712.407 197.536C711.694 198.628 711.177 199.503 710.574 200.315C710.042 201.037 709.324 201.525 708.367 201.218C707.468 200.93 707.263 200.165 707.255 199.33C707.18 191.781 707.077 184.235 707.677 176.698C707.74 175.917 707.878 175.149 708.851 174.013L708.859 174.006Z" fill="#D15EA8"/>
<path d="M696.966 150.231C696.347 151.252 695.445 151.555 694.703 152.017C691.696 153.877 689.267 156.337 687.146 159.128C686.563 159.893 685.885 160.618 687.517 161.04C688.349 161.257 688.743 162.022 688.648 162.905C688.554 163.784 687.978 164.363 687.158 164.552C685.944 164.828 684.706 165.002 683.472 165.163C678.852 165.775 674.228 166.37 669.604 166.965C666.715 167.336 665.102 165.991 664.964 163.07C664.862 160.867 665.623 158.935 666.994 157.252C671.343 151.926 677.272 149.226 683.677 147.412C686.327 146.663 689.066 146.202 691.849 146.49C692.472 146.553 693.47 146.521 693.513 147.231C693.564 148.098 692.504 147.881 691.948 147.984C684.825 149.296 678.557 152.513 672.707 156.633C670.869 157.926 669.285 159.514 668.567 161.754C668.41 162.246 668.169 162.81 668.555 163.255C669.009 163.78 669.537 163.291 670.002 163.165C673.684 162.171 677.394 161.328 681.214 161.099C682.298 161.036 682.944 160.63 683.528 159.648C685.893 155.651 689.192 152.616 693.43 150.657C694.487 150.168 695.583 149.88 696.962 150.235L696.966 150.231Z" fill="#D15EA8"/>
<path d="M699.375 157.867C700.644 157.646 701.803 157.346 702.58 158.482C703.4 159.68 702.497 160.583 701.933 161.513C701.46 162.298 701.011 163.121 700.408 163.799C699.639 164.659 698.598 164.887 697.952 163.76C697.301 162.629 696.817 163.094 696.142 163.598C695.626 163.989 695.094 164.442 694.499 164.627C693.261 165.014 692.216 164.064 692.729 162.928C694.124 159.838 695.93 157.027 699.229 155.608C699.883 155.324 700.593 155.166 701.425 155.659C701.023 156.597 699.801 156.735 699.375 157.867Z" fill="#D15EA8"/>
<path d="M687.336 210.06C686.607 209.918 685.81 209.863 685.085 209.611C682.968 208.874 681.028 207.703 678.714 207.419C677.603 207.285 676.925 206.217 676.972 204.908C677 204.139 677.102 203.414 677.871 203.126C678.576 202.862 679.156 203.288 679.53 203.871C679.783 204.261 679.921 204.742 680.504 204.659C682.869 204.313 684.651 205.956 686.764 206.457C687.683 206.674 688.317 207.206 688.72 207.959C689.319 209.086 688.656 210.052 687.34 210.064L687.336 210.06Z" fill="#D15EA8"/>
<path d="M675.328 179.312C674.587 179.438 674.208 179.091 673.991 178.578C673.637 177.739 674.859 175.129 675.84 174.475C676.349 174.136 676.842 174.124 677.256 174.514C677.457 174.703 677.646 175.196 677.539 175.377C676.92 176.45 676.609 177.636 676.175 178.776C676.022 179.178 675.643 179.331 675.328 179.312Z" fill="#D15EA8"/>
<path d="M691.163 179.552C691.191 178.653 691.002 177.518 692.307 177.471C693.178 177.439 693.537 178.299 693.332 179.044C693.099 179.887 693.659 181.314 692.228 181.425C690.982 181.523 691.152 180.4 691.163 179.556V179.552Z" fill="#D15EA8"/>
<path d="M638.123 117.145C630.17 113.584 626.761 106.693 625.304 101.473C623.997 96.7989 623.982 92.7035 624.034 91.1999C622.682 90.8743 618.938 89.8516 614.941 87.6974C608.375 84.1596 604.329 79.2392 603.248 73.4623C602.075 67.1944 602.928 61.7657 605.785 57.3272C609.928 50.8901 616.967 48.5194 619.275 47.8982C618.974 46.0376 618.524 41.217 620.857 36.8285C622.507 33.7243 625.209 31.49 628.884 30.1751C635.893 27.6717 640.758 29.9812 643.606 32.355C645.846 34.2228 647.199 36.3893 647.782 37.4734C657.281 30.7027 665.664 28.5008 672.71 30.9257C682.014 34.1326 686.085 44.3532 687.25 47.9241C688.404 46.5575 690.754 44.1744 694.351 42.3705C699.152 39.9644 707.164 38.1947 718.102 43.4136C727.102 47.7105 730.228 55.8067 731.266 61.8448C732.175 67.121 731.699 71.6834 731.464 73.3427C733.196 73.8467 738.232 75.7238 740.369 81.0407C742.185 85.5607 741.41 91.338 738.055 98.2086C732.731 109.126 725.297 112.016 719.993 112.521C715.192 112.976 711.326 111.631 710.108 111.141C708.555 112.574 702.021 118.717 700.574 121.772C699.227 124.622 698.176 127.205 697.453 129.443L697.028 130.754L696.266 129.756C696.161 129.62 696.057 129.484 695.949 129.346C692.684 125.23 681.074 120.528 679.087 119.745C678.102 120.33 674.842 122.03 669.2 122.749C663.072 123.53 652.81 123.237 638.739 117.416C638.529 117.331 638.32 117.242 638.113 117.149L638.123 117.145ZM625.47 89.9766L625.423 90.5873C625.419 90.6367 625.074 95.453 626.625 100.978C628.691 108.329 632.956 113.39 639.326 116.021C665.713 126.931 678.625 118.397 678.751 118.309L679.049 118.107L679.358 118.224C679.903 118.435 692.34 123.222 696.594 127.82C697.306 125.819 698.238 123.594 699.377 121.185C701.152 117.429 709.279 110.04 709.625 109.729L709.969 109.416L710.351 109.596C710.395 109.615 714.663 111.56 720.053 111.033C727.203 110.332 732.861 105.816 736.865 97.6038C740.005 91.1713 740.762 85.831 739.117 81.7355C736.834 76.0392 730.571 74.6564 730.507 74.6404L729.898 74.512L730.023 73.8298C730.032 73.7747 730.997 68.4255 729.913 62.1849C728.474 53.889 724.283 48.0301 717.46 44.7718C709.156 40.8085 701.334 40.4368 694.829 43.6999C689.955 46.145 687.52 49.7587 687.497 49.7947L686.654 51.0631L686.293 49.6586C686.257 49.5197 682.646 35.9338 672.181 32.3344C665.402 30.0035 657.215 32.2889 647.849 39.1236L647.196 39.5988L646.883 38.886C646.869 38.8585 645.529 35.888 642.675 33.5199C638.894 30.3853 634.361 29.7302 629.205 31.5697C625.899 32.7489 623.487 34.7313 622.032 37.4602C619.418 42.3639 620.736 48.1325 620.747 48.1924L620.936 48.998L620.151 49.1602C620.065 49.1767 611.407 51.0432 606.872 58.1024C604.257 62.1696 603.487 67.1944 604.58 73.0447C607.015 86.0617 624.739 89.8274 624.919 89.8615L625.464 89.9738L625.47 89.9766Z" fill="#F1F1F1"/>
<path d="M697.046 138.277C696.837 138.183 696.614 138.071 696.38 137.937C694.18 136.683 693.707 133.836 694.973 129.482L695.266 128.478L696.053 129.328C699.572 133.115 701.133 136.747 699.854 138.159C699.503 138.543 698.697 139.019 697.048 138.281L697.046 138.277ZM696.973 136.962C697.883 137.481 698.601 137.633 698.849 137.363C699.338 136.822 698.91 134.438 695.924 130.934C695.362 133.317 695.231 135.967 696.976 136.963L696.973 136.962Z" fill="#F1F1F1"/>
<path d="M655.034 27.1714C654.897 27.1099 654.783 26.9953 654.716 26.8421C654.573 26.4994 654.728 26.0796 655.062 25.9069C655.476 25.6945 665.311 20.7028 675.422 24.3507C685.587 28.0185 688.436 38.7126 688.552 39.1661C688.645 39.5302 688.435 39.9254 688.084 40.0466C687.733 40.1679 687.371 39.9699 687.278 39.6059C687.251 39.5024 684.467 29.1121 674.929 25.6732C665.34 22.2157 655.681 27.1028 655.582 27.1503C655.401 27.2441 655.199 27.2452 655.034 27.1714Z" fill="#F1F1F1"/>
<path d="M651.291 25.4955C651.17 25.4414 651.064 25.3467 650.995 25.2179C650.818 24.8912 650.934 24.4678 651.258 24.2673C651.792 23.9372 664.508 16.2111 674.934 19.5756C675.282 19.6879 675.462 20.0746 675.344 20.4379C675.221 20.8031 674.84 21.0057 674.495 20.8981C664.627 17.7131 652.031 25.3711 651.906 25.4491C651.711 25.5697 651.485 25.5781 651.299 25.495L651.291 25.4955Z" fill="#F1F1F1"/>
<path d="M711.511 113.989C711.194 113.847 711.035 113.475 711.149 113.124C711.273 112.744 711.667 112.531 712.031 112.645C720.081 115.18 727.137 114.131 733.004 109.534C737.407 106.086 739.462 101.815 739.482 101.771C739.651 101.411 740.075 101.251 740.413 101.415C740.756 101.577 740.899 102.002 740.727 102.36C740.64 102.545 738.527 106.953 733.871 110.621C729.568 114.012 722.207 117.355 711.586 114.011C711.564 114.001 711.536 113.993 711.514 113.982L711.511 113.989Z" fill="#F1F1F1"/>
<path d="M708.257 117.785C707.937 117.642 707.83 117.175 708.024 116.741C708.218 116.308 708.635 116.075 708.955 116.219C709.065 116.268 720.255 121.181 728.385 117.275C728.752 117.097 729.105 117.294 729.177 117.712C729.244 118.132 729.001 118.611 728.632 118.793C719.993 122.948 708.733 117.999 708.257 117.785Z" fill="#F1F1F1"/>
<path d="M629.55 117.818C629.526 117.807 629.499 117.795 629.478 117.776C620.003 111.308 620.799 92.8754 620.839 92.096C620.861 91.635 621.187 91.1892 621.566 91.0982C621.943 91.0113 622.231 91.3159 622.211 91.7782C622.202 91.9595 621.422 110.139 630.35 116.231C630.645 116.433 630.688 116.939 630.446 117.367C630.224 117.759 629.84 117.948 629.55 117.818Z" fill="#F1F1F1"/>
<path d="M641.391 123.119C638.321 121.744 636.43 120.629 636.398 120.611C636.087 120.425 635.996 119.986 636.198 119.627C636.399 119.268 636.809 119.124 637.124 119.311C637.338 119.44 658.935 132.057 675.601 124.416C675.953 124.255 676.33 124.424 676.444 124.794C676.558 125.164 676.366 125.594 676.014 125.755C666.96 129.906 656.657 128.278 649.609 126.181C646.428 125.235 643.603 124.109 641.388 123.118L641.391 123.119Z" fill="#F1F1F1"/>
<rect x="641.179" y="70.0808" width="62" height="3" fill="#D15EA8"/>
<rect x="641.179" y="82.0808" width="62" height="3" fill="#D15EA8"/>
<rect x="641.179" y="76.0808" width="18.0833" height="3" fill="#D15EA8"/>
<rect x="663.179" y="76.0808" width="40" height="3" fill="#D15EA8"/>
<path d="M39.2746 547.172C38.9922 559.913 40.9418 572.413 43.4023 584.859C43.8908 587.337 44.1911 589.861 44.4914 592.37C44.5944 593.217 44.7378 593.742 45.7328 593.845C49.8784 594.266 54.0241 594.741 58.1652 595.23C59.6487 595.405 60.3792 595.203 59.9624 593.361C59.3842 590.811 59.6173 588.18 59.8459 585.581C60.1686 581.928 61.912 579.396 65.6229 578.558C69.6161 577.652 73.5915 576.604 77.6296 576.003C90.3488 574.103 96.6547 564.642 97.9499 553.267C98.8732 545.168 97.6407 537.209 96.5382 529.245C95.3416 520.608 93.997 511.99 90.7074 503.833C88.5472 498.486 86.0329 493.346 82.0441 489.061C74.6088 481.075 63.8705 482.966 57.7305 489.07C53.0022 493.771 50.2639 499.575 47.8572 505.653C43.6936 516.176 41.3989 527.183 39.3597 538.235C38.8264 541.121 39.279 544.191 39.279 547.176L39.2746 547.172Z" fill="#AFEEEE"/>
<path d="M41.807 522.338C41.5605 516.866 41.798 511.51 45.4013 507.002C46.58 505.527 47.9111 504.227 49.7039 503.519C50.6809 503.134 51.631 502.793 52.5094 503.9C53.1055 504.649 54.0377 504.823 54.9475 504.317C55.5884 503.958 55.9021 503.367 55.8304 502.632C55.7318 501.592 54.9475 501.404 54.0915 501.229C52.4243 500.884 52.9217 499.459 52.5408 498.114C59.9133 501.292 67.5637 500.144 74.9721 501C79.7407 501.552 84.4645 502.166 88.6281 504.823C89.1435 505.155 89.6812 505.496 90.2683 505.047C90.833 504.617 90.8555 503.918 90.5642 503.412C88.3322 499.539 88.6101 494.6 85.0605 491.028C87.9154 490.397 86.7054 489.133 85.7239 487.954C83.7474 485.579 81.1076 484.203 78.2527 483.212C74.4208 481.881 70.4589 481.164 66.4074 481.012C59.2141 480.743 52.8904 485.117 50.3447 491.902C49.296 494.704 48.3369 497.478 48.6372 500.534C48.7358 501.543 48.4758 502.332 47.5526 503.022C42.9139 506.495 40.8882 511.367 40.6327 516.978C40.4265 521.505 39.5302 526.049 40.6417 530.576C40.7358 530.966 40.7224 531.315 40.3817 531.58C38.8221 532.803 38.3022 534.591 37.7958 536.783C36.5902 534.793 36.1599 532.92 36.0837 531.06C35.7924 523.714 36.7156 516.601 40.5879 510.134C41.0137 509.426 41.435 508.696 41.3409 507.835C41.2198 506.746 40.6283 505.975 39.4944 505.948C38.2888 505.921 37.6747 506.715 37.845 507.844C38.114 509.641 37.5358 511.241 36.9621 512.855C34.9229 518.582 34.5061 524.512 34.7526 530.522C34.7795 531.19 34.9185 531.853 35.0484 532.512C35.8014 536.339 37.7689 539.75 38.7773 543.501C39.1403 544.855 40.1308 545.984 41.1571 546.988C41.6904 547.508 42.2507 548.104 43.0932 547.839C43.9582 547.566 44.0523 546.768 44.0792 546.006C44.1061 545.101 44.0927 544.245 43.0798 543.73C39.7005 542 38.5128 537.491 40.5521 534.278C40.7896 533.906 40.9958 533.422 41.5112 533.44C42.049 533.462 42.1431 534.004 42.3044 534.394C43.882 538.199 45.0786 542.116 45.854 546.163C46.0064 546.961 45.9212 548.064 47.0775 547.88C48.18 547.705 47.8484 546.629 47.808 545.836C47.4719 538.894 47.4719 531.934 48.2741 525.041C48.7089 521.312 50.5957 517.834 51.0753 514.029C51.2993 512.259 51.8371 510.533 52.1867 508.776C52.3301 508.05 52.487 507.235 51.6175 506.809C50.7839 506.401 50.2147 506.952 49.6635 507.481C47.6467 509.417 46.0557 511.627 45.0563 514.275C44.0344 516.982 42.8916 519.64 41.8025 522.325L41.807 522.338ZM88.4488 503.049C85.6073 502.107 83.0976 501.171 80.4578 500.642C74.0713 499.351 67.5458 499.297 61.1099 498.419C58.7346 498.096 56.6103 497.402 55.0775 495.412C54.2887 494.39 53.3431 493.735 51.9985 494.511C51.2994 494.914 50.7257 494.753 50.8422 493.901C51.2814 490.782 53.343 488.59 55.2343 486.26C56.4803 484.723 57.65 485.978 58.8466 485.951C59.5189 485.933 60.1912 486.009 60.8589 486.031C66.618 486.193 72.3189 486.878 77.9659 488.012C80.7804 488.581 82.9541 490.504 84.1642 493.673C81.2465 490.903 77.9256 489.697 74.2998 489.204C68.5183 488.42 62.701 488.156 56.8747 488.165C56.1486 488.165 55.3957 488.366 54.701 488.613C53.8136 488.927 53.0876 489.536 53.1413 490.571C53.1996 491.701 54.1363 491.925 55.0461 492.113C56.8971 492.503 58.766 492.342 60.6304 492.351C61.1503 492.351 61.8046 492.36 61.8673 491.701C61.9435 490.863 61.1951 490.858 60.6125 490.786C58.9856 490.58 57.3542 490.397 55.2926 490.155C55.9201 489.697 56.0769 489.505 56.2607 489.469C56.8433 489.348 57.4394 489.218 58.031 489.209C64.0858 489.119 70.1183 489.352 76.0701 490.634C79.3373 491.338 81.9816 493.027 84.1911 495.483C84.9709 496.348 85.5491 497.195 85.195 498.486C84.8185 499.853 85.2891 500.92 86.8667 501C88.0723 501.063 88.3143 501.753 88.4443 503.058L88.4488 503.049ZM46.2708 539.835C40.5296 533.448 42.9767 513.428 50.0041 510.219C49.3184 514.105 49.5335 518.112 47.333 521.5C46.589 522.643 46.2529 523.719 46.2618 525.027C46.2887 529.948 46.2753 534.869 46.2753 539.839L46.2708 539.835ZM60.6349 483.934C65.9368 483.342 71.176 483.257 75.967 486.17C70.8399 485.574 65.7441 484.732 60.6349 483.934ZM83.3933 487.708C83.3037 487.891 83.2141 488.075 83.1199 488.263C80.6057 486.807 78.0959 485.346 75.5816 483.889C78.5217 484.525 81.2779 485.502 83.3888 487.712L83.3933 487.708Z" fill="#D15EA8"/>
<path d="M83.6935 527.949C83.0033 531.996 84.6346 535.152 86.6559 538.181C89.0492 541.771 93.9881 543.909 98.2099 539.351C99.0704 538.419 100.007 537.558 100.899 536.657C105.103 532.409 105.502 526.798 101.957 521.912C101.652 521.491 101.302 521.079 101.11 520.608C99.9892 517.847 99.2139 517.493 96.4845 518.596C94.3422 519.461 92.2133 520.375 90.0576 521.204C87.4895 522.195 85.2352 523.548 83.9534 526.264C81.9187 523.817 79.754 525.547 77.7148 525.919C76.5271 526.134 75.5411 526.914 75.3036 524.897C75.1916 523.961 74.3176 523.347 73.2644 523.674C72.1484 524.019 71.8213 524.947 72.0902 526.004C72.4308 527.367 72.6818 528.805 73.3271 530.029C75.1557 533.511 75.3618 537.303 75.7652 541.072C75.9579 542.887 75.2274 544.111 73.493 544.693C69.2263 546.123 64.8879 547.208 60.3524 547.078C57.3361 546.992 54.8712 545.729 53.2264 543.111C51.6354 540.57 50.255 537.921 49.6275 534.963C49.027 532.149 49.6006 530.392 52.1104 529.115C56.4891 526.892 60.9261 524.736 65.6543 523.306C66.2818 523.118 66.9719 523.114 67.6352 523.069C68.0969 523.037 68.796 523.598 68.9439 522.813C69.0829 522.056 68.2986 521.899 67.7294 521.823C66.6583 521.675 65.6498 522.056 64.6907 522.441C60.4689 524.14 56.2202 525.776 52.0835 527.663C48.2964 529.388 47.3284 531.902 48.5698 535.9C49.3721 538.473 50.5239 540.893 51.8281 543.25C53.7597 546.737 56.8252 548.297 60.6616 548.404C65.3361 548.534 69.8538 547.445 74.2862 546.109C76.7243 545.374 77.4952 543.972 77.4235 541.341C77.3338 537.899 76.8229 534.506 76.1462 531.136C75.6622 528.729 76.4868 527.86 78.9921 528.129C79.7316 528.209 80.4711 528.424 81.2061 528.406C81.9321 528.389 82.6537 528.147 83.7024 527.94L83.6935 527.949ZM102.714 528.447C103.4 533.31 99.8502 536.039 96.5068 538.813C94.0643 540.839 91.1198 540.624 88.8475 538.378C87.01 536.563 85.6206 534.372 85.1366 531.848C84.5988 529.061 84.7064 526.112 87.4492 524.431C90.8643 522.343 94.6469 521.231 98.7477 521.514C99.5545 521.567 100.151 521.814 100.661 522.45C102.006 524.126 103.037 525.901 102.714 528.442V528.447Z" fill="#D15EA8"/>
<path d="M85.8983 561.486C83.5544 561.563 81.6228 561.903 79.7135 562.378C78.9606 562.567 78.2659 563.001 78.4676 563.92C78.6737 564.875 79.4984 564.884 80.2558 564.74C82.3398 564.346 84.2132 563.53 85.9028 561.482L85.8983 561.486Z" fill="#D15EA8"/>
<path d="M64.8075 528.187C64.933 529.025 65.3766 529.594 66.2416 529.558C67.1828 529.518 67.7475 528.935 67.6534 527.972C67.5727 527.12 66.9632 526.681 66.1251 526.726C65.2556 526.775 64.8613 527.358 64.8075 528.187Z" fill="#D15EA8"/>
<path d="M92.415 529.451C92.4464 530.289 92.8632 530.845 93.7192 530.916C94.5663 530.988 95.1668 530.544 95.2564 529.702C95.355 528.752 94.8217 528.133 93.8716 528.088C93.0156 528.048 92.5584 528.613 92.415 529.451Z" fill="#D15EA8"/>
<path d="M91.6919 458.45L90.9721 457.273C90.9139 457.175 84.9706 447.493 78.311 442.71C76.8577 441.664 71.3086 440.881 64.8821 439.967C46.5999 437.379 18.9744 433.464 13.7372 417.259C11.8966 411.567 13.0243 404.853 17.0927 397.304C24.4549 383.631 55.6793 378.347 82.448 377.953C109.648 377.555 142.522 382.248 154.634 393.614C161.709 400.253 165.287 409.846 163.978 418.657C162.733 427.035 157.352 433.135 149.212 435.395C137.737 438.579 116.154 442.326 106.444 442.818C97.2718 443.282 92.2369 456.931 92.1855 457.067L91.6885 458.441L91.6919 458.45ZM17.6856 397.895L18.2752 398.485C14.5426 405.415 13.4664 411.459 15.0808 416.448C19.9752 431.588 48.1834 435.588 65.0398 437.974C72.1552 438.982 77.2965 439.709 78.9965 440.933C84.6313 444.979 89.6114 452.144 91.4006 454.887C92.9635 451.239 98.0019 441.242 106.396 440.816C116.048 440.328 137.511 436.601 148.927 433.431C156.461 431.34 161.428 425.807 162.552 418.253C163.741 410.245 160.392 401.435 153.812 395.255C143.55 385.624 114.882 379.468 82.4685 379.941C49.2768 380.424 24.0779 387.701 18.2752 398.476L17.6856 397.885V397.895Z" fill="#F1F1F1"/>
<path d="M8.42475 411.617C8.10753 411.617 7.81498 411.344 7.71277 410.913C7.64932 410.645 6.17601 404.215 9.93684 396.574C12.6755 391.015 17.462 386.289 24.166 382.526C32.7098 377.733 44.38 374.53 58.8559 373.003C59.2682 372.96 59.6313 373.381 59.663 373.941C59.6947 374.502 59.3846 374.995 58.9722 375.038C27.1091 378.399 15.4177 389.181 11.2198 397.636C7.83613 404.45 9.08387 410.051 9.14026 410.286C9.26363 410.822 9.04862 411.397 8.65386 411.569C8.57632 411.603 8.49877 411.617 8.42475 411.617Z" fill="#F1F1F1"/>
<path d="M6.74915 391.076C6.61914 391.076 6.48561 391.027 6.36263 390.929C6.00773 390.63 5.89528 389.993 6.10611 389.498C6.35209 388.924 12.3116 375.387 25.1057 373.01C25.5133 372.931 25.8928 373.333 25.9455 373.907C26.0017 374.48 25.7136 375.005 25.3024 375.078C13.2463 377.318 7.4449 390.439 7.38868 390.571C7.24812 390.895 6.99864 391.076 6.74564 391.076H6.74915Z" fill="#F1F1F1"/>
<path d="M99.6394 453.52C99.5507 453.52 99.4621 453.504 99.3734 453.463C98.9832 453.295 98.7845 452.796 98.93 452.349C99.0187 452.075 101.19 445.615 110.884 444.936L112.565 444.821C122.569 444.129 141.191 442.839 148.839 440.406C149.243 440.279 149.658 440.549 149.768 441.016C149.878 441.479 149.644 441.962 149.24 442.089C141.44 444.575 122.714 445.869 112.658 446.566L110.976 446.68C102.328 447.287 100.423 452.73 100.345 452.959C100.228 453.307 99.9409 453.52 99.6359 453.52H99.6394Z" fill="#F1F1F1"/>
<path d="M153.336 440.374C153.01 440.374 152.703 440.051 152.592 439.533C152.447 438.88 152.666 438.168 153.077 437.939C153.151 437.898 160.543 433.745 164.18 425.309C164.424 424.739 164.917 424.592 165.276 424.98C165.635 425.368 165.728 426.151 165.483 426.721C161.55 435.851 153.918 440.127 153.596 440.304C153.51 440.351 153.421 440.374 153.336 440.374Z" fill="#F1F1F1"/>
<rect x="41" y="405" width="93" height="3" fill="#D15EA8"/>
<rect x="41" y="417" width="93" height="3" fill="#D15EA8"/>
<rect x="41" y="411" width="27.125" height="3" fill="#D15EA8"/>
<rect x="74" y="411" width="60" height="3" fill="#D15EA8"/>
<path d="M723.084 526.511C723.084 539.853 720.384 552.792 717.306 565.681C716.097 570.749 714.407 575.713 713.872 580.931C713.804 581.577 713.308 581.805 712.891 582.108C711.058 583.431 709.118 584.594 707.081 585.557C705.134 586.477 703.108 585.706 701.129 585.535C700.405 585.475 700.487 584.647 700.444 584.062C700.291 581.873 700.323 579.683 700.066 577.489C699.578 573.295 697.103 570.895 693.344 569.583C689.446 568.224 685.355 567.874 681.282 567.461C675.323 566.854 669.36 566.38 663.864 563.559C657.748 560.417 654.63 554.536 655.504 547.71C656.389 540.813 659.053 534.44 661.132 527.899C664.06 518.69 667.976 509.949 673.921 502.221C678.079 496.818 683.286 492.709 689.553 490.191C696.824 487.27 703.429 489.05 709.114 494.236C711.436 496.35 713.594 498.669 715.659 501.037C719.796 505.784 721.251 511.679 722.388 517.656C722.945 520.57 723.159 523.541 723.08 526.515L723.084 526.511Z" fill="#AFEEEE"/>
<path d="M671.806 500.202C671.724 496.607 672.134 493.583 674.167 490.915C676.068 488.43 678.661 487.388 681.592 486.914C682.573 486.757 683.575 486.743 684.56 486.618C687.003 486.311 688.782 487.556 690.266 489.221C690.951 489.992 691.136 489.892 691.799 489.232C693.665 487.377 695.69 485.776 698.597 486.026C700.441 486.186 701.432 487.278 702.096 488.861C702.549 489.938 702.802 491.489 703.618 491.903C704.378 492.288 705.755 491.425 706.867 491.158C710.68 490.241 712.378 491.586 712.435 495.47C712.46 497.139 712.31 498.776 711.828 500.37C711.557 501.276 711.917 501.682 712.763 501.475C716.96 500.434 718.701 502.895 718.772 507.078C718.811 509.346 719.043 510.641 721.668 511.194C724.3 511.747 725.227 516.237 724.35 519.297C724.204 519.807 724.04 520.331 723.772 520.78C723.159 521.804 723.209 522.474 724.172 523.434C725.816 525.074 725.691 527.325 724.796 529.233C723.879 531.183 723.711 533.177 723.547 535.213C723.152 540.121 721.732 544.689 719.143 548.883C718.144 550.499 716.796 550.684 715.962 549.383C715.591 548.801 715.744 548.316 715.915 547.717C716.404 546.027 716.953 544.351 716.864 542.532C716.8 541.244 716.158 541.191 715.245 541.579C714.403 541.94 713.822 542.628 713.315 543.37C712.353 544.782 711.39 546.194 710.441 547.617C709.514 549.008 708.116 548.78 706.921 548.381C705.783 548.003 705.594 546.936 705.837 545.713C706.468 542.575 708.226 539.953 709.671 537.207C710.997 534.682 711.975 532.082 712.438 529.279C712.467 529.104 712.413 528.887 712.502 528.755C714.417 525.862 712.962 522.606 713.508 519.568C713.676 518.63 713.369 518.17 712.285 518.212C710.944 518.262 709.885 517.924 709.314 516.351C708.833 515.013 707.695 514.272 706.026 515.013C703.914 515.948 702.406 514.896 702.616 512.642C702.748 511.219 702.327 510.349 701.047 509.685C699.934 509.107 699.086 508.187 698.847 506.839C698.593 505.42 697.773 504.25 697.017 503.08C696.436 502.182 695.508 501.953 694.524 502.467C693.14 503.187 692.192 502.677 691.364 501.515C690.244 499.938 688.386 499.831 686.735 500.955C684.795 502.278 683.561 504.239 681.935 505.841C679.667 508.07 676.881 508.255 673.957 507.845C673.372 507.763 673.087 507.257 672.926 506.725C672.248 504.468 671.382 502.242 671.792 500.209L671.806 500.202ZM717.937 521.647C718.494 520.748 718.89 520.131 719.268 519.5C720.841 516.875 720.181 515.349 717.296 514.924C714.285 514.482 713.715 513.487 714.671 510.612C715.306 508.704 714.938 506.668 714.318 504.938C713.993 504.029 712.081 504.642 710.89 504.542C710.712 504.528 710.537 504.51 710.359 504.507C709.186 504.478 708.658 503.733 708.569 502.702C708.487 501.768 708.522 500.823 708.718 499.874C708.968 498.676 709.082 497.445 709.207 496.226C709.342 494.874 708.633 494.428 707.402 494.728C706.432 494.963 705.48 495.277 704.521 495.552C702.003 496.265 701.04 495.716 700.33 493.241C700.12 492.509 699.781 491.814 699.528 491.09C699.178 490.095 698.461 489.863 697.552 490.177C696.589 490.509 695.762 491.015 695.241 491.985C694.431 493.49 693.515 494.938 692.677 496.429C692.431 496.868 691.56 497.231 692.313 497.877C692.798 498.294 693.265 498.405 694.028 498.08C696.318 497.11 698.486 497.559 700.166 499.443C701.339 500.759 702.295 502.242 702.516 504.09C702.68 505.459 703.087 506.65 704.517 507.367C705.255 507.734 705.883 508.512 706.029 509.471C706.179 510.438 706.65 510.812 707.702 510.712C709.77 510.516 711.186 511.426 711.832 513.476C712.16 514.525 712.784 515.16 714.068 514.981C715.141 514.832 715.944 515.459 716.597 516.315C717.727 517.795 717.627 519.593 717.937 521.65V521.647ZM681.293 489.639C682.434 490.744 682.252 491.575 681.393 492.42C679.617 494.171 679.178 496.368 679.388 498.754C679.495 499.97 679.88 500.341 680.99 499.41C682.773 497.913 684.791 496.864 687.202 496.803C687.612 496.793 687.991 496.853 687.916 496.158C687.787 494.988 687.869 493.793 687.762 492.62C687.57 490.548 686.592 489.678 684.531 489.642C683.586 489.628 682.644 489.642 681.293 489.642V489.639ZM678.55 491.575C678.272 491.607 678.154 491.593 678.069 491.636C677.912 491.714 677.748 491.807 677.63 491.932C674.763 494.913 674.11 498.519 674.773 502.445C674.859 502.941 674.855 503.904 675.572 503.826C676.275 503.747 677.031 503.269 677.566 502.759C678.211 502.146 677.177 501.993 676.995 501.579C676.571 500.612 676.104 499.739 676.114 498.601C676.132 496.005 676.831 493.679 678.554 491.575H678.55ZM717.952 522.456C717.613 523.516 718.226 524.322 718.166 525.206C718.069 526.601 719.25 526.857 720.152 527.332C720.634 527.585 720.951 527.175 721.172 526.875C721.479 526.454 721.051 526.24 720.755 526.108C719.207 525.424 718.465 524.101 717.948 522.456H717.952ZM709.696 543.869C710.512 542.967 711.069 542.382 711.589 541.768C711.768 541.558 712.253 541.319 711.664 541.002C711.25 540.781 710.894 540.442 710.605 541.209C710.327 541.95 709.827 542.614 709.696 543.869Z" fill="#D15EA8"/>
<path d="M678.033 558.481C674.977 557.454 671.824 556.847 669.181 554.975C668.496 554.49 668.354 553.684 668.778 552.906C669.192 552.147 669.802 552.182 670.597 552.379C672.926 552.964 675.287 553.438 677.641 553.923C678.379 554.073 678.942 554.486 679.431 554.989C680.034 555.606 680.333 556.323 680.009 557.232C679.652 558.231 678.714 558.103 678.033 558.481Z" fill="#D15EA8"/>
<path d="M679.92 515.313C679.981 514.111 680.401 513.18 681.322 512.521C682.331 511.797 683.419 511.55 684.303 512.595C685.166 513.615 684.378 514.443 683.697 515.199C683.426 515.498 682.98 515.716 682.862 516.058C682.513 517.057 681.764 517.307 680.904 517.093C679.995 516.868 680.006 515.976 679.923 515.313H679.92Z" fill="#D15EA8"/>
<path d="M693.707 517.795C693.668 518.858 693.658 520.17 692.12 520.188C691.111 520.199 690.519 519.233 690.772 518.287C691.04 517.282 691.222 515.88 692.702 515.894C693.818 515.905 693.907 516.797 693.711 517.795H693.707Z" fill="#D15EA8"/>
<path d="M686.278 470.607L680.718 464.866C675.088 459.057 675.808 449.695 676.209 446.711C679.411 447.874 691.272 451.754 695.957 447.404C696.839 446.586 697.361 445.423 697.506 444.028C701.888 444.941 706.494 445.307 709.184 445.449C719.451 446.005 729.375 445.023 734.469 442.956C736.976 441.94 738.31 440.678 738.552 439.098C738.777 437.625 738.808 436.191 738.66 434.856C742.377 433.749 747.384 430.519 748.747 421.222C750.04 412.407 746.367 404.708 738.124 398.954C732.027 394.7 725.668 393.02 725.398 392.951C725.001 392.848 724.61 393.167 724.527 393.662C724.444 394.157 724.7 394.644 725.097 394.747C725.16 394.764 731.529 396.448 737.429 400.574C745.161 405.978 748.48 412.816 747.294 420.891C746.084 429.15 741.654 432.057 738.335 433.06C737.847 431.14 736.941 429.525 735.672 428.431C733.414 426.489 730.45 426.558 727.739 428.62C726.325 429.697 726.47 430.997 726.602 431.506C727.221 433.943 731.46 435.713 735.859 435.373C736.249 435.342 736.706 435.287 737.211 435.196C737.325 436.307 737.294 437.509 737.104 438.744C737.045 439.128 736.626 440.135 734.009 441.199C726.46 444.265 708.71 444.532 697.486 442.138C697.413 441.5 697.278 440.833 697.081 440.144C695.892 436.019 692.541 431.54 689.636 431.717C688.72 431.773 687.081 432.384 686.372 435.868C686.185 436.794 686.209 438.185 687.406 439.576C689.062 441.5 692.389 442.81 696.057 443.692C695.985 444.528 695.715 445.333 695.079 445.923C690.355 450.311 676.012 444.713 675.87 444.657L675.123 444.364L674.933 445.307C674.843 445.751 673.148 454.432 676.676 461.774C672.18 458.054 665.323 451.314 664.538 444.308L664.469 443.675L663.968 443.537C660.568 442.607 653.352 440.127 648.248 436.876C648.67 435.721 648.891 434.378 648.884 432.892C648.867 428.883 647.234 425.15 645.25 424.568C644.447 424.336 642.912 424.422 641.619 427.617C641 429.146 640.986 430.709 641.577 432.259C642.317 434.201 644.022 435.976 646.169 437.552C645.627 438.301 644.852 438.925 643.759 439.261C638.496 440.88 627.4 439.718 620.259 433.327C616.649 430.097 614.532 425.998 613.955 421.132C615.687 421.097 617.174 420.326 617.942 418.996C619.156 416.89 618.008 413.157 616.849 411.292C615.936 409.828 614.903 409.234 614.01 409.664C612.579 410.357 612.022 413.441 612.316 419.078C610.037 418.419 604.287 415.366 600.749 401.267C600.033 398.408 600.697 395.634 602.73 393.02C608.201 385.988 622.531 380.976 641.059 379.611C661.796 378.082 684.871 381.277 706.034 388.602C706.424 388.736 706.833 388.451 706.94 387.965C707.047 387.478 706.819 386.97 706.428 386.837C685.113 379.456 661.869 376.239 640.972 377.78C622.085 379.171 607.395 384.395 601.676 391.746C599.273 394.833 598.467 398.317 599.345 401.818C600.86 407.856 602.945 412.631 605.545 416.007C608.204 419.461 610.756 420.628 612.454 420.985C613.014 426.54 615.352 431.191 619.401 434.817C627.244 441.836 638.783 442.68 644.112 441.044C645.519 440.613 646.657 439.713 647.47 438.452C653.206 442.172 661.091 444.601 663.158 445.2C664.901 456.331 679.276 465.969 679.898 466.378L686.275 470.598L686.278 470.607ZM689.799 433.56C691.738 433.56 694.629 437.078 695.694 440.777C695.777 441.07 695.867 441.419 695.936 441.793C692.396 440.906 689.678 439.722 688.412 438.249C687.686 437.405 687.717 436.751 687.8 436.333C688.163 434.55 688.803 433.616 689.705 433.564C689.736 433.564 689.767 433.564 689.799 433.564V433.56ZM644.703 426.334C644.772 426.334 644.842 426.342 644.911 426.364C646.052 426.7 647.394 429.632 647.407 432.914C647.411 433.775 647.324 434.916 646.954 436.014C645.008 434.606 643.517 433.077 642.909 431.484C642.518 430.459 642.525 429.469 642.936 428.457C643.268 427.639 643.918 426.338 644.707 426.338L644.703 426.334ZM736.875 433.413C736.464 433.486 736.09 433.53 735.765 433.551C731.439 433.887 728.286 432.07 728.006 430.963C727.933 430.679 728.289 430.36 728.507 430.192C730.741 428.491 733.047 428.401 734.835 429.942C735.783 430.761 736.474 431.962 736.875 433.405V433.413ZM614.609 411.369C614.795 411.369 615.196 411.632 615.687 412.42C616.797 414.203 617.323 416.933 616.749 417.928C616.32 418.673 615.297 419.306 613.858 419.306C613.841 419.306 613.827 419.306 613.81 419.306C613.391 412.028 614.536 411.387 614.55 411.378C614.567 411.369 614.588 411.365 614.612 411.365L614.609 411.369Z" fill="#F1F1F1"/>
<path d="M722.76 389.145C722.926 389.145 723.092 389.092 723.231 388.985L730.775 382.983C731.077 382.741 731.114 382.32 730.853 382.04C730.593 381.761 730.139 381.726 729.837 381.968L722.293 387.97C721.992 388.212 721.954 388.633 722.215 388.913C722.357 389.067 722.561 389.145 722.764 389.145H722.76Z" fill="#F1F1F1"/>
<path d="M724.175 381.807C724.484 381.807 724.772 381.567 724.881 381.183L726.838 374.235C726.975 373.751 726.767 373.218 726.378 373.053C725.988 372.882 725.559 373.14 725.422 373.624L723.466 380.572C723.329 381.056 723.536 381.588 723.926 381.754C724.007 381.789 724.091 381.807 724.172 381.807H724.175Z" fill="#F1F1F1"/>
<path d="M718.609 389.145C718.961 389.145 719.267 388.768 719.317 388.243L720.652 374.187C720.706 373.613 720.434 373.088 720.042 373.01C719.649 372.931 719.29 373.329 719.236 373.903L717.901 387.958C717.847 388.532 718.119 389.057 718.512 389.136C718.545 389.141 718.579 389.145 718.612 389.145H718.609Z" fill="#F1F1F1"/>
<rect x="627" y="403" width="93" height="3" fill="#D15EA8"/>
<rect x="627" y="415" width="93" height="3" fill="#D15EA8"/>
<rect x="627" y="409" width="27.125" height="3" fill="#D15EA8"/>
<rect x="660" y="409" width="60" height="3" fill="#D15EA8"/>
<rect x="181" y="115" width="391" height="391" fill="#373535"/>
<g clip-path="url(#clip0_0_1)">
<mask id="mask0_0_1" style="mask-type:luminance" maskUnits="userSpaceOnUse" x="313" y="146" width="127" height="36">
<path d="M313 146H439.735V182H313V146Z" fill="white"/>
</mask>
<g mask="url(#mask0_0_1)">
<path d="M332.701 181.926C332.039 181.945 331.394 181.71 330.898 181.268C330.403 180.827 330.095 180.213 330.038 179.551L329.738 177.2C326.884 176.386 325.214 174.271 324.78 170.914L322.211 151.103C321.66 151.014 321.102 150.974 320.544 150.983C319.718 150.976 318.895 151.083 318.098 151.3V181.346H313.057V157.194C313.057 153.917 314.527 151.603 317.205 150.64V149.083C317.205 147.283 318.298 146.074 319.922 146.074C321.546 146.074 322.565 147.086 322.828 148.931L323.028 150.374C325.959 151.194 327.672 153.551 328.18 157.377L330.555 176.474C331.974 176.749 333.432 176.749 334.851 176.474L337.226 157.38C337.722 153.551 339.455 151.194 342.378 150.366L342.578 148.923C342.84 147.086 343.874 146.066 345.484 146.066C347.093 146.066 348.201 147.274 348.201 149.074V150.631C350.878 151.594 352.348 153.909 352.348 157.186V181.337H347.302V151.297C346.505 151.08 345.682 150.973 344.856 150.98C344.297 150.971 343.74 151.011 343.189 151.1L340.62 170.914C340.194 174.211 338.484 176.377 335.661 177.2L335.379 179.554C335.335 180.223 335.029 180.847 334.527 181.291C334.026 181.735 333.37 181.963 332.701 181.926ZM330.672 177.429L330.932 179.454C330.959 179.898 331.16 180.314 331.491 180.611C331.822 180.908 332.257 181.062 332.701 181.04C332.922 181.056 333.144 181.027 333.354 180.956C333.564 180.884 333.757 180.771 333.922 180.624C334.087 180.476 334.221 180.297 334.316 180.096C334.411 179.896 334.465 179.679 334.474 179.457L334.734 177.429C333.389 177.65 332.017 177.65 330.672 177.429ZM348.201 180.46H351.449V157.194C351.449 154.417 350.33 152.5 348.201 151.606V180.46ZM313.948 180.46H317.205V151.606C315.078 152.5 313.971 154.417 313.971 157.194L313.948 180.46ZM323.156 151.349L325.674 170.797C326.033 173.611 327.361 175.431 329.616 176.226L327.289 157.489C326.861 154.186 325.505 152.169 323.156 151.349ZM342.249 151.349C339.9 152.169 338.539 154.186 338.116 157.491L335.79 176.214C338.048 175.42 339.372 173.6 339.732 170.786L342.249 151.349ZM318.104 150.354C318.904 150.159 319.726 150.063 320.55 150.069C321.065 150.063 321.58 150.094 322.091 150.16L321.937 149.037C321.74 147.66 321.061 146.963 319.922 146.963C318.783 146.963 318.104 147.771 318.104 149.071V150.354ZM344.856 150.069C345.68 150.063 346.501 150.159 347.302 150.354V149.083C347.302 147.783 346.605 146.974 345.484 146.974C344.362 146.974 343.665 147.671 343.468 149.049L343.314 150.171C343.825 150.105 344.34 150.075 344.856 150.08V150.069Z" fill="white"/>
<path d="M366.264 181.346H361.311V146.654H366.264V181.346ZM362.21 180.446H365.364V147.554H362.21V180.446Z" fill="white"/>
<path d="M398.393 181.926C396.244 181.926 395.753 179.963 395.593 179.317L395.222 177.671C392.005 177.1 390.041 175.023 389.228 171.34L384.567 151.077C384.033 151.01 383.497 150.978 382.959 150.98C382.067 150.966 381.178 151.086 380.322 151.337V181.337H375.275V157.051C375.275 153.909 376.703 151.723 379.423 150.7V149.083C379.423 147.283 380.513 146.074 382.137 146.074C383.539 146.074 384.569 146.966 384.895 148.457L385.309 150.286C388.449 150.857 390.333 152.874 391.209 156.614L395.961 176.88C396.496 176.947 397.035 176.979 397.574 176.977C398.463 176.984 399.348 176.876 400.209 176.654V146.654H405.256V171.714C405.256 174.286 403.751 176.303 401.108 177.294V178.857C401.108 180.754 400.069 181.926 398.393 181.926ZM396.178 177.814L396.464 179.109C396.804 180.469 397.363 181.026 398.391 181.026C399.532 181.026 400.206 180.24 400.206 178.869V177.577C399.342 177.775 398.458 177.871 397.571 177.863C397.106 177.864 396.641 177.841 396.178 177.794V177.809V177.814ZM376.174 180.446H379.423V151.666C377.265 152.6 376.174 154.409 376.174 157.049V180.446ZM385.528 151.246L390.096 171.14C390.803 174.326 392.379 176.111 394.994 176.709L390.335 156.814C389.576 153.583 388.083 151.837 385.528 151.246ZM401.108 147.554V176.337C403.209 175.446 404.356 173.826 404.356 171.726V147.554H401.108ZM380.322 150.389C381.183 150.166 382.07 150.059 382.959 150.069C383.425 150.067 383.89 150.09 384.352 150.137V150.123L384.016 148.64C383.879 148.011 383.445 146.963 382.137 146.963C380.83 146.963 380.322 148.051 380.322 149.071V150.389Z" fill="white"/>
<path d="M439.909 181.346H434.628L432.025 171.014H417.387L414.832 181.346H409.551L416.362 156.254C417.15 153.389 418.951 151.429 421.583 150.571L422.054 148.6C422.339 147.514 422.91 146.083 424.711 146.083C426.513 146.083 427.086 147.511 427.366 148.591L427.831 150.571C430.457 151.429 432.259 153.397 433.049 156.26L439.909 181.346ZM435.327 180.446H438.73L432.182 156.491C431.534 154.14 430.129 152.471 428.097 151.634L432.144 167.637H417.33L421.326 151.62C419.291 152.477 417.886 154.137 417.239 156.477L410.736 180.446H414.139L416.693 170.114H432.715L435.327 180.446ZM418.486 166.731H430.983L427.089 151.274C425.529 150.877 423.894 150.877 422.334 151.274L418.486 166.731ZM422.582 150.263V150.297C423.988 150.009 425.438 150.009 426.844 150.297V150.26L426.495 148.794C426.156 147.483 425.656 146.969 424.714 146.969C423.772 146.969 423.273 147.483 422.93 148.803L422.582 150.26V150.263Z" fill="white"/>
</g>
</g>
<rect x="431" y="478" width="93" height="3" fill="#D15EA8"/>
<rect x="431" y="490" width="93" height="3" fill="#D15EA8"/>
<rect x="431" y="484" width="27.125" height="3" fill="#D15EA8"/>
<rect x="464" y="484" width="60" height="3" fill="#D15EA8"/>
<rect x="431" y="454" width="93" height="3" fill="#D15EA8"/>
<rect x="431" y="466" width="93" height="3" fill="#D15EA8"/>
<rect x="431" y="460" width="27.125" height="3" fill="#D15EA8"/>
<rect x="464" y="460" width="60" height="3" fill="#D15EA8"/>
<rect x="431" y="430" width="93" height="3" fill="#D15EA8"/>
<rect x="431" y="442" width="93" height="3" fill="#D15EA8"/>
<rect x="431" y="436" width="27.125" height="3" fill="#D15EA8"/>
<rect x="464" y="436" width="60" height="3" fill="#D15EA8"/>
<rect x="431" y="406" width="93" height="3" fill="#D15EA8"/>
<rect x="431" y="418" width="93" height="3" fill="#D15EA8"/>
<rect x="431" y="412" width="27.125" height="3" fill="#D15EA8"/>
<rect x="464" y="412" width="60" height="3" fill="#D15EA8"/>
<rect x="330" y="478" width="93" height="3" fill="#D15EA8"/>
<rect x="330" y="490" width="93" height="3" fill="#D15EA8"/>
<rect x="330" y="484" width="27.125" height="3" fill="#D15EA8"/>
<rect x="363" y="484" width="60" height="3" fill="#D15EA8"/>
<rect x="330" y="454" width="93" height="3" fill="#D15EA8"/>
<rect x="330" y="466" width="93" height="3" fill="#D15EA8"/>
<rect x="330" y="460" width="27.125" height="3" fill="#D15EA8"/>
<rect x="363" y="460" width="60" height="3" fill="#D15EA8"/>
<rect x="330" y="430" width="93" height="3" fill="#D15EA8"/>
<rect x="330" y="442" width="93" height="3" fill="#D15EA8"/>
<rect x="330" y="436" width="27.125" height="3" fill="#D15EA8"/>
<rect x="363" y="436" width="60" height="3" fill="#D15EA8"/>
<rect x="330" y="406" width="93" height="3" fill="#D15EA8"/>
<rect x="330" y="418" width="93" height="3" fill="#D15EA8"/>
<rect x="330" y="412" width="27.125" height="3" fill="#D15EA8"/>
<rect x="363" y="412" width="60" height="3" fill="#D15EA8"/>
<rect x="229" y="478" width="93" height="3" fill="#D15EA8"/>
<rect x="229" y="490" width="93" height="3" fill="#D15EA8"/>
<rect x="229" y="484" width="27.125" height="3" fill="#D15EA8"/>
<rect x="262" y="484" width="60" height="3" fill="#D15EA8"/>
<rect x="229" y="454" width="93" height="3" fill="#D15EA8"/>
<rect x="229" y="466" width="93" height="3" fill="#D15EA8"/>
<rect x="229" y="460" width="27.125" height="3" fill="#D15EA8"/>
<rect x="262" y="460" width="60" height="3" fill="#D15EA8"/>
<rect x="229" y="430" width="93" height="3" fill="#D15EA8"/>
<rect x="229" y="442" width="93" height="3" fill="#D15EA8"/>
<rect x="229" y="436" width="27.125" height="3" fill="#D15EA8"/>
<rect x="262" y="436" width="60" height="3" fill="#D15EA8"/>
<rect x="229" y="406" width="93" height="3" fill="#D15EA8"/>
<rect x="229" y="418" width="93" height="3" fill="#D15EA8"/>
<rect x="229" y="412" width="27.125" height="3" fill="#D15EA8"/>
<rect x="262" y="412" width="60" height="3" fill="#D15EA8"/>
<rect x="229" y="382" width="93" height="3" fill="#D15EA8"/>
<rect x="229" y="394" width="93" height="3" fill="#D15EA8"/>
<rect x="229" y="388" width="27.125" height="3" fill="#D15EA8"/>
<rect x="262" y="388" width="60" height="3" fill="#D15EA8"/>
<path d="M320 485C323.314 485 326 482.314 326 479C326 475.686 323.314 473 320 473C316.686 473 314 475.686 314 479C314 482.314 316.686 485 320 485Z" fill="#9BCA9C" stroke="#9BCA9C" stroke-width="2" stroke-linecap="round" stroke-linejoin="round"/>
<path d="M322.8 477L319.067 481L317.2 479.8" stroke="#19421A" stroke-width="2" stroke-linecap="round" stroke-linejoin="round"/>
<path d="M419 483C422.314 483 425 480.314 425 477C425 473.686 422.314 471 419 471C415.686 471 413 473.686 413 477C413 480.314 415.686 483 419 483Z" fill="#9BCA9C" stroke="#9BCA9C" stroke-width="2" stroke-linecap="round" stroke-linejoin="round"/>
<path d="M421.8 475L418.067 479L416.2 477.8" stroke="#19421A" stroke-width="2" stroke-linecap="round" stroke-linejoin="round"/>
<path d="M419 460C422.314 460 425 457.314 425 454C425 450.686 422.314 448 419 448C415.686 448 413 450.686 413 454C413 457.314 415.686 460 419 460Z" fill="#9BCA9C" stroke="#9BCA9C" stroke-width="2" stroke-linecap="round" stroke-linejoin="round"/>
<path d="M421.8 452L418.067 456L416.2 454.8" stroke="#19421A" stroke-width="2" stroke-linecap="round" stroke-linejoin="round"/>
<path d="M522 460C525.314 460 528 457.314 528 454C528 450.686 525.314 448 522 448C518.686 448 516 450.686 516 454C516 457.314 518.686 460 522 460Z" fill="#9BCA9C" stroke="#9BCA9C" stroke-width="2" stroke-linecap="round" stroke-linejoin="round"/>
<path d="M524.8 452L521.067 456L519.2 454.8" stroke="#19421A" stroke-width="2" stroke-linecap="round" stroke-linejoin="round"/>
<path d="M320 460C323.314 460 326 457.314 326 454C326 450.686 323.314 448 320 448C316.686 448 314 450.686 314 454C314 457.314 316.686 460 320 460Z" fill="#9BCA9C" stroke="#9BCA9C" stroke-width="2" stroke-linecap="round" stroke-linejoin="round"/>
<path d="M322.8 452L319.067 456L317.2 454.8" stroke="#19421A" stroke-width="2" stroke-linecap="round" stroke-linejoin="round"/>
<path d="M320 435C323.314 435 326 432.314 326 429C326 425.686 323.314 423 320 423C316.686 423 314 425.686 314 429C314 432.314 316.686 435 320 435Z" fill="#9BCA9C" stroke="#9BCA9C" stroke-width="2" stroke-linecap="round" stroke-linejoin="round"/>
<path d="M322.8 427L319.067 431L317.2 429.8" stroke="#19421A" stroke-width="2" stroke-linecap="round" stroke-linejoin="round"/>
<path d="M522 435C525.314 435 528 432.314 528 429C528 425.686 525.314 423 522 423C518.686 423 516 425.686 516 429C516 432.314 518.686 435 522 435Z" fill="#9BCA9C" stroke="#9BCA9C" stroke-width="2" stroke-linecap="round" stroke-linejoin="round"/>
<path d="M524.8 427L521.067 431L519.2 429.8" stroke="#19421A" stroke-width="2" stroke-linecap="round" stroke-linejoin="round"/>
<path d="M522 410C525.314 410 528 407.314 528 404C528 400.686 525.314 398 522 398C518.686 398 516 400.686 516 404C516 407.314 518.686 410 522 410Z" fill="#9BCA9C" stroke="#9BCA9C" stroke-width="2" stroke-linecap="round" stroke-linejoin="round"/>
<path d="M524.8 402L521.067 406L519.2 404.8" stroke="#19421A" stroke-width="2" stroke-linecap="round" stroke-linejoin="round"/>
<path d="M419 410C422.314 410 425 407.314 425 404C425 400.686 422.314 398 419 398C415.686 398 413 400.686 413 404C413 407.314 415.686 410 419 410Z" fill="#9BCA9C" stroke="#9BCA9C" stroke-width="2" stroke-linecap="round" stroke-linejoin="round"/>
<path d="M421.8 402L418.067 406L416.2 404.8" stroke="#19421A" stroke-width="2" stroke-linecap="round" stroke-linejoin="round"/>
<path d="M320 410C323.314 410 326 407.314 326 404C326 400.686 323.314 398 320 398C316.686 398 314 400.686 314 404C314 407.314 316.686 410 320 410Z" fill="#9BCA9C" stroke="#9BCA9C" stroke-width="2" stroke-linecap="round" stroke-linejoin="round"/>
<path d="M322.8 402L319.067 406L317.2 404.8" stroke="#19421A" stroke-width="2" stroke-linecap="round" stroke-linejoin="round"/>
<path d="M522 483C525.314 483 528 480.314 528 477C528 473.686 525.314 471 522 471C518.686 471 516 473.686 516 477C516 480.314 518.686 483 522 483Z" fill="#CD3556" stroke="#CD3556" stroke-width="2" stroke-linecap="round" stroke-linejoin="round"/>
<path d="M524.336 474.664L519.664 479.336Z" fill="#CD3556"/>
<path d="M524.336 474.664L519.664 479.336" stroke="#480C19" stroke-linecap="round" stroke-linejoin="round"/>
<path d="M519.664 474.664L524.336 479.336Z" fill="#CD3556"/>
<path d="M519.664 474.664L524.336 479.336" stroke="#480C19" stroke-linecap="round" stroke-linejoin="round"/>
<path d="M419 435C422.314 435 425 432.314 425 429C425 425.686 422.314 423 419 423C415.686 423 413 425.686 413 429C413 432.314 415.686 435 419 435Z" fill="#CD3556" stroke="#CD3556" stroke-width="2" stroke-linecap="round" stroke-linejoin="round"/>
<path d="M421.336 426.664L416.664 431.336Z" fill="#CD3556"/>
<path d="M421.336 426.664L416.664 431.336" stroke="#480C19" stroke-linecap="round" stroke-linejoin="round"/>
<path d="M416.664 426.664L421.336 431.336Z" fill="#CD3556"/>
<path d="M416.664 426.664L421.336 431.336" stroke="#480C19" stroke-linecap="round" stroke-linejoin="round"/>
<defs>
<clipPath id="clip0_0_1">
<rect width="127" height="36" fill="white" transform="translate(313 146)"/>
</clipPath>
</defs>
</svg>
