<svg width="348" height="177" viewBox="0 0 348 177" fill="none" xmlns="http://www.w3.org/2000/svg">
<path d="M26.6035 45.73C28.4835 43.02 30.6735 37.78 33.8235 36.34L26.7435 33.46C29.1835 36.48 29.2535 41.19 29.7735 44.9C30.5235 50.23 31.1335 55.58 31.7835 60.92C32.7235 68.57 32.2235 80.59 39.1235 85.74C41.2535 87.33 44.1035 88.28 46.5435 86.62C50.0635 84.21 50.9335 80.56 52.5235 76.79C54.1835 72.84 55.5435 68.82 56.6935 64.69C59.1335 55.94 59.3335 46.9 61.4135 38.1L49.6235 38.21C52.6535 49.52 53.1735 62.8 58.7435 73.21C62.4435 80.12 71.3635 85.87 76.8535 77.37C79.9435 72.58 80.4135 66.3 80.9735 60.76C82.1035 49.48 81.7735 37.09 85.4135 26.24C87.8035 19.11 76.8435 12.41 74.2635 20.1C69.4935 34.32 70.6035 49.48 68.1235 64.1C67.9735 65 66.2335 69.26 66.4835 69.92C66.5635 69.76 66.6935 69.64 66.8735 69.58C70.4935 70.71 71.4835 70.41 69.8635 68.66C69.2435 66.98 68.2435 65.52 67.7135 63.73C64.9035 54.29 63.6835 44.37 61.1335 34.85C59.4835 28.69 50.7735 28.92 49.3435 34.96C47.6035 42.32 47.4335 49.92 45.7135 57.29C44.9035 60.77 43.9435 64.23 42.6535 67.57C42.0535 69.12 41.3535 70.64 40.7135 72.17C40.2835 73.19 39.8635 74.22 39.4335 75.24C38.8035 77.09 38.8035 77.24 39.4535 75.7L46.8735 76.58C44.5735 74.86 44.7435 67.96 44.4535 65.19C43.9735 60.6 43.3635 56.02 42.8035 51.44C41.8735 43.73 41.8335 33.29 36.7235 26.97C35.2235 25.11 32.2735 22.89 29.6435 24.09C23.5935 26.86 20.7735 31.65 17.1135 36.93C12.8035 43.14 22.0835 52.22 26.5935 45.72L26.6035 45.73Z" fill="#6F6F6F"/>
<path d="M89.7936 27.41C89.7036 44.89 91.1436 62.32 91.1936 79.79C91.2136 87.69 103.414 88.07 103.394 79.69C103.344 62.22 101.904 44.78 101.994 27.31C102.034 19.41 89.8336 19.04 89.7936 27.41Z" fill="#6F6F6F"/>
<path d="M114.243 29.5099C116.693 42.6699 116.363 55.9999 116.343 69.3199C116.333 77.2199 128.533 77.5999 128.543 69.2199C128.563 55.8999 128.893 42.5699 126.443 29.4099C125.823 26.0899 123.463 23.0999 119.813 23.1099C116.673 23.1199 113.643 26.2399 114.243 29.4999V29.5099Z" fill="#6F6F6F"/>
<path d="M102.714 56.7601H119.474C127.624 56.7601 126.014 44.0701 118.404 44.0701H101.644C93.4935 44.0701 95.1035 56.7601 102.714 56.7601Z" fill="#6F6F6F"/>
<path d="M133.234 34.74C137.214 38.74 142.004 43.04 144.684 48.07C146.224 50.97 150.504 52.04 153.214 50.28C156.294 48.28 156.214 44.48 154.674 41.59C153.134 38.7 150.564 36 148.374 33.46C146.024 30.74 143.524 28.14 140.984 25.59C138.674 23.27 134.524 23.24 132.364 25.77C130.064 28.47 130.894 32.39 133.224 34.74H133.234Z" fill="#6F6F6F"/>
<path d="M158.074 24.3001C156.414 28.3301 154.744 32.1402 152.254 35.7201C151.094 37.3901 150.074 39.1001 149.204 40.9401C148.724 41.9601 148.374 43.8301 147.734 44.6301C142.974 50.5701 152.244 59.6201 157.214 53.4201C159.564 50.4901 160.274 46.5802 162.464 43.4902C165.354 39.4302 167.324 35.0301 169.224 30.4401C172.114 23.4301 161.174 16.7601 158.074 24.3001Z" fill="#6F6F6F"/>
<path d="M145.673 48.3699C145.773 53.1299 145.353 57.5199 145.073 62.2399C144.793 66.9599 145.723 71.5999 145.673 76.3099C145.603 84.2099 157.793 84.5799 157.873 76.2099C157.913 71.5699 156.823 66.6399 157.493 62.1099C158.163 57.5799 157.963 52.9699 157.873 48.2699C157.713 40.3799 145.503 39.9799 145.673 48.3699Z" fill="#6F6F6F"/>
<path d="M9.84002 135.3C21.29 128.73 33.5 123.95 45.91 119.54L38.25 110.35C36.09 114.97 33.45 119.18 31.49 123.95C29.34 129.18 26.79 134.21 24.35 139.3C20.33 147.69 18.67 158.45 12.78 165.72C8.77002 170.67 15.56 180.14 21.06 175.57C32.57 165.98 47.67 161.69 60.82 154.85C67.66 151.29 60.59 140.39 53.74 143.95C40.58 150.79 25.49 155.08 13.98 164.67L22.26 174.52C28.69 166.59 30.45 156.14 34.74 147.06C37.15 141.95 39.75 136.93 41.96 131.73C44.17 126.53 46.99 121.64 49.4 116.49C51.51 112 46.83 105.49 41.74 107.3C28.34 112.06 15.12 117.3 2.76002 124.39C-3.94998 128.24 3.12002 139.15 9.84002 135.29V135.3Z" fill="#6F6F6F"/>
<path d="M67.2498 108.24C67.8498 117.5 68.1598 126.75 68.6298 136C69.0398 144.26 70.0498 152.42 70.7398 160.62C71.4298 168.82 83.6498 168.92 82.9398 160.52C82.2298 152.12 81.2398 144.17 80.8298 135.9C80.3698 126.65 80.0498 117.39 79.4498 108.14C78.9398 100.28 66.7098 99.83 67.2498 108.24Z" fill="#6F6F6F"/>
<path d="M92.2197 105.82C89.4597 110.64 86.6997 115.47 83.1397 119.75C80.0297 123.49 75.7197 125.38 72.4897 128.94C69.2597 132.5 71.8997 138.43 76.1997 139.48C82.0397 140.91 87.7397 145.12 92.5997 148.54C95.2397 150.4 98.0097 151.61 101.04 152.73C103.72 153.72 105.96 155.21 108.64 156.24C111.81 157.47 115.14 154.66 115.7 151.65C116.38 148 113.84 145.16 110.7 143.94C111.7 144.33 109.07 142.58 108.72 142.41C107.22 141.63 105.5 141.33 103.93 140.74C100.66 139.52 98.3197 137.75 95.4797 135.77C90.4497 132.27 84.2297 128.64 78.2597 127.18L81.9697 137.72C83.5097 136.02 85.7797 135.07 87.5697 133.64C89.8697 131.8 91.8397 129.55 93.6497 127.24C97.3697 122.49 100.37 117.17 103.37 111.95C107.15 105.35 96.2497 98.75 92.2197 105.81V105.82Z" fill="#6F6F6F"/>
<path d="M118.24 106.15C119.39 115 120.27 123.88 120.71 132.79C121.12 141.21 120.35 149.43 120.33 157.83C120.32 165.73 132.52 166.11 132.53 157.73C132.54 149.35 133.32 141.12 132.91 132.69C132.47 123.78 131.59 114.9 130.44 106.05C129.43 98.29 117.15 97.79 118.24 106.15Z" fill="#6F6F6F"/>
<path d="M130.67 108.76C135.19 106.3 138.31 105.55 143.07 107.9C147.22 109.94 148.93 113.07 148.93 117.72C148.93 122.03 147.14 125.74 143.16 127.63C141.33 128.5 138.57 129.48 136.52 129.68C133.83 129.93 132.11 128.53 130.32 126.67C124.47 120.62 116.97 130.04 122.57 135.82C129.68 143.17 138.29 143.58 147.4 139.87C156.21 136.29 160.96 128.55 161.13 119.14C161.3 109.73 157.39 101.97 149.44 97.4699C140.41 92.3599 132.49 93.0199 123.61 97.8599C116.82 101.55 123.9 112.46 130.69 108.76H130.67Z" fill="#6F6F6F"/>
<path d="M162.94 106.15C163.42 114.47 164.34 122.6 164.33 130.95C164.32 139.3 164.33 147.48 164.33 155.74C164.33 164 176.53 164.02 176.53 155.64C176.53 147.26 176.52 139.11 176.53 130.85C176.54 122.59 175.61 114.37 175.14 106.05C174.69 98.1801 162.46 97.74 162.94 106.15Z" fill="#6F6F6F"/>
<path d="M175.34 105.41C177.38 102.57 179.89 98.83 183.91 99.27C187.93 99.71 189.22 104.96 188.96 108.43C188.37 116.45 179.79 121.06 172.89 122.83C167.49 124.21 167.89 132.32 172.45 134.5C179.03 137.65 184.34 142.9 191.18 145.58C194.64 146.94 198.27 148.25 202.01 148.51C205.75 148.77 207.11 147.3 210.41 146.26C217.98 143.87 213.52 131.72 206.24 134.02C203.98 134.73 203.11 136.05 200.76 135.72C197.66 135.28 194.32 133.86 191.63 132.31C186.81 129.54 182.53 125.81 177.5 123.4L177.06 135.07C191.81 131.31 204.29 118.65 200.5 102.54C198.72 94.98 193.19 87.94 185.19 86.8C177.19 85.66 170.52 90.14 165.86 96.62C161.2 103.1 170.72 111.85 175.34 105.41Z" fill="#6F6F6F"/>
<path d="M225.085 79C227.99 78.6254 230.842 79.0359 233.644 80.2316C236.487 81.3542 239.073 83.0515 241.402 85.3234C243.731 87.5954 245.695 90.3883 247.293 93.7022C248.933 96.9431 250.002 100.495 250.5 104.357C251.007 108.285 250.882 112.058 250.127 115.676C249.414 119.22 249.786 120.923 248.118 123.778C246.441 126.567 244.375 128.898 241.919 130.772C239.504 132.573 236.844 133.66 233.94 134.035C231.036 134.41 226.599 135.532 223.756 134.41C220.905 133.221 218.315 131.49 215.985 129.218C213.647 126.879 211.659 124.09 210.019 120.849C208.421 117.535 207.368 113.914 206.861 109.985C206.363 106.123 206.471 102.42 207.185 98.8754C207.94 95.2579 209.156 92.0549 210.832 89.2662C212.509 86.4776 214.58 84.1797 217.045 82.3725C219.501 80.4988 222.181 79.3746 225.085 79ZM226.374 88.9879C224.471 89.2334 222.708 89.9685 221.084 91.1933C219.502 92.3451 218.142 93.8405 217.005 95.6796C215.909 97.4455 215.102 99.4789 214.584 101.78C214.117 104.074 214.046 106.486 214.372 109.016C214.699 111.547 215.383 113.895 216.427 116.062C217.511 118.156 218.812 119.952 220.328 121.448C221.895 122.939 225.157 122.577 226.989 123.356C228.861 124.062 230.749 124.292 232.652 124.047C234.555 123.802 236.297 123.103 237.879 121.951C239.503 120.726 239.295 120.694 240.383 118.862C241.47 117.029 242.247 114.966 242.715 112.672C243.224 110.304 243.315 107.856 242.989 105.325C242.663 102.795 241.957 100.483 240.873 98.3889C239.838 96.2884 238.567 94.5231 237.059 93.093C235.542 91.5962 233.848 90.4948 231.975 89.7886C230.144 89.0094 228.276 88.7425 226.374 88.9879Z" fill="#A0DADA"/>
<path d="M233.448 80.6915L233.447 80.6916L233.46 80.6966C236.237 81.7933 238.768 83.4527 241.053 85.6813C243.335 87.9077 245.267 90.6512 246.843 93.9194L246.843 93.9195L246.847 93.928C248.459 97.1146 249.513 100.611 250.004 104.421C250.504 108.298 250.381 112.014 249.638 115.574L249.637 115.577C249.455 116.479 249.343 117.263 249.251 117.971C249.228 118.145 249.207 118.314 249.186 118.478C249.122 118.985 249.063 119.449 248.987 119.903C248.791 121.081 248.484 122.159 247.688 123.523C246.043 126.259 244.019 128.54 241.618 130.373C239.27 132.123 236.692 133.176 233.876 133.539C233.285 133.615 232.63 133.722 231.949 133.834C231.782 133.861 231.613 133.888 231.444 133.916C230.576 134.056 229.673 134.194 228.774 134.286C226.962 134.472 225.247 134.459 223.944 133.946C221.157 132.783 218.622 131.09 216.337 128.862C214.042 126.566 212.085 123.823 210.467 120.627C208.895 117.366 207.858 113.799 207.357 109.921C206.866 106.11 206.973 102.462 207.675 98.9759C208.42 95.4066 209.617 92.258 211.261 89.5239C212.906 86.7884 214.932 84.5412 217.34 82.7758L217.34 82.7759L217.348 82.7701C219.738 80.9465 222.337 79.8586 225.149 79.4959C227.962 79.1332 230.725 79.5293 233.448 80.6915ZM214.097 101.67L214.097 101.67L214.094 101.68C213.615 104.032 213.544 106.5 213.877 109.08C214.209 111.66 214.908 114.061 215.976 116.279L215.979 116.286L215.983 116.292C217.089 118.428 218.419 120.267 219.977 121.804L219.977 121.804L219.984 121.811C220.893 122.676 222.251 122.971 223.482 123.163C223.774 123.208 224.049 123.247 224.317 123.284C224.654 123.331 224.98 123.376 225.313 123.432C225.89 123.529 226.39 123.645 226.793 123.816L226.802 123.82L226.812 123.824C228.758 124.558 230.728 124.799 232.716 124.543C234.704 124.287 236.525 123.556 238.174 122.355L238.174 122.356L238.18 122.35C238.994 121.737 239.401 121.385 239.735 120.931C239.898 120.71 240.037 120.473 240.196 120.192C240.232 120.129 240.269 120.062 240.309 119.993C240.445 119.751 240.604 119.469 240.813 119.117C241.931 117.232 242.726 115.117 243.204 112.774C243.725 110.349 243.818 107.844 243.485 105.261C243.152 102.68 242.431 100.312 241.319 98.1634C240.263 96.0202 238.96 94.2077 237.407 92.7336C235.847 91.1953 234.098 90.0565 232.161 89.3245C230.254 88.5149 228.301 88.2352 226.31 88.492C224.317 88.7491 222.474 89.5193 220.786 90.7916C219.148 91.985 217.746 93.5295 216.579 95.4166C215.451 97.2357 214.625 99.3222 214.097 101.67Z" stroke="#A0DADA"/>
<path d="M258.77 75.66C250.38 86.68 251.48 103.15 259.84 113.88C264.26 119.55 267.95 124.25 275.48 125.44C282.34 126.52 288.25 122.95 292.5 117.76C301.81 106.38 301.96 88.76 293.21 77.17C288.5 70.93 283.08 66.99 275.04 67.32C268.07 67.6 260.27 70.62 258.17 77.8C256.07 84.98 267.92 88.85 270.24 80.93C269.47 83.55 271.84 80.79 273.28 80.34C274.72 79.89 277.75 79.5 279.12 80.01C282.34 81.21 285.29 86.27 286.51 89.27C289.17 95.83 286.63 105.73 281.55 110.6C275.61 116.29 270.41 109.53 267.62 104.04C264.59 98.07 263.98 90.07 268.25 84.46C272.85 78.42 263.58 69.35 258.77 75.67V75.66Z" fill="#6F6F6F"/>
<path d="M303.86 76.14C305.79 85.09 304.81 94.49 304.37 103.52C304.18 107.51 304.26 111.49 304.21 115.48C304.16 119.47 303.93 122.49 306.01 125.91C310.34 132.99 320.32 126.49 316 119.43C316.3 120.89 316.4 121.01 316.29 119.79C316.33 118.89 316.37 117.99 316.4 117.09C316.44 115.4 316.4 113.7 316.4 112.01C316.4 107.55 316.67 103.14 316.93 98.68C317.44 90.04 317.19 81.27 315.36 72.79C314.66 69.54 310.56 67.48 307.52 68.35C303.92 69.37 303.16 72.97 303.85 76.15L303.86 76.14Z" fill="#6F6F6F"/>
<path d="M314.5 78.4899C319.85 77.1699 325.28 76.4899 330.78 76.1299C335.26 75.8399 339.46 76.2499 343.84 74.9999C351.47 72.8099 347.01 60.6599 339.67 62.7599C335.36 63.9999 330.39 63.3399 325.92 63.7599C320.67 64.2499 315.45 64.9899 310.33 66.2499C302.63 68.1499 307.1 80.3099 314.5 78.4899Z" fill="#6F6F6F"/>
<path d="M315.74 100.37C318.54 100.13 321.31 99.7399 324.12 99.6699C327.4 99.5899 330.09 96.5899 329.69 93.2799C329.29 89.9699 326.58 86.89 323.06 86.98C320.25 87.05 317.47 87.4399 314.68 87.6799C311.42 87.9599 308.69 90.6199 309.11 94.0699C309.5 97.1899 312.24 100.67 315.74 100.37Z" fill="#6F6F6F"/>
<path d="M215.03 12.2261C209.514 10.9657 203.901 12.1584 201.08 17.4083L201.083 17.4005C197.78 23.542 189.659 16.8808 192.702 11.2318C200.163 -2.63344 224.229 -2.59817 231.371 11.6999C235.795 20.5616 231.76 29.5082 225.485 36.1438C222.395 39.4086 218.959 42.6432 216.298 46.2507C214.026 49.3357 216.988 53.9574 218.279 56.9824C220.925 63.1847 212.193 68.1901 209.43 61.7157C206.807 55.5678 203.488 48.2391 206.907 41.6926C208.494 38.6594 211.288 35.9993 213.507 33.4079C215.925 30.5886 218.927 28.219 221.139 25.2182C222.953 22.7633 224.244 18.962 222.386 16.1441C220.892 13.8777 217.531 12.7994 215.03 12.2261Z" fill="#A0DADA"/>
<path d="M209.43 61.7157C206.807 55.5678 203.488 48.2391 206.907 41.6926C208.494 38.6594 211.288 35.9993 213.507 33.4079C215.925 30.5886 218.927 28.219 221.139 25.2182C222.953 22.7633 224.244 18.962 222.386 16.1441C220.892 13.8777 217.531 12.7994 215.03 12.2261C209.514 10.9657 203.901 12.1584 201.08 17.4083L201.083 17.4005C197.78 23.542 189.659 16.8808 192.702 11.2318C200.163 -2.63344 224.229 -2.59817 231.371 11.6999C235.795 20.5616 231.76 29.5082 225.485 36.1438C222.395 39.4086 218.959 42.6432 216.298 46.2507C214.026 49.3357 216.988 53.9574 218.279 56.9824C220.925 63.1847 212.193 68.1901 209.43 61.7157ZM209.43 61.7157L209.217 61.2152" stroke="#A0DADA"/>
</svg>
