<svg width="348" height="188" viewBox="0 0 348 188" fill="none" xmlns="http://www.w3.org/2000/svg">
<path d="M26.6035 56.73C28.4835 54.02 30.6735 48.78 33.8235 47.34L26.7435 44.46C29.1835 47.48 29.2535 52.19 29.7735 55.9C30.5235 61.23 31.1335 66.58 31.7835 71.92C32.7235 79.57 32.2235 91.59 39.1235 96.74C41.2535 98.33 44.1035 99.28 46.5435 97.62C50.0635 95.21 50.9335 91.56 52.5235 87.79C54.1835 83.84 55.5435 79.82 56.6935 75.69C59.1335 66.94 59.3335 57.9 61.4135 49.1L49.6235 49.21C52.6535 60.52 53.1735 73.8 58.7435 84.21C62.4435 91.12 71.3635 96.87 76.8535 88.37C79.9435 83.58 80.4135 77.3 80.9735 71.76C82.1035 60.48 81.7735 48.09 85.4135 37.24C87.8035 30.11 76.8435 23.41 74.2635 31.1C69.4935 45.32 70.6035 60.48 68.1235 75.1C67.9735 76 66.2335 80.26 66.4835 80.92C66.5635 80.76 66.6935 80.64 66.8735 80.58C70.4935 81.71 71.4835 81.41 69.8635 79.66C69.2435 77.98 68.2435 76.52 67.7135 74.73C64.9035 65.29 63.6835 55.37 61.1335 45.85C59.4835 39.69 50.7735 39.92 49.3435 45.96C47.6035 53.32 47.4335 60.92 45.7135 68.29C44.9035 71.77 43.9435 75.23 42.6535 78.57C42.0535 80.12 41.3535 81.64 40.7135 83.17C40.2835 84.19 39.8635 85.22 39.4335 86.24C38.8035 88.09 38.8035 88.24 39.4535 86.7L46.8735 87.58C44.5735 85.86 44.7435 78.96 44.4535 76.19C43.9735 71.6 43.3635 67.02 42.8035 62.44C41.8735 54.73 41.8335 44.29 36.7235 37.97C35.2235 36.11 32.2735 33.89 29.6435 35.09C23.5935 37.86 20.7735 42.65 17.1135 47.93C12.8035 54.14 22.0835 63.22 26.5935 56.72L26.6035 56.73Z" fill="#6F6F6F"/>
<path d="M89.7936 38.41C89.7036 55.89 91.1436 73.32 91.1936 90.79C91.2136 98.69 103.414 99.07 103.394 90.69C103.344 73.22 101.904 55.78 101.994 38.31C102.034 30.41 89.8336 30.04 89.7936 38.41Z" fill="#6F6F6F"/>
<path d="M114.243 40.5099C116.693 53.6699 116.363 66.9999 116.343 80.3199C116.333 88.2199 128.533 88.5999 128.543 80.2199C128.563 66.8999 128.893 53.5699 126.443 40.4099C125.823 37.0899 123.463 34.0999 119.813 34.1099C116.673 34.1199 113.643 37.2399 114.243 40.4999V40.5099Z" fill="#6F6F6F"/>
<path d="M102.714 67.7601H119.474C127.624 67.7601 126.014 55.0701 118.404 55.0701H101.644C93.4935 55.0701 95.1035 67.7601 102.714 67.7601Z" fill="#6F6F6F"/>
<path d="M133.234 45.74C137.214 49.74 142.004 54.04 144.684 59.07C146.224 61.97 150.504 63.04 153.214 61.28C156.294 59.28 156.214 55.48 154.674 52.59C153.134 49.7 150.564 47 148.374 44.46C146.024 41.74 143.524 39.14 140.984 36.59C138.674 34.27 134.524 34.24 132.364 36.77C130.064 39.47 130.894 43.39 133.224 45.74H133.234Z" fill="#6F6F6F"/>
<path d="M158.074 35.3001C156.414 39.3301 154.744 43.1402 152.254 46.7201C151.094 48.3901 150.074 50.1001 149.204 51.9401C148.724 52.9601 148.374 54.8301 147.734 55.6301C142.974 61.5701 152.244 70.6201 157.214 64.4201C159.564 61.4901 160.274 57.5802 162.464 54.4902C165.354 50.4302 167.324 46.0301 169.224 41.4401C172.114 34.4301 161.174 27.7601 158.074 35.3001Z" fill="#6F6F6F"/>
<path d="M145.673 59.3699C145.773 64.1299 145.353 68.5199 145.073 73.2399C144.793 77.9599 145.723 82.5999 145.673 87.3099C145.603 95.2099 157.793 95.5799 157.873 87.2099C157.913 82.5699 156.823 77.6399 157.493 73.1099C158.163 68.5799 157.963 63.9699 157.873 59.2699C157.713 51.3799 145.503 50.9799 145.673 59.3699Z" fill="#6F6F6F"/>
<path d="M9.84002 146.3C21.29 139.73 33.5 134.95 45.91 130.54L38.25 121.35C36.09 125.97 33.45 130.18 31.49 134.95C29.34 140.18 26.79 145.21 24.35 150.3C20.33 158.69 18.67 169.45 12.78 176.72C8.77002 181.67 15.56 191.14 21.06 186.57C32.57 176.98 47.67 172.69 60.82 165.85C67.66 162.29 60.59 151.39 53.74 154.95C40.58 161.79 25.49 166.08 13.98 175.67L22.26 185.52C28.69 177.59 30.45 167.14 34.74 158.06C37.15 152.95 39.75 147.93 41.96 142.73C44.17 137.53 46.99 132.64 49.4 127.49C51.51 123 46.83 116.49 41.74 118.3C28.34 123.06 15.12 128.3 2.76002 135.39C-3.94998 139.24 3.12002 150.15 9.84002 146.29V146.3Z" fill="#6F6F6F"/>
<path d="M67.2498 119.24C67.8498 128.5 68.1598 137.75 68.6298 147C69.0398 155.26 70.0498 163.42 70.7398 171.62C71.4298 179.82 83.6498 179.92 82.9398 171.52C82.2298 163.12 81.2398 155.17 80.8298 146.9C80.3698 137.65 80.0498 128.39 79.4498 119.14C78.9398 111.28 66.7098 110.83 67.2498 119.24Z" fill="#6F6F6F"/>
<path d="M92.2197 116.82C89.4597 121.64 86.6997 126.47 83.1397 130.75C80.0297 134.49 75.7197 136.38 72.4897 139.94C69.2597 143.5 71.8997 149.43 76.1997 150.48C82.0397 151.91 87.7397 156.12 92.5997 159.54C95.2397 161.4 98.0097 162.61 101.04 163.73C103.72 164.72 105.96 166.21 108.64 167.24C111.81 168.47 115.14 165.66 115.7 162.65C116.38 159 113.84 156.16 110.7 154.94C111.7 155.33 109.07 153.58 108.72 153.41C107.22 152.63 105.5 152.33 103.93 151.74C100.66 150.52 98.3197 148.75 95.4797 146.77C90.4497 143.27 84.2297 139.64 78.2597 138.18L81.9697 148.72C83.5097 147.02 85.7797 146.07 87.5697 144.64C89.8697 142.8 91.8397 140.55 93.6497 138.24C97.3697 133.49 100.37 128.17 103.37 122.95C107.15 116.35 96.2497 109.75 92.2197 116.81V116.82Z" fill="#6F6F6F"/>
<path d="M118.24 117.15C119.39 126 120.27 134.88 120.71 143.79C121.12 152.21 120.35 160.43 120.33 168.83C120.32 176.73 132.52 177.11 132.53 168.73C132.54 160.35 133.32 152.12 132.91 143.69C132.47 134.78 131.59 125.9 130.44 117.05C129.43 109.29 117.15 108.79 118.24 117.15Z" fill="#6F6F6F"/>
<path d="M130.67 119.76C135.19 117.3 138.31 116.55 143.07 118.9C147.22 120.94 148.93 124.07 148.93 128.72C148.93 133.03 147.14 136.74 143.16 138.63C141.33 139.5 138.57 140.48 136.52 140.68C133.83 140.93 132.11 139.53 130.32 137.67C124.47 131.62 116.97 141.04 122.57 146.82C129.68 154.17 138.29 154.58 147.4 150.87C156.21 147.29 160.96 139.55 161.13 130.14C161.3 120.73 157.39 112.97 149.44 108.47C140.41 103.36 132.49 104.02 123.61 108.86C116.82 112.55 123.9 123.46 130.69 119.76H130.67Z" fill="#6F6F6F"/>
<path d="M162.94 117.15C163.42 125.47 164.34 133.6 164.33 141.95C164.32 150.3 164.33 158.48 164.33 166.74C164.33 175 176.53 175.02 176.53 166.64C176.53 158.26 176.52 150.11 176.53 141.85C176.54 133.59 175.61 125.37 175.14 117.05C174.69 109.18 162.46 108.74 162.94 117.15Z" fill="#6F6F6F"/>
<path d="M175.34 116.41C177.38 113.57 179.89 109.83 183.91 110.27C187.93 110.71 189.22 115.96 188.96 119.43C188.37 127.45 179.79 132.06 172.89 133.83C167.49 135.21 167.89 143.32 172.45 145.5C179.03 148.65 184.34 153.9 191.18 156.58C194.64 157.94 198.27 159.25 202.01 159.51C205.75 159.77 207.11 158.3 210.41 157.26C217.98 154.87 213.52 142.72 206.24 145.02C203.98 145.73 203.11 147.05 200.76 146.72C197.66 146.28 194.32 144.86 191.63 143.31C186.81 140.54 182.53 136.81 177.5 134.4L177.06 146.07C191.81 142.31 204.29 129.65 200.5 113.54C198.72 105.98 193.19 98.94 185.19 97.8C177.19 96.66 170.52 101.14 165.86 107.62C161.2 114.1 170.72 122.85 175.34 116.41Z" fill="#6F6F6F"/>
<path d="M217.974 91.5657C218.799 91.3623 219.577 91.363 220.292 91.5225C220.548 91.6927 220.784 91.8871 221.002 92.1016C221.988 93.0748 222.599 94.4823 222.754 95.9691C222.908 97.4552 222.602 98.9784 221.809 100.177C221.809 100.177 221.809 100.177 221.809 100.177L217.637 91.6751L217.974 91.5657ZM220.69 90.5897C219.711 89.9834 218.52 89.6654 217.149 89.7695C219.007 88.9836 221.053 88.4665 223.161 88.1959C227.219 87.6748 231.455 88.0745 234.907 89.1859L234.907 89.186C238.864 90.4558 241.879 92.2393 244.315 94.6096C246.754 96.983 248.635 99.9657 250.294 103.665C253.58 110.993 253.29 121.507 251.335 129.237C249.554 136.263 246.083 142.532 239.622 146.03C232.414 149.931 225.535 149.137 219.715 145.593C213.87 142.035 209.081 135.691 206.172 128.501C203.263 121.312 202.259 113.338 203.914 106.554C204.942 102.336 206.997 98.5747 210.273 95.7328C210.25 96.9912 210.588 98.2901 211.163 99.4355C212.379 101.859 214.794 103.882 217.559 103.536L217.996 103.487L217.996 103.487L218.001 103.486C219.798 103.263 221.168 102.49 222.123 101.408C222.16 101.391 222.207 101.372 222.265 101.351C222.414 101.299 222.61 101.248 222.847 101.2C223.221 101.125 223.668 101.062 224.143 101.01C223.571 101.863 222.685 102.562 221.415 102.974L221.415 102.974C217.416 104.275 215.281 107.486 214.536 111.365C213.794 115.228 214.415 119.793 215.934 123.966C217.452 128.138 219.89 131.981 222.849 134.374C225.821 136.778 229.369 137.747 232.986 136.011C237.413 133.886 239.68 129.566 240.707 124.855C241.735 120.141 241.545 114.95 240.985 110.921L240.49 110.99L240.985 110.921C240.462 107.158 238.232 102.821 234.635 101.204L234.635 101.204C232.336 100.172 230.091 99.5735 227.494 99.7612L227.49 99.7615C227.347 99.773 227.115 99.7866 226.825 99.8035C226.518 99.8214 226.146 99.8431 225.747 99.8701C226.151 98.4145 226.027 96.8123 225.514 95.3596C224.944 93.7467 223.879 92.2754 222.45 91.3611C221.91 91.0156 221.32 90.7515 220.69 90.5897ZM212.571 92.6655C213.541 91.7618 214.658 90.9973 215.88 90.3644L215.981 90.5702L216.224 91.0659L216.084 91.1113L216.14 91.1393C214.7 91.6842 213.381 92.338 212.18 93.0875C212.298 92.9396 212.428 92.7986 212.571 92.6655ZM221.11 101.023C220.333 101.778 219.27 102.32 217.881 102.493L217.443 102.543L217.443 102.543L217.438 102.544C215.263 102.817 213.175 101.215 212.057 98.9869C211.376 97.6299 211.107 96.1469 211.372 94.8492C212.905 93.7067 214.67 92.7457 216.684 92.0037L221.11 101.023ZM224.439 99.9747C223.935 100.023 223.429 100.083 222.979 100.159C223.663 98.8515 223.9 97.3268 223.748 95.8658C223.644 94.8604 223.354 93.8701 222.884 92.9879C223.628 93.7262 224.209 94.6691 224.571 95.6928C225.073 97.1123 225.138 98.6456 224.673 99.9531C224.595 99.9601 224.517 99.9673 224.439 99.9747Z" fill="#A0DADA" stroke="#A0DADA"/>
<path d="M258.77 86.66C250.38 97.68 251.48 114.15 259.84 124.88C264.26 130.55 267.95 135.25 275.48 136.44C282.34 137.52 288.25 133.95 292.5 128.76C301.81 117.38 301.96 99.76 293.21 88.17C288.5 81.93 283.08 77.99 275.04 78.32C268.07 78.6 260.27 81.62 258.17 88.8C256.07 95.98 267.92 99.85 270.24 91.93C269.47 94.55 271.84 91.79 273.28 91.34C274.72 90.89 277.75 90.5 279.12 91.01C282.34 92.21 285.29 97.27 286.51 100.27C289.17 106.83 286.63 116.73 281.55 121.6C275.61 127.29 270.41 120.53 267.62 115.04C264.59 109.07 263.98 101.07 268.25 95.46C272.85 89.42 263.58 80.35 258.77 86.67V86.66Z" fill="#6F6F6F"/>
<path d="M303.86 87.14C305.79 96.09 304.81 105.49 304.37 114.52C304.18 118.51 304.26 122.49 304.21 126.48C304.16 130.47 303.93 133.49 306.01 136.91C310.34 143.99 320.32 137.49 316 130.43C316.3 131.89 316.4 132.01 316.29 130.79C316.33 129.89 316.37 128.99 316.4 128.09C316.44 126.4 316.4 124.7 316.4 123.01C316.4 118.55 316.67 114.14 316.93 109.68C317.44 101.04 317.19 92.27 315.36 83.79C314.66 80.54 310.56 78.48 307.52 79.35C303.92 80.37 303.16 83.97 303.85 87.15L303.86 87.14Z" fill="#6F6F6F"/>
<path d="M314.5 89.4899C319.85 88.1699 325.28 87.4899 330.78 87.1299C335.26 86.8399 339.46 87.2499 343.84 85.9999C351.47 83.8099 347.01 71.6599 339.67 73.7599C335.36 74.9999 330.39 74.3399 325.92 74.7599C320.67 75.2499 315.45 75.9899 310.33 77.2499C302.63 79.1499 307.1 91.3099 314.5 89.4899Z" fill="#6F6F6F"/>
<path d="M315.74 111.37C318.54 111.13 321.31 110.74 324.12 110.67C327.4 110.59 330.09 107.59 329.69 104.28C329.29 100.97 326.58 97.89 323.06 97.98C320.25 98.05 317.47 98.4399 314.68 98.6799C311.42 98.9599 308.69 101.62 309.11 105.07C309.5 108.19 312.24 111.67 315.74 111.37Z" fill="#6F6F6F"/>
<path d="M206.565 23.351L206.566 23.3501C207.089 21.5629 207.708 20.0361 208.776 18.8697C209.858 17.6885 211.354 16.9255 213.533 16.5666C217.83 15.8587 223.634 16.6628 227.681 18.6384L227.681 18.6386C229.69 19.6204 231.142 21.6566 231.911 23.8349C232.68 26.01 232.807 28.4377 232.034 30.2631L232.034 30.2632C231.218 32.1882 229.506 33.7369 227.632 35.0198C226.12 36.0544 224.449 36.9498 222.975 37.7395C222.618 37.9308 222.273 38.1158 221.944 38.2951C220.936 38.8477 219.892 39.3931 218.834 39.9457C216.47 41.1808 214.037 42.452 211.783 43.9191C208.531 46.0352 205.742 48.5064 204.196 51.7375C202.563 55.1637 203.357 58.5567 204.775 62.2113L204.775 62.2117C205.023 62.8541 205.266 63.4915 205.508 64.1247C206.876 67.715 208.192 71.1658 210.136 74.5699L210.136 74.5708C210.838 75.8048 212.19 76.6259 213.713 76.9413C215.236 77.2569 216.844 77.0476 218 76.3247C219.379 75.456 219.974 74.2304 220.059 72.8969C220.145 71.541 219.702 70.0561 218.955 68.7445L206.565 23.351ZM206.565 23.351C206.195 24.6247 205.062 25.4813 203.618 25.8536C202.174 26.226 200.521 26.0816 199.281 25.448M206.565 23.351L199.281 25.448M215.211 56.5589L215.212 56.5586C216.29 54.5051 218.52 52.9501 220.857 51.6693C222.036 51.0232 223.267 50.434 224.429 49.8811L224.571 49.8137C225.685 49.2835 226.726 48.7884 227.612 48.2998L227.612 48.2997C232.759 45.465 237.316 42.3922 240.23 38.5408C243.122 34.7187 244.415 30.1063 242.989 24.1107L242.989 24.1105C241.883 19.45 240.017 14.634 236.001 11.4409L236.001 11.4407C231.636 7.96895 225.474 6.42434 219.87 5.74047L219.87 5.74045C214.366 5.06684 209.191 5.63233 205.037 7.59975C200.898 9.56048 197.751 12.9223 196.283 17.908L215.211 56.5589ZM215.211 56.5589C215.155 56.6675 215.111 56.7381 215.082 56.7825M215.211 56.5589L215.082 56.7825M215.839 60.8782C215.76 60.6611 215.616 60.3768 215.446 60.0414C215.358 59.868 215.263 59.6809 215.167 59.4823C215.034 59.2082 214.903 58.9208 214.808 58.6518C214.717 58.3962 214.637 58.101 214.653 57.8286M215.839 60.8782L214.653 57.8267C214.653 57.8273 214.653 57.828 214.653 57.8286M215.839 60.8782C216.072 61.5185 216.292 62.172 216.515 62.8316C217.184 64.8129 217.871 66.8489 218.955 68.7438L215.839 60.8782ZM214.653 57.8286C214.658 57.7271 214.662 57.639 214.666 57.5638C214.672 57.4342 214.676 57.3431 214.681 57.2882C214.683 57.2635 214.687 57.2254 214.696 57.1847L214.697 57.1844C214.703 57.1565 214.725 57.0541 214.806 56.9562C214.884 56.8604 214.983 56.8063 215.082 56.7825M214.653 57.8286L215.082 56.7825M199.281 25.448C196.218 23.8828 195.443 20.7682 196.283 17.9083L199.281 25.448ZM215.081 57.7518C215.082 57.7522 215.083 57.7525 215.085 57.753C215.07 57.7494 215.066 57.7474 215.078 57.751L215.081 57.7518Z" fill="#A0DADA" stroke="#A0DADA"/>
</svg>
