<svg width="778" height="270" viewBox="0 0 778 270" fill="none" xmlns="http://www.w3.org/2000/svg">
<path d="M679.084 192.511C679.084 205.853 676.384 218.792 673.306 231.681C672.097 236.749 670.407 241.713 669.872 246.931C669.804 247.577 669.308 247.805 668.891 248.108C667.058 249.431 665.118 250.594 663.081 251.557C661.134 252.477 659.108 251.706 657.129 251.535C656.405 251.475 656.487 250.647 656.444 250.062C656.291 247.873 656.323 245.683 656.066 243.489C655.578 239.295 653.103 236.895 649.344 235.583C645.446 234.224 641.355 233.874 637.282 233.461C631.323 232.854 625.36 232.38 619.864 229.559C613.748 226.417 610.63 220.536 611.504 213.71C612.389 206.813 615.053 200.44 617.132 193.899C620.06 184.69 623.976 175.949 629.921 168.221C634.079 162.818 639.286 158.709 645.553 156.191C652.824 153.27 659.429 155.05 665.114 160.236C667.436 162.35 669.594 164.669 671.659 167.037C675.796 171.784 677.251 177.679 678.388 183.656C678.945 186.57 679.159 189.541 679.08 192.515L679.084 192.511Z" fill="#AFEEEE"/>
<path d="M627.806 166.202C627.724 162.607 628.134 159.583 630.167 156.915C632.068 154.43 634.661 153.388 637.592 152.914C638.573 152.757 639.575 152.743 640.56 152.618C643.003 152.311 644.782 153.556 646.266 155.221C646.951 155.992 647.136 155.892 647.799 155.232C649.665 153.377 651.69 151.776 654.597 152.026C656.441 152.186 657.432 153.278 658.096 154.861C658.549 155.938 658.802 157.489 659.618 157.903C660.378 158.288 661.755 157.425 662.867 157.158C666.68 156.241 668.378 157.586 668.435 161.47C668.46 163.139 668.31 164.776 667.828 166.37C667.557 167.276 667.917 167.682 668.763 167.475C672.96 166.434 674.701 168.895 674.772 173.078C674.811 175.346 675.043 176.641 677.668 177.194C680.3 177.747 681.227 182.237 680.35 185.297C680.204 185.807 680.04 186.331 679.772 186.78C679.159 187.804 679.209 188.474 680.172 189.434C681.816 191.074 681.691 193.325 680.796 195.233C679.879 197.183 679.711 199.177 679.547 201.213C679.152 206.121 677.732 210.689 675.143 214.883C674.144 216.499 672.796 216.684 671.962 215.383C671.591 214.801 671.744 214.316 671.915 213.717C672.404 212.027 672.953 210.351 672.864 208.532C672.8 207.244 672.158 207.191 671.245 207.579C670.403 207.94 669.822 208.628 669.315 209.37C668.353 210.782 667.39 212.194 666.441 213.617C665.514 215.008 664.116 214.78 662.921 214.381C661.783 214.003 661.594 212.936 661.837 211.713C662.468 208.575 664.226 205.953 665.671 203.207C666.997 200.682 667.975 198.082 668.438 195.279C668.467 195.104 668.413 194.887 668.502 194.755C670.417 191.862 668.962 188.606 669.508 185.568C669.676 184.63 669.369 184.17 668.285 184.212C666.944 184.262 665.885 183.924 665.314 182.351C664.833 181.013 663.695 180.272 662.026 181.013C659.914 181.948 658.406 180.896 658.616 178.642C658.748 177.219 658.327 176.349 657.047 175.685C655.934 175.107 655.086 174.187 654.847 172.839C654.593 171.42 653.773 170.25 653.017 169.08C652.436 168.182 651.508 167.953 650.524 168.467C649.14 169.187 648.192 168.677 647.364 167.515C646.244 165.938 644.386 165.831 642.735 166.955C640.795 168.278 639.561 170.239 637.935 171.841C635.667 174.07 632.881 174.255 629.957 173.845C629.372 173.763 629.087 173.257 628.926 172.725C628.248 170.468 627.382 168.242 627.792 166.209L627.806 166.202ZM673.937 187.647C674.494 186.748 674.89 186.131 675.268 185.5C676.841 182.875 676.181 181.349 673.296 180.924C670.285 180.482 669.715 179.487 670.671 176.612C671.306 174.704 670.938 172.668 670.318 170.938C669.993 170.029 668.081 170.642 666.89 170.542C666.712 170.528 666.537 170.51 666.359 170.507C665.186 170.478 664.658 169.733 664.569 168.702C664.487 167.768 664.522 166.823 664.718 165.874C664.968 164.676 665.082 163.445 665.207 162.226C665.342 160.874 664.633 160.428 663.402 160.728C662.432 160.963 661.48 161.277 660.521 161.552C658.003 162.265 657.04 161.716 656.33 159.241C656.12 158.509 655.781 157.814 655.528 157.09C655.178 156.095 654.461 155.863 653.552 156.177C652.589 156.509 651.762 157.015 651.241 157.985C650.431 159.49 649.515 160.938 648.677 162.429C648.431 162.868 647.56 163.231 648.313 163.877C648.798 164.294 649.265 164.405 650.028 164.08C652.318 163.11 654.486 163.559 656.166 165.443C657.339 166.759 658.295 168.242 658.516 170.09C658.68 171.459 659.087 172.65 660.517 173.367C661.255 173.734 661.883 174.512 662.029 175.471C662.179 176.438 662.65 176.812 663.702 176.712C665.77 176.516 667.186 177.426 667.832 179.476C668.16 180.525 668.784 181.16 670.068 180.981C671.141 180.832 671.944 181.459 672.597 182.315C673.727 183.795 673.627 185.593 673.937 187.65V187.647ZM637.293 155.639C638.434 156.744 638.252 157.575 637.393 158.42C635.617 160.171 635.178 162.368 635.388 164.754C635.495 165.97 635.88 166.341 636.99 165.41C638.773 163.913 640.791 162.864 643.202 162.803C643.612 162.793 643.991 162.853 643.916 162.158C643.787 160.988 643.869 159.793 643.762 158.62C643.57 156.548 642.592 155.678 640.531 155.642C639.586 155.628 638.644 155.642 637.293 155.642V155.639ZM634.55 157.575C634.272 157.607 634.154 157.593 634.069 157.636C633.912 157.714 633.748 157.807 633.63 157.932C630.763 160.913 630.11 164.519 630.773 168.445C630.859 168.941 630.855 169.904 631.572 169.826C632.275 169.747 633.031 169.269 633.566 168.759C634.211 168.146 633.177 167.993 632.995 167.579C632.571 166.612 632.104 165.739 632.114 164.601C632.132 162.005 632.831 159.679 634.554 157.575H634.55ZM673.952 188.456C673.613 189.516 674.226 190.322 674.166 191.206C674.069 192.601 675.25 192.857 676.152 193.332C676.634 193.585 676.951 193.175 677.172 192.875C677.479 192.454 677.051 192.24 676.755 192.108C675.207 191.424 674.465 190.101 673.948 188.456H673.952ZM665.696 209.869C666.512 208.967 667.069 208.382 667.589 207.768C667.768 207.558 668.253 207.319 667.664 207.002C667.25 206.781 666.894 206.442 666.605 207.209C666.327 207.95 665.827 208.614 665.696 209.869Z" fill="#D15EA8"/>
<path d="M634.033 224.481C630.977 223.454 627.824 222.847 625.181 220.975C624.496 220.49 624.354 219.684 624.778 218.906C625.192 218.147 625.802 218.182 626.597 218.379C628.926 218.964 631.287 219.438 633.641 219.923C634.379 220.073 634.942 220.486 635.431 220.989C636.034 221.606 636.333 222.323 636.009 223.232C635.652 224.231 634.714 224.103 634.033 224.481Z" fill="#D15EA8"/>
<path d="M635.92 181.313C635.981 180.111 636.401 179.18 637.322 178.521C638.331 177.797 639.419 177.55 640.303 178.595C641.166 179.615 640.378 180.443 639.697 181.199C639.426 181.498 638.98 181.716 638.862 182.058C638.513 183.057 637.764 183.307 636.904 183.093C635.995 182.868 636.006 181.976 635.923 181.313H635.92Z" fill="#D15EA8"/>
<path d="M649.707 183.795C649.668 184.858 649.658 186.17 648.12 186.188C647.111 186.199 646.519 185.233 646.772 184.287C647.04 183.282 647.222 181.88 648.702 181.894C649.818 181.905 649.907 182.797 649.711 183.795H649.707Z" fill="#D15EA8"/>
<path d="M428.275 211.172C427.992 223.913 429.942 236.413 432.402 248.859C432.891 251.337 433.191 253.861 433.491 256.37C433.594 257.217 433.738 257.742 434.733 257.845C438.878 258.266 443.024 258.741 447.165 259.23C448.649 259.405 449.379 259.203 448.962 257.361C448.384 254.811 448.617 252.18 448.846 249.581C449.169 245.928 450.912 243.396 454.623 242.558C458.616 241.652 462.591 240.604 466.63 240.003C479.349 238.103 485.655 228.642 486.95 217.267C487.873 209.168 486.641 201.209 485.538 193.245C484.342 184.608 482.997 175.99 479.707 167.833C477.547 162.486 475.033 157.346 471.044 153.061C463.609 145.075 452.871 146.966 446.73 153.07C442.002 157.771 439.264 163.575 436.857 169.653C432.694 180.176 430.399 191.183 428.36 202.235C427.826 205.121 428.279 208.191 428.279 211.176L428.275 211.172Z" fill="#AFEEEE"/>
<path d="M430.807 186.338C430.56 180.866 430.798 175.51 434.401 171.002C435.58 169.527 436.911 168.227 438.704 167.519C439.681 167.134 440.631 166.793 441.509 167.9C442.105 168.649 443.038 168.823 443.948 168.317C444.588 167.958 444.902 167.367 444.83 166.632C444.732 165.592 443.947 165.404 443.091 165.229C441.424 164.884 441.922 163.459 441.541 162.114C448.913 165.292 456.564 164.144 463.972 165C468.741 165.552 473.464 166.166 477.628 168.823C478.143 169.155 478.681 169.496 479.268 169.047C479.833 168.617 479.855 167.918 479.564 167.412C477.332 163.539 477.61 158.6 474.061 155.028C476.915 154.397 475.705 153.133 474.724 151.954C472.747 149.579 470.108 148.203 467.253 147.212C463.421 145.881 459.459 145.164 455.407 145.012C448.214 144.743 441.89 149.117 439.345 155.902C438.296 158.704 437.337 161.478 437.637 164.534C437.736 165.543 437.476 166.332 436.553 167.022C431.914 170.495 429.888 175.367 429.633 180.978C429.427 185.505 428.53 190.049 429.642 194.576C429.736 194.966 429.722 195.315 429.382 195.58C427.822 196.803 427.302 198.591 426.796 200.783C425.59 198.793 425.16 196.92 425.084 195.06C424.792 187.714 425.716 180.601 429.588 174.134C430.014 173.426 430.435 172.696 430.341 171.835C430.22 170.746 429.628 169.975 428.494 169.948C427.289 169.921 426.675 170.715 426.845 171.844C427.114 173.641 426.536 175.241 425.962 176.855C423.923 182.582 423.506 188.512 423.753 194.522C423.78 195.19 423.918 195.853 424.048 196.512C424.801 200.339 426.769 203.75 427.777 207.501C428.14 208.855 429.131 209.984 430.157 210.988C430.69 211.508 431.251 212.104 432.093 211.839C432.958 211.566 433.052 210.768 433.079 210.006C433.106 209.101 433.093 208.245 432.08 207.73C428.701 206 427.513 201.491 429.552 198.278C429.79 197.906 429.996 197.422 430.511 197.44C431.049 197.462 431.143 198.004 431.304 198.394C432.882 202.199 434.079 206.116 434.854 210.163C435.006 210.961 434.921 212.064 436.077 211.88C437.18 211.705 436.848 210.629 436.808 209.836C436.472 202.894 436.472 195.934 437.274 189.041C437.709 185.312 439.596 181.834 440.075 178.029C440.299 176.259 440.837 174.533 441.187 172.776C441.33 172.05 441.487 171.235 440.618 170.809C439.784 170.401 439.215 170.952 438.663 171.481C436.647 173.417 435.056 175.627 434.056 178.275C433.034 180.982 431.892 183.64 430.802 186.325L430.807 186.338ZM477.449 167.049C474.607 166.107 472.098 165.171 469.458 164.642C463.071 163.351 456.546 163.297 450.11 162.419C447.735 162.096 445.61 161.402 444.077 159.412C443.289 158.39 442.343 157.735 440.999 158.511C440.299 158.914 439.726 158.753 439.842 157.901C440.281 154.782 442.343 152.59 444.234 150.26C445.48 148.723 446.65 149.978 447.847 149.951C448.519 149.933 449.191 150.009 449.859 150.031C455.618 150.193 461.319 150.878 466.966 152.012C469.78 152.581 471.954 154.504 473.164 157.673C470.247 154.903 466.926 153.697 463.3 153.204C457.518 152.42 451.701 152.156 445.875 152.165C445.149 152.165 444.396 152.366 443.701 152.613C442.814 152.927 442.088 153.536 442.141 154.571C442.2 155.701 443.136 155.925 444.046 156.113C445.897 156.503 447.766 156.342 449.63 156.351C450.15 156.351 450.805 156.36 450.867 155.701C450.944 154.863 450.195 154.858 449.612 154.786C447.986 154.58 446.354 154.397 444.293 154.155C444.92 153.697 445.077 153.505 445.261 153.469C445.843 153.348 446.439 153.218 447.031 153.209C453.086 153.119 459.118 153.352 465.07 154.634C468.337 155.338 470.982 157.027 473.191 159.483C473.971 160.348 474.549 161.195 474.195 162.486C473.819 163.853 474.289 164.92 475.867 165C477.072 165.063 477.314 165.753 477.444 167.058L477.449 167.049ZM435.271 203.835C429.53 197.448 431.977 177.428 439.004 174.219C438.318 178.105 438.534 182.112 436.333 185.5C435.589 186.643 435.253 187.719 435.262 189.027C435.289 193.948 435.275 198.869 435.275 203.839L435.271 203.835ZM449.635 147.934C454.937 147.342 460.176 147.257 464.967 150.17C459.84 149.574 454.744 148.732 449.635 147.934ZM472.393 151.708C472.304 151.891 472.214 152.075 472.12 152.263C469.606 150.807 467.096 149.346 464.582 147.889C467.522 148.525 470.278 149.502 472.389 151.712L472.393 151.708Z" fill="#D15EA8"/>
<path d="M472.693 191.949C472.003 195.996 473.635 199.152 475.656 202.181C478.049 205.771 482.988 207.909 487.21 203.351C488.07 202.419 489.007 201.558 489.899 200.657C494.103 196.409 494.502 190.798 490.957 185.912C490.652 185.491 490.302 185.079 490.11 184.608C488.989 181.847 488.214 181.493 485.484 182.596C483.342 183.461 481.213 184.375 479.058 185.204C476.49 186.195 474.235 187.548 472.953 190.264C470.919 187.817 468.754 189.547 466.715 189.919C465.527 190.134 464.541 190.914 464.304 188.897C464.192 187.961 463.318 187.347 462.264 187.674C461.148 188.019 460.821 188.947 461.09 190.004C461.431 191.367 461.682 192.805 462.327 194.029C464.156 197.511 464.362 201.303 464.765 205.072C464.958 206.887 464.227 208.111 462.493 208.693C458.226 210.123 453.888 211.208 449.352 211.078C446.336 210.992 443.871 209.729 442.226 207.111C440.635 204.57 439.255 201.921 438.628 198.963C438.027 196.149 438.601 194.392 441.11 193.115C445.489 190.892 449.926 188.736 454.654 187.306C455.282 187.118 455.972 187.114 456.635 187.069C457.097 187.037 457.796 187.598 457.944 186.813C458.083 186.056 457.299 185.899 456.729 185.823C455.658 185.675 454.65 186.056 453.691 186.441C449.469 188.14 445.22 189.776 441.084 191.663C437.296 193.388 436.328 195.902 437.57 199.9C438.372 202.473 439.524 204.893 440.828 207.25C442.76 210.737 445.825 212.297 449.662 212.404C454.336 212.534 458.854 211.445 463.286 210.109C465.724 209.374 466.495 207.972 466.423 205.341C466.334 201.899 465.823 198.506 465.146 195.136C464.662 192.729 465.487 191.86 467.992 192.129C468.732 192.209 469.471 192.424 470.206 192.406C470.932 192.389 471.654 192.147 472.702 191.94L472.693 191.949ZM491.714 192.447C492.4 197.31 488.85 200.039 485.507 202.813C483.064 204.839 480.12 204.624 477.848 202.378C476.01 200.563 474.621 198.372 474.137 195.848C473.599 193.061 473.706 190.112 476.449 188.431C479.864 186.343 483.647 185.231 487.748 185.514C488.554 185.567 489.151 185.814 489.661 186.45C491.006 188.126 492.037 189.901 491.714 192.442V192.447Z" fill="#D15EA8"/>
<path d="M474.898 225.486C472.554 225.563 470.623 225.903 468.714 226.378C467.961 226.567 467.266 227.001 467.468 227.92C467.674 228.875 468.498 228.884 469.256 228.74C471.34 228.346 473.213 227.53 474.903 225.482L474.898 225.486Z" fill="#D15EA8"/>
<path d="M453.807 192.187C453.933 193.025 454.377 193.594 455.242 193.558C456.183 193.518 456.748 192.935 456.653 191.972C456.573 191.12 455.963 190.681 455.125 190.726C454.256 190.775 453.861 191.358 453.807 192.187Z" fill="#D15EA8"/>
<path d="M481.415 193.451C481.446 194.289 481.863 194.845 482.719 194.916C483.566 194.988 484.167 194.544 484.256 193.702C484.355 192.752 483.822 192.133 482.872 192.088C482.016 192.048 481.558 192.613 481.415 193.451Z" fill="#D15EA8"/>
<path d="M252.015 220.385C248.901 217.204 245.636 214.172 242.826 210.695C239.479 206.556 237.784 201.747 237.46 196.563C236.506 181.299 240.689 167.482 250.099 155.427C253.446 151.138 257.987 148.461 263.668 147.917C272.072 147.109 277.619 150.089 281.178 158.017C285.282 167.163 288.022 176.718 289.071 186.716C289.461 190.429 289.816 194.146 290.166 197.868C290.726 203.773 288.913 209.276 287.293 214.819C285.121 222.242 281.726 229.267 280.209 236.899C279.377 241.081 278.695 245.279 278.395 249.533C278.364 249.986 278.443 250.463 278.1 250.842C276.885 250.795 277.118 249.801 277.118 249.139C277.11 245.599 277.067 242.059 276.692 238.535C276.637 238.014 276.665 237.486 276.598 236.966C275.675 229.602 274.851 228.431 268.106 225.392C263.502 223.318 258.917 221.201 254.238 219.293C252.894 218.745 252.102 218.662 252.027 220.381L252.015 220.385Z" fill="#AFEEEE"/>
<path d="M252.015 220.385C252.101 219.506 251.376 218.84 251.266 217.768C254.384 218.595 257.124 219.948 259.911 221.142C263.463 222.664 266.853 224.595 270.472 225.908C274.851 227.501 276.203 230.895 276.791 234.963C277.445 239.504 277.666 244.069 277.619 248.658C277.611 249.395 277.287 250.258 278.088 250.846C277.851 255.017 277.615 259.187 277.378 263.358C277.118 263.906 277.252 264.793 276.326 264.785C275.667 264.777 275.297 264.233 275.052 263.697C271.552 256.065 266.305 249.458 262.351 242.09C262.213 241.314 262.071 240.537 261.933 239.761C261.846 239.315 261.673 238.854 261.744 238.412C262.363 234.632 260.38 231.801 258.338 228.991C256.808 226.886 255.042 224.962 253.572 222.813C253.051 222.005 252.535 221.197 252.015 220.389V220.385Z" fill="#A0DADA"/>
<path d="M262.351 242.09C263.947 242.733 264.125 244.444 264.901 245.658C268.638 251.508 272.632 257.216 275.498 263.583C276.393 265.574 276.779 263.654 277.382 263.362C277.603 264.261 277.697 265.144 277.102 266.161C276.207 264.923 275.107 265.041 273.862 265.392C269.699 266.571 265.603 266.496 261.681 264.45C261.074 264.135 260.289 264.001 260.502 262.952C261.901 256.069 261.854 249.052 262.355 242.086L262.351 242.09Z" fill="#AFEEEE"/>
<path d="M253.572 222.813C256.698 225.415 258.779 228.833 261.03 232.141C262.698 234.589 262.394 237.131 261.933 239.761C260.131 236.232 258.291 232.72 256.536 229.164C255.503 227.071 254.199 225.096 253.568 222.813H253.572Z" fill="#AFEEEE"/>
<path d="M268.619 148.651C268.788 148.54 268.835 148.485 268.891 148.477C270.428 148.272 272.068 149.774 273.188 149.084C274.299 148.398 274.772 146.64 275.86 145.556C279.428 142.004 283.745 139.899 288.66 139.138C294.108 138.295 297.897 141.362 298.248 146.892C298.354 148.568 298.91 149.798 299.907 151.114C304.882 157.674 306.676 165.054 305.174 173.19C304.263 178.13 302.391 182.75 300.502 187.366C300.479 187.425 300.451 187.488 300.424 187.547C299.824 188.789 299.095 190.019 297.471 189.459C295.882 188.911 295.926 187.508 296.277 186.148C296.998 183.353 297.81 180.586 298.488 177.783C299.631 173.06 300.723 168.334 299.895 163.394C299.556 161.364 298.886 159.46 298.133 157.572C297.656 156.385 297.325 155.254 295.433 155.518C293.998 155.719 293.679 154.272 293.671 152.983C293.655 150.535 292.599 149.518 290.166 150.062C286.894 150.799 283.705 151.804 281.951 155.151C281.273 156.448 280.055 156.322 279.113 155.467C276.732 153.31 273.952 151.907 270.992 150.756C270.006 150.373 269.021 149.782 268.615 148.655L268.619 148.651ZM291.968 145.994C292.334 145.852 293.221 146.66 293.462 145.714C293.639 145.02 293.076 144.358 292.516 143.865C291.558 143.021 290.43 142.824 289.2 143.037C284.994 143.77 281.162 145.418 277.682 147.866C275.001 149.751 275.029 149.79 277.67 151.43C277.78 151.501 277.906 151.556 278.001 151.643C278.955 152.538 279.546 152.407 280.5 151.363C283.496 148.091 287.296 146.301 291.964 145.99L291.968 145.994Z" fill="#D15EA8"/>
<path d="M282.681 174.925C284.167 181.654 283.776 188.072 284.045 194.754C285.164 193.934 285.645 192.503 287.076 192.629C288.657 192.767 288.625 194.328 289.244 195.317C289.453 195.286 289.662 195.254 289.871 195.223C289.871 191.856 289.871 188.486 289.871 185.119C289.871 178.441 287.955 172.177 285.724 165.984C285.373 165.006 284.675 163.579 285.637 163.098C286.686 162.578 287.155 164.135 287.687 164.943C292.619 172.477 294.534 180.755 293.75 189.696C293.588 191.525 293.506 193.362 293.336 195.195C293.194 196.744 292.473 197.884 290.762 197.821C289.721 197.781 289.729 198.282 289.788 199.011C290.052 202.082 288.487 204.569 287.139 207.112C286.67 207.995 285.862 208.535 284.845 208.023C283.721 207.459 283.784 206.469 284.234 205.48C284.778 204.286 285.373 203.115 285.917 201.924C286.378 200.919 286.717 199.886 286.229 198.455C285.515 199.547 284.999 200.422 284.395 201.234C283.863 201.956 283.146 202.445 282.188 202.137C281.289 201.849 281.084 201.085 281.076 200.249C281.001 192.7 280.899 185.155 281.498 177.617C281.561 176.837 281.699 176.068 282.673 174.933L282.681 174.925Z" fill="#D15EA8"/>
<path d="M270.787 151.15C270.168 152.171 269.265 152.475 268.524 152.936C265.516 154.796 263.088 157.256 260.967 160.047C260.384 160.812 259.706 161.537 261.338 161.959C262.17 162.176 262.564 162.941 262.469 163.824C262.375 164.703 261.799 165.282 260.979 165.472C259.765 165.748 258.527 165.921 257.293 166.083C252.673 166.694 248.049 167.289 243.425 167.884C240.535 168.255 238.923 166.911 238.785 163.989C238.683 161.786 239.443 159.854 240.815 158.171C245.163 152.845 251.092 150.145 257.498 148.331C260.147 147.582 262.887 147.121 265.67 147.409C266.293 147.472 267.29 147.44 267.334 148.15C267.385 149.017 266.325 148.8 265.769 148.903C258.645 150.216 252.377 153.432 246.527 157.552C244.69 158.845 243.106 160.434 242.388 162.673C242.23 163.166 241.99 163.729 242.376 164.175C242.83 164.699 243.358 164.21 243.823 164.084C247.505 163.091 251.215 162.247 255.034 162.018C256.118 161.955 256.765 161.549 257.348 160.568C259.714 156.57 263.013 153.535 267.251 151.576C268.307 151.087 269.403 150.799 270.783 151.154L270.787 151.15Z" fill="#D15EA8"/>
<path d="M273.196 158.786C274.465 158.565 275.624 158.265 276.401 159.401C277.221 160.599 276.318 161.502 275.754 162.432C275.281 163.217 274.832 164.041 274.229 164.719C273.46 165.578 272.419 165.807 271.773 164.679C271.122 163.548 270.637 164.013 269.963 164.518C269.447 164.908 268.915 165.361 268.319 165.547C267.082 165.933 266.037 164.983 266.549 163.847C267.945 160.757 269.75 157.946 273.05 156.527C273.704 156.243 274.414 156.085 275.246 156.578C274.844 157.516 273.622 157.654 273.196 158.786Z" fill="#D15EA8"/>
<path d="M261.157 210.979C260.427 210.837 259.631 210.782 258.906 210.53C256.789 209.793 254.849 208.622 252.535 208.338C251.424 208.204 250.746 207.136 250.793 205.827C250.82 205.058 250.923 204.333 251.692 204.045C252.397 203.781 252.977 204.207 253.351 204.79C253.604 205.18 253.742 205.661 254.325 205.579C256.69 205.232 258.472 206.876 260.585 207.376C261.504 207.593 262.138 208.125 262.54 208.878C263.14 210.006 262.477 210.971 261.161 210.983L261.157 210.979Z" fill="#D15EA8"/>
<path d="M249.149 180.231C248.408 180.357 248.029 180.01 247.812 179.498C247.457 178.658 248.68 176.048 249.661 175.394C250.17 175.055 250.662 175.043 251.076 175.433C251.277 175.623 251.467 176.115 251.36 176.297C250.741 177.369 250.43 178.555 249.996 179.695C249.842 180.097 249.464 180.251 249.149 180.231Z" fill="#D15EA8"/>
<path d="M264.984 180.471C265.012 179.573 264.823 178.437 266.127 178.39C266.999 178.358 267.357 179.218 267.152 179.963C266.92 180.806 267.48 182.233 266.049 182.344C264.803 182.442 264.972 181.319 264.984 180.475V180.471Z" fill="#D15EA8"/>
<path d="M119.324 213.184C119.022 203.248 117.394 193.49 115.283 183.796C113.279 174.582 111.097 165.427 106.653 157.003C104.62 153.144 102.084 149.655 99.052 146.489C91.3092 138.4 81.1306 140.977 75.6409 148.407C72.6764 152.422 71.4623 156.98 71.2686 161.803C70.9483 169.736 72.4231 177.464 74.5236 185.077C76.9594 193.907 80.058 202.551 81.8308 211.568C83.1939 218.503 83.9052 225.515 84.7208 232.528C85.8381 242.159 85.7637 251.832 86.0318 261.492C86.0988 263.906 85.9052 266.327 85.7823 268.74C85.7301 269.764 85.8679 270.233 87.097 269.887C89.7748 269.131 92.4898 268.513 95.1936 267.846C95.9981 267.649 96.512 267.209 96.5828 266.334C96.6573 265.41 96.8212 264.491 96.8472 263.571C97.0037 257.496 96.7839 251.422 97.2457 245.344C97.5884 240.808 99.4058 237.694 103.938 236.424C105.067 236.107 106.128 235.556 107.249 235.199C114.728 232.808 117.778 227.072 118.91 219.862C119.256 217.646 119.35 215.423 119.324 213.184Z" fill="#AFEEEE"/>
<path d="M75.7826 157.278C75.5256 154.284 75.9688 151.86 76.2556 149.431C76.3226 148.88 76.6392 148.206 76.3003 147.819C75.3431 146.735 76.1513 146.18 76.8105 145.551C79.4995 142.992 82.7061 141.238 86.0282 139.677C88.3857 138.567 90.7581 137.495 93.272 136.765C93.7822 136.616 94.5681 136.467 94.5122 135.841C94.4452 135.104 93.6072 135.085 93.0188 135.033C91.2609 134.884 89.5365 135.26 87.8755 135.73C79.9762 137.945 72.7473 141.268 68.8256 149.077C65.9914 154.72 64.5649 160.861 65.3322 167.107C65.6822 169.937 65.3247 172.544 65.0715 175.226C64.7884 178.194 65.3173 180.891 67.198 183.189C68.2222 184.436 67.887 185.915 68.1291 187.241C68.7138 190.425 70.3004 193.11 71.7864 195.855C72.2557 196.719 72.8106 197.546 73.0787 198.488C73.954 201.587 76.4046 203.605 78.2034 206.071C78.5014 206.48 79.0377 206.883 79.4511 206.399C80.5609 205.106 81.4734 206.067 82.4752 206.507C83.8607 207.117 85.3616 207.091 86.7656 206.775C87.9723 206.503 88.7917 205.602 88.5012 204.164C88.2144 202.734 87.2274 202.075 85.9202 202.507C84.4156 203.006 83.8644 202.198 83.1046 201.203C80.114 197.274 79.4473 192.954 80.8067 188.276C82.0097 188.421 83.2238 188.634 84.2219 189.81C84.9854 190.712 86.2182 190.864 87.4211 190.254C88.5347 189.688 88.7507 188.73 88.8066 187.632C88.9965 183.811 89.0598 179.926 87.8531 176.313C87.261 174.541 86.0692 172.787 84.9705 171.178C84.1623 170.001 84.7657 169.524 85.3355 168.958C87.0375 167.256 88.9071 165.755 90.9034 164.384C94.9144 161.628 98.9963 158.939 101.756 154.746C103.201 152.549 104.043 150.12 104.672 147.614C104.896 146.735 104.922 145.614 103.622 145.42C102.393 145.234 102.378 146.251 102.128 147.1C101.216 150.165 99.0298 152.5 97.3874 155.152C95.4768 158.239 92.8065 160.437 89.5626 162.005C87.4695 163.018 85.5701 164.355 83.6223 165.703C85.3206 160.5 88.1511 155.923 90.9294 151.051C91.503 151.848 91.678 152.91 92.7841 152.91C94.002 152.91 94.6649 152.046 95.3576 151.264C98.2663 147.975 100.676 144.407 101.555 139.99C101.804 138.735 101.741 137.573 100.788 136.042C99.3539 141.268 96.2366 145.018 92.8623 148.597C93.4359 147.178 94.3446 145.986 95.4247 144.925C96.3707 143.994 96.8027 142.873 96.5494 141.58C96.4154 140.91 96.0355 140.292 95.2385 140.188C94.5085 140.094 94.002 140.314 93.5663 141.025C90.8847 145.424 88.1846 149.819 85.3988 154.15C82.546 158.586 80.5944 163.424 78.7509 168.325C78.6503 168.593 78.777 168.954 78.4269 169.118C78.3747 169.14 78.304 169.118 78.114 169.118C78.777 162.515 79.7155 156.005 82.8402 150.02C83.3206 149.096 83.8122 148.161 84.1363 147.178C84.4007 146.374 84.6279 145.361 83.6335 144.869C82.587 144.348 82.1735 145.048 81.5218 145.904C79.019 149.197 77.4772 152.936 75.7938 157.275L75.7826 157.278ZM71.9316 154.467C72.0322 154.481 72.1328 154.496 72.2333 154.511C72.2333 157.662 72.2929 160.817 72.2184 163.967C72.0881 169.498 71.7492 175.029 71.9242 180.563C71.9577 181.595 71.5853 181.568 70.833 181.271C69.4624 180.727 69.5369 179.498 69.3507 178.366C68.3749 172.407 69.6896 166.604 70.576 160.776C70.9 158.653 71.4661 156.567 71.9242 154.467H71.9316ZM75.3543 178.675C76.453 179.915 77.3654 179.658 78.3114 178.935C78.7807 178.578 79.4064 178.515 79.7304 179.092C79.9985 179.565 79.708 180.325 79.2462 180.276C77.6783 180.109 77.0489 181.207 76.3338 182.336C75.723 181.248 75.4102 180.272 75.3543 178.671V178.675ZM76.0359 187.676C74.9856 187.427 73.9242 186.794 73.872 185.945C73.7975 184.734 75.2016 185.993 75.7044 185.319C75.8124 185.174 76.0433 185.114 76.3115 184.961C76.2109 185.959 76.129 186.794 76.0396 187.676H76.0359Z" fill="#D15EA8"/>
<path d="M102.02 213.318C102.423 213.689 102.784 214.065 103.358 214.253C105.96 215.111 108.554 215.018 111.137 214.261C112.126 213.969 113.015 213.326 112.724 212.137C112.449 211 111.45 210.705 110.38 210.862C109.291 211.022 108.22 211.321 107.134 211.483C105.874 211.671 104.603 211.995 103.386 211.203C102.725 210.773 101.906 210.655 101.402 211.405C100.876 212.192 101.475 212.783 102.02 213.318Z" fill="#D15EA8"/>
<path d="M99.1636 180.98C98.9476 182.712 99.86 184.086 100.493 185.512C100.862 186.336 101.618 186.801 102.623 186.548C103.633 186.295 103.983 185.591 103.987 184.626C104.001 182.57 103.353 180.704 102.292 178.976C101.905 178.351 101.253 178.034 100.534 178.336C99.3684 178.831 98.8954 179.755 99.1599 180.976L99.1636 180.98Z" fill="#D15EA8"/>
<path d="M112.892 179.159C112.88 178.98 112.918 178.474 112.802 178.004C112.627 177.271 112.083 176.839 111.342 176.805C110.489 176.764 110.121 177.431 110.054 178.109C109.968 178.954 110.042 179.833 110.147 180.682C110.24 181.434 110.53 182.157 111.461 182.179C112.527 182.209 112.72 181.371 112.88 180.578C112.951 180.224 112.892 179.84 112.892 179.159Z" fill="#D15EA8"/>
<path d="M690.722 157.607L696.282 151.866C701.912 146.057 701.192 136.695 700.791 133.711C697.589 134.874 685.728 138.754 681.043 134.404C680.161 133.586 679.639 132.424 679.494 131.028C675.112 131.941 670.506 132.307 667.816 132.449C657.549 133.005 647.625 132.023 642.531 129.956C640.024 128.94 638.69 127.678 638.448 126.098C638.223 124.625 638.192 123.191 638.34 121.856C634.623 120.749 629.616 117.519 628.253 108.222C626.96 99.4073 630.633 91.7076 638.876 85.9545C644.973 81.6999 651.332 80.0204 651.602 79.9515C651.999 79.8482 652.39 80.1668 652.473 80.662C652.556 81.1573 652.3 81.6439 651.903 81.7472C651.84 81.7644 645.471 83.4482 639.571 87.5736C631.839 92.978 628.52 99.8164 629.706 107.891C630.916 116.15 635.346 119.057 638.665 120.06C639.153 118.14 640.059 116.525 641.328 115.431C643.586 113.489 646.55 113.558 649.261 115.62C650.675 116.697 650.53 117.997 650.398 118.506C649.779 120.943 645.54 122.713 641.141 122.373C640.751 122.343 640.294 122.287 639.789 122.196C639.675 123.307 639.706 124.509 639.896 125.744C639.955 126.128 640.374 127.135 642.991 128.199C650.54 131.265 668.29 131.532 679.514 129.138C679.587 128.5 679.722 127.833 679.919 127.144C681.108 123.019 684.459 118.54 687.364 118.717C688.28 118.773 689.919 119.384 690.628 122.868C690.815 123.794 690.791 125.185 689.594 126.576C687.938 128.5 684.611 129.81 680.943 130.692C681.015 131.528 681.285 132.333 681.921 132.923C686.645 137.311 700.988 131.713 701.13 131.657L701.877 131.364L702.067 132.307C702.157 132.751 703.852 141.432 700.324 148.774C704.82 145.054 711.677 138.315 712.462 131.308L712.531 130.675L713.032 130.537C716.432 129.607 723.648 127.127 728.752 123.876C728.33 122.721 728.109 121.378 728.116 119.892C728.133 115.883 729.766 112.15 731.75 111.568C732.553 111.336 734.088 111.422 735.381 114.617C736 116.146 736.014 117.709 735.423 119.259C734.683 121.201 732.978 122.976 730.831 124.552C731.373 125.301 732.148 125.925 733.241 126.261C738.504 127.88 749.6 126.718 756.741 120.327C760.351 117.097 762.468 112.998 763.045 108.132C761.313 108.097 759.826 107.327 759.058 105.996C757.844 103.89 758.992 100.157 760.151 98.2919C761.064 96.8278 762.097 96.2335 762.99 96.6642C764.421 97.3575 764.978 100.441 764.684 106.078C766.963 105.419 772.713 102.366 776.251 88.2669C776.967 85.4076 776.303 82.6343 774.27 80.0204C768.799 72.9883 754.469 67.9757 735.941 66.6107C715.204 65.0819 692.129 68.2772 670.966 75.6022C670.576 75.7357 670.167 75.4514 670.06 74.9648C669.953 74.4782 670.181 73.9701 670.572 73.8366C691.887 66.4556 715.131 63.2388 736.028 64.7805C754.915 66.1714 769.605 71.3949 775.324 78.7457C777.727 81.8333 778.533 85.3171 777.655 88.8181C776.14 94.8555 774.055 99.6312 771.455 103.007C768.796 106.461 766.244 107.628 764.546 107.985C763.986 113.54 761.648 118.191 757.599 121.817C749.756 128.836 738.217 129.68 732.888 128.044C731.481 127.613 730.343 126.713 729.53 125.452C723.794 129.172 715.909 131.601 713.842 132.2C712.099 143.331 697.724 152.969 697.102 153.378L690.725 157.598L690.722 157.607ZM687.201 120.56C685.262 120.56 682.371 124.078 681.306 127.777C681.223 128.07 681.133 128.419 681.064 128.793C684.604 127.906 687.322 126.722 688.588 125.249C689.314 124.405 689.283 123.751 689.2 123.333C688.837 121.55 688.197 120.616 687.295 120.564C687.264 120.564 687.233 120.564 687.201 120.564V120.56ZM732.297 113.334C732.228 113.334 732.158 113.342 732.089 113.364C730.948 113.7 729.606 116.632 729.593 119.914C729.589 120.775 729.676 121.916 730.046 123.014C731.992 121.606 733.483 120.077 734.091 118.484C734.482 117.459 734.475 116.469 734.064 115.457C733.732 114.639 733.082 113.338 732.293 113.338L732.297 113.334ZM640.125 120.413C640.536 120.487 640.91 120.53 641.235 120.551C645.561 120.887 648.714 119.07 648.994 117.963C649.067 117.679 648.711 117.36 648.493 117.192C646.259 115.491 643.953 115.401 642.165 116.942C641.217 117.761 640.526 118.962 640.125 120.405V120.413ZM762.391 98.3695C762.205 98.3695 761.804 98.6321 761.313 99.4202C760.203 101.203 759.677 103.933 760.251 104.928C760.68 105.673 761.703 106.306 763.142 106.306C763.159 106.306 763.173 106.306 763.19 106.306C763.609 99.0283 762.464 98.3867 762.45 98.3781C762.433 98.3695 762.412 98.3652 762.388 98.3652L762.391 98.3695Z" fill="#F1F1F1"/>
<path d="M654.239 76.1454C654.073 76.1454 653.907 76.092 653.768 75.9852L646.224 69.9831C645.923 69.7411 645.885 69.3201 646.146 69.0404C646.407 68.7607 646.861 68.7261 647.162 68.9681L654.706 74.9702C655.008 75.2121 655.045 75.6332 654.784 75.9129C654.642 76.0669 654.439 76.1454 654.236 76.1454H654.239Z" fill="#F1F1F1"/>
<path d="M652.824 68.8066C652.515 68.8066 652.227 68.5666 652.118 68.1826L650.162 61.2351C650.025 60.7507 650.232 60.2183 650.622 60.0525C651.012 59.8823 651.44 60.1398 651.577 60.6242L653.534 67.5716C653.671 68.056 653.463 68.5884 653.073 68.7542C652.993 68.7892 652.908 68.8066 652.828 68.8066H652.824Z" fill="#F1F1F1"/>
<path d="M658.391 76.1455C658.039 76.1455 657.733 75.7677 657.683 75.2428L656.348 61.1873C656.294 60.6133 656.566 60.0884 656.958 60.0099C657.351 59.9314 657.71 60.3288 657.764 60.9028L659.099 74.9582C659.153 75.5322 658.881 76.0572 658.488 76.1356C658.455 76.1406 658.421 76.1455 658.388 76.1455H658.391Z" fill="#F1F1F1"/>
<path d="M480.692 122.45L479.972 121.273C479.914 121.175 473.971 111.493 467.311 106.71C465.858 105.664 460.309 104.881 453.882 103.967C435.6 101.379 407.974 97.4637 402.737 81.2592C400.897 75.5671 402.024 68.8527 406.093 61.3037C413.455 47.6312 444.679 42.347 471.448 41.9531C498.648 41.5546 531.522 46.248 543.634 57.6137C550.709 64.253 554.287 73.8463 552.978 82.6565C551.733 91.0354 546.352 97.1355 538.212 99.3955C526.737 102.579 505.154 106.326 495.444 106.818C486.272 107.282 481.237 120.931 481.185 121.067L480.688 122.441L480.692 122.45ZM406.686 61.8945L407.275 62.4853C403.543 69.4154 402.466 75.4592 404.081 80.4481C408.975 95.5882 437.183 99.5877 454.04 101.974C461.155 102.982 466.296 103.709 467.996 104.933C473.631 108.979 478.611 116.144 480.401 118.887C481.963 115.239 487.002 105.242 495.396 104.816C505.048 104.328 526.511 100.601 537.927 97.4309C545.461 95.3397 550.428 89.8069 551.552 82.2533C552.741 74.2448 549.392 65.4346 542.812 59.2547C532.55 49.624 503.882 43.4676 471.469 43.9412C438.277 44.4241 413.078 51.7011 407.275 62.4759L406.686 61.8852V61.8945Z" fill="#F1F1F1"/>
<path d="M397.425 75.617C397.108 75.617 396.815 75.3441 396.713 74.9131C396.649 74.645 395.176 68.215 398.937 60.5736C401.676 55.0149 406.462 50.2893 413.166 46.526C421.71 41.7334 433.38 38.5304 447.856 37.003C448.268 36.9599 448.631 37.3813 448.663 37.9415C448.695 38.5016 448.385 38.9948 447.972 39.0379C416.109 42.3989 404.418 53.1811 400.22 61.6365C396.836 68.4496 398.084 74.0513 398.14 74.2859C398.264 74.8222 398.049 75.3967 397.654 75.5691C397.576 75.6026 397.499 75.617 397.425 75.617Z" fill="#F1F1F1"/>
<path d="M395.749 55.076C395.619 55.076 395.486 55.027 395.363 54.929C395.008 54.63 394.895 53.9928 395.106 53.4978C395.352 52.9243 401.312 39.3869 414.106 37.0098C414.513 36.9314 414.893 37.3333 414.945 37.9067C415.002 38.4802 414.714 39.0046 414.302 39.0781C402.246 41.318 396.445 54.4389 396.389 54.5712C396.248 54.8947 395.999 55.076 395.746 55.076H395.749Z" fill="#F1F1F1"/>
<path d="M488.639 117.52C488.551 117.52 488.462 117.504 488.373 117.463C487.983 117.295 487.785 116.796 487.93 116.349C488.019 116.075 490.19 109.615 499.884 108.936L501.565 108.821C511.569 108.129 530.191 106.839 537.839 104.406C538.243 104.279 538.658 104.549 538.768 105.016C538.878 105.479 538.644 105.962 538.24 106.089C530.44 108.575 511.714 109.869 501.658 110.566L499.976 110.68C491.328 111.287 489.423 116.73 489.345 116.959C489.228 117.307 488.941 117.52 488.636 117.52H488.639Z" fill="#F1F1F1"/>
<path d="M542.336 104.374C542.01 104.374 541.703 104.051 541.592 103.533C541.447 102.88 541.666 102.168 542.077 101.939C542.151 101.898 549.543 97.7448 553.18 89.3094C553.424 88.7388 553.917 88.5918 554.276 88.98C554.635 89.3683 554.728 90.1506 554.483 90.7212C550.55 99.8507 542.918 104.127 542.596 104.304C542.51 104.351 542.421 104.374 542.336 104.374Z" fill="#F1F1F1"/>
<path d="M211.943 118.064C203.991 114.504 200.582 107.612 199.125 102.392C197.818 97.7181 197.803 93.6227 197.855 92.1191C196.502 91.7936 192.759 90.7708 188.762 88.6166C182.196 85.0788 178.149 80.1584 177.069 74.3816C175.896 68.1136 176.749 62.6849 179.606 58.2464C183.749 51.8094 190.788 49.4386 193.095 48.8174C192.795 46.9568 192.345 42.1362 194.678 37.7478C196.328 34.6436 199.03 32.4092 202.705 31.0943C209.714 28.5909 214.579 30.9004 217.427 33.2742C219.667 35.142 221.019 37.3085 221.603 38.3927C231.102 31.6219 239.485 29.42 246.53 31.8449C255.835 35.0519 259.906 45.2725 261.071 48.8433C262.225 47.4768 264.575 45.0936 268.172 43.2897C272.973 40.8836 280.985 39.1139 291.922 44.3328C300.923 48.6297 304.048 56.7259 305.087 62.764C305.996 68.0402 305.52 72.6026 305.285 74.262C307.017 74.7659 312.053 76.643 314.19 81.9599C316.006 86.4799 315.23 92.2572 311.876 99.1278C306.552 110.045 299.118 112.935 293.814 113.44C289.013 113.895 285.147 112.55 283.928 112.06C282.375 113.494 275.842 119.637 274.395 122.692C273.048 125.541 271.997 128.124 271.274 130.362L270.849 131.673L270.087 130.675C269.982 130.539 269.878 130.403 269.77 130.266C266.504 126.149 254.895 121.448 252.908 120.664C251.923 121.249 248.662 122.949 243.021 123.669C236.893 124.45 226.631 124.156 212.56 118.336C212.35 118.25 212.141 118.161 211.934 118.068L211.943 118.064ZM199.291 90.8959L199.243 91.5065C199.24 91.556 198.895 96.3722 200.445 101.897C202.511 109.248 206.777 114.309 213.147 116.94C239.534 127.85 252.446 119.316 252.572 119.228L252.869 119.027L253.178 119.144C253.724 119.354 266.161 124.141 270.415 128.739C271.127 126.738 272.059 124.513 273.197 122.105C274.973 118.349 283.1 110.959 283.446 110.648L283.79 110.335L284.172 110.515C284.216 110.534 288.484 112.479 293.873 111.953C301.023 111.252 306.682 106.736 310.686 98.523C313.826 92.0905 314.583 86.7503 312.938 82.6547C310.654 76.9585 304.392 75.5757 304.328 75.5596L303.719 75.4312L303.843 74.749C303.853 74.694 304.817 69.3447 303.734 63.1041C302.294 54.8082 298.104 48.9493 291.28 45.6911C282.977 41.7277 275.155 41.356 268.65 44.6191C263.776 47.0642 261.341 50.6779 261.317 50.7139L260.475 51.9823L260.113 50.5779C260.078 50.4389 256.467 36.853 246.001 33.2536C239.222 30.9227 231.035 33.2081 221.67 40.0428L221.017 40.518L220.703 39.8052C220.689 39.7777 219.35 36.8072 216.495 34.4391C212.715 31.3045 208.182 30.6494 203.026 32.4889C199.72 33.6681 197.307 35.6505 195.852 38.3794C193.239 43.2831 194.557 49.0517 194.567 49.1116L194.756 49.9172L193.972 50.0794C193.886 50.0959 185.228 51.9624 180.693 59.0216C178.078 63.0889 177.308 68.1137 178.4 73.9639C180.836 86.981 198.56 90.7466 198.74 90.7808L199.285 90.893L199.291 90.8959Z" fill="#F1F1F1"/>
<path d="M270.867 139.196C270.658 139.103 270.435 138.99 270.2 138.856C268 137.602 267.528 134.755 268.794 130.401L269.086 129.397L269.874 130.247C273.393 134.034 274.954 137.666 273.674 139.078C273.324 139.463 272.518 139.939 270.869 139.2L270.867 139.196ZM270.793 137.881C271.703 138.401 272.421 138.552 272.67 138.282C273.159 137.741 272.731 135.357 269.745 131.853C269.183 134.237 269.052 136.887 270.797 137.882L270.793 137.881Z" fill="#F1F1F1"/>
<path d="M228.855 28.0906C228.718 28.0291 228.604 27.9145 228.537 27.7613C228.394 27.4186 228.549 26.9988 228.883 26.8261C229.296 26.6136 239.131 21.622 249.243 25.2699C259.408 28.9377 262.257 39.6318 262.373 40.0853C262.466 40.4494 262.256 40.8446 261.905 40.9658C261.554 41.0871 261.192 40.8891 261.098 40.5251C261.071 40.4216 258.288 30.0313 248.75 26.5924C239.161 23.1349 229.501 28.0219 229.403 28.0695C229.222 28.1633 229.02 28.1644 228.855 28.0906Z" fill="#F1F1F1"/>
<path d="M225.112 26.4147C224.991 26.3607 224.885 26.266 224.816 26.1371C224.639 25.8105 224.754 25.387 225.078 25.1865C225.613 24.8565 238.329 17.1303 248.755 20.4948C249.103 20.6071 249.282 20.9939 249.164 21.3572C249.042 21.7224 248.661 21.925 248.316 21.8173C238.448 18.6323 225.851 26.2903 225.727 26.3683C225.532 26.4889 225.305 26.4974 225.12 26.4142L225.112 26.4147Z" fill="#F1F1F1"/>
<path d="M285.331 114.908C285.014 114.767 284.855 114.394 284.97 114.043C285.093 113.664 285.488 113.45 285.851 113.564C293.902 116.099 300.957 115.05 306.825 110.453C311.227 107.005 313.283 102.734 313.302 102.69C313.471 102.33 313.895 102.171 314.233 102.334C314.576 102.496 314.719 102.922 314.547 103.28C314.46 103.464 312.347 107.872 307.691 111.54C303.388 114.931 296.027 118.274 285.407 114.93C285.384 114.92 285.357 114.912 285.334 114.902L285.331 114.908Z" fill="#F1F1F1"/>
<path d="M282.078 118.705C281.758 118.561 281.651 118.094 281.845 117.661C282.039 117.227 282.456 116.994 282.776 117.138C282.887 117.187 294.077 122.101 302.206 118.194C302.573 118.016 302.927 118.213 302.998 118.631C303.065 119.051 302.822 119.53 302.453 119.712C293.814 123.867 282.554 118.918 282.078 118.705Z" fill="#F1F1F1"/>
<path d="M203.37 118.737C203.346 118.726 203.319 118.714 203.299 118.695C193.824 112.227 194.62 93.7945 194.659 93.0151C194.682 92.5542 195.008 92.1084 195.387 92.0173C195.764 91.9305 196.052 92.235 196.032 92.6974C196.023 92.8787 195.243 111.058 204.171 117.15C204.465 117.352 204.509 117.858 204.267 118.286C204.045 118.678 203.661 118.867 203.37 118.737Z" fill="#F1F1F1"/>
<path d="M215.212 124.038C212.142 122.664 210.251 121.548 210.219 121.53C209.908 121.344 209.817 120.905 210.019 120.546C210.22 120.187 210.63 120.043 210.944 120.23C211.159 120.36 232.756 132.976 249.421 125.335C249.774 125.174 250.151 125.343 250.265 125.713C250.379 126.083 250.187 126.513 249.834 126.675C240.781 130.825 230.478 129.197 223.43 127.1C220.248 126.154 217.424 125.028 215.209 124.037L215.212 124.038Z" fill="#F1F1F1"/>
<path d="M33.127 114.771C34.0115 115.24 34.9182 115.666 35.8484 116.057C43.8399 119.394 53.3718 119.605 63.417 116.663C84.0627 110.614 96.2337 113.872 102.805 117.673C109.895 121.771 112.177 127.361 112.199 127.416L113.046 129.552L113.804 127.168C113.849 127.031 118.244 113.024 118.539 95.8112C118.71 85.6853 117.456 76.4336 114.808 68.3133C111.491 58.1401 105.966 49.734 98.3893 43.3267C83.7078 30.9123 68.5893 27.0311 53.4508 31.7861C38.9083 36.3585 28.5411 47.6421 23.6599 53.9611C18.3889 60.7807 15.2189 68.8791 14.4927 77.3824C13.7985 85.4847 15.3309 93.3893 18.9171 100.244C22.2538 106.618 27.1288 111.589 33.1292 114.767L33.127 114.771ZM102.836 115.493C95.8033 111.769 83.4085 108.933 63.1602 114.861C44.4202 120.35 28.4457 114.489 20.4355 99.1837C13.1732 85.3036 14.9289 67.9863 24.9174 55.0609C32.7421 44.9381 61.0749 14.2818 97.2287 44.855C113.898 58.9542 117.081 80.451 116.815 96.002C116.591 108.987 114.005 120.085 112.8 124.595C111.503 122.461 108.8 118.941 103.864 116.059C103.534 115.868 103.196 115.678 102.842 115.491L102.836 115.493Z" fill="#F1F1F1"/>
<rect x="34" y="73" width="62" height="3" fill="#D15EA8"/>
<rect x="34" y="85" width="62" height="3" fill="#D15EA8"/>
<rect x="34" y="79" width="18.0833" height="3" fill="#D15EA8"/>
<rect x="56" y="79" width="40" height="3" fill="#D15EA8"/>
<rect x="215" y="71" width="62" height="3" fill="#D15EA8"/>
<rect x="215" y="83" width="62" height="3" fill="#D15EA8"/>
<rect x="215" y="77" width="18.0833" height="3" fill="#D15EA8"/>
<rect x="237" y="77" width="40" height="3" fill="#D15EA8"/>
<rect x="430" y="69" width="93" height="3" fill="#D15EA8"/>
<rect x="430" y="81" width="93" height="3" fill="#D15EA8"/>
<rect x="430" y="75" width="27.125" height="3" fill="#D15EA8"/>
<rect x="463" y="75" width="60" height="3" fill="#D15EA8"/>
<rect x="654" y="93" width="93" height="3" fill="#D15EA8"/>
<rect x="654" y="105" width="93" height="3" fill="#D15EA8"/>
<rect x="654" y="99" width="27.125" height="3" fill="#D15EA8"/>
<rect x="687" y="99" width="60" height="3" fill="#D15EA8"/>
</svg>
