<svg width="328" height="133" viewBox="0 0 328 133" fill="none" xmlns="http://www.w3.org/2000/svg">
<path d="M53.6742 81.3852C56.7885 78.2039 60.0525 75.1725 62.8633 71.6955C66.2101 67.5563 67.9053 62.7469 68.2285 57.5631C69.1825 42.2992 64.9999 28.4821 55.5901 16.4272C52.2433 12.1382 47.702 9.46148 42.0214 8.91747C33.6168 8.10934 28.0702 11.0896 24.5105 19.0171C20.4068 28.1628 17.667 37.7185 16.6184 47.7157C16.2281 51.4291 15.8733 55.1466 15.5225 58.8679C14.9627 64.7732 16.7761 70.2764 18.3963 75.819C20.5684 83.2419 23.9625 90.2668 25.4802 97.8987C26.312 102.081 26.9941 106.28 27.2937 110.533C27.3252 110.986 27.2463 111.463 27.5893 111.842C28.8035 111.795 28.5709 110.801 28.5709 110.139C28.5788 106.599 28.6222 103.059 28.9967 99.5347C29.0519 99.0143 29.0243 98.4861 29.0913 97.9657C30.0137 90.6019 30.8376 89.4311 37.5826 86.3917C42.187 84.3181 46.7716 82.2012 51.4509 80.2933C52.7951 79.7453 53.5875 79.6625 53.6624 81.3813L53.6742 81.3852Z" fill="#AFEEEE"/>
<path d="M53.6743 81.3851C53.5876 80.5061 54.313 79.8398 54.4233 78.7676C51.3051 79.5954 48.5653 80.9476 45.7782 82.142C42.2264 83.6637 38.8363 85.5953 35.2174 86.908C30.8377 88.5006 29.4856 91.8948 28.8982 95.9631C28.2438 100.504 28.023 105.069 28.0703 109.658C28.0782 110.395 28.4015 111.258 27.6012 111.846C27.8378 116.017 28.0743 120.187 28.3108 124.358C28.571 124.906 28.4369 125.793 29.3633 125.785C30.0217 125.777 30.3922 125.233 30.6366 124.697C34.1372 117.065 39.3842 110.458 43.3381 103.09C43.4761 102.314 43.618 101.537 43.756 100.761C43.8427 100.315 44.0161 99.8539 43.9452 99.4124C43.3263 95.6319 45.3091 92.8015 47.3511 89.9908C48.8807 87.8857 50.6468 85.9619 52.1172 83.8135C52.6375 83.0053 53.1539 82.1972 53.6743 81.3891V81.3851Z" fill="#A0DADA"/>
<path d="M43.3382 103.09C41.7416 103.733 41.5642 105.444 40.7876 106.658C37.0505 112.508 33.0572 118.216 30.1913 124.583C29.2964 126.574 28.9101 124.654 28.307 124.362C28.0862 125.261 27.9916 126.144 28.5868 127.161C29.4817 125.923 30.5815 126.041 31.8272 126.392C35.9901 127.571 40.0859 127.496 44.0083 125.45C44.6154 125.135 45.3999 125.001 45.187 123.952C43.7875 117.069 43.8349 110.052 43.3342 103.086L43.3382 103.09Z" fill="#AFEEEE"/>
<path d="M52.1171 83.8135C48.9911 86.4153 46.9097 89.8331 44.6587 93.1405C42.9912 95.5885 43.2947 98.1312 43.756 100.761C45.5575 97.2324 47.3984 93.72 49.1527 90.1642C50.1855 88.0709 51.4904 86.096 52.1211 83.8135H52.1171Z" fill="#AFEEEE"/>
<path d="M37.0703 9.65067C36.9008 9.54029 36.8535 9.4851 36.7983 9.47721C35.2609 9.27222 33.6209 10.7742 32.5013 10.0843C31.3897 9.39837 30.9166 7.64019 29.8286 6.55611C26.261 3.00427 21.9444 0.89919 17.0286 0.138363C11.5806 -0.705247 7.79219 2.36172 7.44134 7.89249C7.3349 9.56789 6.77908 10.7978 5.78173 12.1145C0.80679 18.6741 -0.986814 26.0538 0.515128 34.1903C1.42575 39.1297 3.2982 43.7499 5.18647 48.3661C5.21012 48.4252 5.23779 48.4883 5.26539 48.5474C5.86459 49.7892 6.59387 51.0191 8.21802 50.4593C9.80669 49.9114 9.76324 48.508 9.41239 47.148C8.69099 44.353 7.87897 41.5857 7.20093 38.7828C6.05771 34.0602 4.96572 29.3336 5.79357 24.3941C6.13259 22.364 6.80273 20.4599 7.55568 18.5717C8.03267 17.3851 8.36385 16.2537 10.2561 16.5178C11.691 16.7189 12.0103 15.2721 12.0182 13.983C12.0339 11.535 13.0904 10.5179 15.5227 11.0619C18.7946 11.7991 21.9838 12.8044 23.738 16.1512C24.4161 17.4482 25.6342 17.322 26.5763 16.4666C28.9574 14.3102 31.7366 12.9068 34.6971 11.7558C35.6826 11.3734 36.6682 10.782 37.0742 9.65461L37.0703 9.65067ZM13.7212 6.99369C13.3546 6.85177 12.4676 7.6599 12.2271 6.7138C12.0497 6.01999 12.6134 5.35771 13.1732 4.86495C14.1311 4.02134 15.2586 3.82423 16.4886 4.03711C20.6948 4.77034 24.5265 6.41814 28.0074 8.86619C30.688 10.7505 30.6604 10.7899 28.0192 12.4299C27.9088 12.5008 27.7827 12.556 27.688 12.6427C26.7341 13.5376 26.1427 13.4075 25.1887 12.3628C22.1927 9.09089 18.3926 7.30117 13.7251 6.98975L13.7212 6.99369Z" fill="#D15EA8"/>
<path d="M23.0084 35.9249C21.5222 42.654 21.9125 49.0718 21.6444 55.7537C20.5248 54.9337 20.0439 53.5027 18.6129 53.6289C17.0322 53.7668 17.0637 55.3279 16.4448 56.3174C16.2359 56.2858 16.0269 56.2543 15.818 56.2228C15.818 52.8562 15.818 49.4857 15.818 46.1192C15.818 39.4412 17.7338 33.1772 19.9651 26.9842C20.3159 26.0065 21.0137 24.5795 20.0518 24.0986C19.0032 23.5782 18.5341 25.1353 18.0019 25.9435C13.0703 33.4768 11.1545 41.7552 11.939 50.6959C12.1006 52.5251 12.1834 54.3621 12.3529 56.1952C12.4948 57.7444 13.2162 58.8837 14.927 58.8206C15.9678 58.7812 15.96 59.2818 15.9008 60.0111C15.6367 63.082 17.2017 65.5695 18.5499 68.1122C19.019 68.9952 19.8271 69.5353 20.8441 69.0228C21.9676 68.4591 21.9046 67.4696 21.4552 66.4801C20.9112 65.2857 20.3159 64.1149 19.7719 62.9244C19.3107 61.9191 18.9716 60.8863 19.4605 59.4553C20.174 60.5473 20.6905 61.4224 21.2936 62.2345C21.8258 62.9559 22.5432 63.4447 23.5011 63.1372C24.3999 62.8494 24.6049 62.0847 24.6128 61.249C24.6877 53.6998 24.7902 46.1546 24.191 38.6173C24.1279 37.8368 23.99 37.0681 23.0163 35.9328L23.0084 35.9249Z" fill="#D15EA8"/>
<path d="M34.9019 12.1498C35.5208 13.1709 36.4236 13.4744 37.1647 13.9356C40.1725 15.7963 42.6008 18.2562 44.7217 21.0472C45.3051 21.8119 45.9832 22.5373 44.3511 22.9591C43.5193 23.1759 43.1251 23.9407 43.2197 24.8237C43.3143 25.7028 43.8899 26.2823 44.7098 26.4715C45.924 26.7475 47.1619 26.9209 48.3957 27.0825C53.0159 27.6936 57.6399 28.2888 62.264 28.8841C65.1536 29.2546 66.7659 27.9104 66.9039 24.9893C67.0064 22.7856 66.2456 20.854 64.8738 19.1707C60.5256 13.8449 54.5967 11.1446 48.1907 9.33124C45.5416 8.58224 42.8019 8.12102 40.0188 8.40879C39.3959 8.47186 38.3986 8.44032 38.3552 9.1499C38.304 10.0172 39.3644 9.80035 39.9202 9.90285C47.0436 11.2156 53.3116 14.4323 59.1617 18.5518C60.9987 19.8448 62.5834 21.4335 63.3009 23.6726C63.4585 24.1654 63.699 24.7291 63.3127 25.1746C62.8594 25.6989 62.3311 25.21 61.8659 25.0839C58.184 24.0905 54.4745 23.2469 50.6546 23.0182C49.5705 22.9552 48.9239 22.5491 48.3405 21.5675C45.9752 17.5702 42.6757 14.5348 38.438 12.5756C37.3815 12.0868 36.2856 11.799 34.9059 12.1538L34.9019 12.1498Z" fill="#D15EA8"/>
<path d="M32.4932 19.7858C31.2238 19.565 30.0649 19.2654 29.2883 20.4008C28.4683 21.5992 29.371 22.5019 29.9347 23.4322C30.4078 24.2167 30.8572 25.0406 31.4604 25.7187C32.2291 26.578 33.2698 26.8067 33.9163 25.6792C34.5668 24.5478 35.0516 25.013 35.7257 25.5176C36.2421 25.9079 36.7743 26.3612 37.3696 26.5465C38.6074 26.9328 39.6521 25.9828 39.1396 24.8474C37.7441 21.7568 35.9386 18.9461 32.6391 17.527C31.9847 17.2431 31.2751 17.0854 30.4433 17.5782C30.8454 18.5164 32.0674 18.6544 32.4932 19.7858Z" fill="#D15EA8"/>
<path d="M56.5403 41.231C57.2814 41.3571 57.6599 41.0102 57.8767 40.4977C58.2315 39.6581 57.0094 37.0484 56.0278 36.394C55.5193 36.055 55.0266 36.0432 54.6126 36.4334C54.4116 36.6227 54.2224 37.1154 54.3288 37.2968C54.9477 38.369 55.2591 39.5556 55.6928 40.6948C55.8465 41.0969 56.2249 41.2507 56.5403 41.231Z" fill="#D15EA8"/>
<path d="M40.7047 41.4712C40.6771 40.5724 40.8664 39.4371 39.5615 39.3898C38.6903 39.3582 38.3315 40.2176 38.5365 40.9627C38.7691 41.8063 38.2094 43.2333 39.6403 43.3437C40.8861 43.4422 40.7165 42.3187 40.7047 41.4751V41.4712Z" fill="#D15EA8"/>
<path d="M51.3789 64.4858C49.2286 64.4858 47.1558 64.6442 45.1516 63.7331C44.0734 63.243 42.9749 62.7615 42.1204 61.9185C41.4949 61.3015 40.9727 60.5969 40.5223 59.8462" stroke="#D15EA8" stroke-width="3" stroke-linecap="round"/>
<path d="M98.0654 21.9106C122.07 22.7679 145.864 23.283 169.866 22.2769C192.736 21.3183 215.624 19.9324 238.517 19.9324" stroke="#D15EA8" stroke-width="9" stroke-linecap="round"/>
<path d="M98 39.9782C127.599 39.9782 157.199 39.9782 186.799 39.9782C208.149 39.9782 229.552 40.423 250.87 38.9891C255.954 38.6471 261.043 38 266.146 38" stroke="#D15EA8" stroke-width="3" stroke-linecap="round"/>
<path d="M98.6592 50.5283C157.34 50.9475 216.039 51.8471 274.718 51.8471" stroke="#D15EA8" stroke-width="3" stroke-linecap="round"/>
<path d="M99.9785 62.3976C148.97 62.3976 197.963 62.1874 246.95 62.9105C259.786 63.1 272.588 63.0505 285.415 62.5442C287.63 62.4567 292.427 63.1995 293.841 61.0789" stroke="#D15EA8" stroke-width="3" stroke-linecap="round"/>
<path d="M103.275 74.926C155.417 71.9676 207.989 73.6072 260.211 73.6072C277.575 73.6072 294.939 73.6072 312.304 73.6072" stroke="#D15EA8" stroke-width="3" stroke-linecap="round"/>
<path d="M93.2969 100.326H126.267" stroke="#D15EA8" stroke-width="3" stroke-linecap="round"/>
<path d="M156.599 99.6665C169.133 99.6665 181.717 99.6665 194.184 99.6665" stroke="#D15EA8" stroke-width="3" stroke-linecap="round"/>
<path d="M222.538 98.3479C234.652 98.3479 246.763 97.6885 258.805 97.6885" stroke="#D15EA8" stroke-width="3" stroke-linecap="round"/>
<path d="M279.246 96.3697C292.419 95.9378 305.755 92.4133 318.81 92.4133" stroke="#D15EA8" stroke-width="3" stroke-linecap="round"/>
<path d="M93.9541 101.154C94.6971 104.002 97.0499 108.464 96.1287 111.412C95.7194 112.722 99.1062 111.931 99.5334 111.917C102.969 111.805 106.465 111.683 109.901 111.874C114.372 112.122 118.643 113.016 123.124 113.016C124.12 113.016 124.997 112.732 125.98 112.642C128.252 112.436 128.748 112.96 128.748 110.446C128.748 109.01 129.463 102.896 128.352 102.34" stroke="#D15EA8" stroke-width="3" stroke-linecap="round"/>
<path d="M155.633 98.7822C155.633 101.612 155.993 104.396 156.028 107.217C156.036 107.823 155.737 110.758 156.643 111.017C160.672 112.168 165.433 111.88 169.559 111.808C174.449 111.723 179.361 111.52 184.1 110.248C187.642 109.298 190.744 108.667 194.38 108.667C195.554 108.667 195.242 101.656 194.38 100.364" stroke="#D15EA8" stroke-width="3" stroke-linecap="round"/>
<path d="M221.662 98.782C221.756 102.161 222.126 105.971 223.244 109.194C224.266 112.141 229.157 110.458 231.613 110.248C239.141 109.605 246.668 109.57 254.215 109.457C256.193 109.428 261.596 109.514 261.596 106.865C261.596 105.262 260.717 104.33 260.409 102.868C260.068 101.248 259.957 99.4585 259.223 97.9912" stroke="#D15EA8" stroke-width="3" stroke-linecap="round"/>
<path d="M277.806 96.0144C278.55 99.8688 279.097 103.671 279.409 107.568C279.555 109.396 289.571 108.919 290.897 108.974C302.509 109.458 314.46 108.466 325.581 105.13C327.872 104.443 325.334 95.6023 324.285 94.1034C322.446 91.4758 319.456 91.8108 316.553 92.456" stroke="#D15EA8" stroke-width="3" stroke-linecap="round"/>
<path d="M233.602 130.169C233.712 130.362 233.767 130.489 233.903 130.596C234.04 130.702 234.212 130.75 234.384 130.728C234.556 130.707 234.711 130.618 234.818 130.482C234.924 130.345 234.991 130.295 235.041 129.989C235.091 129.683 238.155 114.722 238.155 114.722C238.205 114.483 238.187 114.235 238.103 114.006C238.019 113.777 237.873 113.576 237.68 113.426C237.488 113.276 237.257 113.183 237.015 113.158C236.772 113.133 236.527 113.176 236.308 113.283C236.308 113.283 222.47 120.052 222.281 120.138C222.092 120.223 221.963 120.318 221.857 120.455C221.751 120.591 221.703 120.764 221.724 120.936C221.746 121.108 221.834 121.264 221.971 121.37C222.107 121.476 222.179 121.496 222.458 121.553C222.736 121.611 230.094 123.179 230.094 123.179C230.094 123.179 233.491 129.975 233.602 130.169Z" fill="#222222" stroke="#AFEEEE" stroke-width="2" stroke-linecap="round" stroke-linejoin="round"/>
<path d="M235 102C235.673 105.447 234.848 106.617 234.848 110.068" stroke="#A0DADA" stroke-width="2" stroke-linecap="round"/>
<path d="M244.083 103.242C242.813 105.048 241.344 106.609 240 108.337" stroke="#A0DADA" stroke-width="2" stroke-linecap="round"/>
<path d="M251 111C246.241 112.586 248.484 112.164 243.957 114.32" stroke="#A0DADA" stroke-width="2" stroke-linecap="round"/>
<path d="M243.957 119.583C244.796 119.643 248.641 119.841 249.018 120.595" stroke="#A0DADA" stroke-width="2" stroke-linecap="round"/>
<path d="M229.381 110.473C228.786 108.808 227.697 107.241 227.154 105.615" stroke="#A0DADA" stroke-width="2" stroke-linecap="round"/>
</svg>
