<svg width="959" height="532" viewBox="0 0 959 532" fill="none" xmlns="http://www.w3.org/2000/svg">
<path d="M4.5856 336.172C4.30325 348.913 6.2528 361.413 8.71329 373.859C9.20181 376.337 9.50211 378.861 9.80239 381.37C9.90547 382.217 10.0488 382.742 11.0438 382.845C15.1894 383.266 19.3351 383.741 23.4763 384.23C24.9597 384.405 25.6902 384.203 25.2734 382.361C24.6953 379.811 24.9284 377.18 25.1569 374.581C25.4796 370.928 27.223 368.396 30.9339 367.558C34.9272 366.652 38.9025 365.604 42.9406 365.003C55.6599 363.103 61.9657 353.642 63.2609 342.267C64.1842 334.168 62.9517 326.209 61.8492 318.245C60.6526 309.608 59.3081 300.99 56.0184 292.833C53.8582 287.486 51.3439 282.346 47.3551 278.061C39.9199 270.075 29.1815 271.966 23.0415 278.07C18.3132 282.771 15.5749 288.575 13.1682 294.653C9.00464 305.176 6.70993 316.183 4.67072 327.235C4.13739 330.121 4.59008 333.191 4.59008 336.176L4.5856 336.172Z" fill="#AFEEEE"/>
<path d="M7.11801 311.338C6.87151 305.866 7.109 300.51 10.7123 296.002C11.8911 294.527 13.2222 293.227 15.0149 292.519C15.9919 292.134 16.942 291.793 17.8204 292.9C18.4165 293.649 19.3487 293.823 20.2585 293.317C20.8994 292.958 21.2131 292.367 21.1414 291.632C21.0428 290.592 20.2585 290.404 19.4025 290.229C17.7353 289.884 18.2328 288.459 17.8518 287.114C25.2244 290.292 32.8748 289.144 40.2831 290C45.0517 290.552 49.7755 291.166 53.9391 293.823C54.4545 294.155 54.9923 294.496 55.5794 294.047C56.1441 293.617 56.1665 292.918 55.8752 292.412C53.6433 288.539 53.9211 283.6 50.3716 280.028C53.2264 279.397 52.0164 278.133 51.0349 276.954C49.0584 274.579 46.4187 273.203 43.5638 272.212C39.7319 270.881 35.7699 270.164 31.7184 270.012C24.5252 269.743 18.2014 274.117 15.6558 280.902C14.607 283.704 13.6479 286.478 13.9482 289.534C14.0468 290.543 13.7869 291.332 12.8636 292.022C8.22498 295.495 6.19919 300.367 5.94373 305.978C5.73757 310.505 4.84122 315.049 5.9527 319.576C6.04682 319.966 6.03339 320.315 5.69278 320.58C4.13312 321.803 3.61323 323.591 3.10679 325.783C1.90119 323.793 1.47096 321.92 1.39477 320.06C1.10346 312.714 2.02667 305.601 5.89892 299.134C6.32469 298.426 6.746 297.696 6.65189 296.835C6.53088 295.746 5.93929 294.975 4.8054 294.948C3.5998 294.921 2.98577 295.715 3.15608 296.844C3.42499 298.641 2.84685 300.241 2.27318 301.855C0.233977 307.582 -0.182851 313.512 0.0636461 319.522C0.0905367 320.19 0.229487 320.853 0.359458 321.512C1.1124 325.339 3.07993 328.75 4.08832 332.501C4.45135 333.855 5.44179 334.984 6.46812 335.988C7.00145 336.508 7.5617 337.104 8.40428 336.839C9.26926 336.566 9.36335 335.768 9.39024 335.006C9.41713 334.101 9.4037 333.245 8.39082 332.73C5.01156 331 3.82388 326.491 5.86309 323.278C6.10062 322.906 6.30679 322.422 6.8222 322.44C7.36001 322.462 7.45413 323.004 7.61548 323.394C9.19306 327.199 10.3897 331.116 11.165 335.163C11.3174 335.961 11.2322 337.064 12.3885 336.88C13.491 336.705 13.1594 335.629 13.1191 334.836C12.7829 327.894 12.7829 320.934 13.5852 314.041C14.0199 310.312 15.9067 306.834 16.3863 303.029C16.6104 301.259 17.1482 299.533 17.4978 297.776C17.6412 297.05 17.798 296.235 16.9286 295.809C16.095 295.401 15.5258 295.952 14.9745 296.481C12.9577 298.417 11.3667 300.627 10.3673 303.275C9.34545 305.982 8.20259 308.64 7.11352 311.325L7.11801 311.338ZM53.7598 292.049C50.9184 291.107 48.4086 290.171 45.7688 289.642C39.3823 288.351 32.8568 288.297 26.421 287.419C24.0456 287.096 21.9213 286.402 20.3885 284.412C19.5997 283.39 18.6541 282.735 17.3096 283.511C16.6104 283.914 16.0367 283.753 16.1532 282.901C16.5924 279.782 18.6541 277.59 20.5454 275.26C21.7913 273.723 22.961 274.978 24.1577 274.951C24.8299 274.933 25.5022 275.009 26.17 275.031C31.9291 275.193 37.6299 275.878 43.2769 277.012C46.0915 277.581 48.2651 279.504 49.4752 282.673C46.5576 279.903 43.2366 278.697 39.6109 278.204C33.8294 277.42 28.012 277.156 22.1857 277.165C21.4597 277.165 20.7067 277.366 20.012 277.613C19.1246 277.927 18.3986 278.536 18.4524 279.571C18.5106 280.701 19.4473 280.925 20.3571 281.113C22.2081 281.503 24.077 281.342 25.9415 281.351C26.4613 281.351 27.1156 281.36 27.1784 280.701C27.2546 279.863 26.5061 279.858 25.9235 279.786C24.2966 279.58 22.6653 279.397 20.6036 279.155C21.2311 278.697 21.388 278.505 21.5717 278.469C22.1544 278.348 22.7504 278.218 23.342 278.209C29.3969 278.119 35.4294 278.352 41.3811 279.634C44.6484 280.338 47.2926 282.027 49.5021 284.483C50.2819 285.348 50.8601 286.195 50.506 287.486C50.1296 288.853 50.6001 289.92 52.1777 290C53.3833 290.063 53.6253 290.753 53.7553 292.058L53.7598 292.049ZM11.5818 328.835C5.84069 322.448 8.28771 302.428 15.3151 299.219C14.6294 303.105 14.8446 307.112 12.644 310.5C11.9 311.643 11.5639 312.719 11.5729 314.027C11.5998 318.948 11.5863 323.869 11.5863 328.839L11.5818 328.835ZM25.9459 272.934C31.2478 272.342 36.4871 272.257 41.2781 275.17C36.1509 274.574 31.0551 273.732 25.9459 272.934ZM48.7043 276.708C48.6147 276.891 48.5251 277.075 48.431 277.263C45.9167 275.807 43.4069 274.346 40.8926 272.889C43.8327 273.525 46.5889 274.502 48.6999 276.712L48.7043 276.708Z" fill="#D15EA8"/>
<path d="M49.0045 316.949C48.3143 320.996 49.9457 324.152 51.967 327.181C54.3602 330.771 59.2991 332.909 63.521 328.351C64.3815 327.419 65.3182 326.558 66.21 325.657C70.4139 321.409 70.8128 315.798 67.2677 310.912C66.963 310.491 66.6134 310.079 66.4207 309.608C65.3002 306.847 64.5249 306.493 61.7955 307.596C59.6532 308.461 57.5243 309.375 55.3686 310.204C52.8005 311.195 50.5462 312.548 49.2644 315.264C47.2297 312.817 45.065 314.547 43.0258 314.919C41.8382 315.134 40.8522 315.914 40.6146 313.897C40.5026 312.961 39.6286 312.347 38.5754 312.674C37.4595 313.019 37.1323 313.947 37.4012 315.004C37.7418 316.367 37.9928 317.805 38.6382 319.029C40.4667 322.511 40.6729 326.303 41.0762 330.072C41.2689 331.887 40.5384 333.111 38.804 333.693C34.5373 335.123 30.199 336.208 25.6634 336.078C22.6472 335.992 20.1822 334.729 18.5374 332.111C16.9464 329.57 15.566 326.921 14.9385 323.963C14.338 321.149 14.9117 319.392 17.4215 318.115C21.8002 315.892 26.2371 313.736 30.9654 312.306C31.5928 312.118 32.283 312.114 32.9463 312.069C33.4079 312.037 34.1071 312.598 34.255 311.813C34.3939 311.056 33.6096 310.899 33.0404 310.823C31.9693 310.675 30.9609 311.056 30.0018 311.441C25.78 313.14 21.5312 314.776 17.3946 316.663C13.6075 318.388 12.6394 320.902 13.8809 324.9C14.6831 327.473 15.8349 329.893 17.1391 332.25C19.0708 335.737 22.1363 337.297 25.9727 337.404C30.6472 337.534 35.1648 336.445 39.5973 335.109C42.0354 334.374 42.8062 332.972 42.7345 330.341C42.6449 326.899 42.134 323.506 41.4572 320.136C40.9732 317.729 41.7978 316.86 44.3031 317.129C45.0426 317.209 45.7821 317.424 46.5171 317.406C47.2431 317.389 47.9647 317.147 49.0135 316.94L49.0045 316.949ZM68.0251 317.447C68.7108 322.31 65.1613 325.039 61.8179 327.813C59.3753 329.839 56.4308 329.624 54.1585 327.378C52.321 325.563 50.9317 323.372 50.4476 320.848C49.9098 318.061 50.0174 315.112 52.7602 313.431C56.1753 311.343 59.9579 310.231 64.0588 310.514C64.8655 310.567 65.4616 310.814 65.9725 311.45C67.317 313.126 68.3478 314.901 68.0251 317.442V317.447Z" fill="#D15EA8"/>
<path d="M51.2094 350.486C48.8654 350.563 46.9338 350.903 45.0246 351.378C44.2716 351.567 43.5769 352.001 43.7786 352.92C43.9848 353.875 44.8094 353.884 45.5668 353.74C47.6509 353.346 49.5242 352.53 51.2139 350.482L51.2094 350.486Z" fill="#D15EA8"/>
<path d="M30.1185 317.187C30.244 318.025 30.6877 318.594 31.5527 318.558C32.4938 318.518 33.0585 317.935 32.9644 316.972C32.8837 316.12 32.2742 315.681 31.4361 315.726C30.5667 315.775 30.1723 316.358 30.1185 317.187Z" fill="#D15EA8"/>
<path d="M57.726 318.451C57.7574 319.289 58.1742 319.845 59.0302 319.916C59.8773 319.988 60.4778 319.544 60.5675 318.702C60.6661 317.752 60.1327 317.133 59.1826 317.088C58.3266 317.048 57.8694 317.613 57.726 318.451Z" fill="#D15EA8"/>
<path d="M751.687 445.385C748.573 442.204 745.309 439.172 742.498 435.695C739.151 431.556 737.456 426.747 737.133 421.563C736.179 406.299 740.361 392.482 749.771 380.427C753.118 376.138 757.659 373.461 763.34 372.917C771.744 372.109 777.291 375.089 780.851 383.017C784.955 392.163 787.694 401.718 788.743 411.716C789.133 415.429 789.488 419.146 789.839 422.868C790.399 428.773 788.585 434.276 786.965 439.819C784.793 447.242 781.399 454.267 779.881 461.899C779.049 466.081 778.367 470.279 778.068 474.533C778.036 474.986 778.115 475.463 777.772 475.842C776.558 475.795 776.79 474.801 776.79 474.139C776.783 470.599 776.739 467.059 776.365 463.535C776.309 463.014 776.337 462.486 776.27 461.966C775.348 454.602 774.524 453.431 767.779 450.392C763.174 448.318 758.59 446.201 753.91 444.293C752.566 443.745 751.774 443.662 751.699 445.381L751.687 445.385Z" fill="#AFEEEE"/>
<path d="M751.687 445.385C751.774 444.506 751.048 443.84 750.938 442.768C754.056 443.595 756.796 444.948 759.583 446.142C763.135 447.664 766.525 449.595 770.144 450.908C774.524 452.501 775.876 455.895 776.463 459.963C777.118 464.504 777.338 469.069 777.291 473.658C777.283 474.395 776.96 475.258 777.76 475.846C777.524 480.017 777.287 484.187 777.05 488.358C776.79 488.906 776.924 489.793 775.998 489.785C775.34 489.777 774.969 489.233 774.725 488.697C771.224 481.065 765.977 474.458 762.023 467.09C761.885 466.314 761.743 465.537 761.605 464.761C761.519 464.315 761.345 463.854 761.416 463.412C762.035 459.632 760.052 456.801 758.01 453.991C756.481 451.886 754.715 449.962 753.244 447.813C752.724 447.005 752.207 446.197 751.687 445.389V445.385Z" fill="#A0DADA"/>
<path d="M762.023 467.09C763.62 467.733 763.797 469.444 764.574 470.658C768.311 476.508 772.304 482.216 775.17 488.583C776.065 490.574 776.451 488.654 777.054 488.362C777.275 489.261 777.37 490.144 776.774 491.161C775.88 489.923 774.78 490.041 773.534 490.392C769.371 491.571 765.275 491.496 761.353 489.45C760.746 489.135 759.961 489.001 760.174 487.952C761.574 481.069 761.526 474.052 762.027 467.086L762.023 467.09Z" fill="#AFEEEE"/>
<path d="M753.244 447.813C756.37 450.415 758.452 453.833 760.703 457.141C762.37 459.589 762.067 462.131 761.605 464.761C759.804 461.232 757.963 457.72 756.209 454.164C755.176 452.071 753.871 450.096 753.24 447.813H753.244Z" fill="#AFEEEE"/>
<path d="M768.291 373.651C768.461 373.54 768.508 373.485 768.563 373.477C770.1 373.272 771.74 374.774 772.86 374.084C773.972 373.398 774.445 371.64 775.533 370.556C779.1 367.004 783.417 364.899 788.333 364.138C793.781 363.295 797.569 366.362 797.92 371.892C798.026 373.568 798.582 374.798 799.58 376.114C804.555 382.674 806.348 390.054 804.846 398.19C803.936 403.13 802.063 407.75 800.175 412.366C800.151 412.425 800.124 412.488 800.096 412.547C799.497 413.789 798.767 415.019 797.143 414.459C795.555 413.911 795.598 412.508 795.949 411.148C796.67 408.353 797.482 405.586 798.16 402.783C799.304 398.06 800.396 393.334 799.568 388.394C799.229 386.364 798.559 384.46 797.806 382.572C797.329 381.385 796.997 380.254 795.105 380.518C793.67 380.719 793.351 379.272 793.343 377.983C793.327 375.535 792.271 374.518 789.839 375.062C786.567 375.799 783.378 376.804 781.623 380.151C780.945 381.448 779.727 381.322 778.785 380.467C776.404 378.31 773.625 376.907 770.664 375.756C769.679 375.373 768.693 374.782 768.287 373.655L768.291 373.651ZM791.64 370.994C792.007 370.852 792.894 371.66 793.134 370.714C793.312 370.02 792.748 369.358 792.188 368.865C791.23 368.021 790.103 367.824 788.873 368.037C784.667 368.77 780.835 370.418 777.354 372.866C774.673 374.751 774.701 374.79 777.342 376.43C777.452 376.501 777.579 376.556 777.673 376.643C778.627 377.538 779.219 377.407 780.173 376.363C783.169 373.091 786.969 371.301 791.636 370.99L791.64 370.994Z" fill="#D15EA8"/>
<path d="M782.353 399.925C783.839 406.654 783.449 413.072 783.717 419.754C784.836 418.934 785.317 417.503 786.748 417.629C788.329 417.767 788.298 419.328 788.917 420.317C789.125 420.286 789.334 420.254 789.543 420.223C789.543 416.856 789.543 413.486 789.543 410.119C789.543 403.441 787.627 397.177 785.396 390.984C785.045 390.006 784.348 388.579 785.31 388.098C786.358 387.578 786.827 389.135 787.359 389.943C792.291 397.477 794.207 405.755 793.422 414.696C793.261 416.525 793.178 418.362 793.008 420.195C792.866 421.744 792.145 422.884 790.434 422.821C789.394 422.781 789.401 423.282 789.461 424.011C789.725 427.082 788.16 429.569 786.811 432.112C786.342 432.995 785.534 433.535 784.517 433.023C783.394 432.459 783.457 431.469 783.906 430.48C784.45 429.286 785.045 428.115 785.589 426.924C786.051 425.919 786.39 424.886 785.901 423.455C785.187 424.547 784.671 425.422 784.068 426.234C783.536 426.956 782.818 427.445 781.86 427.137C780.961 426.849 780.756 426.085 780.749 425.249C780.674 417.7 780.571 410.155 781.17 402.617C781.233 401.837 781.371 401.068 782.345 399.933L782.353 399.925Z" fill="#D15EA8"/>
<path d="M770.459 376.15C769.841 377.171 768.938 377.475 768.197 377.936C765.189 379.796 762.761 382.256 760.64 385.047C760.056 385.812 759.378 386.537 761.01 386.959C761.842 387.176 762.236 387.941 762.142 388.824C762.047 389.703 761.471 390.282 760.651 390.472C759.437 390.748 758.199 390.921 756.966 391.083C752.345 391.694 747.721 392.289 743.097 392.884C740.208 393.255 738.595 391.911 738.457 388.989C738.355 386.786 739.116 384.854 740.488 383.171C744.836 377.845 750.765 375.145 757.171 373.331C759.82 372.582 762.559 372.121 765.343 372.409C765.965 372.472 766.963 372.44 767.006 373.15C767.057 374.017 765.997 373.8 765.441 373.903C758.318 375.216 752.05 378.432 746.2 382.552C744.363 383.845 742.778 385.434 742.06 387.673C741.903 388.166 741.662 388.729 742.049 389.175C742.502 389.699 743.03 389.21 743.495 389.084C747.177 388.091 750.887 387.247 754.707 387.018C755.791 386.955 756.437 386.549 757.021 385.568C759.386 381.57 762.686 378.535 766.923 376.576C767.98 376.087 769.076 375.799 770.455 376.154L770.459 376.15Z" fill="#D15EA8"/>
<path d="M772.868 383.786C774.138 383.565 775.296 383.265 776.073 384.401C776.893 385.599 775.99 386.502 775.427 387.432C774.954 388.217 774.504 389.041 773.901 389.719C773.132 390.578 772.092 390.807 771.445 389.679C770.795 388.548 770.31 389.013 769.636 389.518C769.119 389.908 768.587 390.361 767.992 390.547C766.754 390.933 765.709 389.983 766.222 388.847C767.617 385.757 769.423 382.946 772.722 381.527C773.377 381.243 774.086 381.085 774.918 381.578C774.516 382.516 773.294 382.654 772.868 383.786Z" fill="#D15EA8"/>
<path d="M760.829 435.979C760.1 435.837 759.303 435.782 758.578 435.53C756.461 434.793 754.522 433.622 752.208 433.338C751.096 433.204 750.418 432.136 750.465 430.827C750.493 430.058 750.595 429.333 751.364 429.045C752.07 428.781 752.649 429.207 753.024 429.79C753.276 430.18 753.414 430.661 753.997 430.579C756.363 430.232 758.144 431.876 760.257 432.376C761.176 432.593 761.811 433.125 762.213 433.878C762.812 435.006 762.15 435.971 760.833 435.983L760.829 435.979Z" fill="#D15EA8"/>
<path d="M748.821 405.231C748.08 405.357 747.701 405.01 747.485 404.498C747.13 403.658 748.352 401.048 749.334 400.394C749.842 400.055 750.335 400.043 750.749 400.433C750.95 400.623 751.139 401.115 751.033 401.297C750.414 402.369 750.102 403.555 749.669 404.695C749.515 405.097 749.136 405.251 748.821 405.231Z" fill="#D15EA8"/>
<path d="M764.657 405.471C764.684 404.573 764.495 403.437 765.8 403.39C766.671 403.358 767.03 404.218 766.825 404.963C766.592 405.806 767.152 407.233 765.721 407.344C764.475 407.442 764.645 406.319 764.657 405.475V405.471Z" fill="#D15EA8"/>
<path d="M940.916 278.917C941.114 281.226 940.975 283.529 940.754 285.827C940.459 288.885 940.096 291.938 939.769 294.995C939.584 296.731 939.472 298.479 938.501 300.02C938.284 300.364 938.098 300.609 937.634 300.645C933.59 300.954 929.546 301.246 925.487 301.198C924.297 301.183 924.334 301.207 924.537 299.992C925.288 295.495 925.933 290.985 925.72 286.405C925.558 282.928 924.815 279.621 922.898 276.635C921.475 274.419 920.186 272.118 918.429 270.127C915.658 266.987 912.054 265.18 908.258 263.663C907.103 263.203 905.964 262.705 904.794 262.287C901.564 261.131 899.889 258.716 899.238 255.478C898.612 252.371 898.349 249.219 898.136 246.061C897.931 243.046 897.773 240.034 897.789 237.013C897.823 230.812 898.497 224.674 899.607 218.585C901.207 209.808 903.592 201.239 906.901 192.949C908.693 188.462 911.056 184.264 914.57 180.889C919.099 176.541 924.535 174.011 930.846 173.657C938.146 173.246 944.426 175.677 949.45 180.996C952.798 184.54 954.539 188.871 954.704 193.77C954.873 198.767 954.08 203.673 953.191 208.569C951.689 216.848 949.188 224.868 946.848 232.928C946.025 235.766 945.284 238.629 944.62 241.51C944.581 241.677 944.583 241.855 944.563 242.047C944.656 242.015 944.718 242.01 944.757 241.976C945.017 241.764 944.999 241.188 945.449 241.284C945.906 241.384 945.84 241.907 945.909 242.26C946.16 243.534 945.892 244.805 945.771 246.062C945.438 249.533 945.179 253.017 944.588 256.46C943.788 261.12 942.974 265.777 942.168 270.436C941.821 272.444 941.478 274.455 941.135 276.463C940.619 276.237 940.776 275.762 940.772 275.383C940.733 272.275 940.888 269.172 941.101 266.071C941.539 259.715 942.442 253.413 943.249 247.101C943.351 246.308 943.585 245.536 943.671 244.549C942.767 246.039 942.003 247.417 941.105 248.71C938.469 252.507 934.844 255.145 930.908 257.4C926.655 259.838 921.985 261.2 917.293 262.479C916.578 262.673 915.849 262.822 915.162 263.103C914.231 263.483 914.159 263.853 914.844 264.607C916.315 266.231 917.899 267.76 919.197 269.529C922.565 274.117 925.547 278.902 926.678 284.607C927.469 288.597 928.001 292.611 927.914 296.688C927.907 297.015 927.868 297.337 927.825 297.661C927.72 298.477 927.82 298.625 928.648 298.607C931.017 298.555 933.38 298.434 935.713 297.976C935.829 297.952 935.946 297.931 936.062 297.908C938.779 297.389 938.171 297.817 938.395 295.266C938.852 290.038 939.581 284.851 940.397 279.672C940.447 279.361 940.36 278.909 940.909 278.918L940.916 278.917Z" fill="#AFEEEE"/>
<path d="M940.916 278.917C940.404 279.775 940.477 280.771 940.328 281.703C939.86 284.639 939.456 287.585 939.099 290.537C938.846 292.614 938.681 294.702 938.541 296.789C938.5 297.406 938.4 297.758 937.705 297.867C935.64 298.187 933.604 298.662 931.495 298.721C930.407 298.751 929.315 298.822 928.223 298.863C927.608 298.886 927.414 298.632 927.509 298.079C927.884 295.866 927.676 293.651 927.477 291.449C926.922 285.299 925.494 279.432 922.087 274.133C919.948 270.804 917.522 267.744 914.785 264.908C913.63 263.709 913.708 263.211 915.354 262.776C918.527 261.938 921.66 260.989 924.758 259.916C929.253 258.36 933.256 255.969 936.91 252.935C939.652 250.657 941.555 247.766 943.276 244.718C943.349 244.588 943.408 244.451 943.484 244.325C943.585 244.156 943.664 243.889 943.925 244.014C944.101 244.097 944.039 244.325 944.007 244.497C943.808 245.566 943.562 246.629 943.418 247.707C943.125 249.893 942.888 252.087 942.622 254.278C942.365 256.379 942.097 258.481 941.845 260.583C941.681 261.956 941.464 263.327 941.398 264.705C941.227 268.304 940.968 271.901 941.025 275.508C941.03 275.826 940.938 276.162 941.135 276.461C941.06 277.281 940.986 278.099 940.913 278.918L940.916 278.917Z" fill="#A0DADA"/>
<path d="M944.176 243.379C944.167 243.4 944.156 243.423 944.146 243.445C944.122 243.415 944.099 243.384 944.076 243.352C944.096 243.34 944.121 243.315 944.135 243.32C944.153 243.327 944.163 243.358 944.176 243.377V243.379Z" fill="#A0DADA"/>
<path d="M937.352 218.738C936.369 217.307 935.076 216.176 933.771 215.061C927.21 209.46 923.84 202.133 922.383 193.815C921.599 189.337 921.848 184.842 922.511 180.363C922.865 177.978 923.932 175.855 924.875 173.685C925.063 173.253 925.414 173.004 925.872 173.276C926.333 173.548 926.296 173.993 925.997 174.349C923.466 177.365 923.02 181.031 922.686 184.748C921.978 192.606 923.644 199.941 927.485 206.803C929.004 209.515 930.912 211.919 933.231 213.994C934.657 215.271 936.113 216.512 937.516 218C937.776 216.866 937.594 215.92 937.36 214.981C936.97 213.425 936.428 211.919 935.793 210.45C932.393 202.596 930.405 194.35 928.943 185.953C928.501 183.414 928.136 180.868 927.928 178.295C927.787 176.571 928.083 175.003 929.093 173.575C929.471 173.038 929.806 172.976 930.426 173.252C933.631 174.674 935.604 177.194 936.952 180.322C938.876 184.785 939.904 189.504 940.955 194.215C942.179 199.708 943.331 205.215 943.734 210.847C944.001 214.542 944.177 218.237 943.868 222.058C944.156 221.774 944.175 221.495 944.25 221.238C947.762 209.154 947.186 197.181 943.254 185.306C942.474 182.948 941.78 180.551 940.603 178.343C940.47 178.094 940.367 177.836 940.621 177.621C940.88 177.4 941.119 177.564 941.336 177.736C942.26 178.474 943.185 179.214 944.167 179.998C944.186 179.641 943.962 179.468 943.825 179.276C943.075 178.211 942.287 177.172 941.446 176.173C938.499 172.663 934.758 171.214 930.224 171.788C929.349 171.898 928.456 171.904 927.651 172.386C927.256 172.622 926.79 172.553 926.642 172.037C926.498 171.539 926.809 171.201 927.291 171.192C929.829 171.137 932.368 170.714 934.9 171.333C937.095 171.87 938.955 172.963 940.559 174.521C941.515 175.453 942.381 176.47 943.151 177.562C944.572 179.571 946.268 181.367 947.759 183.297C950.223 186.485 952.462 189.915 953.09 194.071C953.138 194.389 953.173 194.709 953.406 195.081C953.543 192.542 953.333 190.105 953.221 187.666C953.191 186.985 953.123 186.307 953.058 185.628C952.805 183.074 951.059 181.419 949.457 179.682C949.258 179.466 948.973 179.317 948.897 179.013C948.769 178.501 948.971 178.127 949.467 177.969C949.853 177.846 950.319 178.005 950.303 178.387C950.252 179.676 951.32 180.327 951.818 181.296C951.88 181.417 951.95 181.568 952.245 181.554C952.202 181.154 952.153 180.757 952.121 180.361C952.101 180.119 952.106 179.849 952.401 179.785C952.711 179.717 952.786 179.987 952.866 180.211C952.885 180.267 952.898 180.327 952.899 180.386C952.956 182.822 953.993 184.938 954.976 187.102C956.434 190.312 957.028 193.774 957.477 197.243C958.085 201.952 958.326 206.686 958.056 211.43C957.939 213.477 957.45 215.465 956.763 217.399C956.657 217.7 956.484 217.986 956.513 218.324C957.709 218.352 957.82 218.717 957.505 219.974C955.935 226.235 952.841 231.87 950.332 237.747C948.351 242.387 947.09 247.199 946.917 252.274C946.857 254.07 946.82 255.828 947.783 257.445C947.977 257.77 948.061 258.161 948.194 258.522C948.312 258.839 948.431 259.205 948.025 259.362C947.668 259.5 947.524 259.161 947.387 258.892C946.864 257.863 946.325 256.838 945.819 255.802C945.676 255.51 945.301 255.131 945.724 254.868C946.178 254.584 946.133 255.318 946.537 255.412C946.544 253.342 946.601 251.306 946.821 249.281C947.302 244.853 948.633 240.66 950.392 236.592C951.779 233.384 953.207 230.194 954.578 226.979C955.394 225.063 955.865 223.04 956.246 220.997C956.353 220.422 956.351 219.848 956.273 219.268C956.017 219.297 955.985 219.451 955.924 219.581C954.672 222.341 953.132 224.935 951.407 227.427C951.175 227.763 950.958 228.141 950.856 228.531C950.216 231.017 949.29 233.377 947.915 235.551C947.876 235.614 947.881 235.704 947.837 235.942C948.55 235.457 949.151 235.046 949.754 234.639C950.017 234.461 950.291 234.148 950.614 234.431C950.997 234.765 950.659 235.087 950.472 235.363C948.24 238.638 946.206 242.076 942.9 244.501C942.991 244.535 943.018 244.556 943.041 244.551C943.448 244.476 944.044 244.119 944.161 244.739C944.295 245.449 943.589 245.287 943.148 245.355C942.211 245.499 941.279 245.666 940.34 245.804C940.027 245.851 939.703 245.778 939.685 245.39C939.671 245.054 939.961 244.978 940.244 244.949C941.569 244.809 942.636 244.135 943.635 243.315C945.273 241.971 948.616 237.571 949.419 235.61C948.137 236.391 946.957 237.004 946.05 238.034C944.764 239.494 943.327 240.758 941.496 241.507C941.151 241.647 940.749 241.964 940.479 241.496C940.19 240.998 940.719 240.865 941.007 240.646C942.566 239.465 944.119 238.276 945.774 237.228C945.948 237.118 946.121 236.988 946.249 236.83C947.853 234.849 948.902 232.591 949.572 230.135C947.876 231.86 946.629 234.017 944.506 235.297C946.059 233.969 947.182 232.254 948.564 230.78C950.541 228.67 950.586 226.157 950.392 223.545C950.383 223.427 950.332 223.315 950.317 223.198C950.259 222.698 950.367 222.25 950.959 222.259C951.489 222.268 951.616 222.697 951.576 223.155C951.473 224.363 951.358 225.568 951.247 226.769C951.397 226.874 951.468 226.778 951.534 226.683C954.117 222.889 956.301 218.907 957.3 214.373C957.653 212.778 957.848 211.163 957.845 209.527C957.83 203.44 957.498 197.389 955.979 191.457C955.508 189.618 954.868 187.847 953.881 186.197C954.183 187.922 954.555 189.636 954.777 191.372C955.707 198.652 955.924 205.894 953.666 213.023C952.332 217.236 950.23 221.005 947.451 224.421C947.246 224.674 947.042 224.891 946.715 224.699C946.443 224.541 946.318 224.235 946.34 223.936C946.372 223.493 946.679 223.573 946.999 223.637C947.439 223.726 947.602 223.315 947.821 223.068C950.339 220.218 951.907 216.846 953.116 213.288C954.991 207.77 955.197 202.082 954.815 196.336C954.663 194.069 954.43 191.813 953.893 189.595C953.893 190.347 953.888 191.101 953.893 191.855C953.933 196.957 953.856 202.048 952.77 207.066C952.22 209.602 951.18 211.961 950.182 214.337C950.077 214.588 949.974 214.897 949.635 214.764C949.238 214.609 949.419 214.287 949.514 214.008C950.419 211.312 951.249 208.595 951.996 205.852C953.342 200.903 953.515 195.972 951.71 191.089C950.798 188.622 949.375 186.489 947.659 184.477C946.087 182.635 944.33 181.045 942.461 179.545C942.234 179.361 941.985 179.205 941.668 178.981C941.592 179.491 941.816 179.845 941.947 180.203C944.071 185.937 945.755 191.786 946.599 197.86C947.177 202.025 947.124 206.188 946.8 210.365C946.412 215.358 945.113 220.161 943.788 224.957C943.539 225.862 943.525 226.513 944.27 227.302C945.749 228.867 946.439 232.205 944.087 234.552C942.013 236.622 939.534 237.689 936.691 238.06C936.43 238.094 936.124 238.163 936.008 237.827C935.9 237.513 936.156 237.346 936.367 237.182C936.508 237.073 936.648 236.961 936.799 236.871C937.016 236.739 937.258 236.458 937.498 236.73C937.706 236.965 937.29 237.1 937.267 237.397C937.986 237.452 938.647 237.246 939.303 237.031C941.519 236.307 943.336 235.032 944.577 233.04C945.625 231.358 945.066 228.574 943.411 227.254C943.347 227.693 943.302 228.085 943.231 228.47C943.187 228.716 943.071 228.954 942.769 228.887C942.529 228.833 942.493 228.607 942.509 228.385C942.513 228.326 942.525 228.268 942.529 228.209C942.639 226.683 942.636 226.673 941.138 227.064C939.447 227.505 938.11 228.515 936.903 229.729C936.666 229.968 936.467 230.391 936.04 230.185C935.631 229.989 935.788 229.576 935.818 229.23C935.944 227.843 936.065 226.456 936.191 225.069C936.229 224.663 936.271 224.276 935.661 224.309C933.481 224.429 931.276 224.119 929.118 224.717C928.698 224.832 928.433 224.978 928.273 225.366C927.4 227.476 925.92 229.187 924.596 231.006C923.009 233.184 920.792 233.272 918.455 233.055C917.95 233.008 917.54 232.658 917.152 232.327C915.868 231.225 914.662 230.048 913.603 228.721C912.345 227.147 911.058 225.597 909.769 224.048C908.062 222 907.075 219.595 906.381 217.067C906.099 216.035 905.48 215.269 904.784 214.552C904.171 213.921 902.754 214.639 902.547 215.754C902.19 217.696 901.274 219.377 900.287 221.034C899.137 222.963 897.378 224.197 895.41 225.161C895.074 225.327 894.674 225.401 894.295 225.435C892.545 225.593 891.864 224.918 892.022 223.186C892.285 220.296 892.54 217.403 892.849 214.519C893.061 212.539 893.822 211.917 895.822 211.897C897.798 211.878 899.717 212.129 901.562 212.883C902.434 213.238 903.332 213.567 904.319 213.418C904.648 213.368 904.964 213.475 905.213 213.727C905.295 213.811 905.414 213.973 905.469 213.953C906.646 213.562 906.511 214.407 906.605 215.1C906.669 215.562 907.071 215.47 907.39 215.417C910.852 214.824 914.351 214.784 917.847 214.796C920.365 214.805 922.789 215.308 925.037 216.514C927.526 217.851 928.99 219.86 929.126 222.727C929.15 223.226 929.343 223.401 929.795 223.454C931.772 223.687 933.759 223.619 935.743 223.637C936.134 223.641 936.264 223.44 936.25 223.084C936.205 222.021 936.289 220.954 936.076 219.894C935.825 218.646 936.152 218.367 937.372 218.722C937.297 219.313 937.153 219.901 937.169 220.486C937.203 221.72 936.68 223.006 937.498 224.18C937.628 224.366 937.543 224.599 937.281 224.654C937.093 224.694 936.945 224.738 936.92 224.962C936.791 226.21 936.485 227.448 936.584 228.897C936.986 228.602 937.264 228.401 937.537 228.195C938.787 227.251 940.157 226.459 941.723 226.397C942.829 226.354 943.059 225.828 943.13 224.96C943.137 224.871 943.151 224.784 943.162 224.695C943.921 218.804 943.621 212.925 942.899 207.061C942.227 201.587 940.971 196.221 939.705 190.863C938.793 187.001 937.811 183.149 936.021 179.573C934.762 177.06 933.028 175.039 930.252 174.091C929.756 173.922 929.493 173.979 929.214 174.374C928.685 175.119 928.376 175.928 928.362 176.851C928.326 179.321 928.669 181.753 929.098 184.175C930.261 190.737 931.561 197.265 933.743 203.586C934.932 207.032 936.515 210.324 937.717 213.763C938.258 215.31 938.675 216.878 938.535 218.543C938.505 218.889 938.592 219.339 938.137 219.426C937.664 219.517 937.496 219.11 937.365 218.735L937.352 218.738ZM915.676 215.356C914.346 215.429 913.016 215.505 911.684 215.577C910.32 215.651 908.985 215.911 907.64 216.133C906.721 216.284 906.648 216.679 906.893 217.442C907.697 219.947 908.755 222.302 910.553 224.277C911.449 225.263 912.292 226.299 913.13 227.336C914.305 228.791 915.557 230.165 917.024 231.34C919.188 233.076 922.037 232.863 923.931 230.816C925.769 228.83 927.103 226.543 928.036 224.016C928.796 221.959 928.204 219.629 926.582 218.164C925.917 217.563 925.166 217.095 924.361 216.709C921.599 215.386 918.667 215.205 915.676 215.358V215.356ZM892.406 223.026C892.207 224.95 893.169 225.126 894.796 224.795C895.347 224.683 895.854 224.413 896.322 224.098C899.512 221.934 901.571 219.083 901.957 215.128C902.028 214.408 901.804 214.129 901.292 213.809C899.619 212.769 897.753 212.529 895.849 212.463C894.273 212.408 893.567 212.932 893.365 214.485C892.993 217.325 892.721 220.179 892.406 223.026Z" fill="#D15EA8" stroke="#D15EA8"/>
<path d="M917.188 192.412C917.316 187.867 917.616 183.355 919.512 179.116C920.23 177.51 921.148 176.031 922.19 174.623C922.487 174.221 922.876 173.867 923.379 174.254C923.847 174.614 923.699 175.067 923.294 175.378C921.24 176.952 920.239 179.205 919.435 181.534C917.824 186.206 917.598 191.057 917.945 195.933C918.304 200.981 919.524 205.807 922.151 210.203C923.769 212.909 925.666 215.404 927.862 217.666C928.125 217.936 928.362 218.484 928.888 217.908C929.048 217.732 929.283 217.933 929.381 218.128C929.539 218.445 929.715 218.772 929.548 219.14C929.434 219.393 929.203 219.482 928.956 219.4C928.769 219.338 928.568 219.227 928.442 219.081C925.604 215.817 922.743 212.57 920.765 208.666C918.767 204.722 917.783 200.512 917.378 196.141C917.262 194.901 917.148 193.662 917.188 192.414V192.412Z" fill="#D15EA8" stroke="#D15EA8"/>
<path d="M898.937 201.571C898.959 202.034 898.985 202.862 899.044 203.687C899.08 204.169 899.085 204.609 899.757 204.802C900.223 204.938 900.383 205.563 900.415 206.081C900.451 206.671 900.433 207.265 900.429 207.857C900.429 208.163 900.401 208.496 900.02 208.54C899.643 208.585 899.524 208.268 899.457 207.973C899.112 206.474 898.649 204.986 898.575 203.449C898.287 197.494 899.158 191.765 902.021 186.441C904.541 181.757 908.259 178.465 913.257 176.618C915.064 175.949 916.896 175.366 918.754 174.866C918.896 174.827 919.038 174.779 919.184 174.763C919.648 174.708 920.059 174.827 920.105 175.35C920.152 175.869 919.76 176.061 919.305 176.104C910.039 176.979 903.924 181.887 900.753 190.578C899.501 194.014 899.064 197.583 898.937 201.577V201.571Z" fill="#D15EA8" stroke="#D15EA8"/>
<path d="M902.812 197.407C903.113 197.416 903.246 196.877 903.561 197.153C903.837 197.394 903.622 197.704 903.525 197.974C903.236 198.79 903.166 199.649 903.013 200.492C902.953 200.821 903.006 201.303 902.48 201.235C902.062 201.182 902.089 200.769 902.098 200.446C902.206 195.913 902.99 191.573 905.562 187.696C907.114 185.354 908.913 183.265 911.165 181.574C911.307 181.467 911.447 181.357 911.6 181.27C912.031 181.022 912.484 180.939 912.728 181.472C912.943 181.942 912.653 182.292 912.212 182.434C910.226 183.078 908.878 184.538 907.612 186.067C904.889 189.357 903.115 193.064 902.811 197.407H902.812Z" fill="#D15EA8" stroke="#D15EA8"/>
<path d="M943.788 254.553C943.706 255.508 944.051 256.2 944.399 256.883C944.991 258.039 945.596 259.187 946.549 260.107C946.78 260.329 947.051 260.653 946.722 260.939C946.345 261.268 946.172 260.843 945.977 260.605C944.682 259.02 943.62 257.29 942.738 255.446C942.559 255.071 942.399 254.69 942.413 254.263C942.427 253.805 942.584 253.41 943.101 253.406C943.619 253.405 943.777 253.805 943.802 254.258C943.809 254.404 943.788 254.552 943.788 254.552V254.553Z" fill="#D15EA8" stroke="#D15EA8"/>
<path d="M902.453 243.704C903.383 243.735 904.076 244.026 904.706 244.49C904.921 244.649 905.168 244.83 905.015 245.134C904.838 245.486 904.514 245.381 904.245 245.26C903.715 245.022 903.177 244.999 902.609 245.072C902.083 245.139 901.519 245.077 901.505 244.401C901.491 243.701 902.078 243.706 902.453 243.704Z" fill="#D15EA8"/>
<path d="M898.626 225.961C898.546 225.444 898.486 225.019 898.945 224.766C899.211 224.621 899.476 224.679 899.677 224.887C900.04 225.261 899.979 225.705 899.8 226.132C898.71 228.725 897.691 231.348 896.48 233.889C896.238 234.395 896.042 234.924 895.84 235.446C895.648 235.939 895.778 236.246 896.35 236.3C896.763 236.339 897.172 236.408 897.584 236.453C897.949 236.492 898.283 236.593 898.525 236.887C898.644 237.031 898.715 237.21 898.608 237.377C898.498 237.55 898.297 237.578 898.139 237.468C897.59 237.086 896.946 237.169 896.339 237.073C894.913 236.846 894.663 236.426 895.289 235.094C896.411 232.706 897.413 230.272 898.221 227.761C898.42 227.144 898.669 226.534 898.624 225.961H898.626Z" fill="#D15EA8" stroke="#D15EA8"/>
<path d="M118.259 249C118.259 246.582 118.244 244.334 118.259 242.09C118.34 231.391 117.15 220.785 115.906 210.187C115.316 205.17 112.67 201.802 107.686 200.396C104.238 199.423 100.745 198.623 97.3935 197.287C93.4684 195.723 91.681 192.849 91.215 188.778C90.695 184.24 91.1803 179.794 92.0085 175.364C93.3875 167.975 93.7881 160.436 95.4752 153.097C96.496 148.656 97.5591 144.222 98.6222 139.792C99.9473 134.272 102.721 129.46 105.71 124.701C108.976 119.499 113.907 118.599 119.284 119.136C130.651 120.275 139.025 126.107 143.913 136.424C150.438 150.201 152.642 164.696 149.753 179.786C148.004 188.929 142.9 195.441 134.118 198.805C129.569 200.547 127.458 203.926 127.026 208.642C125.955 220.361 126.764 232.017 128.063 243.662C128.14 244.357 128.394 245.161 127.523 245.508C124.507 246.706 121.626 248.274 118.252 249H118.259Z" fill="#A0DADA"/>
<path d="M102.065 143.787C104.399 142.146 106.338 140.811 108.246 139.438C114.217 135.141 120.176 130.822 126.146 126.525C127.539 125.521 129.018 124.604 130.708 125.946C131.945 126.927 131.882 128.934 130.673 130.713C130.536 130.915 130.411 131.127 130.267 131.355C130.887 131.769 131.258 131.221 131.703 131.116C132.967 130.818 134.185 130.736 135.133 131.758C136.015 132.709 135.929 133.806 135.445 134.91C134.673 136.685 134.192 138.513 134.099 140.759C136.588 139.304 137.775 137.226 138.828 135.148C139.956 132.922 140.975 130.62 141.064 128.058C141.107 126.864 141.548 125.79 143 125.644C144.608 125.48 145.392 126.51 145.731 127.796C146.329 130.042 145.837 132.25 145.166 134.406C144.19 137.532 142.707 140.415 140.401 142.87C135.586 147.995 131.605 147.529 128.499 141.326C127.207 142.4 125.963 143.47 124.679 144.489C123.426 145.481 122.123 146.413 120.453 146.701C117.635 147.185 116.067 145.753 116.394 143.019C116.472 142.362 116.905 141.751 116.632 140.856C113.764 143.038 110.806 144.918 107.766 146.682C106.428 147.458 105.054 148.152 103.552 148.595C101.659 149.151 99.7473 149.33 98.2762 147.831C96.6685 146.19 96.7231 144.194 97.6479 142.251C99.2712 138.838 101.421 135.73 103.927 132.854C108.379 127.748 113.518 123.406 119.606 120.146C120.636 119.594 122.154 118.408 122.876 119.355C123.645 120.362 121.776 121.008 120.999 121.705C114.432 127.588 108.457 133.959 103.361 141.061C102.889 141.721 102.366 142.362 102.065 143.784V143.787Z" fill="#D15EA8"/>
<path d="M125.092 190.976C123.967 190.976 123.271 190.989 122.572 190.976C121.57 190.951 121.081 190.183 121.007 189.149C120.93 188.033 121.468 187.414 122.442 187.219C125.233 186.662 128.017 187.356 130.808 187.248C131.666 187.215 131.993 188.016 132 188.929C132.007 190.009 131.311 190.37 130.59 190.403C128.604 190.49 126.66 191.13 125.089 190.976H125.092Z" fill="#D15EA8"/>
<path d="M131 171.616C131.259 170.194 131.45 168.871 133.124 169.01C134.185 169.097 135.161 169.318 134.978 170.822C134.79 172.344 134.396 174.013 132.71 174C131.654 173.991 131.068 172.751 131 171.62V171.616Z" fill="#D15EA8"/>
<path d="M120.007 170.475C120.017 169.352 120.052 167.951 120.949 168.001C122.145 168.068 121.868 169.934 121.985 171.086C122.084 172.063 121.692 173.115 120.941 172.99C120.046 172.844 119.972 171.635 120.007 170.475Z" fill="#D15EA8"/>
<path d="M220.006 119.038C218.835 119.135 217.654 119.161 216.495 119.343C215.161 119.551 214.789 119.053 214.793 117.753C214.804 109.334 214.685 100.908 215.265 92.5041C215.997 81.9492 217.059 71.4091 219.292 61.0586C221.785 49.5043 225.645 38.3363 229.929 27.3393C231.783 22.5801 234.822 18.4748 238.18 14.6333C241.699 10.6097 246.283 8.70751 251.47 8.58119C256.541 8.45859 259.758 11.7614 262.274 15.6921C264.926 19.8346 265.703 24.6569 266.762 29.3567C268.961 39.1165 269.782 49.0324 270.038 59.0041C270.209 65.5911 269.411 72.089 267.85 78.4941C266.383 84.5164 263.57 89.7957 259.246 94.254C255.95 95.6881 252.432 96.4051 249.177 97.3451C251.024 97.3116 252.893 95.8961 255.007 96.8732C251.719 99.381 247.803 100.18 243.872 100.863C241.639 101.253 239.366 101.476 237.081 101.253C237.032 100.901 237.207 100.622 237.486 100.488C239.704 99.4293 242.011 98.6677 243.478 98.389C237.88 98.6937 231.448 96.8546 224.861 96.9698C221.481 97.0293 220.121 97.9061 219.218 101.135C218.025 105.4 217.791 109.772 217.966 114.186C218.04 116.096 219.4 117.396 220.002 119.046L220.006 119.038Z" fill="#AFEEEE"/>
<path d="M220.006 119.038C217.973 117.626 217.435 115.538 217.394 113.235C217.323 109.275 217.472 105.307 218.564 101.495C219.89 96.8695 221.44 96.29 225.036 96.3866C230.349 96.5315 235.569 97.4863 240.848 97.8467C242.304 97.947 243.772 97.8615 245.25 97.999C242.631 99.4108 239.618 99.7303 237.077 101.246C236.159 101.428 235.242 101.614 234.324 101.796C229.372 102.071 227.031 105.095 226.032 109.594C225.627 111.407 225.177 113.205 224.85 115.033C224.453 115.891 224.059 116.746 223.661 117.604C223.334 118.005 222.963 118.369 222.591 118.73C221.759 119.075 220.893 119.146 220.009 119.035L220.006 119.038Z" fill="#A0DADA"/>
<path d="M224.846 115.037C223.94 114.249 224.705 113.391 224.865 112.656C225.478 109.802 225.931 106.901 227.755 104.426C229.446 102.13 231.608 101.365 234.324 101.8C231.541 103.089 229.892 105.407 228.476 108.015C227.217 110.334 226.474 112.916 224.846 115.037Z" fill="#AFEEEE"/>
<path d="M255.003 96.8697C252.855 96.7508 250.842 97.9545 248.609 97.3266C252.086 96.0895 255.549 94.7854 259.246 94.2542C258.216 95.7514 256.392 95.9557 255.006 96.8697H255.003Z" fill="#A0DADA"/>
<path d="M222.588 118.734C222.614 118.043 222.978 117.675 223.658 117.608C223.606 118.273 223.357 118.748 222.588 118.734Z" fill="#AFEEEE"/>
<path d="M226.834 61.1143C226.426 62.3589 225.649 63.232 224.583 63.258C222.982 63.2952 222.881 63.8487 223.383 65.1453C223.851 66.3602 223.765 67.6903 223.754 68.9757C223.736 71.0117 222.484 72.208 220.437 71.9219C219.59 71.803 219.292 72.0185 218.843 72.6241C217.843 73.9801 216.432 74.5857 214.786 74.0581C213.099 73.5194 212.794 72.1225 212.839 70.5138C212.902 68.151 213.088 65.855 212.345 63.4438C211.572 60.9434 212.256 58.2313 212.858 55.627C213.994 50.7229 214.537 45.7185 215.232 40.7364C215.659 37.6751 217.368 35.1376 219.136 32.7301C220.845 30.4081 222.547 28.0378 224.78 26.1505C226.087 25.0471 227.403 24.0402 229.201 25.2848C229.981 25.8273 229.888 24.9802 230.011 24.6272C231.396 20.6817 232.923 16.8141 235.606 13.5262C235.721 13.385 235.773 13.1918 235.888 13.0581C239.087 9.36886 243.047 6.95025 247.818 5.82826C250.288 5.24869 252.763 4.89945 255.3 5.02577C256.846 5.10379 257.745 6.01773 258.406 7.29205C258.7 7.85677 258.644 8.3546 258.205 8.81529C257.741 9.30198 257.176 9.354 256.723 8.91189C255.935 8.14655 255.813 8.65182 255.367 9.32056C253.387 12.3002 251.035 15.0048 248.694 17.7058C244.808 22.1863 241.799 27.2688 238.649 32.2583C238.188 32.9865 238.73 33.2168 239.08 33.815C240.309 35.9401 241.063 34.5617 242.081 33.8112C247.301 29.9511 250.678 24.6272 253.822 19.1139C255.583 16.0265 257.347 12.9392 259.079 9.83697C259.48 9.11993 260.041 9.09393 260.646 9.34657C261.367 9.6475 261.59 10.2122 261.349 11.0035C260.877 12.5491 260.018 13.8866 259.201 15.25C256.3 20.1021 253.844 25.2328 250.299 29.6799C248.349 32.1282 246.146 34.3537 244.623 37.1586C243.768 38.7302 242.223 39.7742 240.476 40.3983C239.964 40.5804 239.466 40.8367 239.002 41.1191C238.719 41.2937 238.251 41.4646 238.448 41.9364C238.678 42.4751 239.172 42.3488 239.57 42.1928C241.049 41.6095 242.561 41.1265 243.935 40.272C248.605 37.3704 252.328 33.4434 256.002 29.431C259.298 25.831 261.534 21.6736 263.236 17.1374C264.373 14.1132 264.057 10.9552 264.51 7.87534C264.651 6.9131 264.986 6.09575 265.744 5.46788C266.215 5.07778 266.706 4.93289 267.274 5.23382C267.858 5.5459 268.032 6.09575 267.872 6.65675C267.115 9.33542 267.731 12.0624 267.542 14.7559C267.081 21.2018 264.867 26.6446 259.684 30.9431C257.392 32.8416 255.861 35.7171 253.613 37.8162C249.404 41.7506 244.782 45.0943 239.328 47.1006C237.98 47.5984 236.304 47.1897 235.453 48.9136C235.175 49.4746 234.833 49.6306 235.531 50.1285C236.784 51.0313 236.758 52.3056 236.156 53.5947C235.398 55.2257 234.343 56.6635 233.172 58.0158C232.288 59.0412 231.486 60.0741 230.899 61.3484C229.922 63.4809 228.224 63.4103 226.83 61.1181L226.834 61.1143ZM254.093 8.17999C250.088 8.16513 246.859 9.0122 243.701 10.1899C243.411 10.2977 243.137 10.4908 242.839 10.528C240.068 10.8587 238.886 12.9689 237.749 15.0903C235.413 19.4557 234.19 24.2074 232.972 28.9629C232.801 29.6316 232.336 30.3487 233.217 31.0768C233.548 29.9697 233.808 28.922 234.183 27.9189C234.473 27.1387 234.647 26.1876 235.658 25.9573C236.758 25.7047 236.702 26.953 237.445 27.4322C239.904 24.0514 242.412 20.73 244.782 17.312C247.212 13.8085 250.162 10.8364 254.096 8.18742L254.093 8.17999ZM232.396 32.2731C229.981 38.1097 228.45 44.1507 228.246 50.8752C230.739 48.8504 232.6 46.6807 234.265 44.3327C234.766 43.6268 233.908 43.8126 233.711 43.5525C232.805 42.3562 230.705 42.2336 230.713 40.22C230.717 39.0571 230.787 37.924 231.203 36.7908C231.738 35.3271 232.463 33.9041 232.396 32.2694V32.2731ZM221.841 40.3203C224.278 36.7128 227.436 33.8781 228.32 29.6465C228.428 29.1226 228.837 28.4205 228.495 28.1381C228.004 27.7369 227.295 28.1084 226.86 28.5542C225.229 30.2223 223.676 31.9573 222.532 34.0193C222.324 34.3945 221.975 34.6955 222.595 35.0521C223.784 35.732 223.364 36.7128 222.963 37.6305C222.625 38.3995 221.982 39.0348 221.841 40.3203ZM225.497 41.0002C225.37 40.9779 225.24 40.9593 225.114 40.937C224.263 42.5346 223.346 44.0987 222.58 45.7371C221.351 48.3712 221.495 48.5346 224.378 48.5644C224.906 48.5681 225.174 48.4529 225.196 47.8845C225.281 45.5885 225.393 43.2962 225.497 41.0039V41.0002ZM216.703 61.5007C219.541 60.4902 218.813 58.0307 218.988 55.7979C219.107 54.23 218.011 54.178 217.189 54.126C216.227 54.0666 216.276 55.066 216.387 55.7347C216.721 57.7298 216.714 59.7434 216.699 61.5007H216.703Z" fill="#D15EA8"/>
<path d="M271.725 27.5919C273.631 25.5597 274.742 23.0742 275.715 20.4996C276.852 17.494 277.577 14.4178 277.618 11.1855C277.632 10.1081 277.235 9.63259 276.217 9.97439C275.188 10.3199 274.504 10.0264 274.107 9.09388C273.598 7.89758 274.668 7.57064 275.362 7.19912C278.405 5.557 281.244 7.25113 280.984 10.7546C280.293 20.1392 277.528 28.8217 269.723 34.6805C262.552 40.0602 255.664 45.8633 247.952 50.5036C246.005 51.6739 244.028 52.7922 241.68 53.0671C240.547 53.1972 239.689 52.9594 239.21 51.96C238.712 50.9235 239.161 50.0355 239.997 49.3668C241.06 48.5197 242.134 47.6875 243.248 46.9147C244.025 46.376 244.89 45.9302 245.767 46.7624C246.287 47.2565 246.614 46.8516 247.049 46.6101C250.084 44.942 252.826 42.8652 255.423 40.5914C255.668 40.376 256.151 40.3091 255.809 39.7778C254.929 38.4255 255.828 37.6676 256.746 36.8279C259.837 34.0118 263.021 31.2811 265.907 28.2681C268.827 25.2179 269.726 21.2092 270.157 17.1299C270.377 15.0531 270.414 12.954 270.54 10.866C270.596 9.97067 270.744 9.001 271.859 8.98614C273 8.97128 273.434 9.8072 273.397 10.8772C273.293 13.723 274.155 16.5392 273.809 19.3739C273.471 22.1677 272.383 24.7944 271.725 27.5956V27.5919Z" fill="#D15EA8"/>
<path d="M251.626 64.4134C251.845 63.388 252.131 61.9242 252.956 60.6833C253.394 60.0257 254.1 59.4015 254.996 59.9217C255.772 60.3712 255.572 61.0883 255.416 61.8796C255.189 63.0276 254.513 64.0121 254.457 65.2381C254.424 66.0035 253.818 66.7837 252.815 66.6276C251.853 66.4753 251.555 65.7508 251.622 64.4134H251.626Z" fill="#D15EA8"/>
<path d="M263.47 56.2958C263.499 55.2592 263.793 54.3416 264.198 53.4351C264.499 52.7589 264.986 52.5508 265.669 52.5917C266.457 52.64 266.706 53.1601 266.784 53.8289C266.895 54.7948 266.925 55.7645 267.055 56.7342C267.218 57.949 266.171 58.5695 265.19 58.6029C263.719 58.6549 263.544 57.4215 263.473 56.2958H263.47Z" fill="#D15EA8"/>
<path d="M821.07 106.612C816.397 102.074 811.027 98.3522 806.216 93.9668C801.896 90.0306 797.535 86.1426 793.501 81.9176C790.018 78.2713 787.265 74.0798 784.978 69.5964C779.628 59.1155 777.537 48.0203 778.883 36.3109C779.488 31.0518 780.987 26.1194 784.036 21.6874C786.446 18.1819 789.751 16.9943 793.842 17.0667C800.254 17.178 805.434 20.0328 810.299 23.874C817.919 29.8871 822.862 37.8329 826.898 46.452C831.677 56.6608 835.089 67.367 838.159 78.1794C840.646 86.9465 842.934 95.7937 843.961 104.86C845.081 114.744 845.415 124.697 845.566 134.648C845.606 137.239 845.722 139.828 845.549 142.421C845.467 143.654 844.84 144.525 843.584 144.75C840.682 145.268 837.838 144.813 835.018 144.114C834.664 144.027 834.465 143.751 834.248 143.5C833.075 142.141 831.871 140.816 830.947 139.251C830.344 138.228 830.159 137.182 830.235 136.042C830.951 135.73 830.867 136.425 831.081 136.727C831.222 136.923 831.287 137.221 831.61 137.143C831.835 137.09 831.9 136.864 831.969 136.666C832.078 136.349 832.155 136.02 832.173 135.685C832.583 127.835 834.078 120.097 834.603 112.258C834.696 110.88 834.599 109.502 834.613 108.125C834.623 107.253 834.228 107.025 833.444 107.158C832.413 107.334 831.408 107.628 830.391 107.867C827.376 108.574 824.473 108.51 821.965 106.424C821.396 105.949 821.369 106.615 821.067 106.615L821.07 106.612Z" fill="#AFEEEE"/>
<path d="M821.07 106.612C821.518 106.228 820.849 105.867 821.086 105.375C821.481 105.688 821.853 105.982 822.223 106.274C824.672 108.202 827.428 108.243 830.299 107.58C831.478 107.308 832.665 107.079 833.84 106.798C834.721 106.586 834.904 106.967 834.926 107.779C835.036 111.794 834.69 115.768 834.154 119.745C833.458 124.911 832.859 130.093 832.501 135.297C832.459 135.913 832.29 136.525 832.161 137.136C832.097 137.441 831.916 137.704 831.592 137.722C831.265 137.741 831.126 137.423 830.934 137.205C830.627 136.856 830.921 136.147 830.232 136.035C829.855 133.276 829.479 130.517 829.1 127.76C828.581 121.327 827.159 115.191 823.243 109.873C822.518 108.785 821.792 107.699 821.067 106.612L821.07 106.612Z" fill="#A0DADA"/>
<path d="M823.246 109.874C824.624 111.233 825.545 112.912 826.387 114.609C828.349 118.564 828.864 122.877 829.302 127.199C829.326 127.429 829.255 127.605 829.103 127.76C828.194 125.072 827.765 122.259 826.961 119.544C825.977 116.224 824.615 113.047 823.246 109.874Z" fill="#AFEEEE"/>
<path d="M798.62 61.8234C798.163 62.7164 797.279 62.9908 796.455 63.3592C795.936 63.5935 795.55 63.8759 795.686 64.5869C796.101 66.7237 795.138 68.3739 793.723 69.8418C793.55 70.022 793.354 70.1826 793.191 70.3707C790.934 72.9838 788.309 73.1645 785.668 70.8523C784.922 70.201 784.279 69.4297 783.526 68.7885C782.582 67.9859 781.835 66.8286 780.293 67.036C779.87 67.0928 779.436 66.78 779.314 66.2306C779.204 65.7373 779.472 65.4863 779.791 65.1789C780.424 64.5708 781.005 64.0368 782.023 64.1722C782.425 64.2258 782.921 63.7973 783.333 63.5258C784.824 62.5433 786.327 61.5937 787.984 60.9058C788.848 60.546 789.759 60.2916 790.251 59.3355C790.416 59.0139 790.914 58.6817 791.328 58.9002C792.312 59.4211 793.081 58.8292 793.882 58.4965C795.436 57.8502 797.165 57.9447 798.709 57.3261C800.788 56.4959 802.766 55.3334 804.909 54.7755C807.503 54.1006 810.005 53.3293 812.482 52.2728C814.467 51.4243 816.735 51.238 818.885 50.7893C819.487 50.6631 820.029 50.3398 820.695 50.4059C821.869 50.5216 822.306 51.2905 821.883 52.3822C821.111 54.388 819.694 55.6794 817.793 56.5987C816.722 57.1146 815.77 57.8787 814.764 58.5335C814.546 58.6762 814.385 58.82 814.481 59.1376C815.115 61.2422 813.514 62.3905 812.474 63.7799C811.504 65.0804 809.859 65.6071 808.899 66.9513C808.552 67.4381 807.753 67.2937 807.417 66.9266C806.704 66.1425 805.732 66.1391 804.877 65.7819C801.434 64.3402 801.231 64.5162 798.616 61.8195L798.62 61.8234Z" fill="#D15EA8"/>
<path d="M768.89 22.482C770.703 20.3587 773.086 20.3615 775.488 20.6152C780.364 21.1302 784.742 23.1903 789.196 25.0535C793.38 26.8041 797.194 29.136 800.855 31.76C800.923 31.8082 801.026 31.8325 801.064 31.8961C802.314 34.0431 804.094 34.058 806.164 33.2591C807.221 32.8507 808.347 33.0197 809.474 33.1584C811.55 33.4126 813.615 33.0496 815.667 32.7604C817.378 32.5205 819.067 32.4906 820.751 32.9537C821.432 33.1421 822.115 33.2896 822.843 33.2039C823.488 33.1293 823.862 33.4906 823.933 34.1322C824.006 34.7793 823.562 34.9858 823.051 35.13C822.55 35.2731 822.052 35.242 821.577 35.0595C819.287 34.17 816.953 34.4651 814.571 34.5799C809.271 34.8377 804.334 36.5014 799.364 38.077C796.791 38.8925 794.052 39.0409 791.542 40.0627C787.646 41.6516 783.421 42.4875 779.954 45.0762C779.289 45.5731 778.611 46.0707 777.881 46.4644C776.833 47.0338 776.225 46.7569 775.86 45.6001C775.712 45.1288 775.36 44.8386 775.071 44.4947C773.324 42.4271 771.454 40.4512 769.84 38.2873C767.886 35.6706 766.583 32.6483 765.826 29.5044C765.113 26.5438 766.407 24.1366 768.893 22.4823L768.89 22.482ZM800.196 34.9326C799.7 34.3067 799.295 33.6027 798.622 33.1763C794.986 30.8802 791.118 28.9964 787.498 26.65C783.666 24.1653 779.368 22.9239 774.688 22.8913C772.264 22.8745 770.677 23.9509 769.199 25.5294C768.589 26.1803 768.23 27.0135 768.289 27.9195C768.431 30.1128 768.584 32.314 769.48 34.3667C771.062 37.9956 773.777 40.752 776.535 43.4726C777.201 44.1318 777.92 44.2358 778.753 43.7115C780.012 42.9204 781.301 42.1726 782.589 41.4285C784.48 40.3373 786.237 39.0092 788.527 38.7285C792.629 38.2247 796.414 36.691 800.201 34.9312L800.196 34.9326Z" fill="#D15EA8"/>
<path d="M817.134 92.4314C817.769 93.154 817.761 93.7607 817.09 94.0416C815.859 94.5553 814.575 94.8635 813.272 94.1389C812.647 93.7912 812.515 93.3068 812.708 92.674C812.898 92.0606 813.3 91.84 813.948 91.9348C814.68 92.0436 815.423 92.0712 816.161 92.1449C816.577 92.1871 816.968 92.2988 817.132 92.4295L817.134 92.4314Z" fill="#D15EA8"/>
<path d="M641.724 472.511C641.724 485.853 639.025 498.792 635.947 511.681C634.738 516.749 633.047 521.713 632.512 526.931C632.445 527.577 631.949 527.805 631.532 528.108C629.699 529.431 627.758 530.594 625.722 531.557C623.775 532.477 621.749 531.706 619.77 531.535C619.046 531.475 619.128 530.647 619.085 530.062C618.932 527.873 618.964 525.683 618.707 523.489C618.218 519.295 615.743 516.895 611.984 515.583C608.086 514.224 603.996 513.874 599.923 513.461C593.963 512.854 588 512.38 582.504 509.559C576.388 506.417 573.271 500.536 574.145 493.71C575.029 486.813 577.693 480.44 579.773 473.899C582.701 464.69 586.617 455.949 592.562 448.221C596.72 442.818 601.927 438.709 608.193 436.191C615.465 433.27 622.07 435.05 627.755 440.236C630.077 442.35 632.234 444.669 634.299 447.037C638.436 451.784 639.891 457.679 641.029 463.656C641.585 466.57 641.799 469.541 641.721 472.515L641.724 472.511Z" fill="#AFEEEE"/>
<path d="M590.447 446.202C590.365 442.607 590.775 439.583 592.808 436.915C594.709 434.43 597.301 433.388 600.233 432.914C601.214 432.757 602.216 432.743 603.2 432.618C605.643 432.311 607.423 433.556 608.906 435.221C609.591 435.992 609.777 435.892 610.44 435.232C612.305 433.377 614.331 431.776 617.238 432.026C619.081 432.186 620.073 433.278 620.736 434.861C621.189 435.938 621.442 437.489 622.259 437.903C623.019 438.288 624.395 437.425 625.508 437.158C629.32 436.241 631.018 437.586 631.075 441.47C631.1 443.139 630.95 444.776 630.469 446.37C630.198 447.276 630.558 447.682 631.403 447.475C635.601 446.434 637.341 448.895 637.413 453.078C637.452 455.346 637.684 456.641 640.309 457.194C642.941 457.747 643.868 462.237 642.99 465.297C642.844 465.807 642.68 466.331 642.413 466.78C641.799 467.804 641.849 468.474 642.812 469.434C644.456 471.074 644.331 473.325 643.436 475.233C642.52 477.183 642.352 479.177 642.188 481.213C641.792 486.121 640.373 490.689 637.784 494.883C636.785 496.499 635.437 496.684 634.602 495.383C634.231 494.801 634.385 494.316 634.556 493.717C635.045 492.027 635.594 490.351 635.505 488.532C635.44 487.244 634.798 487.191 633.885 487.579C633.044 487.94 632.463 488.628 631.956 489.37C630.993 490.782 630.03 492.194 629.082 493.617C628.154 495.008 626.756 494.78 625.562 494.381C624.424 494.003 624.235 492.936 624.477 491.713C625.109 488.575 626.867 485.953 628.311 483.207C629.638 480.682 630.615 478.082 631.079 475.279C631.107 475.104 631.054 474.887 631.143 474.755C633.058 471.862 631.603 468.606 632.149 465.568C632.316 464.63 632.01 464.17 630.925 464.212C629.584 464.262 628.525 463.924 627.955 462.351C627.473 461.013 626.335 460.272 624.666 461.013C622.555 461.948 621.046 460.896 621.257 458.642C621.389 457.219 620.968 456.349 619.688 455.685C618.575 455.107 617.726 454.187 617.487 452.839C617.234 451.42 616.414 450.25 615.658 449.08C615.076 448.182 614.149 447.953 613.165 448.467C611.781 449.187 610.832 448.677 610.005 447.515C608.885 445.938 607.027 445.831 605.376 446.955C603.436 448.278 602.202 450.239 600.575 451.841C598.307 454.07 595.522 454.255 592.597 453.845C592.012 453.763 591.727 453.257 591.567 452.725C590.889 450.468 590.022 448.242 590.433 446.209L590.447 446.202ZM636.578 467.647C637.134 466.748 637.53 466.131 637.908 465.5C639.481 462.875 638.821 461.349 635.936 460.924C632.926 460.482 632.356 459.487 633.311 456.612C633.946 454.704 633.579 452.668 632.958 450.938C632.634 450.029 630.722 450.642 629.531 450.542C629.353 450.528 629.178 450.51 629 450.507C627.826 450.478 627.298 449.733 627.209 448.702C627.127 447.768 627.163 446.823 627.359 445.874C627.609 444.676 627.723 443.445 627.848 442.226C627.983 440.874 627.273 440.428 626.043 440.728C625.073 440.963 624.121 441.277 623.161 441.552C620.644 442.265 619.681 441.716 618.971 439.241C618.76 438.509 618.422 437.814 618.168 437.09C617.819 436.095 617.102 435.863 616.193 436.177C615.23 436.509 614.402 437.015 613.882 437.985C613.072 439.49 612.155 440.938 611.317 442.429C611.071 442.868 610.201 443.231 610.954 443.877C611.439 444.294 611.906 444.405 612.669 444.08C614.959 443.11 617.127 443.559 618.807 445.443C619.98 446.759 620.936 448.242 621.157 450.09C621.321 451.459 621.728 452.65 623.158 453.367C623.896 453.734 624.524 454.512 624.67 455.471C624.82 456.438 625.29 456.812 626.343 456.712C628.411 456.516 629.827 457.426 630.472 459.476C630.801 460.525 631.425 461.16 632.709 460.981C633.782 460.832 634.584 461.459 635.237 462.315C636.368 463.795 636.268 465.593 636.578 467.65V467.647ZM599.933 435.639C601.075 436.744 600.893 437.575 600.033 438.42C598.257 440.171 597.819 442.368 598.029 444.754C598.136 445.97 598.521 446.341 599.63 445.41C601.413 443.913 603.432 442.864 605.843 442.803C606.253 442.793 606.631 442.853 606.556 442.158C606.428 440.988 606.51 439.793 606.403 438.62C606.21 436.548 605.233 435.678 603.172 435.642C602.227 435.628 601.285 435.642 599.933 435.642V435.639ZM597.191 437.575C596.913 437.607 596.795 437.593 596.709 437.636C596.552 437.714 596.388 437.807 596.271 437.932C593.403 440.913 592.751 444.519 593.414 448.445C593.5 448.941 593.496 449.904 594.213 449.826C594.915 449.747 595.672 449.269 596.207 448.759C596.852 448.146 595.818 447.993 595.636 447.579C595.211 446.612 594.744 445.739 594.755 444.601C594.773 442.005 595.472 439.679 597.194 437.575H597.191ZM636.592 468.456C636.254 469.516 636.867 470.322 636.806 471.206C636.71 472.601 637.891 472.857 638.793 473.332C639.274 473.585 639.592 473.175 639.813 472.875C640.12 472.454 639.692 472.24 639.396 472.108C637.848 471.424 637.106 470.101 636.589 468.456H636.592ZM628.336 489.869C629.153 488.967 629.709 488.382 630.23 487.768C630.408 487.558 630.893 487.319 630.305 487.002C629.891 486.781 629.534 486.442 629.246 487.209C628.967 487.95 628.468 488.614 628.336 489.869Z" fill="#D15EA8"/>
<path d="M596.674 504.481C593.617 503.454 590.464 502.847 587.822 500.975C587.137 500.49 586.994 499.684 587.419 498.906C587.832 498.147 588.442 498.182 589.238 498.379C591.566 498.964 593.927 499.438 596.281 499.923C597.02 500.073 597.583 500.486 598.072 500.989C598.674 501.606 598.974 502.323 598.649 503.232C598.293 504.231 597.355 504.103 596.674 504.481Z" fill="#D15EA8"/>
<path d="M598.561 461.313C598.621 460.111 599.042 459.18 599.962 458.521C600.971 457.797 602.059 457.55 602.944 458.595C603.807 459.615 603.019 460.443 602.337 461.199C602.066 461.498 601.621 461.716 601.503 462.058C601.153 463.057 600.404 463.307 599.545 463.093C598.635 462.868 598.646 461.976 598.564 461.313H598.561Z" fill="#D15EA8"/>
<path d="M612.348 463.795C612.309 464.858 612.298 466.17 610.761 466.188C609.752 466.199 609.16 465.233 609.413 464.287C609.68 463.282 609.862 461.88 611.342 461.894C612.459 461.905 612.548 462.797 612.352 463.795H612.348Z" fill="#D15EA8"/>
<path d="M142.014 514.292C142.868 515.971 142.443 517.875 142.948 519.619C143.198 520.478 142.523 520.748 141.814 520.898C138.896 521.532 135.978 522.172 133.064 522.821C131.9 523.081 131.276 522.647 130.781 521.527C129.012 517.495 126.224 514.152 123.031 511.219C110.749 499.941 102.964 485.801 97.4278 470.391C93.8901 460.532 92.5859 450.119 94.1349 439.701C95.8388 428.218 105.198 419.194 116.515 417.091C119.213 416.591 121.627 417.47 123.965 418.555C129.197 420.978 133.289 424.791 137.112 429.063C147.225 440.37 154.995 453.012 159.847 467.418C161.411 472.07 161.671 476.876 161.436 481.708C161.246 485.641 158.618 487.999 155.46 489.738C153.511 490.807 152.272 492.087 151.947 494.395C151.692 496.214 150.558 497.768 149.494 499.257C146.75 503.104 143.827 506.842 142.108 511.319C140.744 511.439 141.049 510.315 140.894 509.615C139.295 502.42 142.593 497.423 147.96 493.631C148.834 493.011 149.878 492.626 150.673 491.562C149.709 491.177 148.874 491.582 148.06 491.727C143.807 492.481 139.615 493.461 135.233 493.501C127.563 493.571 120.982 491.307 115.931 485.361C111.464 480.104 106.947 474.883 103.394 468.937C103.279 468.767 103.239 468.557 103.184 468.357C102.759 468.587 103.244 468.597 103.284 468.652C103.474 468.922 103.149 468.607 103.359 468.872C107.291 476.742 110.754 484.841 115.071 492.516C119.114 499.712 123.751 506.487 129.682 512.258C132.785 515.276 136.642 517.215 140.485 519.054C141.574 517.43 139.82 515.266 142.009 514.282L142.014 514.292Z" fill="#AFEEEE"/>
<path d="M103.029 468.332C106.837 473.124 110.774 477.821 114.427 482.728C120.967 491.512 129.797 494.03 140.175 492.496C143.528 492.002 146.85 491.307 150.183 490.687C150.788 490.577 151.522 489.973 151.867 490.932C152.142 491.702 151.477 492.186 150.923 492.511C148.389 493.975 146.071 495.679 144.112 497.883C141.234 501.126 140.115 506.692 142.098 511.324C142.068 512.313 142.034 513.303 142.004 514.292C140.894 516.036 141.939 518.039 141.289 520.038C134.349 517.11 128.532 512.893 123.86 506.902C115.041 495.589 109.165 482.693 103.294 469.771C103.099 469.336 103.119 468.807 103.039 468.317L103.019 468.337L103.029 468.332Z" fill="#A0DADA"/>
<path d="M103.054 468.312C102.979 468.277 102.904 468.247 102.834 468.212C102.899 468.252 102.969 468.292 103.034 468.337L103.054 468.317V468.312Z" fill="#A0DADA"/>
<path d="M110.464 478.65C110.619 482.863 110.464 482.927 107.121 482.558C105.177 482.343 102.854 481.533 102.09 484.586C101.27 487.859 101.98 489.398 105.063 490.737C107.771 491.912 110.479 492.096 113.332 491.217C115.866 490.438 116.43 490.957 116.51 493.615C116.535 494.435 116.605 495.274 116.79 496.069C116.96 496.793 117.055 497.443 116.23 497.718C115.391 497.998 114.741 497.588 114.441 496.793C114.242 496.264 114.122 495.664 114.127 495.1C114.127 493.99 113.742 493.705 112.608 493.885C108.69 494.505 105.202 493.086 102.025 491.067C99.3263 489.353 99.0765 484.012 101.655 481.488C103.049 480.119 102.544 479.625 101.425 478.71C99.0665 476.781 96.9879 474.583 94.3347 472.914C87.8039 468.812 86.01 462.116 86 454.996C85.99 446.102 89.6926 438.377 94.7543 431.261C96.3932 428.958 98.1371 426.729 99.901 424.521C100.546 423.711 101.46 423.232 102.559 423.591C103.239 423.811 103.683 424.321 103.778 425.045C103.918 426.115 103.264 426.729 102.449 427.244C94.4096 432.331 90.5521 440.225 88.0837 448.965C86.4598 454.721 87.2842 460.277 89.7976 465.709C91.0867 468.487 93.0005 470.376 95.8137 471.275C97.3377 471.765 98.4619 472.589 99.4113 473.788C101.125 475.962 103.384 477.576 105.327 479.505C106.032 480.204 106.946 480.574 107.826 480.169C108.8 479.725 108.3 478.705 108.265 477.926C108.146 475.242 107.106 472.944 105.327 470.94C104.453 469.951 103.479 468.972 103.264 467.583C103.094 466.478 103.474 465.559 104.593 465.204C105.612 464.879 106.592 465.314 106.801 466.293C107.766 470.73 111.184 474.478 110.459 478.655L110.464 478.65Z" fill="#D15EA8"/>
<path d="M153.556 440.655C153.556 441.28 153.556 441.53 153.556 441.78C153.536 444.043 154.255 446.496 151.412 447.846C148.194 449.375 145.071 450.544 141.918 447.786C141.259 447.206 140.1 446.756 140.914 445.662C141.569 444.783 142.423 445.412 143.123 445.867C144.447 446.741 145.666 447.631 147.475 446.956C151.397 445.492 151.547 445.462 151.457 441.25C151.402 438.672 151.107 436.103 150.997 433.525C150.933 432.046 150.233 431.651 148.889 431.966C148.069 432.156 147.255 432.336 146.635 432.955C143.337 436.243 139.765 439.351 139.695 444.588C139.67 446.357 138.236 446.297 136.987 446.457C136.267 446.546 135.298 446.486 134.978 447.201C134.593 448.06 135.603 448.435 136.072 448.96C139.315 452.587 138.316 457.764 133.429 460.812C131.031 462.306 129.052 464.08 127.358 466.259C125.644 468.467 123.396 469.167 120.702 468.627C120.213 468.527 119.698 468.502 119.233 468.332C117.704 467.768 115.126 469.097 114.706 466.843C114.267 464.47 114.646 461.836 116.585 459.868C118.924 457.499 121.197 455.061 123.62 452.782C125.379 451.128 127.118 449.485 128.682 447.626C130.441 445.542 133.319 445.527 135.638 444.473C136.697 443.993 137.307 443.748 137.706 442.504C139.32 437.492 143.018 433.935 146.76 430.492C147.79 429.548 149.409 429.528 150.823 429.523C152.247 429.518 152.906 430.482 152.946 431.806C153.041 434.884 153.751 437.922 153.551 440.645L153.556 440.655ZM122.411 466.903C124.23 467.093 125.429 466.074 126.473 464.839C128.297 462.686 130.196 460.692 132.604 459.088C134.793 457.634 136.222 455.406 135.603 452.473C135.053 449.864 133.119 449.01 130.916 450.384C129.931 450.999 128.932 451.593 127.938 452.198C124.065 454.546 120.757 457.539 117.874 461.017C116.795 462.326 116.35 463.965 116.68 465.444C116.985 466.803 118.694 466.044 119.738 466.383C120.597 466.658 121.522 466.743 122.416 466.908L122.411 466.903Z" fill="#D15EA8"/>
<path d="M121.592 429.827C123.221 428.703 123.27 427.399 123.515 426.25C124.29 422.612 124.06 418.964 123.45 415.327C123.34 414.672 123.166 414.013 123.175 413.353C123.19 412.234 123.74 411.364 124.914 411.284C126.233 411.195 127.143 412.104 126.938 413.278C126.009 418.6 126.528 424.121 124.744 429.313C124.325 430.537 123.655 431.266 122.046 431.376C120.152 431.506 118.524 432.271 117.529 429.717C116.67 427.504 115.266 425.495 113.717 423.511C114.106 426.714 114.491 429.922 114.891 433.125C115.001 434.02 114.961 434.984 113.872 435.024C112.757 435.064 112.647 434.08 112.772 433.2C113.622 427.144 111.978 421.673 108.935 416.516C108.51 415.802 108.085 415.082 107.716 414.337C107.446 413.788 107.381 413.198 107.92 412.739C108.565 412.189 109.175 412.449 109.714 412.913C110.744 413.803 111.353 414.997 112.023 416.151C113.812 419.249 115.585 422.357 117.394 425.44C117.794 426.12 118.314 426.729 119.193 427.934C119.498 424.511 119.218 421.823 118.569 419.204C117.479 414.812 116.135 410.535 112.158 407.707C111.013 406.892 110.479 405.643 111.713 404.539C112.947 403.43 114.076 404.204 114.856 405.318C115.715 406.548 116.035 408.157 118.309 407.617C119.378 407.362 119.753 408.916 120.058 409.995C121.846 416.341 123.08 422.737 121.601 429.822L121.592 429.827Z" fill="#D15EA8"/>
<path d="M95.8733 442.109C95.1838 447.591 95.2088 453.012 97.6822 458.144C98.007 458.818 98.3068 459.503 98.6066 460.187C98.9164 460.897 99.2461 461.731 98.2718 462.091C97.3174 462.441 97.0177 461.542 96.7129 460.872C96.508 460.422 96.4031 459.923 96.2282 459.458C93.8048 452.912 93.9697 446.062 93.8597 439.246C93.8498 438.552 93.9147 437.847 94.6992 437.622C95.4587 437.402 95.9434 437.912 96.3481 438.477C97.5323 440.121 98.1569 442.019 98.8165 444.223C101.085 442.539 103.438 441.13 105.372 439.281C108.865 435.938 108.9 427.514 105.657 423.501C104.773 422.407 103.558 421.448 104.363 419.809C104.683 419.154 105.322 418.859 106.042 418.984C107.751 419.279 108.1 420.703 108.55 422.062C109.31 424.371 109.639 426.749 109.904 429.153C110.554 435.054 108.69 439.771 103.668 443.144C102.009 444.258 100.51 445.597 99.551 447.416C99.2262 448.035 98.7964 448.565 98.0119 448.425C97.0476 448.255 96.9727 447.461 96.9627 446.696C96.9427 445.107 96.7378 443.568 95.8883 442.104L95.8733 442.109Z" fill="#D15EA8"/>
<path d="M152.342 475.497C152.237 475.737 152.177 476.232 151.892 476.457C149.803 478.111 148.154 480.159 146.555 482.263C146.241 482.678 145.716 482.878 145.241 482.543C144.782 482.223 144.727 481.658 144.991 481.204C146.276 478.995 146.925 476.447 148.589 474.448C149.259 473.644 150.128 473.164 151.217 473.579C151.997 473.873 152.332 474.508 152.337 475.492L152.342 475.497Z" fill="#D15EA8"/>
<path d="M881.004 434.184C881.306 424.248 882.933 414.49 885.045 404.796C887.049 395.582 889.231 386.427 893.674 378.003C895.708 374.144 898.244 370.655 901.276 367.489C909.018 359.4 919.197 361.977 924.687 369.407C927.651 373.422 928.865 377.98 929.059 382.803C929.379 390.736 927.905 398.464 925.804 406.077C923.368 414.907 920.27 423.551 918.497 432.568C917.134 439.503 916.422 446.515 915.607 453.528C914.489 463.159 914.564 472.832 914.296 482.492C914.229 484.906 914.422 487.327 914.545 489.74C914.598 490.764 914.46 491.233 913.231 490.887C910.553 490.131 907.838 489.513 905.134 488.846C904.33 488.649 903.816 488.209 903.745 487.334C903.67 486.41 903.506 485.491 903.48 484.571C903.324 478.496 903.544 472.422 903.082 466.344C902.739 461.808 900.922 458.694 896.389 457.424C895.261 457.107 894.199 456.556 893.078 456.199C885.6 453.808 882.55 448.072 881.418 440.862C881.071 438.646 880.978 436.423 881.004 434.184Z" fill="#AFEEEE"/>
<path d="M924.545 378.278C924.802 375.284 924.359 372.86 924.072 370.431C924.005 369.88 923.688 369.206 924.027 368.819C924.984 367.735 924.176 367.18 923.517 366.551C920.828 363.992 917.622 362.238 914.299 360.677C911.942 359.567 909.57 358.495 907.056 357.765C906.545 357.616 905.76 357.467 905.815 356.841C905.882 356.104 906.72 356.085 907.309 356.033C909.067 355.884 910.791 356.26 912.452 356.73C920.351 358.945 927.58 362.268 931.502 370.077C934.336 375.72 935.763 381.861 934.995 388.107C934.645 390.937 935.003 393.544 935.256 396.226C935.539 399.194 935.01 401.891 933.13 404.189C932.105 405.436 932.441 406.915 932.199 408.241C931.614 411.425 930.027 414.11 928.541 416.855C928.072 417.719 927.517 418.546 927.249 419.488C926.374 422.587 923.923 424.605 922.124 427.071C921.826 427.48 921.29 427.883 920.877 427.399C919.767 426.106 918.854 427.067 917.852 427.507C916.467 428.117 914.966 428.091 913.562 427.775C912.355 427.503 911.536 426.602 911.826 425.164C912.113 423.734 913.1 423.075 914.407 423.507C915.912 424.006 916.463 423.198 917.223 422.203C920.214 418.274 920.88 413.954 919.521 409.276C918.318 409.421 917.104 409.634 916.106 410.81C915.342 411.712 914.109 411.864 912.907 411.254C911.793 410.688 911.577 409.73 911.521 408.632C911.331 404.811 911.268 400.926 912.475 397.313C913.067 395.541 914.258 393.787 915.357 392.178C916.165 391.001 915.562 390.524 914.992 389.958C913.29 388.256 911.421 386.755 909.424 385.384C905.413 382.628 901.331 379.939 898.572 375.746C897.127 373.549 896.285 371.12 895.655 368.614C895.432 367.735 895.406 366.614 896.706 366.42C897.935 366.234 897.95 367.251 898.199 368.1C899.112 371.165 901.298 373.5 902.94 376.152C904.851 379.239 907.521 381.437 910.765 383.005C912.858 384.018 914.758 385.355 916.705 386.703C915.007 381.5 912.177 376.923 909.398 372.051C908.825 372.848 908.65 373.91 907.544 373.91C906.326 373.91 905.663 373.046 904.97 372.264C902.061 368.975 899.652 365.407 898.773 360.99C898.523 359.735 898.586 358.573 899.54 357.042C900.974 362.268 904.091 366.018 907.465 369.597C906.892 368.178 905.983 366.986 904.903 365.925C903.957 364.994 903.525 363.873 903.778 362.58C903.912 361.91 904.292 361.292 905.089 361.188C905.819 361.094 906.326 361.314 906.761 362.025C909.443 366.424 912.143 370.819 914.929 375.15C917.782 379.586 919.733 384.424 921.577 389.325C921.677 389.593 921.551 389.954 921.901 390.118C921.953 390.14 922.024 390.118 922.214 390.118C921.551 383.515 920.612 377.005 917.487 371.02C917.007 370.096 916.515 369.161 916.191 368.178C915.927 367.374 915.7 366.361 916.694 365.869C917.741 365.348 918.154 366.048 918.806 366.904C921.309 370.197 922.85 373.936 924.534 378.275L924.545 378.278ZM928.396 375.467C928.295 375.481 928.195 375.496 928.094 375.511C928.094 378.662 928.035 381.817 928.109 384.967C928.24 390.498 928.578 396.029 928.403 401.563C928.37 402.595 928.742 402.568 929.495 402.271C930.865 401.727 930.791 400.498 930.977 399.366C931.953 393.407 930.638 387.604 929.752 381.776C929.428 379.653 928.862 377.567 928.403 375.467H928.396ZM924.973 399.675C923.875 400.915 922.962 400.658 922.016 399.935C921.547 399.578 920.921 399.515 920.597 400.092C920.329 400.565 920.62 401.325 921.081 401.276C922.649 401.109 923.279 402.207 923.994 403.336C924.605 402.248 924.917 401.272 924.973 399.671V399.675ZM924.292 408.676C925.342 408.427 926.403 407.794 926.456 406.945C926.53 405.734 925.126 406.993 924.623 406.319C924.515 406.174 924.284 406.114 924.016 405.961C924.117 406.959 924.199 407.794 924.288 408.676H924.292Z" fill="#D15EA8"/>
<path d="M898.307 434.318C897.904 434.689 897.543 435.065 896.97 435.253C894.367 436.111 891.773 436.018 889.19 435.261C888.201 434.969 887.312 434.326 887.603 433.137C887.878 432 888.877 431.705 889.947 431.862C891.036 432.022 892.107 432.321 893.193 432.483C894.453 432.671 895.724 432.995 896.941 432.203C897.603 431.773 898.421 431.655 898.926 432.405C899.452 433.192 898.852 433.783 898.307 434.318Z" fill="#D15EA8"/>
<path d="M901.164 401.98C901.38 403.712 900.468 405.086 899.834 406.512C899.466 407.336 898.71 407.801 897.704 407.548C896.695 407.295 896.345 406.591 896.341 405.626C896.326 403.57 896.974 401.704 898.036 399.976C898.423 399.351 899.075 399.034 899.794 399.336C900.959 399.831 901.432 400.755 901.168 401.976L901.164 401.98Z" fill="#D15EA8"/>
<path d="M887.436 400.159C887.447 399.98 887.41 399.474 887.525 399.004C887.7 398.271 888.244 397.839 888.985 397.805C889.838 397.764 890.206 398.431 890.273 399.109C890.359 399.954 890.285 400.833 890.18 401.682C890.087 402.434 889.797 403.157 888.866 403.179C887.801 403.209 887.607 402.371 887.447 401.578C887.376 401.224 887.436 400.84 887.436 400.159Z" fill="#D15EA8"/>
<path d="M268.582 456.906C268.518 459.689 268.442 462.475 268.403 465.258C268.392 466.061 268.046 466.255 267.338 466.042C264.734 465.258 262.126 464.474 259.519 463.693C258.955 463.526 258.78 463.141 258.67 462.586C258.483 461.649 258.369 460.72 258.373 459.765C258.38 450.865 257.718 442.037 255.312 433.419C254.505 430.533 253.451 427.689 251.543 425.383C246.728 419.554 244.539 412.695 243.321 405.428C241.425 394.129 241.589 382.96 245.811 372.115C248.323 365.659 251.886 359.975 258.087 356.412C263.535 353.283 269.142 353.101 274.498 356.439C284.822 362.876 291.305 372.123 293.33 384.16C295.393 396.406 294.696 408.526 290.524 420.335C290.311 420.936 290.09 421.507 289.592 421.934C285.815 425.759 281.183 428.142 276.169 429.871C274.913 430.305 273.615 430.628 272.431 431.245C271.038 431.972 270.021 433.068 269.386 434.511C266.257 441.607 263.976 448.958 262.777 456.632C262.591 457.827 262.606 459.03 262.724 460.229C262.773 460.743 262.937 461.246 263.489 461.447C264.056 461.657 264.463 461.307 264.821 460.941C265.716 460.031 266.295 458.889 267.033 457.865C267.402 457.355 267.619 456.499 268.582 456.906Z" fill="#AFEEEE"/>
<path d="M268.582 456.906C267.326 457.485 267.158 458.905 266.329 459.818C265.994 460.191 265.784 460.682 265.438 461.04C264.84 461.661 264.284 462.597 263.237 462.129C262.331 461.721 262.179 460.785 262.16 459.86C262.073 455.509 263.192 451.363 264.33 447.222C265.506 442.947 266.991 438.782 268.723 434.701C269.644 432.532 271.11 430.975 273.382 430.289C279.203 428.534 284.635 426.072 289.123 421.835C289.188 421.774 289.428 421.896 289.588 421.93C287.296 426.33 284.121 430.118 281.194 434.077C280.687 434.488 280.375 435.048 280.044 435.596C276.911 439.06 273.344 442.159 271.296 446.517C270.059 449.148 269.796 451.999 269.077 454.748C268.909 455.467 268.746 456.183 268.578 456.902L268.582 456.906Z" fill="#A0DADA"/>
<path d="M269.081 454.751C268.974 449.666 270.721 445.257 274.03 441.451C275.476 439.787 277.003 438.192 278.514 436.586C278.933 436.14 279.294 435.554 280.044 435.6C275.674 441.573 272.865 448.444 269.081 454.751Z" fill="#AFEEEE"/>
<path d="M280.048 435.6C279.991 434.759 280.254 434.165 281.198 434.081C281 434.728 280.642 435.25 280.048 435.6Z" fill="#AFEEEE"/>
<path d="M243.477 402.078C249.724 401.754 252.388 402.714 253.743 405.755C251.912 405.489 250.218 405.226 248.521 405.005C247.767 404.906 247.006 404.872 246.248 404.849C245.532 404.826 245.041 405.138 244.885 405.892C244.721 406.68 244.687 407.438 245.494 407.902C245.871 408.119 246.313 408.245 246.739 408.347C247.854 408.625 249.274 408.797 248.935 410.361C248.562 412.074 247.047 411.774 245.806 411.511C244.074 411.142 242.651 410.243 241.832 408.557C241.55 408.743 241.36 408.816 241.254 408.949C240.526 409.859 239.655 410.243 238.608 409.547C237.614 408.884 237.473 407.898 237.904 406.851C239.898 401.998 242.422 397.479 246.351 393.897C247.063 393.246 248.003 392.184 248.897 392.896C249.404 393.3 248.467 394.445 248.01 395.165C246.591 397.388 245.125 399.581 243.48 402.082L243.477 402.078Z" fill="#D15EA8"/>
<path d="M267.113 407.856C265.967 404.118 269.142 399.775 273.203 399.428C274.578 399.31 275.994 399.421 277.36 399.634C278.708 399.843 279.465 399.482 280.006 398.184C281.502 394.598 283.55 393.391 287.402 393.615C288.518 393.68 289.481 394 289.508 395.298C289.53 396.566 288.571 397.198 287.505 397.106C284.829 396.882 283.455 398.172 282.564 400.536C281.864 402.394 280.299 403.189 278.289 402.946C277.284 402.824 276.275 402.714 275.282 402.523C272.56 402.002 270.424 402.759 268.963 405.215C268.43 406.105 267.775 406.924 267.116 407.856H267.113Z" fill="#D15EA8"/>
<path d="M236.008 401.568C236.427 400.487 236.948 399.132 237.481 397.78C239.331 393.086 242.171 389.101 246.1 385.926C247.112 385.108 248.498 383.844 249.552 385.009C250.531 386.09 249.092 387.285 248.25 388.172C244.68 391.941 241.874 396.193 239.895 400.997C239.605 401.693 239.274 402.394 238.844 403.011C238.414 403.631 237.732 403.863 236.99 403.566C236.252 403.269 235.989 402.649 236 401.568H236.008Z" fill="#D15EA8"/>
<path d="M242.087 411.823C242.083 411.439 242.068 411.027 242.472 410.833C242.818 410.666 243.035 410.974 243.271 411.168C244.672 412.337 245.989 413.612 247.607 414.511C248.186 414.83 248.513 415.42 248.247 416.128C247.98 416.825 247.402 417.023 246.709 416.935C245.098 416.734 242.133 413.445 242.083 411.827L242.087 411.823Z" fill="#D15EA8"/>
<path d="M279.602 373.383C279.618 374.266 279.423 375.054 278.434 374.989C277.467 374.924 276.812 374.194 276.713 373.272C276.614 372.302 277.337 371.792 278.255 371.769C279.351 371.738 279.507 372.599 279.602 373.383Z" fill="#D15EA8"/>
<path d="M264.676 377.483C264.288 378.042 264.653 379.226 263.424 379.196C262.13 379.161 262.297 378.065 262.21 377.262C262.122 376.428 262.48 375.69 263.401 375.671C264.524 375.648 264.501 376.645 264.676 377.483Z" fill="#D15EA8"/>
<path d="M369 131.552C373.879 131.106 377.571 132.917 381.385 134.514C384.108 135.655 387.044 134.666 389.864 134.306C390.823 134.184 391.086 133.185 391.299 132.379C391.766 130.589 392.253 128.788 392.542 126.963C393.196 122.784 395.555 119.791 398.699 117.134C403.136 113.391 408.041 110.485 413.34 108.203C421.5 104.693 428.104 99.1299 434.068 92.684C438.328 88.0841 442.482 83.4031 444.86 77.4947C449.059 67.0626 449.237 56.458 444.627 46.254C441.361 39.0271 434.651 35.7407 427.008 35.2589C418.615 34.7264 410.353 36.4457 402.31 38.7431C396.051 40.5333 392.263 45.3006 389.585 51.0213C385.797 59.1307 384.138 67.8385 382.419 76.5261C379.675 90.4221 378.58 104.617 374.771 118.31C373.539 122.748 372.768 127.409 369 131.547V131.552Z" fill="#AFEEEE"/>
<path d="M401.012 50.9756C399.901 55.9457 400.038 60.9209 400.18 65.891C400.231 67.6762 400.586 69.4107 401.194 71.0893C401.468 71.8501 401.94 72.4739 402.832 72.4282C403.73 72.3826 404.095 71.7132 404.303 70.922C405.084 67.9856 405.819 65.0339 406.687 62.1229C408.386 56.4123 410.861 51.0669 414.431 46.2641C415.075 45.3969 415.633 44.4232 417.22 43.5965C416.226 45.6961 415.466 47.3342 414.679 48.9622C412.215 54.0692 410.003 59.2777 408.801 64.8412C408.573 65.8961 407.767 67.3466 409.243 68.0211C410.698 68.6854 411.266 67.1995 411.941 66.3018C414.223 63.2741 416.419 60.1754 419.863 58.1772C418.848 60.997 417.205 63.4263 415.263 65.6882C414.598 66.459 413.214 67.1792 414.243 68.4014C415.176 69.5121 416.247 68.5029 417.215 68.0819C418.301 67.6103 419.36 67.0778 420.471 66.6822C426.537 64.5166 430.837 60.4797 433.419 54.5916C433.723 53.9019 434.068 53.2324 434.453 52.4311C435.442 53.0448 435.432 54.0337 435.691 54.8401C437.096 59.2676 438.384 63.7356 440.717 67.8081C442.426 70.7901 444.612 73.1027 448.278 73.5237C450.667 73.7975 451.499 72.9303 450.713 70.638C450.14 68.9694 449.323 67.377 448.588 65.7642C445.636 59.3082 442.857 52.7862 440.463 46.1019C439.55 43.5509 438.795 40.9694 438.429 38.2765C438.282 37.1911 437.983 35.903 436.558 35.974C435.006 36.0501 435.184 37.4042 435.168 38.4895C435.153 39.7421 435.168 40.9948 435.168 42.1613C434.306 42.4656 434.24 41.9838 434.073 41.6186C433.556 40.4877 432.739 39.1995 431.492 39.7016C430.031 40.2899 427.982 39.9247 427.318 42.2779C425.456 48.8608 421.952 54.409 416.53 58.7503C414.583 60.3073 413.036 62.3612 411.079 64.4203C410.982 62.4373 411.601 60.9006 412.073 59.369C414.243 52.3956 417.337 45.8432 421.201 39.6458C421.673 38.8901 422.616 38.0432 421.632 37.2216C420.522 36.2935 419.827 37.4447 419.147 38.1446C412.078 45.3868 407.534 54.054 404.765 63.7204C404.268 65.4599 403.923 67.2705 402.604 69.4107C401.438 63.2589 401.275 57.7055 402.376 52.0964C403.192 47.9479 405.013 44.2862 407.361 40.8274C407.944 39.9704 409.167 38.809 407.889 38.0178C406.398 37.0948 405.982 38.8749 405.48 39.8182C403.816 42.9575 402.072 46.0461 400.078 48.9876C396.32 54.5358 394.89 60.8296 394.043 67.3364C393.896 68.4724 394.271 70.3388 392.775 70.5416C390.97 70.7851 391.031 68.726 390.655 67.5849C385.117 50.788 392.836 35.5175 410.997 29.9287C415.78 28.458 420.004 29.7766 423.443 33.4636C423.676 33.7121 423.899 33.9657 424.143 34.1989C424.635 34.6757 425.208 35.264 425.877 34.6807C426.694 33.9758 426.121 33.2709 425.538 32.7586C421.612 29.3303 417.18 26.9923 411.87 28.4326C394.079 33.2658 383.789 47.8465 388.779 67.0879C389.332 69.2129 389.682 70.6025 387.663 72.2609C385.498 74.0359 384.747 76.947 383.672 79.5183C383.52 79.8834 383.281 80.2131 383.058 80.6137C382.105 79.8885 382.465 78.9756 382.45 78.1996C382.303 69.4309 383.86 60.8905 385.908 52.4159C386.025 51.924 386.203 51.427 386.208 50.935C386.228 49.8041 385.756 48.876 384.559 48.7391C383.231 48.5869 382.364 49.4186 382.429 50.6815C382.962 60.4239 380.147 69.9939 380.979 79.7414C381.136 81.5874 381.486 83.4183 381.755 85.2592C381.866 86.0301 382.009 86.8669 382.987 86.9126C384.113 86.9633 384.301 86.0555 384.448 85.1984C384.889 82.6981 385.503 80.2435 386.395 77.8599C386.903 76.5108 387.521 75.2176 388.475 74.112C388.931 73.5845 390.021 72.9861 390.113 73.3158C390.691 75.4509 393.78 75.6132 393.749 78.1337C393.739 79.1278 393.643 80.3906 395.022 80.5123C396.478 80.6391 396.807 79.3205 396.954 78.2707C397.7 73.0013 398.349 67.7218 399.018 62.4474C399.105 61.7628 399.084 60.784 398.359 60.7231C396.021 60.5304 397.03 59.1509 397.36 58.1214C398.177 55.5653 399.12 53.0549 400.996 50.9705L401.012 50.9756ZM430.006 42.9372C433.956 46.7358 434.382 48.5666 432.475 53.3085C431.623 55.4284 430.619 57.4672 429.179 59.2574C426.379 62.7416 422.662 64.613 418.032 65.7084C422.129 57.9135 426.035 50.4887 430.006 42.9372ZM437.41 41.3853C441.198 51.2241 444.804 60.5811 448.415 69.9432C448.877 71.1401 448.349 71.4697 447.234 71.3632C444.525 71.1046 443.141 69.1672 441.949 67.0879C439.185 62.2547 438.287 56.7775 436.685 51.5386C435.655 48.1711 436.193 45.0673 437.405 41.3904L437.41 41.3853ZM395.402 72.6311C394.86 69.1317 395.651 65.82 396.706 62.5438C397.046 66.0026 396.528 69.3549 395.402 72.6311Z" fill="#D15EA8"/>
<path d="M435.128 72.1746C435.077 73.5693 435.168 74.6393 436.396 74.9183C437.613 75.1972 438.186 74.2945 438.597 73.3157C438.759 72.9303 438.86 72.5245 439.013 72.134C439.444 71.0386 439.981 69.9431 439.013 68.8629C438.526 68.3202 437.887 68.1224 437.192 68.3506C435.797 68.8071 435.386 69.9685 435.199 71.2617C435.138 71.6725 435.133 72.0934 435.128 72.1695V72.1746Z" fill="#D15EA8"/>
<path d="M410.612 105.769C412.088 105.758 414.466 103.329 414.395 102.011C414.34 100.92 413.731 100.296 412.641 100.225C411.276 100.139 409.02 102.487 409.045 103.978C409.06 105.069 409.618 105.703 410.612 105.769Z" fill="#D15EA8"/>
<path d="M420.283 73.5337C420.288 74.8472 420.664 76.0593 422.028 75.8362C424.163 75.4862 424.407 73.483 424.665 71.784C424.838 70.6784 424.163 69.6945 422.966 69.7605C420.542 69.8923 420.654 71.9717 420.278 73.5337H420.283Z" fill="#D15EA8"/>
<path d="M676.731 122.805C676.731 125.864 676.669 128.929 676.756 131.988C676.797 133.337 676.337 134.159 675.198 134.889C672.088 136.876 668.701 138.214 665.244 139.389C663.272 140.058 661.827 139.364 661.387 137.295C660.294 132.111 657.454 130.252 651.509 130.328C645.395 130.405 639.271 130.635 633.168 129.889C619.689 128.244 611.016 118.816 609.423 106.272C607.758 93.1655 609.198 80.1564 614.372 67.7756C616.103 63.6385 618.504 59.9763 621.926 57.0292C626.748 52.8768 632.019 52.1566 637.77 54.9351C643.792 57.8516 648.961 61.9785 654.135 66.1463C667.935 77.2604 673.63 92.4709 676.164 109.316C676.838 113.795 676.771 118.3 676.731 122.805Z" fill="#AFEEEE"/>
<path d="M657.455 84.9474C657.424 85.3406 657.363 85.739 657.373 86.1272C657.445 88.3337 656.423 88.8342 654.482 88.063C651.178 86.7554 648.379 84.6664 645.876 82.2352C643.281 79.7172 640.39 77.383 639.175 73.7413C638.965 73.1182 635.717 73.3071 635.135 73.9711C633.567 75.7588 632.024 77.5771 630.482 79.3852C625.517 85.2079 619.301 88.6606 611.645 89.5033C609.367 89.7536 607.119 90.2337 604.857 90.6219C602.839 90.9692 602.231 90.2542 602.849 88.2264C604.014 84.4111 605.158 82.8686 609.321 79.5129C604.601 77.618 603.682 74.9058 606.552 70.5593C612.028 62.2696 620.026 58.0814 629.7 56.9373C631.498 56.7228 632.014 56.1405 631.871 54.455C631.764 53.1934 631.815 51.8961 631.978 50.6396C632.366 47.5955 634.277 46.4003 637.208 47.2839C639.966 48.1165 641.335 50.1646 641.851 52.841C642.188 54.5878 642.326 56.3652 642.561 58.1835C643.572 58.1223 643.664 57.0343 644.323 56.59C645.426 55.8443 646.739 55.4663 647.526 56.6104C650.074 60.3185 654.007 62.0347 657.72 64.0726C662.036 66.4425 665.504 69.5224 666.894 74.4768C667.982 78.3688 668.104 82.3578 668.181 86.3519C668.196 87.1743 667.92 88.0323 667.644 88.8291C667.169 90.2133 666.597 91.6179 664.948 91.9345C663.17 92.2768 662.409 90.8671 661.556 89.7178C660.351 88.0936 659.181 86.4337 657.996 84.7941C657.812 84.8401 657.634 84.8861 657.45 84.932L657.455 84.9474ZM641.105 58.9344C640.855 57.0854 640.702 55.2109 640.334 53.3824C639.992 51.6612 639.139 50.2004 637.402 49.4547C635.196 48.5047 633.873 49.2402 633.781 51.5999C633.725 52.9534 633.822 54.3222 633.955 55.6757C634.261 58.7709 634.072 58.9497 631.105 58.4338C630.196 58.2755 629.225 58.2295 628.311 58.3521C620.037 59.4196 613.397 63.3014 608.478 70.0587C607.676 71.162 606.982 72.3571 606.721 73.7158C606.256 76.1521 607.339 77.5056 609.806 77.5465C611.88 77.5822 613.815 77.1072 615.675 76.101C619.567 74.0018 623.52 72.02 627.468 70.0179C628.234 69.6297 629.128 69.2517 629.675 70.3141C630.068 71.0802 629.557 71.6676 628.903 71.9587C624.94 73.7209 621.569 76.7292 617.319 77.8172C613.892 78.6957 611.206 80.6876 608.417 82.6336C606.69 83.839 606.001 85.6522 605.327 87.4961C605.015 88.3541 605.255 88.6708 606.246 88.7168C617.192 89.2377 629.511 81.178 633.638 70.6563C634.333 68.8789 634.823 67.1525 637.321 68.0004C637.729 68.1383 638 67.7961 638.107 67.51C639.175 64.6957 641.504 62.2952 641.1 58.9293L641.105 58.9344ZM652.776 63.9858C653.961 66.9073 655.09 69.5633 656.122 72.2601C657.174 75.008 657.261 77.904 657.286 80.8C657.291 81.5304 657.756 82.0462 658.185 82.5825C659.728 84.503 661.255 86.4388 662.808 88.3541C663.329 88.9926 663.763 89.9732 664.728 89.8149C665.76 89.6463 666.112 88.6146 666.398 87.731C667.215 85.2232 666.725 82.6694 666.536 80.136C665.893 71.6012 661.541 66.4374 652.771 63.9858H652.776ZM655.662 78.0112C655.131 72.1477 652.97 67.2853 650.146 62.6885C649.676 61.9223 648.757 60.5688 647.909 61.2788C646.984 62.05 645.748 63.9347 646.346 64.7621C648.225 67.3721 647.684 70.4877 648.757 73.2305C650.238 77.0255 651.28 80.9992 654.099 84.125C654.595 84.6716 653.547 86.0455 654.758 85.9127C655.785 85.8003 655.427 84.4468 655.325 83.7266C655.029 81.653 653.108 79.5691 655.662 78.0061V78.0112ZM650.907 83.8033C648.011 79.0174 646.795 73.5063 643.797 68.5571C642.525 70.6257 640.952 72.5665 642.05 74.6147C644.098 78.4352 647.102 81.5457 650.912 83.8033H650.907ZM642.827 65.6764C645.033 63.3473 645.983 60.9059 645.488 58.8271C642.862 60.9672 642.347 62.2952 642.827 65.6764Z" fill="#D15EA8"/>
<path d="M645.069 99.5704C646.203 99.4887 646.795 99.407 647.388 99.407C651.509 99.407 653.445 101.818 652.608 105.894C651.152 112.978 644.078 118.244 636.994 117.376C632.826 116.865 629.705 114.326 626.732 111.583C626.038 110.94 625.486 109.551 624.368 110.051C623.387 110.485 623.147 111.752 622.897 112.881C621.916 117.34 619.96 121.339 617.156 124.976C612.743 130.701 601.812 127.243 599.677 123.162C598.339 120.609 599.126 118.152 600.796 116.032C603.028 113.203 606.016 111.257 609.469 110.506C617.672 108.733 625.343 105.592 632.974 102.231C636.968 100.469 641.212 99.55 645.074 99.5653L645.069 99.5704ZM638.276 115.961C644.537 115.792 649.185 112.125 650.902 106.016C651.841 102.666 650.406 100.817 646.785 100.817C639.496 100.817 633.03 103.513 626.799 106.971C626.191 107.308 625.706 107.549 626.165 108.514C627.933 112.207 634.113 116.078 638.276 115.966V115.961ZM618.147 111.124C615.159 111.364 612.028 111.721 609.004 112.651C606.358 113.463 603.947 114.714 602.242 116.987C600.137 119.797 600.571 122.882 603.615 124.572C608.978 127.545 614.566 127.897 618.106 121.656C619.326 119.505 620.511 117.355 621.17 114.955C622.12 111.492 621.793 111.042 618.141 111.129L618.147 111.124Z" fill="#D15EA8"/>
<path d="M631.314 133.291C629.833 133.189 628.663 132.443 628.03 130.992C627.044 128.745 626.084 126.482 625.175 124.199C624.756 123.142 624.623 122.034 625.583 121.135C626.13 120.624 626.783 120.522 627.468 120.833C628.689 121.395 628.786 122.509 628.76 123.632C628.709 125.696 629.026 127.688 629.899 129.567C630.522 130.911 631.421 131.335 632.698 130.282C633.444 129.669 634.322 128.51 635.185 129.792C635.931 130.906 634.639 131.559 633.929 132.218C633.234 132.867 632.402 133.281 631.319 133.281L631.314 133.291Z" fill="#D15EA8"/>
<path d="M651.596 122.172C652.807 122.33 654.078 122.647 653.992 124.189C653.905 125.691 652.556 125.956 651.356 126.043C650.094 126.14 649.119 125.532 649.124 124.189C649.129 122.698 650.248 122.248 651.601 122.172H651.596Z" fill="#D15EA8"/>
<path d="M429.722 521.974C426.215 522.471 422.708 522.95 419.161 523.185C417.213 523.312 416.758 522.535 416.588 520.888C416.006 515.29 415.85 509.692 416.056 504.066C416.276 498.046 416.57 492.015 415.924 485.992C415.594 482.9 414.579 480.071 412.527 477.771C404.998 469.322 402.606 458.748 400.334 448.184C399.294 443.353 398.662 438.398 398.407 433.436C397.651 418.619 401.026 405.18 411.608 394.159C414.721 390.914 417.859 387.705 421.412 384.926C423.918 382.963 426.626 382.676 429.601 383.535C433.942 384.791 437.222 387.546 439.916 390.996C446.121 398.944 450.363 407.931 453.866 417.341C457.632 427.461 459.269 437.983 460.281 448.649C460.692 453.008 460.824 457.378 460.987 461.751C461.207 467.565 458.598 472.19 455.268 476.589C454.558 475.729 455.055 474.888 455.361 474.09C456.23 471.832 456.94 469.525 457.774 467.004C456.472 468.545 455.002 469.493 453.565 470.472C450.146 472.805 446.604 474.956 443.278 477.419C435.561 483.123 431.479 490.911 430.251 500.329C429.562 505.603 429.065 510.882 429.061 516.217C429.061 518.194 429.867 520.018 429.725 521.974H429.722Z" fill="#AFEEEE"/>
<path d="M429.722 521.974C428.973 520.345 428.636 518.648 428.625 516.845C428.579 509.352 429.161 501.933 430.964 494.635C432.863 486.946 437.378 481.086 443.7 476.546C447.573 473.763 451.57 471.151 455.528 468.485C456.607 467.757 457.427 466.784 458.307 465.812C457.92 468.588 456.912 471.133 455.993 473.706C455.656 474.643 455.159 475.538 455.269 476.589C455.127 476.713 455.002 476.851 454.974 477.05C454.356 478.079 453.742 479.109 453.125 480.138C452.919 480.323 453.004 480.66 452.766 480.827V480.838C449.646 484.387 446.813 488.15 444.24 492.108C443.061 493.918 442.636 496.03 442.263 498.121C441.372 503.112 440.243 508.049 439.125 512.99C438.138 517.363 435.231 519.979 431.404 521.832C430.975 522.038 430.524 522.173 430.038 522.127C429.921 522.109 429.814 522.06 429.725 521.978L429.722 521.974Z" fill="#A0DADA"/>
<path d="M430.034 522.12C431.685 521.119 433.41 520.253 434.979 519.103C437.986 516.902 438.589 513.569 439.281 510.278C440.19 505.965 441.138 501.66 441.887 497.319C442.699 492.615 445.66 489.14 448.354 485.52C449.628 483.809 450.771 481.902 452.759 480.834C450.548 486.105 448.276 491.348 446.143 496.651C444.027 501.905 442.089 507.229 440.002 512.493C438.933 515.187 437.641 517.779 435.842 520.082C434.961 521.208 433.974 522.223 432.618 522.787C431.593 523.217 430.666 523.231 430.031 522.12H430.034Z" fill="#AFEEEE"/>
<path d="M452.766 480.823C452.72 480.507 452.844 480.28 453.125 480.135C453.146 480.44 453.061 480.685 452.766 480.823Z" fill="#AFEEEE"/>
<path d="M412.091 406.618C408.818 403.75 406.596 400.229 403.746 397.236C400.072 393.378 398.382 388.458 398.322 383.155C398.205 373.166 407.835 365.939 417.607 368.53C422.268 369.766 426.265 372.272 430.059 375.126C432.516 376.971 434.908 378.902 437.304 380.823C439.523 382.598 439.597 383.748 437.51 385.945C439.853 386.896 442.117 387.787 444.357 388.739C445.497 389.221 446.654 389.715 447.69 390.378C449.401 391.472 449.415 393.264 447.736 394.393C447.232 394.734 447.14 394.798 447.435 395.376C447.875 396.239 447.392 396.913 446.498 397.045C444.418 397.35 442.323 397.588 440.225 397.765C439.381 397.836 438.241 397.914 438.181 396.69C438.12 395.419 439.136 395.266 440.176 395.302C441.777 395.355 443.292 394.894 444.918 394.528C444.354 393.988 443.697 393.949 443.111 393.761C435.522 391.323 427.929 388.891 420.333 386.467C418.754 385.963 417.135 385.604 415.477 385.508C410.376 385.21 407.129 388.88 407.927 393.985C408.453 397.364 409.592 400.491 411.53 403.331C412.18 404.282 412.932 405.287 412.091 406.622V406.618ZM433.793 384.333C430.503 381.955 427.244 379.527 423.908 377.209C421.48 375.523 418.924 374.043 416.077 373.134C413.433 372.289 410.877 372.311 408.339 373.571C401.307 377.067 400.054 384.923 404.388 393.215C404.388 392.597 404.381 392.207 404.388 391.816C404.477 386.68 407.416 382.825 412.346 381.327C415.218 380.454 418.09 380.791 420.944 381.298C425.242 382.065 429.403 383.4 433.793 384.337V384.333Z" fill="#D15EA8"/>
<path d="M401.648 416.465C399.884 415.78 399.582 418.318 397.903 417.526C396.65 416.937 395.173 416.752 393.913 416.096C392.724 415.478 391.439 414.885 391.318 413.082C392.866 413.352 394.112 414.371 395.809 414.502C395.507 413.707 394.861 413.522 394.392 413.185C390.058 410.068 387.971 404.595 389.497 400.325C389.763 399.583 390.069 398.88 390.814 398.514C391.059 398.394 391.425 398.276 391.634 398.376C391.982 398.539 391.726 398.866 391.641 399.135C390.307 403.445 392.316 406.639 395.28 409.351C397.86 411.715 401.066 412.816 404.565 412.983C405.101 413.007 405.368 412.507 405.584 412.109C405.946 411.449 405.219 411.318 404.92 411.094C402.081 408.943 399.344 406.689 397.285 403.739C394.044 399.096 392.554 394.109 394.47 388.501C394.74 387.713 395.038 386.942 395.546 386.275C395.826 385.906 396.153 385.395 396.66 385.586C397.253 385.807 396.959 386.403 396.877 386.832C396.536 388.636 396.231 390.432 396.444 392.288C396.937 396.612 399.159 400.048 401.967 403.178C403.667 405.074 405.645 406.689 407.554 408.368C408.275 409.003 408.885 409.174 409.748 408.67C410.49 408.237 411.363 408.013 411.885 409.007C412.396 409.98 411.739 410.462 410.997 410.988C407.696 413.327 404.849 416.089 402.83 419.663C401.222 422.513 399.642 425.364 398.332 428.374C397.899 429.371 397.093 430.39 395.698 429.943C394.421 429.535 394.13 428.473 394.211 427.249C394.286 426.155 394.829 425.254 395.358 424.341C397.012 421.498 398.865 418.808 401.644 416.468L401.648 416.465Z" fill="#D15EA8"/>
<path d="M410.923 450.076C412.485 448.692 413.986 447.815 416.255 448.443C415.25 444.848 413.905 441.426 415.928 437.734C416.759 439.953 416.425 442.132 417.17 444.12C417.792 445.774 418.217 447.503 419.02 449.097C419.371 449.799 419.676 450.605 418.828 451.152C418.008 451.684 417.596 450.985 417.103 450.445C416.084 449.334 414.029 449.736 413.017 451.194C410.799 454.396 412.673 459.224 416.478 460.1C416.766 460.168 417.06 460.189 417.351 460.242C418.21 460.399 418.789 460.867 418.753 461.779C418.718 462.699 418.065 463.118 417.234 463.242C415.392 463.515 413.901 462.706 412.513 461.63C412.059 461.279 411.654 460.867 411.161 460.424C410.586 461.378 411.072 462.379 410.699 463.235C410.305 464.136 410.107 465.287 408.743 465.095C407.402 464.903 407.057 463.718 407.107 462.713C407.515 454.499 407.629 446.25 409.496 438.174C410.007 435.959 411.079 434.011 412.275 432.126C412.747 431.387 413.486 430.873 414.377 431.412C415.264 431.948 415.214 432.907 414.725 433.599C411.246 438.504 411.707 444.28 410.916 450.08L410.923 450.076Z" fill="#D15EA8"/>
<path d="M393.661 445.593C394.115 440.045 396.138 435.012 398.694 430.152C401.47 424.877 404.079 419.507 407.845 414.821C409.187 413.153 410.972 411.985 412.584 410.622C412.879 410.374 413.329 410.31 413.713 410.175C414.281 409.972 414.788 410.083 415.094 410.615C415.413 411.176 415.108 411.552 414.678 411.967C407.796 418.669 403.408 426.897 400.284 435.853C399.5 438.1 398.74 440.375 398.378 442.768C398.208 443.893 398.74 444.88 398.513 446.012C398.133 447.918 397.37 448.756 395.681 448.568C394.406 448.429 393.533 447.144 393.661 445.593Z" fill="#D15EA8"/>
<path d="M400.153 452.639C400.643 445.43 402.624 438.632 405.428 432.002C406.681 429.041 407.643 425.985 409.624 423.365C410.699 421.945 411.931 420.696 413.191 419.468C413.905 418.772 414.888 418.463 415.672 419.407C416.372 420.249 415.931 420.927 415.268 421.69C410.593 427.06 406.958 432.935 405.833 440.173C405.123 444.741 403.731 449.207 403.735 453.889C403.735 455.042 403.071 455.621 401.971 455.671C400.874 455.72 400.402 455.01 400.249 454.041C400.175 453.58 400.182 453.104 400.153 452.636V452.639Z" fill="#D15EA8"/>
<path d="M394.957 453.115C395.024 452.792 394.822 452.355 395.272 452.195C395.67 452.053 395.979 452.341 396.171 452.614C397.015 453.821 397.874 455.028 398.638 456.288C401.775 461.499 405.403 466.263 410.55 469.695C411.53 470.348 412.339 471.3 411.533 472.528C410.713 473.777 409.599 473.351 408.587 472.673C402.013 468.258 397.47 462.33 395.255 454.684C395.155 454.343 395.081 453.995 395.01 453.647C394.974 453.473 394.971 453.296 394.957 453.118V453.115Z" fill="#D15EA8"/>
<path d="M442.121 451.883C442.156 450.932 442.66 450.413 443.285 449.902C446.32 447.407 449.848 446.058 453.675 445.465C454.793 445.291 455.879 445.678 455.986 447.048C456.074 448.206 455.471 448.816 454.218 448.976C450.711 449.423 447.562 450.772 444.847 453.072C444.343 453.502 443.867 453.881 443.111 453.509C442.348 453.133 442.199 452.501 442.124 451.883H442.121Z" fill="#D15EA8"/>
<path d="M445.252 419.454C445.44 418.186 445.55 416.901 445.841 415.655C446.171 414.253 447.105 413.497 448.613 413.444C449.959 413.394 450.853 413.952 451.375 415.162C452.308 417.334 451.009 420.856 448.901 421.881C446.799 422.904 445.106 421.771 445.255 419.45L445.252 419.454Z" fill="#D15EA8"/>
<path d="M432.689 414.342C435.032 414.374 436.193 415.829 435.856 417.948C435.66 419.166 435.522 420.391 435.018 421.53C434.436 422.84 433.477 423.646 431.983 423.294C430.538 422.953 430.393 421.786 430.428 420.522C430.464 419.251 430.428 417.977 430.403 416.703C430.371 414.985 431.621 414.644 432.689 414.346V414.342Z" fill="#D15EA8"/>
<path d="M446.465 400.211C449.333 400.747 452.301 400.868 454.892 402.472C455.769 403.015 456.489 403.651 455.961 404.712C455.478 405.681 454.647 405.276 453.802 405.038C451.488 404.385 449.142 403.846 446.707 403.828C445.883 403.821 445.013 403.754 444.524 402.969C444.133 402.344 444.062 401.578 444.435 400.939C444.871 400.193 445.656 400.112 446.465 400.211Z" fill="#D15EA8"/>
</svg>
