<svg width="31" height="30" viewBox="0 0 31 30" fill="none" xmlns="http://www.w3.org/2000/svg">
<circle cx="15.7812" cy="15" r="15" fill="#222222"/>
<g clip-path="url(#clip0_564_8135)">
<path d="M15.5079 17.065C17.9824 17.065 19.9884 15.059 19.9884 12.5845C19.9884 10.1099 17.9824 8.10394 15.5079 8.10394C13.0333 8.10394 11.0273 10.1099 11.0273 12.5845C11.0273 15.059 13.0333 17.065 15.5079 17.065Z" stroke="#F6F6F6" stroke-width="0.5" stroke-linecap="round" stroke-linejoin="round"/>
<path d="M7.85547 24.0546C8.65522 22.7418 9.77924 21.6568 11.1195 20.9041C12.4597 20.1511 13.971 19.7557 15.5082 19.7557C17.0454 19.7557 18.5567 20.1511 19.8969 20.9041C21.2372 21.6568 22.3611 22.7418 23.161 24.0546" stroke="#F6F6F6" stroke-width="0.5" stroke-linecap="round" stroke-linejoin="round"/>
<path d="M15.5087 26.9221C21.9426 26.9221 27.1581 21.7066 27.1581 15.2728C27.1581 8.83901 21.9426 3.62341 15.5087 3.62341C9.07497 3.62341 3.85938 8.83901 3.85938 15.2728C3.85938 21.7066 9.07497 26.9221 15.5087 26.9221Z" stroke="#F6F6F6" stroke-width="0.5" stroke-linecap="round" stroke-linejoin="round"/>
</g>
<defs>
<clipPath id="clip0_564_8135">
<rect width="25.0909" height="25.0909" fill="white" transform="translate(2.96484 2.72729)"/>
</clipPath>
</defs>
</svg>
